# Created by Kenney (www.kenney.nl)

mtllib tile_stone_3.mtl

g mergedBlocks

v 0.5 0 0.5
v 0.5 0 -0.5
v -0.5 0 0.5
v -0.5 0 -0.5
v 0.5 0.2 -0.5
v 0.5 0.2 0.5
v -0.5 0.2 -0.5
v -0.5 0.2 0.5

vn 0 -1 0
vn 0 1 0
vn 1 0 0
vn 0 0 1
vn -1 0 0
vn 0 0 -1

vt -0.5 -0.5
vt -0.5 0.5
vt 0.5 -0.5
vt 0.5 0.5
vt 0.5 0.2
vt 0.5 0
vt -0.5 0.2
vt -0.5 0

usemtl custom10(Clone)

f 3/3/1 2/2/1 1/1/1
f 2/2/1 3/3/1 4/4/1
f 7/3/2 6/2/2 5/1/2
f 6/2/2 7/3/2 8/4/2
f 6/7/3 2/6/3 5/5/3
f 2/6/3 6/7/3 1/8/3
f 6/5/4 3/8/4 1/6/4
f 3/8/4 6/5/4 8/7/4
f 3/6/5 7/7/5 4/8/5
f 7/7/5 3/6/5 8/5/5
f 7/5/6 2/8/6 4/6/6
f 2/8/6 7/5/6 5/7/6

