# Blender v2.91.0 OBJ File: 'gems.blend'
# www.blender.org
mtllib platform-free-hover.mtl
o Cube.004_Cube.008
v -5.000000 0.000000 1.000000
v -4.900000 0.200000 0.900000
v -5.000000 0.000000 -1.000000
v -4.900000 0.200000 -0.900000
v -3.000000 0.000000 1.000000
v -3.100000 0.200000 0.900000
v -3.000000 0.000000 -1.000000
v -3.100000 0.200000 -0.900000
v -3.666667 0.000000 -1.000000
v -4.333333 0.000000 -1.000000
v -4.300000 0.200000 -0.900000
v -3.700000 0.200000 -0.900000
v -4.333333 0.000000 1.000000
v -3.666667 0.000000 1.000000
v -3.700000 0.200000 0.900000
v -4.300000 0.200000 0.900000
v -5.000000 0.000000 -0.333333
v -5.000000 0.000000 0.333333
v -4.900000 0.200000 0.300000
v -4.900000 0.200000 -0.300000
v -3.000000 0.000000 0.333333
v -3.000000 0.000000 -0.333333
v -3.100000 0.200000 -0.300000
v -3.100000 0.200000 0.300000
v -3.700000 0.200000 -0.300000
v -3.700000 0.200000 0.300000
v -4.300000 0.200000 -0.300000
v -4.300000 0.200000 0.300000
v -4.333333 0.000000 -0.333333
v -4.333333 0.000000 0.333333
v -3.666667 0.000000 -0.333333
v -3.666667 0.000000 0.333333
v -3.700000 1.200000 -0.300000
v -3.700000 1.200000 0.300000
v -4.300000 1.200000 -0.300000
v -4.300000 1.200000 0.300000
vt 0.375000 0.166667
vt 0.625000 0.166667
vt 0.625000 0.250000
vt 0.375000 0.250000
vt 0.375000 0.416667
vt 0.625000 0.416667
vt 0.625000 0.500000
vt 0.375000 0.500000
vt 0.375000 0.666667
vt 0.625000 0.666667
vt 0.625000 0.750000
vt 0.375000 0.750000
vt 0.375000 0.916667
vt 0.625000 0.916667
vt 0.625000 1.000000
vt 0.375000 1.000000
vt 0.291667 0.666667
vt 0.291667 0.750000
vt 0.791667 0.666667
vt 0.875000 0.666667
vt 0.875000 0.750000
vt 0.791667 0.750000
vt 0.708333 0.666667
vt 0.708333 0.750000
vt 0.125000 0.666667
vt 0.208333 0.666667
vt 0.208333 0.750000
vt 0.125000 0.750000
vt 0.625000 0.833333
vt 0.375000 0.833333
vt 0.625000 0.333333
vt 0.375000 0.333333
vt 0.208333 0.500000
vt 0.291667 0.500000
vt 0.291667 0.583333
vt 0.208333 0.583333
vt 0.125000 0.500000
vt 0.125000 0.583333
vt 0.708333 0.500000
vt 0.791667 0.500000
vt 0.791667 0.583333
vt 0.708333 0.583333
vt 0.791667 0.666667
vt 0.791667 0.583333
vt 0.625000 0.583333
vt 0.875000 0.500000
vt 0.875000 0.583333
vt 0.375000 0.583333
vt 0.375000 0.000000
vt 0.625000 0.000000
vt 0.625000 0.083333
vt 0.375000 0.083333
vt 0.708333 0.583333
vt 0.708333 0.666667
vn -0.8944 0.4472 0.0000
vn 0.0000 0.4472 -0.8944
vn 0.8944 0.4472 0.0000
vn 0.0000 0.4472 0.8944
vn 0.0000 -1.0000 0.0000
vn 0.0000 1.0000 0.0000
vn -1.0000 0.0000 0.0000
vn 1.0000 0.0000 0.0000
vn 0.0000 0.0000 -1.0000
vn 0.0000 0.0000 1.0000
usemtl None
s off
f 17/1/1 20/2/1 4/3/1 3/4/1
f 9/5/2 12/6/2 8/7/2 7/8/2
f 21/9/3 24/10/3 6/11/3 5/12/3
f 13/13/4 16/14/4 2/15/4 1/16/4
f 32/17/5 21/9/5 5/12/5 14/18/5
f 28/19/6 19/20/6 2/21/6 16/22/6
f 24/10/6 26/23/6 15/24/6 6/11/6
f 26/23/6 28/19/6 16/22/6 15/24/6
f 18/25/5 30/26/5 13/27/5 1/28/5
f 30/26/5 32/17/5 14/18/5 13/27/5
f 5/12/4 6/11/4 15/29/4 14/30/4
f 14/30/4 15/29/4 16/14/4 13/13/4
f 3/4/2 4/3/2 11/31/2 10/32/2
f 10/32/2 11/31/2 12/6/2 9/5/2
f 10/33/5 9/34/5 31/35/5 29/36/5
f 29/36/5 31/35/5 32/17/5 30/26/5
f 3/37/5 10/33/5 29/36/5 17/38/5
f 17/38/5 29/36/5 30/26/5 18/25/5
f 12/39/6 11/40/6 27/41/6 25/42/6
f 27/41/7 28/19/7 36/43/7 35/44/7
f 8/7/6 12/39/6 25/42/6 23/45/6
f 23/45/6 25/42/6 26/23/6 24/10/6
f 11/40/6 4/46/6 20/47/6 27/41/6
f 27/41/6 20/47/6 19/20/6 28/19/6
f 9/34/5 7/8/5 22/48/5 31/35/5
f 31/35/5 22/48/5 21/9/5 32/17/5
f 7/8/3 8/7/3 23/45/3 22/48/3
f 22/48/3 23/45/3 24/10/3 21/9/3
f 1/49/1 2/50/1 19/51/1 18/52/1
f 18/52/1 19/51/1 20/2/1 17/1/1
f 33/53/6 35/44/6 36/43/6 34/54/6
f 26/23/8 25/42/8 33/53/8 34/54/8
f 25/42/9 27/41/9 35/44/9 33/53/9
f 28/19/10 26/23/10 34/54/10 36/43/10
