# Blender v2.91.0 OBJ File: 'gems.blend'
# www.blender.org
mtllib gems.mtl
o Plane_Plane.001
v -0.314619 0.000000 0.943858
v 0.314619 0.000000 0.943858
v 0.314619 0.000000 -0.943858
v -0.314619 0.000000 -0.943858
v -0.943858 0.000000 0.000000
v 0.943858 0.000000 0.000000
v -0.314619 0.943858 0.000000
v 0.327406 0.941014 -0.005183
vt 0.666667 1.000000
vt 0.666667 0.500000
vt 0.000000 0.000000
vt 0.666667 0.000000
vt 0.333333 0.500000
vt 0.333333 1.000000
vt 0.333333 0.000000
vt 0.000000 0.000000
vn 0.7315 0.4765 -0.4877
vn 0.7296 0.4807 0.4864
vn -0.0013 0.7067 -0.7075
vn 0.0045 0.7086 0.7056
vn -0.7276 0.4851 0.4851
vn -0.7276 0.4851 -0.4851
usemtl Material.001
s off
f 3/1/1 8/2/1 6/3/1
f 6/3/2 8/2/2 2/4/2
f 7/5/3 8/2/3 3/1/3 4/6/3
f 1/7/4 2/4/4 8/2/4 7/5/4
f 7/5/5 5/8/5 1/7/5
f 4/6/6 5/8/6 7/5/6
