# Created by Kenney (www.kenney.nl)

mtllib flying_00_00.mtl

g mergedBlocks

v -0.1999981 -0.158 -0.75
v 0.2000019 -0.158 -0.75
v -0.1999981 0.142 -0.75
v 0.2000019 0.142 -0.75
v 0.3000019 -0.158 -0.45
v -0.2999981 -0.158 -0.45
v -0.2999981 0.242 -0.45
v 0.3000019 0.242 -0.45
v 1.914978E-06 -0.2420002 -0.76
v 1.899719E-06 -0.1139998 -0.76
v -0.8120012 -0.2260002 -0.76
v -0.8120012 -0.1299999 -0.76
v 1.914978E-06 -0.2420002 0.76
v 1.899719E-06 -0.1139998 0.76
v 1.899719E-06 -0.2420001 -0.76
v 1.914978E-06 -0.1139998 -0.76
v 0.8120043 -0.2260002 -0.76
v 0.8120043 -0.1299999 -0.76
v 1.899719E-06 -0.2420001 0.76
v 1.914978E-06 -0.1139998 0.76
v 0.6000019 -0.108 -0.4963589
v 0.6000019 -0.108 -0.03164098
v 0.5378699 -0.108 -0.5231999
v 0.5378699 -0.108 -0.004799932
v 0.4500019 -0.108 -0.4584
v -0.5378661 -0.108 -0.5231999
v 0.07500191 -0.108 -0.4584
v -0.0749981 -0.108 -0.4584
v 0.07500191 -0.108 -0.06959993
v -0.4499981 -0.108 -0.4584
v -0.4499981 -0.108 -0.06959993
v 0.4500019 -0.108 -0.06959993
v -0.5378661 -0.108 -0.004799932
v -0.0749981 -0.108 -0.06959993
v -0.5999981 -0.108 -0.4963589
v -0.5999981 -0.108 -0.03164098
v -0.4499981 -0.158 -0.06959993
v -0.0749981 -0.158 -0.06959993
v -0.0749981 -0.158 -0.4584
v -0.4499981 -0.158 -0.4584
v 0.4500019 -0.158 -0.4584
v 0.07500191 -0.158 -0.4584
v 0.07500191 -0.158 -0.06959993
v 0.4500019 -0.158 -0.06959993
v 0.4000019 -0.158 -0.15
v 0.2000019 -0.158 0.25
v -0.1999981 -0.158 0.25
v -0.3999981 -0.158 -0.15
v 0.4000019 0.142 -0.15
v 0.2000019 -0.05799999 0.25
v -0.1999981 -0.05799999 0.25
v 0.3000019 0.242 -0.15
v -0.2999981 0.242 -0.15
v -0.3999981 0.142 -0.15
v 0.3000019 0.142 -0.15
v 0.7500019 -0.158 -0.004799932
v 0.7500019 -0.158 -0.5231999
v 0.6000019 -0.158 0.06000006
v 0.6000019 -0.158 -0.5879999
v -0.5999981 -0.158 0.06000006
v -0.5999981 -0.158 -0.5879999
v -0.7499981 -0.158 -0.004799932
v -0.7499981 -0.158 -0.5231999
v 0.6000019 -0.05799999 0.06000006
v -0.5999981 -0.05799999 0.06000006
v 0.7500019 -0.05799999 -0.5231999
v 0.7500019 -0.05799999 -0.004799932
v -0.5999981 -0.05799999 -0.5879999
v 0.6000019 -0.05799999 -0.5879999
v -0.7499981 -0.05799999 -0.5231999
v -0.7499981 -0.05799999 -0.004799932
v 0.6000019 -0.05799999 -0.4963589
v 0.5378699 -0.05799999 -0.5231999
v -0.5378661 -0.05799999 -0.5231999
v -0.5999981 -0.05799999 -0.4963589
v -0.5999981 -0.05799999 -0.03164098
v 0.6000019 -0.05799999 -0.03164098
v 0.5378699 -0.05799999 -0.004799932
v -0.5378661 -0.05799999 -0.004799932

vn 0 0 -1
vn 0 -1 0
vn -0.9486833 0 -0.3162278
vn 0 0.9486833 -0.3162278
vn 0.9486833 0 -0.3162278
vn -0.01970048 -0.9998059 0
vn -0.01970072 0.9998059 0
vn 1 1.192093E-07 0
vn -0.8820307 -1.051462E-07 0.4711919
vn 0.01970049 -0.9998059 0
vn 0.01970072 0.9998059 0
vn -1 1.192093E-07 0
vn 0.8820309 -1.051463E-07 0.4711915
vn 0 1 0
vn -1 0 0
vn 0 0 1
vn 1 0 0
vn 0.8944272 0 0.4472136
vn 0.7071068 0.7071068 0
vn 0 0.8 0.6
vn 0.5773503 0.5773503 0.5773503
vn -0.5773503 0.5773503 0.5773503
vn -0.7071068 0.7071068 0
vn -0.8944272 0 0.4472136
vn -0.3965767 0 0.9180017
vn 0.3965767 0 0.9180017
vn 0.3965767 0 -0.9180017
vn -0.3965767 0 -0.9180017

vt 0.1999981 -0.158
vt -0.2000019 -0.158
vt 0.1999981 0.142
vt -0.2000019 0.142
vt -0.3000019 0.45
vt -0.2000019 0.75
vt 0.2999981 0.45
vt 0.1999981 0.75
vt -0.75 -0.158
vt -0.75 0.142
vt -0.45 -0.158
vt -0.45 0.242
vt -0.3000019 -0.45
vt 0.2999981 -0.45
vt -0.2000019 -0.75
vt 0.1999981 -0.75
vt 0.75 0.142
vt 0.75 -0.158
vt 0.45 0.242
vt 0.45 -0.158
vt -1.914978E-06 -0.2420002
vt -1.899719E-06 -0.1139998
vt 0.8120011 -0.2260002
vt 0.8120012 -0.1299999
vt -1.914978E-06 0.76
vt 0.8120011 0.76
vt -1.914978E-06 -0.76
vt 0.8120012 -0.76
vt -1.899719E-06 -0.76
vt -1.899719E-06 0.76
vt -0.76 -0.1139998
vt 0.76 -0.1139998
vt -0.76 -0.2420002
vt 0.76 -0.2420002
vt -0.76 -0.1299999
vt -0.76 -0.2260002
vt 1.899719E-06 -0.2420001
vt 1.914978E-06 -0.1139998
vt 0.8120043 -0.2260002
vt 0.8120043 -0.1299999
vt -0.8120043 -0.76
vt -0.8120043 0.76
vt -0.76 -0.1139998
vt 0.76 -0.1139998
vt -0.76 -0.2420001
vt 0.76 -0.2420001
vt -0.76 -0.1299999
vt -0.76 -0.2260002
vt -0.6000019 -0.4963589
vt -0.6000019 -0.03164097
vt -0.5378699 -0.5231999
vt -0.5378699 -0.004799935
vt -0.4500019 -0.4584
vt 0.5378661 -0.5231999
vt -0.07500191 -0.4584
vt 0.0749981 -0.4584
vt -0.07500191 -0.06959993
vt 0.4499981 -0.4584
vt 0.4499981 -0.06959993
vt -0.4500019 -0.06959993
vt 0.5378661 -0.004799935
vt 0.0749981 -0.06959993
vt 0.5999981 -0.4963589
vt 0.5999981 -0.03164097
vt 0.4499981 -0.158
vt 0.0749981 -0.158
vt 0.4499981 -0.108
vt 0.0749981 -0.108
vt -0.4584 -0.158
vt -0.4584 -0.108
vt -0.06959993 -0.158
vt -0.06959993 -0.108
vt -0.0749981 -0.158
vt -0.4499981 -0.158
vt -0.0749981 -0.108
vt -0.4499981 -0.108
vt 0.4584 -0.108
vt 0.4584 -0.158
vt 0.06959993 -0.108
vt 0.06959993 -0.158
vt 0.4500019 -0.158
vt 0.07500191 -0.158
vt 0.4500019 -0.108
vt 0.07500191 -0.108
vt -0.07500191 -0.158
vt -0.4500019 -0.158
vt -0.07500191 -0.108
vt -0.4500019 -0.108
vt -0.4000019 0.15
vt -0.2000019 -0.25
vt 0.1999981 -0.25
vt 0.3999981 0.15
vt 0.15 0.142
vt 0.15 -0.158
vt 0.2000019 -0.158
vt -0.1999981 -0.158
vt 0.2000019 -0.05799999
vt -0.1999981 -0.05799999
vt -0.25 -0.05799999
vt -0.25 -0.158
vt -0.4000019 -0.15
vt -0.3000019 -0.15
vt -0.2000019 0.25
vt 0.2999981 -0.15
vt 0.1999981 0.25
vt 0.3000019 0.242
vt 0.4000019 0.142
vt -0.2999981 0.242
vt -0.3999981 0.142
vt 0.3999981 -0.15
vt -0.15 -0.158
vt -0.15 0.142
vt 0.25 -0.158
vt 0.25 -0.05799999
vt 0.3000019 0.142
vt -0.7500019 0.004799935
vt -0.7500019 0.5231999
vt -0.6000019 -0.06000006
vt -0.6000019 0.5879999
vt -0.4500019 0.06959993
vt 0.5999981 -0.06000006
vt -0.07500191 0.06959993
vt 0.0749981 0.06959993
vt -0.07500191 0.4584
vt 0.4499981 0.06959993
vt 0.4499981 0.4584
vt -0.4500019 0.4584
vt 0.5999981 0.5879999
vt 0.0749981 0.4584
vt 0.7499981 0.004799935
vt 0.7499981 0.5231999
vt 0.6000019 -0.158
vt -0.5999981 -0.158
vt 0.6000019 -0.05799999
vt -0.5999981 -0.05799999
vt 0.5231999 -0.05799999
vt 0.5231999 -0.158
vt 0.004799935 -0.05799999
vt 0.004799935 -0.158
vt 0.5999981 -0.158
vt -0.6000019 -0.158
vt 0.5999981 -0.05799999
vt -0.6000019 -0.05799999
vt -0.5231999 -0.158
vt -0.5231999 -0.05799999
vt -0.004799935 -0.158
vt -0.004799935 -0.05799999
vt -0.6000019 -0.5879999
vt 0.5999981 -0.5879999
vt 0.7499981 -0.5231999
vt 0.5999981 0.06000006
vt 0.7499981 -0.004799935
vt -0.6000019 0.06000006
vt -0.7500019 -0.004799935
vt -0.7500019 -0.5231999
vt -0.7499981 -0.158
vt -0.7499981 -0.05799999
vt 0.7500019 -0.05799999
vt 0.7500019 -0.158
vt -0.7500019 -0.05799999
vt -0.7500019 -0.158
vt 0.7499981 -0.158
vt 0.7499981 -0.05799999
vt 0.4963589 -0.05799999
vt 0.4963589 -0.108
vt 0.03164097 -0.05799999
vt 0.03164097 -0.108
vt 0.5999981 -0.108
vt 0.5378661 -0.05799999
vt 0.5378661 -0.108
vt -0.6000019 -0.108
vt -0.5378699 -0.108
vt -0.5378699 -0.05799999
vt -0.4963589 -0.108
vt -0.4963589 -0.05799999
vt -0.03164097 -0.108
vt -0.03164097 -0.05799999
vt 0.5378699 -0.108
vt 0.5378699 -0.05799999
vt 0.6000019 -0.108
vt -0.5378661 -0.05799999
vt -0.5378661 -0.108
vt -0.5999981 -0.108

usemtl metalPurple(Clone)

f 3/3/1 2/2/1 1/1/1
f 2/2/1 3/3/1 4/4/1
f 6/7/2 2/6/2 5/5/2
f 2/6/2 6/7/2 1/8/2
f 6/11/3 3/10/3 1/9/3
f 3/10/3 6/11/3 7/12/3
f 4/15/4 7/14/4 8/13/4
f 7/14/4 4/15/4 3/16/4
f 8/19/5 2/18/5 4/17/5
f 2/18/5 8/19/5 5/20/5
f 11/23/1 10/22/1 9/21/1
f 10/22/1 11/23/1 12/24/1
f 13/27/6 11/26/6 9/25/6
f 14/30/7 10/29/7 12/28/7
f 13/33/8 10/32/8 14/31/8
f 10/32/8 13/33/8 9/34/8
f 12/35/9 13/34/9 14/32/9
f 13/34/9 12/35/9 11/36/9
f 17/48/13 18/47/13 19/46/13
f 20/44/13 19/46/13 18/47/13
f 15/46/12 19/45/12 16/44/12
f 20/43/12 16/44/12 19/45/12
f 18/42/11 16/25/11 20/27/11
f 15/29/10 17/41/10 19/30/10
f 18/40/1 17/39/1 16/38/1
f 15/37/1 16/38/1 17/39/1
f 23/51/14 22/50/14 21/49/14
f 22/50/14 23/51/14 24/52/14
f 24/52/14 23/51/14 25/53/14
f 25/53/14 23/51/14 26/54/14
f 25/53/14 26/54/14 27/55/14
f 27/55/14 26/54/14 28/56/14
f 27/55/14 28/56/14 29/57/14
f 28/56/14 26/54/14 30/58/14
f 30/58/14 26/54/14 31/59/14
f 32/60/14 24/52/14 25/53/14
f 24/52/14 32/60/14 33/61/14
f 33/61/14 32/60/14 29/57/14
f 33/61/14 31/59/14 26/54/14
f 33/61/14 29/57/14 34/62/14
f 34/62/14 29/57/14 28/56/14
f 33/61/14 34/62/14 31/59/14
f 33/61/14 26/54/14 35/63/14
f 33/61/14 35/63/14 36/64/14
f 31/67/1 38/66/1 37/65/1
f 38/66/1 31/67/1 34/68/1
f 38/71/15 28/70/15 39/69/15
f 28/70/15 38/71/15 34/72/15
f 28/75/16 40/74/16 39/73/16
f 40/74/16 28/75/16 30/76/16
f 31/79/17 40/78/17 30/77/17
f 40/78/17 31/79/17 37/80/17
f 25/83/16 42/82/16 41/81/16
f 42/82/16 25/83/16 27/84/16
f 29/79/17 42/78/17 27/77/17
f 42/78/17 29/79/17 43/80/17
f 29/87/1 44/86/1 43/85/1
f 44/86/1 29/87/1 32/88/1
f 44/71/15 25/70/15 41/69/15
f 25/70/15 44/71/15 32/72/15

usemtl shield(Clone)

f 46/90/2 5/5/2 45/89/2
f 5/5/2 46/90/2 6/7/2
f 6/7/2 46/90/2 47/91/2
f 6/7/2 47/91/2 48/92/2
f 49/93/5 5/20/5 8/19/5
f 5/20/5 49/93/5 45/94/5
f 50/97/16 47/96/16 46/95/16
f 47/96/16 50/97/16 51/98/16
f 50/99/18 45/94/18 49/93/18
f 45/94/18 50/99/18 46/100/18
f 52/102/19 49/101/19 8/13/19
f 53/104/20 50/103/20 52/102/20
f 50/103/20 53/104/20 51/105/20
f 50/97/21 49/107/21 52/106/21
f 54/109/22 51/98/22 53/108/22
f 54/110/23 53/104/23 7/14/23
f 7/14/14 52/102/14 8/13/14
f 52/102/14 7/14/14 53/104/14
f 47/113/24 54/112/24 48/111/24
f 54/112/24 47/113/24 51/114/24
f 48/111/3 7/12/3 6/11/3
f 7/12/3 48/111/3 54/112/3

usemtl _defaultMat(Clone)

f 52/106/16 55/115/16 49/107/16
f 58/118/2 57/117/2 56/116/2
f 57/117/2 58/118/2 59/119/2
f 59/119/2 58/118/2 44/120/2
f 44/120/2 58/118/2 60/121/2
f 44/120/2 60/121/2 43/122/2
f 43/122/2 60/121/2 38/123/2
f 43/122/2 38/123/2 42/124/2
f 38/123/2 60/121/2 37/125/2
f 37/125/2 60/121/2 40/126/2
f 41/127/2 59/119/2 44/120/2
f 59/119/2 41/127/2 61/128/2
f 61/128/2 41/127/2 42/124/2
f 61/128/2 40/126/2 60/121/2
f 61/128/2 42/124/2 39/129/2
f 39/129/2 42/124/2 38/123/2
f 61/128/2 39/129/2 40/126/2
f 61/128/2 60/121/2 62/130/2
f 61/128/2 62/130/2 63/131/2
f 64/134/16 60/133/16 58/132/16
f 60/133/16 64/134/16 65/135/16
f 67/138/17 57/137/17 66/136/17
f 57/137/17 67/138/17 56/139/17
f 68/142/1 59/141/1 61/140/1
f 59/141/1 68/142/1 69/143/1
f 62/146/15 70/145/15 63/144/15
f 70/145/15 62/146/15 71/147/15
f 69/148/14 73/51/14 72/49/14
f 73/51/14 69/148/14 68/149/14
f 73/51/14 68/149/14 74/54/14
f 74/54/14 68/149/14 75/63/14
f 75/63/14 68/149/14 70/150/14
f 75/63/14 70/150/14 76/64/14
f 76/64/14 70/150/14 65/151/14
f 65/151/14 70/150/14 71/152/14
f 64/134/14 69/134/14 72/134/14
f 67/154/14 69/148/14 64/153/14
f 69/148/14 67/154/14 66/155/14
f 64/134/14 72/134/14 77/134/14
f 64/153/14 77/50/14 78/52/14
f 64/153/14 78/52/14 65/151/14
f 65/151/14 78/52/14 79/61/14
f 65/151/14 79/61/14 76/64/14
f 60/133/25 71/157/25 62/156/25
f 71/157/25 60/133/25 65/135/25
f 64/134/26 56/159/26 67/158/26
f 56/159/26 64/134/26 58/132/26
f 66/160/27 59/141/27 69/143/27
f 59/141/27 66/160/27 57/161/27
f 63/162/28 68/142/28 61/140/28
f 68/142/28 63/162/28 70/163/28
f 76/166/17 35/165/17 75/164/17
f 35/165/17 76/166/17 36/167/17
f 79/169/27 36/168/27 76/142/27
f 36/168/27 79/169/27 33/170/27
f 24/172/28 77/143/28 22/171/28
f 77/143/28 24/172/28 78/173/28
f 22/176/15 72/175/15 21/174/15
f 72/175/15 22/176/15 77/177/15
f 21/180/25 73/179/25 23/178/25
f 73/179/25 21/180/25 72/134/25
f 75/135/26 26/182/26 74/181/26
f 26/182/26 75/135/26 35/183/26
f 79/169/1 24/172/1 33/170/1
f 24/172/1 79/169/1 78/173/1
f 73/179/16 26/182/16 23/178/16
f 26/182/16 73/179/16 74/181/16

