# Created by Kenney (www.kenney.nl)

mtllib walking_00_00.mtl

g mergedBlocks

v 0.5 0.4 0.4
v 0.5 0.4 -0.4
v 0.4 0.4 0.5
v 0.4 0.4 -0.5
v 0.3 0.4 0.3
v -0.4 0.4 0.5
v 0.05 0.4 0.3
v -0.05 0.4 0.3
v 0.05 0.4 -0.3
v -0.3 0.4 0.3
v -0.3 0.4 -0.3
v 0.3 0.4 -0.3
v -0.4 0.4 -0.5
v -0.05 0.4 -0.3
v -0.5 0.4 0.4
v -0.5 0.4 -0.4
v 0.4 0.5 0.5
v -0.4 0.5 0.5
v 0.5 0.5 -0.4
v 0.5 0.5 0.4
v -0.4 0.5 -0.5
v 0.4 0.5 -0.5
v -0.5 0.5 -0.4
v -0.5 0.5 0.4
v 0.4 0.5 -0.3585787
v 0.3585787 0.5 -0.4
v -0.3585787 0.5 -0.4
v -0.4 0.5 -0.3585787
v -0.4 0.5 0.3585787
v 0.4 0.5 0.3585787
v 0.3585787 0.5 0.4
v -0.3585787 0.5 0.4
v -0.4 0.45 -0.3585787
v -0.4 0.45 0.3585787
v -0.3585787 0.45 0.4
v 0.4 0.45 0.3585787
v 0.3585787 0.45 0.4
v 0.4 0.45 -0.3585787
v 0.3585787 0.45 -0.4
v -0.3585787 0.45 -0.4
v -0.4 0 0.5
v -0.4 0 0.4
v -0.5 0 0.5
v -0.5 0 0.4
v -0.2 0.5 0.2
v -0.2 0.5 0.3
v -0.3 0.5 0.2
v -0.3 0.5 0.3
v 0.5 0 0.5
v 0.5 0 0.4
v 0.4 0 0.5
v 0.4 0 0.4
v 0.2 0.5 0.2
v 0.3 0.5 0.2
v 0.3 0.5 0.3
v 0.2 0.5 0.3
v 0.5 0 -0.4
v 0.4 0 -0.4
v 0.3 0.5 -0.2
v 0.2 0.5 -0.2
v 0.5 0 -0.5
v 0.4 0 -0.5
v -0.5 0 -0.5
v -0.3 0.5 -0.3
v -0.5 0 -0.4
v -0.3 0.5 -0.2
v 0.3 0.5 -0.3
v -0.4 0 -0.5
v -0.2 0.5 -0.3
v -0.4 0 -0.4
v -0.2 0.5 -0.2
v 0.2 0.5 -0.3
v 0.4 -3.496911E-08 0.5
v 0.4 -3.496911E-08 0.4
v 0.5 -4.371139E-08 0.5
v 0.5 -4.371139E-08 0.4
v 0.2 -0.5 0.2
v 0.2 -0.5 0.3
v 0.3 -0.5 0.2
v 0.3 -0.5 0.3
v -0.5 4.371139E-08 0.5
v -0.5 4.371139E-08 0.4
v -0.4 3.496911E-08 0.5
v -0.4 3.496911E-08 0.4
v -0.2 -0.5 0.2
v -0.3 -0.5 0.2
v -0.3 -0.5 0.3
v -0.2 -0.5 0.3
v -0.5 4.371139E-08 -0.4
v -0.4 3.496911E-08 -0.4
v -0.3 -0.5 -0.2
v -0.2 -0.5 -0.2
v -0.5 4.371139E-08 -0.5
v -0.4 3.496911E-08 -0.5
v 0.5 -4.371139E-08 -0.5
v 0.3 -0.5 -0.3
v 0.5 -4.371139E-08 -0.4
v 0.3 -0.5 -0.2
v -0.3 -0.5 -0.3
v 0.4 -3.496911E-08 -0.5
v 0.2 -0.5 -0.3
v 0.4 -3.496911E-08 -0.4
v 0.2 -0.5 -0.2
v -0.2 -0.5 -0.3
v 0.3 0.45 -0.3
v 0.05 0.45 -0.3
v -0.05 0.45 -0.3
v 0.05 0.45 0.3
v -0.3 0.45 -0.3
v -0.3 0.45 0.3
v 0.3 0.45 0.3
v -0.05 0.45 0.3

vn 0 -1 0
vn 0 0 1
vn 1 0 0
vn 0 0 -1
vn -1 0 0
vn 0 1 0
vn -0.7071068 0 0.7071068
vn 0.7071068 0 0.7071068
vn 0.7071068 0 -0.7071068
vn -0.7071068 0 -0.7071068
vn 0 -0.3713907 -0.9284768
vn -0.9284768 0.3713907 0
vn 0 0.3713907 0.9284768
vn 0.9284768 -0.3713907 0
vn 0.9284768 0.3713907 0
vn -0.9284768 -0.3713907 0
vn 0 -0.3713907 0.9284768
vn 0 0.3713907 -0.9284768
vn 8.742278E-08 1 0
vn -8.742278E-08 -1 0
vn 3.246801E-08 0.3713907 -0.9284768
vn 0.9284767 -0.3713908 0
vn -3.246801E-08 -0.3713907 0.9284768
vn -0.9284767 0.3713908 0
vn -0.9284768 -0.3713906 0
vn 0.9284768 0.3713906 0
vn 3.246801E-08 0.3713907 0.9284768
vn -3.246801E-08 -0.3713907 -0.9284768

vt -0.5 -0.4
vt -0.5 0.4
vt -0.4 -0.5
vt -0.4 0.5
vt -0.3 -0.3
vt 0.4 -0.5
vt -0.05 -0.3
vt 0.05 -0.3
vt -0.05 0.3
vt 0.3 -0.3
vt 0.3 0.3
vt -0.3 0.3
vt 0.4 0.5
vt 0.05 0.3
vt 0.5 -0.4
vt 0.5 0.4
vt 0.4 0.4
vt -0.4 0.4
vt 0.4 0.5
vt -0.4 0.5
vt -0.4 -0.3585787
vt -0.3585787 -0.4
vt 0.3585787 -0.4
vt 0.4 -0.3585787
vt 0.4 0.3585787
vt -0.3585787 0.4
vt -0.4 0.3585787
vt 0.3585787 0.4
vt -0.5 0.4
vt -0.5 0.5
vt 0.5 0.5
vt 0.5 0.4
vt 0.3585787 0.5
vt 0.3585787 0.45
vt -0.3585787 0.5
vt -0.3585787 0.45
vt 0.4 0.45
vt -0.4 0.45
vt 0.4 -0.4
vt 0.5 -0.5
vt 0.2 0.2
vt 0.2 0.3
vt 0.3 0.2
vt 0.5 0
vt 0.4 0
vt 0.3 0.5
vt 0.2 0.5
vt -0.4 0
vt -0.5 0
vt -0.2 0.5
vt -0.3 0.5
vt -0.5 -0.5
vt -0.4 -0.4
vt -0.3 0.2
vt -0.2 0.2
vt -0.2 0.3
vt -0.5 0.5
vt -0.4 0.4
vt 0.4 0.4
vt 0.5 0.5
vt 0.2 -0.3
vt 0.2 -0.2
vt 0.3 -0.2
vt -0.3 -0.2
vt -0.2 -0.3
vt -0.2 -0.2
vt -0.2 -0.2
vt -0.2 -0.3
vt -0.3 -0.2
vt -0.3 -0.3
vt -0.5 -4.371139E-08
vt -0.4 -3.496911E-08
vt -0.3 -0.5
vt -0.2 -0.5
vt -0.2 -0.5
vt -0.3 -0.5
vt -0.4 -4.371139E-08
vt 0.4 -3.496911E-08
vt 0.5 -4.371139E-08
vt 0.2 -0.5
vt 0.3 -0.5
vt 0.2 -0.5
vt 0.3 -0.5
vt 0.5 -3.496911E-08
vt 0.4 3.496911E-08
vt 0.5 4.371139E-08
vt 0.2 -0.5
vt 0.3 -0.5
vt 0.2 -0.5
vt 0.4 4.371139E-08
vt 0.3 -0.5
vt -0.2 -0.5
vt -0.3 -0.5
vt -0.4 3.496911E-08
vt -0.5 3.496911E-08
vt 0.3 -0.2
vt 0.3 -0.3
vt 0.2 -0.2
vt 0.2 -0.3
vt -0.5 4.371139E-08
vt -0.3 -0.5
vt -0.2 -0.5
vt 0.4 -4.371139E-08
vt -0.4 4.371139E-08
vt 0.5 3.496911E-08
vt -0.5 -3.496911E-08
vt -0.2 0.3
vt -0.2 0.2
vt -0.3 0.3
vt -0.3 0.2
vt 0.3 0.3
vt 0.3 0.2
vt 0.2 0.3
vt 0.2 0.2
vt 0.3 0.4
vt 0.05 0.4
vt 0.3 0.45
vt 0.05 0.45
vt -0.3 0.4
vt -0.3 0.45
vt -0.05 0.4
vt -0.05 0.45

usemtl _defaultMat(Clone)

f 3/3/1 2/2/1 1/1/1
f 2/2/1 3/3/1 4/4/1
f 4/4/1 3/3/1 5/5/1
f 5/5/1 3/3/1 6/6/1
f 5/5/1 6/6/1 7/7/1
f 7/7/1 6/6/1 8/8/1
f 7/7/1 8/8/1 9/9/1
f 8/8/1 6/6/1 10/10/1
f 10/10/1 6/6/1 11/11/1
f 12/12/1 4/4/1 5/5/1
f 4/4/1 12/12/1 13/13/1
f 13/13/1 12/12/1 9/9/1
f 13/13/1 11/11/1 6/6/1
f 13/13/1 9/9/1 14/14/1
f 14/14/1 9/9/1 8/8/1
f 13/13/1 14/14/1 11/11/1
f 13/13/1 6/6/1 15/15/1
f 13/13/1 15/15/1 16/16/1
f 17/19/2 6/18/2 3/17/2
f 6/18/2 17/19/2 18/20/2
f 20/20/3 2/17/3 19/19/3
f 2/17/3 20/20/3 1/18/3
f 21/19/4 4/18/4 13/17/4
f 4/18/4 21/19/4 22/20/4
f 15/17/5 23/20/5 16/18/5
f 23/20/5 15/17/5 24/19/5
f 22/3/6 26/22/6 25/21/6
f 26/22/6 22/3/6 21/6/6
f 26/22/6 21/6/6 27/23/6
f 27/23/6 21/6/6 28/24/6
f 28/24/6 21/6/6 23/15/6
f 28/24/6 23/15/6 29/25/6
f 29/25/6 23/15/6 18/13/6
f 18/13/6 23/15/6 24/16/6
f 17/19/6 22/19/6 25/19/6
f 20/2/6 22/3/6 17/4/6
f 22/3/6 20/2/6 19/1/6
f 17/19/6 25/19/6 30/19/6
f 17/4/6 30/27/6 31/26/6
f 17/4/6 31/26/6 18/13/6
f 18/13/6 31/26/6 32/28/6
f 18/13/6 32/28/6 29/25/6
f 6/18/7 24/30/7 15/29/7
f 24/30/7 6/18/7 18/20/7
f 17/19/8 1/32/8 20/31/8
f 1/32/8 17/19/8 3/17/8
f 19/30/9 4/18/9 22/20/9
f 4/18/9 19/30/9 2/29/9
f 16/32/10 21/19/10 13/17/10
f 21/19/10 16/32/10 23/31/10
f 29/35/3 33/34/3 28/33/3
f 33/34/3 29/35/3 34/36/3
f 32/33/9 34/37/9 29/19/9
f 34/37/9 32/33/9 35/34/9
f 37/36/10 30/20/10 36/38/10
f 30/20/10 37/36/10 31/35/10
f 36/34/5 25/35/5 38/36/5
f 25/35/5 36/34/5 30/33/5
f 38/37/7 26/33/7 39/34/7
f 26/33/7 38/37/7 25/19/7
f 28/20/8 40/36/8 27/35/8
f 40/36/8 28/20/8 33/38/8
f 32/33/4 37/36/4 35/34/4
f 37/36/4 32/33/4 31/35/4
f 26/33/2 40/36/2 39/34/2
f 40/36/2 26/33/2 27/35/2
f 43/40/1 42/39/1 41/6/1
f 42/39/1 43/40/1 44/15/1
f 47/43/6 46/42/6 45/41/6
f 46/42/6 47/43/6 48/11/6
f 47/46/11 42/45/11 44/44/11
f 42/45/11 47/46/11 45/47/11
f 44/45/12 48/46/12 47/47/12
f 48/46/12 44/45/12 43/44/12
f 46/50/13 43/49/13 41/48/13
f 43/49/13 46/50/13 48/51/13
f 46/51/14 42/48/14 45/50/14
f 42/48/14 46/51/14 41/49/14
f 51/3/1 50/1/1 49/52/1
f 50/1/1 51/3/1 52/53/1
f 53/50/11 50/49/11 52/48/11
f 50/49/11 53/50/11 54/51/11
f 55/51/15 50/48/15 54/50/15
f 50/48/15 55/51/15 49/49/15
f 52/45/16 56/46/16 53/47/16
f 56/46/16 52/45/16 51/44/16
f 53/55/6 55/12/6 54/54/6
f 55/12/6 53/55/6 56/56/6
f 55/46/13 51/45/13 49/44/13
f 51/45/13 55/46/13 56/47/13
f 59/46/17 58/45/17 57/44/17
f 58/45/17 59/46/17 60/47/17
f 58/58/1 61/57/1 57/2/1
f 61/57/1 58/58/1 62/4/1
f 65/48/12 64/51/12 63/49/12
f 64/51/12 65/48/12 66/50/12
f 67/46/15 57/45/15 61/44/15
f 57/45/15 67/46/15 59/47/15
f 64/46/18 68/45/18 63/44/18
f 68/45/18 64/46/18 69/47/18
f 71/50/17 65/49/17 70/48/17
f 65/49/17 71/50/17 66/51/17
f 58/48/16 72/51/16 62/49/16
f 72/51/16 58/48/16 60/50/16
f 65/16/1 68/13/1 70/59/1
f 68/13/1 65/16/1 63/60/1
f 72/50/18 61/49/18 62/48/18
f 61/49/18 72/50/18 67/51/18
f 69/46/14 70/45/14 68/44/14
f 70/45/14 69/46/14 71/47/14
f 64/10/6 71/62/6 69/61/6
f 71/62/6 64/10/6 66/63/6
f 72/65/6 59/64/6 67/5/6
f 59/64/6 72/65/6 60/66/6
f 75/57/19 74/58/19 73/4/19
f 74/58/19 75/57/19 76/2/19
f 79/69/20 78/68/20 77/67/20
f 78/68/20 79/69/20 80/70/20
f 79/73/21 74/72/21 76/71/21
f 74/72/21 79/73/21 77/74/21
f 76/77/22 80/76/22 79/75/22
f 80/76/22 76/77/22 75/71/22
f 78/80/23 75/79/23 73/78/23
f 75/79/23 78/80/23 80/81/23
f 78/83/24 74/78/24 77/82/24
f 74/78/24 78/83/24 73/84/24
f 83/13/19 82/16/19 81/60/19
f 82/16/19 83/13/19 84/59/19
f 85/87/21 82/86/21 84/85/21
f 82/86/21 85/87/21 86/88/21
f 87/91/25 82/90/25 86/89/25
f 82/90/25 87/91/25 81/86/25
f 84/94/26 88/93/26 85/92/26
f 88/93/26 84/94/26 83/95/26
f 85/98/20 87/97/20 86/96/20
f 87/97/20 85/98/20 88/99/20
f 87/101/23 83/94/23 81/100/23
f 83/94/23 87/101/23 88/102/23
f 91/101/27 90/94/27 89/100/27
f 90/94/27 91/101/27 92/102/27
f 90/39/19 93/40/19 89/15/19
f 93/40/19 90/39/19 94/6/19
f 97/103/22 96/83/22 95/79/22
f 96/83/22 97/103/22 98/82/22
f 99/93/25 89/104/25 93/100/25
f 89/104/25 99/93/25 91/92/25
f 96/73/28 100/72/28 95/71/28
f 100/72/28 96/73/28 101/74/28
f 103/80/27 97/79/27 102/78/27
f 97/79/27 103/80/27 98/81/27
f 90/85/26 104/91/26 94/105/26
f 104/91/26 90/85/26 92/89/26
f 97/1/19 100/3/19 102/53/19
f 100/3/19 97/1/19 95/52/19
f 104/87/28 93/86/28 94/85/28
f 93/86/28 104/87/28 99/88/28
f 101/76/24 102/72/24 100/106/24
f 102/72/24 101/76/24 103/75/24
f 96/109/20 103/108/20 101/107/20
f 103/108/20 96/109/20 98/110/20
f 104/113/20 91/112/20 99/111/20
f 91/112/20 104/113/20 92/114/20

usemtl metalPurple(Clone)

f 39/22/6 36/27/6 38/21/6
f 36/27/6 39/22/6 37/26/6
f 37/26/6 39/22/6 105/5/6
f 105/5/6 39/22/6 40/23/6
f 105/5/6 40/23/6 106/7/6
f 106/7/6 40/23/6 107/8/6
f 106/7/6 107/8/6 108/9/6
f 107/8/6 40/23/6 109/10/6
f 109/10/6 40/23/6 110/11/6
f 111/12/6 37/26/6 105/5/6
f 37/26/6 111/12/6 35/28/6
f 35/28/6 111/12/6 108/9/6
f 35/28/6 110/11/6 40/23/6
f 35/28/6 108/9/6 112/14/6
f 112/14/6 108/9/6 107/8/6
f 35/28/6 112/14/6 110/11/6
f 35/28/6 40/23/6 33/24/6
f 35/28/6 33/24/6 34/25/6
f 110/117/4 8/116/4 10/115/4
f 8/116/4 110/117/4 112/118/4
f 8/115/5 107/120/5 14/119/5
f 107/120/5 8/115/5 112/117/5
f 107/122/2 11/119/2 14/121/2
f 11/119/2 107/122/2 109/120/2
f 110/120/3 11/115/3 109/117/3
f 11/115/3 110/120/3 10/119/3
f 105/117/2 9/116/2 12/115/2
f 9/116/2 105/117/2 106/118/2
f 108/120/3 9/115/3 106/117/3
f 9/115/3 108/120/3 7/119/3
f 108/122/4 5/119/4 7/121/4
f 5/119/4 108/122/4 111/120/4
f 5/115/5 105/120/5 12/119/5
f 105/120/5 5/115/5 111/117/5

