# Created by Kenney (www.kenney.nl)

mtllib walking_00_01.mtl

g mergedBlocks

v 0.5 0.2250001 0.4
v 0.5 0.2250001 -0.4
v 0.4 0.2250001 0.5
v 0.4 0.2250001 -0.5
v 0.3 0.2250001 0.3
v -0.4 0.2250001 0.5
v 0.05 0.2250001 0.3
v -0.05 0.2250001 0.3
v 0.05 0.2250001 -0.3
v -0.3 0.2250001 0.3
v -0.3 0.2250001 -0.3
v 0.3 0.2250001 -0.3
v -0.4 0.2250001 -0.5
v -0.05 0.2250001 -0.3
v -0.5 0.2250001 0.4
v -0.5 0.2250001 -0.4
v 0.4 0.3250001 0.5
v -0.4 0.3250001 0.5
v 0.5 0.3250001 -0.4
v 0.5 0.3250001 0.4
v -0.4 0.3250001 -0.5
v 0.4 0.3250001 -0.5
v -0.5 0.3250001 -0.4
v -0.5 0.3250001 0.4
v 0.4 0.3250001 -0.3585787
v 0.3585787 0.3250001 -0.4
v -0.3585787 0.3250001 -0.4
v -0.4 0.3250001 -0.3585787
v -0.4 0.3250001 0.3585787
v 0.4 0.3250001 0.3585787
v 0.3585787 0.3250001 0.4
v -0.3585787 0.3250001 0.4
v -0.4 0.2750001 -0.3585787
v -0.4 0.2750001 0.3585787
v -0.3585787 0.2750001 0.4
v 0.4 0.2750001 0.3585787
v 0.3585787 0.2750001 0.4
v 0.4 0.2750001 -0.3585787
v 0.3585787 0.2750001 -0.4
v -0.3585787 0.2750001 -0.4
v -0.36 0.27 0.45
v -0.36 0.27 0.350696
v -0.45 0.27 0.45
v -0.45 0.27 0.350696
v -0.3825 0.3617637 0.3031514
v -0.3825 0.3617637 -0.3031514
v -0.4274999 0.3617637 0.3031514
v -0.4274999 0.3617637 -0.3031514
v -0.3825 0.3984692 -0.2841336
v -0.3825 0.3984692 0.2841336
v -0.36 0.594 0.1828252
v -0.36 0.594 -0.1828252
v -0.45 0.594 0.1828252
v -0.45 0.594 -0.1828252
v -0.45 0.27 -0.45
v -0.45 0.6750001 -0.2401615
v -0.45 0.27 -0.350696
v -0.45 0.6750001 0.2401615
v -0.36 0.27 -0.350696
v -0.4274999 0.3984692 -0.2841336
v -0.36 0.27 -0.45
v -0.4274999 0.3984692 0.2841336
v -0.36 0.6750001 -0.2401615
v -0.36 0.6750001 0.2401615
v 0.45 0.27 0.350696
v 0.3825 0.3617637 0.3031514
v 0.36 0.27 0.350696
v 0.36 0.594 0.1828252
v 0.4274999 0.3617637 0.3031514
v 0.3825 0.3984692 0.2841336
v 0.4274999 0.3984692 0.2841336
v 0.45 0.594 0.1828252
v 0.4274999 0.3617637 -0.3031514
v 0.3825 0.3617637 -0.3031514
v 0.4274999 0.3984692 -0.2841336
v 0.3825 0.3984692 -0.2841336
v 0.36 0.27 -0.45
v 0.45 0.27 -0.45
v 0.36 0.6750001 -0.2401615
v 0.45 0.6750001 -0.2401615
v 0.45 0.27 -0.350696
v 0.36 0.27 -0.350696
v 0.45 0.594 -0.1828252
v 0.36 0.594 -0.1828252
v 0.45 0.6750001 0.2401615
v 0.36 0.6750001 0.2401615
v 0.45 0.27 0.45
v 0.36 0.27 0.45
v 0.4400013 0.0250001 -0.5500018
v -0.4400015 0.0250001 -0.5500017
v 0.5500017 0.0250001 -0.4400015
v -0.5500018 0.0250001 -0.4400013
v 0.330001 0.0250001 -0.3300011
v 0.5500018 0.0250001 0.4400013
v 0.3300011 0.0250001 -0.05500022
v 0.3300011 0.0250001 0.05500013
v -0.3300011 0.0250001 -0.05500013
v 0.3300011 0.0250001 0.330001
v -0.330001 0.0250001 0.3300011
v -0.3300011 0.0250001 -0.330001
v -0.5500017 0.0250001 0.4400015
v -0.3300011 0.0250001 0.05500022
v 0.4400015 0.0250001 0.5500017
v -0.4400013 0.0250001 0.5500018
v 0.5500017 0.1350001 -0.4400015
v 0.5500018 0.1350001 0.4400013
v -0.4400015 0.1350001 -0.5500017
v 0.4400013 0.1350001 -0.5500018
v -0.5500017 0.1350001 0.4400015
v -0.5500018 0.1350001 -0.4400013
v -0.4400013 0.1350001 0.5500018
v 0.4400015 0.1350001 0.5500017
v -0.3944378 0.1350001 -0.4400013
v -0.4400015 0.1350001 -0.3944377
v -0.4400013 0.1350001 0.3944378
v -0.3944377 0.1350001 0.4400015
v 0.3944378 0.1350001 0.4400013
v 0.3944377 0.1350001 -0.4400015
v 0.4400013 0.1350001 -0.3944378
v 0.4400015 0.1350001 0.3944377
v -0.3944377 0.0800001 0.4400015
v 0.3944378 0.0800001 0.4400013
v 0.4400015 0.0800001 0.3944377
v 0.3944377 0.0800001 -0.4400015
v 0.4400013 0.0800001 -0.3944378
v -0.3944378 0.0800001 -0.4400013
v -0.4400015 0.0800001 -0.3944377
v -0.4400013 0.0800001 0.3944378
v -0.4 -0.1749999 0.5
v -0.4 -0.1749999 0.4
v -0.5 -0.1749999 0.5
v -0.5 -0.1749999 0.4
v -0.2 0.3250001 0.2
v -0.2 0.3250001 0.3
v -0.3 0.3250001 0.2
v -0.3 0.3250001 0.3
v 0.5 -0.1749999 0.5
v 0.5 -0.1749999 0.4
v 0.4 -0.1749999 0.5
v 0.4 -0.1749999 0.4
v 0.2 0.3250001 0.2
v 0.3 0.3250001 0.2
v 0.3 0.3250001 0.3
v 0.2 0.3250001 0.3
v 0.5 -0.1749999 -0.4
v 0.4 -0.1749999 -0.4
v 0.3 0.3250001 -0.2
v 0.2 0.3250001 -0.2
v 0.5 -0.1749999 -0.5
v 0.4 -0.1749999 -0.5
v -0.5 -0.1749999 -0.5
v -0.3 0.3250001 -0.3
v -0.5 -0.1749999 -0.4
v -0.3 0.3250001 -0.2
v 0.3 0.3250001 -0.3
v -0.4 -0.1749999 -0.5
v -0.2 0.3250001 -0.3
v -0.4 -0.1749999 -0.4
v -0.2 0.3250001 -0.2
v 0.2 0.3250001 -0.3
v 0.4 -0.1749999 0.5
v 0.4 -0.1749999 0.4
v 0.5 -0.1749999 0.5
v 0.5 -0.1749999 0.4
v 0.2 -0.6749999 0.2
v 0.2 -0.6749999 0.3
v 0.3 -0.6749999 0.2
v 0.3 -0.6749999 0.3
v -0.5 -0.1749998 0.5
v -0.5 -0.1749998 0.4
v -0.4 -0.1749999 0.5
v -0.4 -0.1749999 0.4
v -0.2 -0.6749998 0.2
v -0.3 -0.6749998 0.2
v -0.3 -0.6749998 0.3
v -0.2 -0.6749998 0.3
v -0.5 -0.1749998 -0.4
v -0.4 -0.1749999 -0.4
v -0.3 -0.6749998 -0.2
v -0.2 -0.6749998 -0.2
v -0.5 -0.1749998 -0.5
v -0.4 -0.1749999 -0.5
v 0.5 -0.1749999 -0.5
v 0.3 -0.6749999 -0.3
v 0.5 -0.1749999 -0.4
v 0.3 -0.6749999 -0.2
v -0.3 -0.6749998 -0.3
v 0.4 -0.1749999 -0.5
v 0.2 -0.6749999 -0.3
v 0.4 -0.1749999 -0.4
v 0.2 -0.6749999 -0.2
v -0.2 -0.6749998 -0.3
v 0.3 0.2750001 -0.3
v 0.05 0.2750001 -0.3
v -0.05 0.2750001 -0.3
v 0.05 0.2750001 0.3
v -0.3 0.2750001 -0.3
v -0.3 0.2750001 0.3
v 0.3 0.2750001 0.3
v -0.05 0.2750001 0.3
v -0.3300011 0.0800001 -0.330001
v -0.3300011 0.0800001 -0.05500013
v -0.3300011 0.0800001 0.05500022
v 0.3300011 0.0800001 -0.05500022
v -0.330001 0.0800001 0.3300011
v 0.3300011 0.0800001 0.330001
v 0.330001 0.0800001 -0.3300011
v 0.3300011 0.0800001 0.05500013

vn 0 -1 0
vn 0 0 1
vn 1 0 0
vn 0 0 -1
vn -1 0 0
vn 0 1 0
vn -0.7071068 0 0.7071068
vn 0.7071068 0 0.7071068
vn 0.7071068 0 -0.7071068
vn -0.7071068 0 -0.7071068
vn 0 -0.460038 0.8878992
vn 0 0.460038 -0.8878992
vn 0 -0.460038 -0.8878992
vn 0 0.460038 0.8878992
vn 0 -0.9999968 0
vn 1 0 -1.192093E-07
vn -1.192093E-07 0 -1
vn -1 0 1.192093E-07
vn 1.192093E-07 0 1
vn 0 0.9999968 0
vn 0.7071068 0 0.7071067
vn 0.7071067 0 -0.7071068
vn -0.7071068 0 -0.7071067
vn -0.7071067 0 0.7071068
vn 0 -0.3713907 -0.9284768
vn -0.9284768 0.3713907 0
vn 0 0.3713907 0.9284768
vn 0.9284768 -0.3713907 0
vn 0.9284768 0.3713907 0
vn -0.9284768 -0.3713907 0
vn 0 -0.3713907 0.9284768
vn 0 0.3713907 -0.9284768
vn 8.742278E-08 1 0
vn -8.742278E-08 -1 0
vn 3.246801E-08 0.3713907 -0.9284768
vn 0.9284767 -0.3713908 0
vn -3.246801E-08 -0.3713907 0.9284768
vn -0.9284767 0.3713908 0
vn -0.9284768 -0.3713906 0
vn 0.9284768 0.3713906 0
vn 3.246801E-08 0.3713907 0.9284768
vn -3.246801E-08 -0.3713907 -0.9284768

vt -0.5 -0.4
vt -0.5 0.4
vt -0.4 -0.5
vt -0.4 0.5
vt -0.3 -0.3
vt 0.4 -0.5
vt -0.05 -0.3
vt 0.05 -0.3
vt -0.05 0.3
vt 0.3 -0.3
vt 0.3 0.3
vt -0.3 0.3
vt 0.4 0.5
vt 0.05 0.3
vt 0.5 -0.4
vt 0.5 0.4
vt 0.4 0.2250001
vt -0.4 0.2250001
vt 0.4 0.3250001
vt -0.4 0.3250001
vt -0.4 -0.3585787
vt -0.3585787 -0.4
vt 0.3585787 -0.4
vt 0.4 -0.3585787
vt 0.4 0.3585787
vt -0.3585787 0.4
vt -0.4 0.3585787
vt 0.3585787 0.4
vt -0.5 0.2250001
vt -0.5 0.3250001
vt 0.5 0.3250001
vt 0.5 0.2250001
vt 0.3585787 0.3250001
vt 0.3585787 0.2750001
vt -0.3585787 0.3250001
vt -0.3585787 0.2750001
vt 0.4 0.2750001
vt -0.4 0.2750001
vt 0.36 -0.45
vt 0.36 -0.350696
vt 0.45 -0.45
vt 0.45 -0.350696
vt 0.3825 -0.3031514
vt 0.3825 0.3031514
vt 0.4274999 -0.3031514
vt 0.4274999 0.3031514
vt 0.3031514 0.3617637
vt -0.3031514 0.3617637
vt 0.2841336 0.3984692
vt -0.2841336 0.3984692
vt 0.36 -0.1828252
vt 0.36 0.1828252
vt 0.45 -0.1828252
vt 0.45 0.1828252
vt -0.45 0.27
vt -0.2401615 0.6750001
vt -0.350696 0.27
vt -0.1828252 0.594
vt 0.2401615 0.6750001
vt 0.1828252 0.594
vt 0.350696 0.27
vt 0.45 0.27
vt -0.3825 0.3617637
vt -0.36 0.27
vt -0.36 0.594
vt -0.4274999 0.3617637
vt -0.3825 0.3984692
vt -0.4274999 0.3984692
vt -0.45 0.594
vt 0.36 0.350696
vt 0.36 0.45
vt 0.45 0.350696
vt 0.45 0.45
vt 0.36 0.27
vt 0.45 0.6750001
vt 0.36 0.6750001
vt 0.36 0.2401615
vt 0.45 0.2401615
vt 0.36 -0.2401615
vt 0.45 -0.2401615
vt 0.4274999 0.3617637
vt 0.45 0.594
vt 0.3825 0.3617637
vt 0.4274999 0.3984692
vt 0.3825 0.3984692
vt 0.36 0.594
vt -0.36 0.6750001
vt -0.45 0.6750001
vt 0.3825 0.2841336
vt 0.4274999 0.2841336
vt 0.3825 -0.2841336
vt 0.4274999 -0.2841336
vt -0.4274999 -0.3031514
vt -0.4274999 0.3031514
vt -0.3825 -0.3031514
vt -0.3825 0.3031514
vt -0.4274999 0.2841336
vt -0.3825 0.2841336
vt -0.4274999 -0.2841336
vt -0.3825 -0.2841336
vt -0.45 0.45
vt -0.36 0.45
vt -0.45 0.350696
vt -0.36 0.350696
vt -0.45 -0.1828252
vt -0.45 0.1828252
vt -0.36 -0.1828252
vt -0.36 0.1828252
vt -0.45 0.2401615
vt -0.36 0.2401615
vt -0.45 -0.2401615
vt -0.36 -0.2401615
vt -0.45 -0.45
vt -0.45 -0.350696
vt -0.36 -0.45
vt -0.36 -0.350696
vt -0.4400013 0.5500018
vt 0.4400015 0.5500017
vt -0.5500017 0.4400015
vt 0.5500018 0.4400013
vt -0.330001 0.3300011
vt -0.5500018 -0.4400013
vt -0.3300011 0.05500022
vt -0.3300011 -0.05500013
vt 0.3300011 0.05500013
vt -0.3300011 -0.330001
vt 0.330001 -0.3300011
vt 0.3300011 0.330001
vt 0.5500017 -0.4400015
vt 0.3300011 -0.05500022
vt -0.4400015 -0.5500017
vt 0.4400013 -0.5500018
vt 0.4400015 0.0250001
vt -0.4400013 0.0250001
vt 0.4400015 0.1350001
vt -0.4400013 0.1350001
vt 0.3944378 -0.4400013
vt 0.4400015 -0.3944377
vt 0.5500018 -0.4400013
vt 0.5500017 0.4400015
vt 0.4400013 0.3944378
vt 0.3944377 0.4400015
vt 0.4400013 0.5500018
vt -0.3944378 0.4400013
vt -0.5500018 0.4400013
vt -0.4400015 0.5500017
vt -0.3944378 0.1350001
vt -0.5500018 0.1350001
vt 0.5500017 0.1350001
vt -0.5500017 -0.4400015
vt -0.4400013 -0.5500018
vt 0.4400015 -0.5500017
vt 0.3944377 0.1350001
vt -0.4400013 -0.3944378
vt -0.3944377 -0.4400015
vt -0.4400015 0.3944377
vt 0.5500018 0.0250001
vt 0.5500018 0.1350001
vt -0.5500017 0.1350001
vt -0.5500017 0.0250001
vt 0.3944377 0.0800001
vt -0.3944378 0.0800001
vt -0.4400015 0.1350001
vt -0.4400015 0.0800001
vt 0.4400013 0.0800001
vt 0.4400013 0.1350001
vt 0.4 -0.4
vt 0.5 -0.5
vt 0.2 0.2
vt 0.2 0.3
vt 0.3 0.2
vt 0.5 -0.1749999
vt 0.4 -0.1749999
vt 0.3 0.3250001
vt 0.2 0.3250001
vt -0.4 -0.1749999
vt -0.5 -0.1749999
vt -0.2 0.3250001
vt -0.3 0.3250001
vt -0.5 -0.5
vt -0.4 -0.4
vt -0.3 0.2
vt -0.2 0.2
vt -0.2 0.3
vt -0.5 0.5
vt -0.4 0.4
vt 0.4 0.4
vt 0.5 0.5
vt 0.2 -0.3
vt 0.2 -0.2
vt 0.3 -0.2
vt -0.3 -0.2
vt -0.2 -0.3
vt -0.2 -0.2
vt -0.2 -0.2
vt -0.2 -0.3
vt -0.3 -0.2
vt -0.3 -0.3
vt -0.5 -0.1749999
vt -0.4 -0.1749999
vt -0.3 -0.6749999
vt -0.2 -0.6749999
vt -0.2 -0.6749999
vt -0.3 -0.6749999
vt -0.4 -0.1749999
vt 0.4 -0.1749999
vt 0.5 -0.1749999
vt 0.2 -0.6749999
vt 0.3 -0.6749999
vt 0.2 -0.6749999
vt 0.3 -0.6749999
vt 0.5 -0.1749999
vt 0.4 -0.1749999
vt 0.5 -0.1749998
vt 0.2 -0.6749999
vt 0.3 -0.6749999
vt 0.4 -0.1749998
vt -0.4 -0.1749999
vt -0.5 -0.1749999
vt 0.3 -0.2
vt 0.3 -0.3
vt 0.2 -0.2
vt 0.2 -0.3
vt -0.5 -0.1749998
vt -0.3 -0.6749999
vt -0.2 -0.6749999
vt 0.4 -0.1749999
vt -0.4 -0.1749998
vt 0.5 -0.1749999
vt -0.5 -0.1749999
vt -0.2 0.3
vt -0.2 0.2
vt -0.3 0.3
vt -0.3 0.2
vt 0.3 0.3
vt 0.3 0.2
vt 0.2 0.3
vt 0.2 0.2
vt 0.3 0.2250001
vt 0.05 0.2250001
vt 0.3 0.2750001
vt 0.05 0.2750001
vt -0.3 0.2250001
vt -0.3 0.2750001
vt -0.05 0.2250001
vt -0.05 0.2750001
vt 0.3300011 -0.330001
vt 0.3300011 -0.05500013
vt 0.3300011 0.05500022
vt -0.3300011 -0.05500022
vt 0.330001 0.3300011
vt -0.3300011 0.330001
vt -0.330001 -0.3300011
vt -0.3300011 0.05500013
vt 0.330001 0.0250001
vt 0.05500013 0.0250001
vt 0.330001 0.0800001
vt 0.05500013 0.0800001
vt -0.3300011 0.0250001
vt -0.3300011 0.0800001
vt 0.3300011 0.0250001
vt 0.3300011 0.0800001
vt -0.05500022 0.0250001
vt -0.3300011 0.0250001
vt -0.05500022 0.0800001
vt -0.3300011 0.0800001

usemtl _defaultMat(Clone)

f 3/3/1 2/2/1 1/1/1
f 2/2/1 3/3/1 4/4/1
f 4/4/1 3/3/1 5/5/1
f 5/5/1 3/3/1 6/6/1
f 5/5/1 6/6/1 7/7/1
f 7/7/1 6/6/1 8/8/1
f 7/7/1 8/8/1 9/9/1
f 8/8/1 6/6/1 10/10/1
f 10/10/1 6/6/1 11/11/1
f 12/12/1 4/4/1 5/5/1
f 4/4/1 12/12/1 13/13/1
f 13/13/1 12/12/1 9/9/1
f 13/13/1 11/11/1 6/6/1
f 13/13/1 9/9/1 14/14/1
f 14/14/1 9/9/1 8/8/1
f 13/13/1 14/14/1 11/11/1
f 13/13/1 6/6/1 15/15/1
f 13/13/1 15/15/1 16/16/1
f 17/19/2 6/18/2 3/17/2
f 6/18/2 17/19/2 18/20/2
f 20/20/3 2/17/3 19/19/3
f 2/17/3 20/20/3 1/18/3
f 21/19/4 4/18/4 13/17/4
f 4/18/4 21/19/4 22/20/4
f 15/17/5 23/20/5 16/18/5
f 23/20/5 15/17/5 24/19/5
f 22/3/6 26/22/6 25/21/6
f 26/22/6 22/3/6 21/6/6
f 26/22/6 21/6/6 27/23/6
f 27/23/6 21/6/6 28/24/6
f 28/24/6 21/6/6 23/15/6
f 28/24/6 23/15/6 29/25/6
f 29/25/6 23/15/6 18/13/6
f 18/13/6 23/15/6 24/16/6
f 17/19/6 22/19/6 25/19/6
f 20/2/6 22/3/6 17/4/6
f 22/3/6 20/2/6 19/1/6
f 17/19/6 25/19/6 30/19/6
f 17/4/6 30/27/6 31/26/6
f 17/4/6 31/26/6 18/13/6
f 18/13/6 31/26/6 32/28/6
f 18/13/6 32/28/6 29/25/6
f 6/18/7 24/30/7 15/29/7
f 24/30/7 6/18/7 18/20/7
f 17/19/8 1/32/8 20/31/8
f 1/32/8 17/19/8 3/17/8
f 19/30/9 4/18/9 22/20/9
f 4/18/9 19/30/9 2/29/9
f 16/32/10 21/19/10 13/17/10
f 21/19/10 16/32/10 23/31/10
f 29/35/3 33/34/3 28/33/3
f 33/34/3 29/35/3 34/36/3
f 32/33/9 34/37/9 29/19/9
f 34/37/9 32/33/9 35/34/9
f 37/36/10 30/20/10 36/38/10
f 30/20/10 37/36/10 31/35/10
f 36/34/5 25/35/5 38/36/5
f 25/35/5 36/34/5 30/33/5
f 38/37/7 26/33/7 39/34/7
f 26/33/7 38/37/7 25/19/7
f 28/20/8 40/36/8 27/35/8
f 40/36/8 28/20/8 33/38/8
f 32/33/4 37/36/4 35/34/4
f 37/36/4 32/33/4 31/35/4
f 26/33/2 40/36/2 39/34/2
f 40/36/2 26/33/2 27/35/2
f 43/41/1 42/40/1 41/39/1
f 42/40/1 43/41/1 44/42/1
f 47/45/1 46/44/1 45/43/1
f 46/44/1 47/45/1 48/46/1
f 49/49/3 45/48/3 46/47/3
f 45/48/3 49/49/3 50/50/3
f 53/53/1 52/52/1 51/51/1
f 52/52/1 53/53/1 54/54/1
f 57/57/5 56/56/5 55/55/5
f 56/56/5 57/57/5 54/58/5
f 56/56/5 54/58/5 58/59/5
f 58/59/5 54/58/5 53/60/5
f 58/59/5 53/60/5 44/61/5
f 58/59/5 44/61/5 43/62/5
f 59/64/11 46/63/11 57/55/11
f 46/63/11 59/64/11 52/65/11
f 57/55/11 46/63/11 48/66/11
f 46/63/11 52/65/11 49/67/11
f 49/67/11 52/65/11 60/68/11
f 48/66/11 54/69/11 57/55/11
f 54/69/11 48/66/11 60/68/11
f 54/69/11 60/68/11 52/65/11
f 57/72/1 61/71/1 59/70/1
f 61/71/1 57/72/1 55/73/1
f 47/47/5 60/50/5 48/48/5
f 60/50/5 47/47/5 62/49/5
f 56/75/12 61/74/12 55/62/12
f 61/74/12 56/75/12 63/76/12
f 63/79/6 58/78/6 64/77/6
f 58/78/6 63/79/6 56/80/6
f 63/59/3 59/61/3 61/62/3
f 59/61/3 63/59/3 52/60/3
f 52/60/3 63/59/3 64/56/3
f 52/60/3 64/56/3 51/58/3
f 51/58/3 64/56/3 42/57/3
f 42/57/3 64/56/3 41/55/3
f 44/62/13 47/81/13 42/74/13
f 47/81/13 44/62/13 53/82/13
f 42/74/13 47/81/13 45/83/13
f 47/81/13 53/82/13 62/84/13
f 62/84/13 53/82/13 50/85/13
f 45/83/13 51/86/13 42/74/13
f 51/86/13 45/83/13 50/85/13
f 51/86/13 50/85/13 53/82/13
f 64/87/14 43/55/14 41/64/14
f 43/55/14 64/87/14 58/88/14
f 49/91/6 62/90/6 50/89/6
f 62/90/6 49/91/6 60/92/6
f 67/64/13 66/63/13 65/55/13
f 66/63/13 67/64/13 68/65/13
f 65/55/13 66/63/13 69/66/13
f 66/63/13 68/65/13 70/67/13
f 70/67/13 68/65/13 71/68/13
f 69/66/13 72/69/13 65/55/13
f 72/69/13 69/66/13 71/68/13
f 72/69/13 71/68/13 68/65/13
f 66/95/1 73/94/1 69/93/1
f 73/94/1 66/95/1 74/96/1
f 75/49/3 69/48/3 73/47/3
f 69/48/3 75/49/3 71/50/3
f 75/99/6 70/98/6 71/97/6
f 70/98/6 75/99/6 76/100/6
f 79/87/12 78/55/12 77/64/12
f 78/55/12 79/87/12 80/88/12
f 81/103/1 77/102/1 78/101/1
f 77/102/1 81/103/1 82/104/1
f 68/107/1 83/106/1 72/105/1
f 83/106/1 68/107/1 84/108/1
f 66/47/5 76/50/5 74/48/5
f 76/50/5 66/47/5 70/49/5
f 81/62/11 73/81/11 82/74/11
f 73/81/11 81/62/11 83/82/11
f 82/74/11 73/81/11 74/83/11
f 73/81/11 83/82/11 75/84/11
f 75/84/11 83/82/11 76/85/11
f 74/83/11 84/86/11 82/74/11
f 84/86/11 74/83/11 76/85/11
f 84/86/11 76/85/11 83/82/11
f 80/111/6 86/110/6 85/109/6
f 86/110/6 80/111/6 79/112/6
f 88/115/1 65/114/1 87/113/1
f 65/114/1 88/115/1 67/116/1
f 85/75/14 88/74/14 87/62/14
f 88/74/14 85/75/14 86/76/14
f 80/59/3 81/61/3 78/62/3
f 81/61/3 80/59/3 83/60/3
f 83/60/3 80/59/3 85/56/3
f 83/60/3 85/56/3 72/58/3
f 72/58/3 85/56/3 65/57/3
f 65/57/3 85/56/3 87/55/3
f 82/57/5 79/56/5 77/55/5
f 79/56/5 82/57/5 84/58/5
f 79/56/5 84/58/5 86/59/5
f 86/59/5 84/58/5 68/60/5
f 86/59/5 68/60/5 67/61/5
f 86/59/5 67/61/5 88/62/5
f 91/119/15 90/118/15 89/117/15
f 90/118/15 91/119/15 92/120/15
f 92/120/15 91/119/15 93/121/15
f 93/121/15 91/119/15 94/122/15
f 93/121/15 94/122/15 95/123/15
f 95/123/15 94/122/15 96/124/15
f 95/123/15 96/124/15 97/125/15
f 96/124/15 94/122/15 98/126/15
f 98/126/15 94/122/15 99/127/15
f 100/128/15 92/120/15 93/121/15
f 92/120/15 100/128/15 101/129/15
f 101/129/15 100/128/15 97/125/15
f 101/129/15 99/127/15 94/122/15
f 101/129/15 97/125/15 102/130/15
f 102/130/15 97/125/15 96/124/15
f 101/129/15 102/130/15 99/127/15
f 101/129/15 94/122/15 103/131/15
f 101/129/15 103/131/15 104/132/15
f 105/135/16 94/134/16 91/133/16
f 94/134/16 105/135/16 106/136/16
f 108/136/17 90/133/17 107/135/17
f 90/133/17 108/136/17 89/134/17
f 109/135/18 92/134/18 101/133/18
f 92/134/18 109/135/18 110/136/18
f 103/133/19 111/136/19 104/134/19
f 111/136/19 103/133/19 112/135/19
f 110/139/20 114/138/20 113/137/20
f 114/138/20 110/139/20 109/140/20
f 114/138/20 109/140/20 115/141/20
f 115/141/20 109/140/20 116/142/20
f 116/142/20 109/140/20 111/143/20
f 116/142/20 111/143/20 117/144/20
f 117/144/20 111/143/20 106/145/20
f 106/145/20 111/143/20 112/146/20
f 105/149/20 110/148/20 113/147/20
f 108/151/20 110/139/20 105/150/20
f 110/139/20 108/151/20 107/152/20
f 105/149/20 113/147/20 118/153/20
f 105/150/20 118/155/20 119/154/20
f 105/150/20 119/154/20 106/145/20
f 106/145/20 119/154/20 120/156/20
f 106/145/20 120/156/20 117/144/20
f 94/157/21 112/135/21 103/133/21
f 112/135/21 94/157/21 106/158/21
f 105/159/22 89/134/22 108/136/22
f 89/134/22 105/159/22 91/160/22
f 107/135/23 92/157/23 110/158/23
f 92/157/23 107/135/23 90/133/23
f 104/134/24 109/159/24 101/160/24
f 109/159/24 104/134/24 111/136/24
f 117/147/17 121/161/17 116/153/17
f 121/161/17 117/147/17 122/162/17
f 120/163/23 122/162/23 117/147/23
f 122/162/23 120/163/23 123/164/23
f 125/165/24 118/153/24 124/161/24
f 118/153/24 125/165/24 119/166/24
f 124/161/19 113/147/19 126/162/19
f 113/147/19 124/161/19 118/153/19
f 126/162/21 114/163/21 127/164/21
f 114/163/21 126/162/21 113/147/21
f 116/153/22 128/165/22 115/166/22
f 128/165/22 116/153/22 121/161/22
f 120/153/18 125/162/18 123/161/18
f 125/162/18 120/153/18 119/147/18
f 114/153/16 128/162/16 127/161/16
f 128/162/16 114/153/16 115/147/16
f 131/168/1 130/167/1 129/6/1
f 130/167/1 131/168/1 132/15/1
f 135/171/6 134/170/6 133/169/6
f 134/170/6 135/171/6 136/11/6
f 135/174/25 130/173/25 132/172/25
f 130/173/25 135/174/25 133/175/25
f 132/173/26 136/174/26 135/175/26
f 136/174/26 132/173/26 131/172/26
f 134/178/27 131/177/27 129/176/27
f 131/177/27 134/178/27 136/179/27
f 134/179/28 130/176/28 133/178/28
f 130/176/28 134/179/28 129/177/28
f 139/3/1 138/1/1 137/180/1
f 138/1/1 139/3/1 140/181/1
f 141/178/25 138/177/25 140/176/25
f 138/177/25 141/178/25 142/179/25
f 143/179/29 138/176/29 142/178/29
f 138/176/29 143/179/29 137/177/29
f 140/173/30 144/174/30 141/175/30
f 144/174/30 140/173/30 139/172/30
f 141/183/6 143/12/6 142/182/6
f 143/12/6 141/183/6 144/184/6
f 143/174/27 139/173/27 137/172/27
f 139/173/27 143/174/27 144/175/27
f 147/174/31 146/173/31 145/172/31
f 146/173/31 147/174/31 148/175/31
f 146/186/1 149/185/1 145/2/1
f 149/185/1 146/186/1 150/4/1
f 153/176/26 152/179/26 151/177/26
f 152/179/26 153/176/26 154/178/26
f 155/174/29 145/173/29 149/172/29
f 145/173/29 155/174/29 147/175/29
f 152/174/32 156/173/32 151/172/32
f 156/173/32 152/174/32 157/175/32
f 159/178/31 153/177/31 158/176/31
f 153/177/31 159/178/31 154/179/31
f 146/176/30 160/179/30 150/177/30
f 160/179/30 146/176/30 148/178/30
f 153/16/1 156/13/1 158/187/1
f 156/13/1 153/16/1 151/188/1
f 160/178/32 149/177/32 150/176/32
f 149/177/32 160/178/32 155/179/32
f 157/174/28 158/173/28 156/172/28
f 158/173/28 157/174/28 159/175/28
f 152/10/6 159/190/6 157/189/6
f 159/190/6 152/10/6 154/191/6
f 160/193/6 147/192/6 155/5/6
f 147/192/6 160/193/6 148/194/6
f 163/185/33 162/186/33 161/4/33
f 162/186/33 163/185/33 164/2/33
f 167/197/34 166/196/34 165/195/34
f 166/196/34 167/197/34 168/198/34
f 167/201/35 162/200/35 164/199/35
f 162/200/35 167/201/35 165/202/35
f 164/205/36 168/204/36 167/203/36
f 168/204/36 164/205/36 163/199/36
f 166/208/37 163/207/37 161/206/37
f 163/207/37 166/208/37 168/209/37
f 166/211/38 162/206/38 165/210/38
f 162/206/38 166/211/38 161/212/38
f 171/13/33 170/16/33 169/188/33
f 170/16/33 171/13/33 172/187/33
f 173/215/35 170/214/35 172/213/35
f 170/214/35 173/215/35 174/216/35
f 175/211/39 170/217/39 174/210/39
f 170/217/39 175/211/39 169/214/39
f 172/218/40 176/204/40 173/203/40
f 176/204/40 172/218/40 171/219/40
f 173/222/34 175/221/34 174/220/34
f 175/221/34 173/222/34 176/223/34
f 175/225/37 171/218/37 169/224/37
f 171/218/37 175/225/37 176/226/37
f 179/225/41 178/218/41 177/224/41
f 178/218/41 179/225/41 180/226/41
f 178/167/33 181/168/33 177/15/33
f 181/168/33 178/167/33 182/6/33
f 185/227/36 184/211/36 183/207/36
f 184/211/36 185/227/36 186/210/36
f 187/204/39 177/228/39 181/224/39
f 177/228/39 187/204/39 179/203/39
f 184/201/42 188/200/42 183/199/42
f 188/200/42 184/201/42 189/202/42
f 191/208/41 185/207/41 190/206/41
f 185/207/41 191/208/41 186/209/41
f 178/213/40 192/211/40 182/229/40
f 192/211/40 178/213/40 180/210/40
f 185/1/33 188/3/33 190/181/33
f 188/3/33 185/1/33 183/180/33
f 192/215/42 181/214/42 182/213/42
f 181/214/42 192/215/42 187/216/42
f 189/204/38 190/200/38 188/230/38
f 190/200/38 189/204/38 191/203/38
f 184/233/34 191/232/34 189/231/34
f 191/232/34 184/233/34 186/234/34
f 192/237/34 179/236/34 187/235/34
f 179/236/34 192/237/34 180/238/34

usemtl custom5(Clone)

f 39/22/6 36/27/6 38/21/6
f 36/27/6 39/22/6 37/26/6
f 37/26/6 39/22/6 193/5/6
f 193/5/6 39/22/6 40/23/6
f 193/5/6 40/23/6 194/7/6
f 194/7/6 40/23/6 195/8/6
f 194/7/6 195/8/6 196/9/6
f 195/8/6 40/23/6 197/10/6
f 197/10/6 40/23/6 198/11/6
f 199/12/6 37/26/6 193/5/6
f 37/26/6 199/12/6 35/28/6
f 35/28/6 199/12/6 196/9/6
f 35/28/6 198/11/6 40/23/6
f 35/28/6 196/9/6 200/14/6
f 200/14/6 196/9/6 195/8/6
f 35/28/6 200/14/6 198/11/6
f 35/28/6 40/23/6 33/24/6
f 35/28/6 33/24/6 34/25/6
f 198/241/4 8/240/4 10/239/4
f 8/240/4 198/241/4 200/242/4
f 8/239/5 195/244/5 14/243/5
f 195/244/5 8/239/5 200/241/5
f 195/246/2 11/243/2 14/245/2
f 11/243/2 195/246/2 197/244/2
f 198/244/3 11/239/3 197/241/3
f 11/239/3 198/244/3 10/243/3
f 193/241/2 9/240/2 12/239/2
f 9/240/2 193/241/2 194/242/2
f 196/244/3 9/239/3 194/241/3
f 9/239/3 196/244/3 7/243/3
f 196/246/4 5/243/4 7/245/4
f 5/243/4 196/246/4 199/244/4
f 5/239/5 193/244/5 12/243/5
f 193/244/5 5/239/5 199/241/5
f 127/138/20 124/155/20 126/137/20
f 124/155/20 127/138/20 125/154/20
f 125/154/20 127/138/20 201/247/20
f 201/247/20 127/138/20 128/141/20
f 201/247/20 128/141/20 202/248/20
f 202/248/20 128/141/20 203/249/20
f 202/248/20 203/249/20 204/250/20
f 203/249/20 128/141/20 205/251/20
f 205/251/20 128/141/20 206/252/20
f 207/253/20 125/154/20 201/247/20
f 125/154/20 207/253/20 123/156/20
f 123/156/20 207/253/20 204/250/20
f 123/156/20 206/252/20 128/141/20
f 123/156/20 204/250/20 208/254/20
f 208/254/20 204/250/20 203/249/20
f 123/156/20 208/254/20 206/252/20
f 123/156/20 128/141/20 121/142/20
f 123/156/20 121/142/20 122/144/20
f 206/257/18 96/256/18 98/255/18
f 96/256/18 206/257/18 208/258/18
f 96/261/19 203/260/19 102/259/19
f 203/260/19 96/261/19 208/262/19
f 203/265/16 99/264/16 102/263/16
f 99/264/16 203/265/16 205/266/16
f 206/266/17 99/255/17 205/257/17
f 99/255/17 206/266/17 98/264/17
f 201/257/16 97/256/16 100/255/16
f 97/256/16 201/257/16 202/258/16
f 204/260/17 97/261/17 202/262/17
f 97/261/17 204/260/17 95/259/17
f 204/265/18 93/264/18 95/263/18
f 93/264/18 204/265/18 207/266/18
f 93/255/19 201/266/19 100/264/19
f 201/266/19 93/255/19 207/257/19

