# Created by Kenney (www.kenney.nl)

mtllib walking_00_04.mtl

g mergedBlocks

v 0.5 0.02499998 0.5
v 0.5 0.02499998 -0.5
v -0.5 0.02499998 0.5
v -0.5 0.02499998 -0.5
v -0.38 0.325 -0.5
v 0.38 0.325 -0.5
v 0.46 0.125 0.46
v -0.3533261 0.125 0.46
v 0.3533261 0.125 0.46
v -0.46 0.125 0.46
v -0.38 0.325 -0.06
v 0.38 0.325 -0.06
v 0.3533261 0.125 0.2985695
v -0.3533261 0.125 0.2985695
v -0.3 0.525 -0.5
v 0.3 0.525 -0.5
v 0.3 0.525 0.3
v -0.3 0.525 0.3
v 0.2304652 0.4321523 0.3371391
v -0.2304652 0.4321523 0.3371391
v -0.2304652 0.4321523 0.2371391
v 0.2304652 0.4321523 0.2371391
v -0.125 0.5999999 -0.5
v 0.125 0.5999999 -0.5
v -0.125 0.8499999 -0.5
v 0.125 0.8499999 -0.5
v 0.2 0.4749999 -0.25
v -0.2 0.4749999 -0.25
v 0.2 0.9749999 -0.25
v -0.2 0.9749999 -0.25
v -0.25 0.5249999 -0.25
v -0.25 0.9249999 -0.25
v 0.25 0.9249999 -0.25
v 0.25 0.5249999 -0.25
v 0.25 0.9249999 0.15
v 0.25 0.5249999 0.15
v 0.2 0.9749999 0.15
v 0.2 0.5249999 0.15
v 0.2 0.6749999 0.15
v 0.2 0.7749999 0.15
v 0.2 0.9249999 0.15
v 0.05 0.9249999 0.15
v -0.05 0.9249999 0.15
v -0.2 0.9249999 0.15
v -0.25 0.9249999 0.15
v -0.2 0.9749999 0.15
v -0.25 0.5249999 0.15
v -0.2 0.4749999 0.15
v 0.2 0.4749999 0.15
v 0.05 0.5249999 0.15
v -0.05 0.5249999 0.15
v -0.2 0.5249999 0.15
v -0.2 0.6249999 0.15
v -0.2 0.6749999 0.15
v -0.2 0.7749999 0.15
v 0.3533261 0.125 0.1371391
v -0.3533261 0.125 0.1371391
v -0.2304652 0.4321523 0.1371391
v 0.2304652 0.4321523 0.1371391
v 0.1 0.6249999 0.3
v -0.1 0.6249999 0.3
v 0.1 0.8249999 0.3
v -0.1 0.8249999 0.3
v 0.1 0.8249999 0.5
v -0.1 0.8249999 0.5
v -0.1 0.6249999 0.5
v 0.1 0.6249999 0.5
v -0.15 0.5749999 0.5
v 0.15 0.5749999 0.5
v 0.15 0.8749999 0.5
v -0.15 0.8749999 0.5
v -0.15 0.7749999 0.15
v -0.15 0.7749999 0.325
v -0.15 0.5749999 0.15
v -0.15 0.6749999 0.15
v -0.15 0.6749999 0.325
v -0.15 0.8749999 0.15
v -0.05 0.5749999 0.15
v -0.05 0.5749999 0.325
v 0.05 0.5749999 0.15
v 0.05 0.5749999 0.325
v 0.15 0.5749999 0.15
v 0.15 0.6749999 0.325
v 0.15 0.6749999 0.15
v 0.15 0.7749999 0.15
v 0.15 0.7749999 0.325
v 0.15 0.8749999 0.15
v -0.05 0.8749999 0.15
v -0.05 0.8749999 0.325
v 0.05 0.8749999 0.15
v 0.05 0.8749999 0.325
v -0.4 0.02499998 -0.5
v -0.4 -0.475 -0.5
v -0.4 0.02499998 -0.4
v -0.4 -0.4 -0.475
v -0.4 -0.4 -0.425
v -0.4 -0.45 -0.425
v -0.4 -0.45 -0.475
v -0.4 -0.475 -0.4
v -0.5 -0.475 -0.4
v -0.425 -0.05000004 -0.4
v -0.425 -5.960464E-08 -0.4
v -0.475 -5.960464E-08 -0.4
v -0.475 -0.05000004 -0.4
v -0.5 0.02499998 -0.4
v 0.4 -0.475 -0.5
v 0.5 -0.475 -0.5
v 0.4 0.02499998 -0.5
v -0.4 0.02499998 0.4
v -0.4 0.02499998 0.5
v -0.5 0.02499998 0.4
v -0.4 -0.475 0.5
v -0.5 -0.475 0.5
v 0.5 0.02499998 -0.4
v 0.5 -0.475 -0.4
v 0.4 -0.475 -0.4
v 0.475 -0.05000004 -0.4
v 0.475 -5.960464E-08 -0.4
v 0.425 -5.960464E-08 -0.4
v 0.425 -0.05000004 -0.4
v 0.4 0.02499998 -0.4
v -0.5 -0.475 -0.5
v 0.4 -0.05000004 -0.475
v 0.4 -0.05000004 -0.425
v 0.4 -5.960464E-08 -0.425
v 0.4 -5.960464E-08 -0.475
v -0.4 -0.475 0.4
v -0.4 -0.4 0.425
v -0.4 -0.4 0.475
v -0.4 -0.45 0.475
v -0.4 -0.45 0.425
v -0.5 -0.475 0.4
v 0.5 0.02499998 0.4
v 0.5 -0.475 0.4
v 0.5 -0.475 0.5
v 0.425 -0.45 0.4
v 0.4 -0.475 0.4
v 0.4 0.02499998 0.4
v 0.425 -0.4 0.4
v 0.475 -0.4 0.4
v 0.475 -0.45 0.4
v 0.4 -0.475 0.5
v 0.4 0.02499998 0.5
v -0.475 -0.45 0.4
v -0.475 -0.4 0.4
v -0.425 -0.4 0.4
v -0.425 -0.45 0.4
v 0.4 -0.05000004 0.425
v 0.4 -0.05000004 0.475
v 0.4 -5.960464E-08 0.475
v 0.4 -5.960464E-08 0.425
v 0.4 -0.4750001 0.5
v 0.4 -0.4750001 0.4
v 0.5 -0.4750001 0.5
v 0.5 -0.4750001 0.4
v 0.2 -0.975 0.2
v 0.2 -0.975 0.3
v 0.3 -0.975 0.2
v 0.3 -0.975 0.3
v -0.5 -0.475 0.5
v -0.5 -0.475 0.4
v -0.4 -0.475 0.5
v -0.4 -0.475 0.4
v -0.2 -0.975 0.2
v -0.3 -0.975 0.2
v -0.3 -0.975 0.3
v -0.2 -0.975 0.3
v -0.5 -0.475 -0.4
v -0.4 -0.475 -0.4
v -0.3 -0.975 -0.2
v -0.2 -0.975 -0.2
v -0.5 -0.475 -0.5
v -0.4 -0.475 -0.5
v 0.5 -0.4750001 -0.5
v 0.3 -0.975 -0.3
v 0.5 -0.4750001 -0.4
v 0.3 -0.975 -0.2
v -0.3 -0.975 -0.3
v 0.4 -0.4750001 -0.5
v 0.2 -0.975 -0.3
v 0.4 -0.4750001 -0.4
v 0.2 -0.975 -0.2
v -0.2 -0.975 -0.3

vn 0 -1 0
vn 0 0 -1
vn 0 0.3713907 0.9284768
vn -0.9284768 0.3713907 0
vn 0.9284768 0.3713907 0
vn 0 1 0
vn 0.9284768 -0.3713907 0
vn -0.9284768 -0.3713907 0
vn 0 -0.8944272 -0.4472136
vn 0 0.8944272 -0.4472136
vn -0.8944272 0 -0.4472136
vn 0.8944272 0 -0.4472136
vn 1 0 0
vn 0.7071068 0.7071068 0
vn 0.6154575 0.6154575 -0.492366
vn 0 0 1
vn -0.7071068 0.7071068 0
vn -0.6154575 0.6154575 -0.492366
vn -1 0 0
vn -0.7071068 -0.7071068 0
vn -0.6154575 -0.6154575 -0.492366
vn 0.7071068 -0.7071068 0
vn 0.6154575 -0.6154575 -0.492366
vn 0 -0.961524 0.2747211
vn 0.961524 0 0.2747211
vn 0 0.961524 0.2747211
vn -0.961524 0 0.2747211
vn 0 0.8944272 0.4472136
vn -0.4472136 0.8944272 0
vn 0.4472136 -0.8944272 0
vn 8.742278E-08 1 0
vn -8.742278E-08 -1 0
vn 3.246801E-08 0.3713907 -0.9284768
vn 0.9284767 -0.3713908 0
vn -3.246801E-08 -0.3713907 0.9284768
vn -0.9284767 0.3713908 0
vn -0.9284768 -0.3713906 0
vn 0.9284768 0.3713906 0
vn 3.246801E-08 0.3713907 0.9284768
vn -3.246801E-08 -0.3713907 -0.9284768

vt -0.5 -0.5
vt -0.5 0.5
vt 0.5 -0.5
vt 0.5 0.5
vt 0.5 0.02499998
vt -0.5 0.02499998
vt 0.38 0.325
vt -0.38 0.325
vt 0.46 0.125
vt -0.3533261 0.125
vt 0.3533261 0.125
vt -0.46 0.125
vt -0.5 0.325
vt -0.06 0.325
vt 0.5 0.325
vt 0.06 0.325
vt -0.3533261 0.2985695
vt -0.3533261 0.46
vt 0.3533261 0.2985695
vt 0.3533261 0.46
vt 0.3 0.525
vt -0.3 0.525
vt -0.3 -0.5
vt -0.3 0.3
vt 0.3 -0.5
vt 0.3 0.3
vt 0.2304652 0.4321523
vt -0.2304652 0.4321523
vt -0.2371391 0.4321523
vt -0.2985695 0.125
vt -0.3371391 0.4321523
vt 0.2371391 0.4321523
vt 0.3371391 0.4321523
vt 0.2985695 0.125
vt -0.2304652 -0.3371391
vt -0.2304652 -0.2371391
vt 0.2304652 -0.3371391
vt 0.2304652 -0.2371391
vt 0.5 0.525
vt -0.5 0.525
vt 0.125 0.5999999
vt -0.125 0.5999999
vt 0.125 0.8499999
vt -0.125 0.8499999
vt -0.2 0.25
vt -0.125 0.5
vt 0.2 0.25
vt 0.125 0.5
vt -0.2 -0.25
vt 0.2 -0.25
vt -0.125 -0.5
vt 0.125 -0.5
vt -0.5 0.5999999
vt -0.5 0.8499999
vt -0.25 0.5249999
vt -0.25 0.9249999
vt 0.5 0.8499999
vt 0.5 0.5999999
vt 0.25 0.9249999
vt 0.25 0.5249999
vt -0.15 0.9249999
vt -0.15 0.5249999
vt 0.25 0.9749999
vt -0.15 0.9749999
vt 0.2 0.5249999
vt 0.2 0.6749999
vt 0.2 0.7749999
vt 0.2 0.9249999
vt 0.2 0.9749999
vt 0.05 0.9249999
vt -0.05 0.9249999
vt -0.2 0.9249999
vt -0.2 0.9749999
vt -0.2 0.4749999
vt 0.2 0.4749999
vt 0.05 0.5249999
vt -0.05 0.5249999
vt -0.2 0.5249999
vt -0.2 0.6249999
vt -0.2 0.6749999
vt -0.2 0.7749999
vt -0.2 0.15
vt 0.2 0.15
vt -0.25 0.9749999
vt 0.15 0.9249999
vt 0.15 0.9749999
vt 0.15 0.5249999
vt -0.25 0.4749999
vt 0.15 0.4749999
vt -0.2 -0.15
vt 0.2 -0.15
vt 0.25 0.4749999
vt -0.15 0.4749999
vt -0.3533261 0.1371391
vt 0.3533261 0.1371391
vt -0.1371391 0.4321523
vt -0.1371391 0.125
vt -0.2304652 -0.1371391
vt 0.2304652 -0.1371391
vt 0.1371391 0.125
vt 0.1371391 0.4321523
vt 0.1 0.6249999
vt -0.1 0.6249999
vt 0.1 0.8249999
vt -0.1 0.8249999
vt -0.1 -0.5
vt -0.1 -0.3
vt 0.1 -0.5
vt 0.1 -0.3
vt -0.3 0.8249999
vt -0.3 0.6249999
vt -0.5 0.8249999
vt -0.5 0.6249999
vt -0.1 0.3
vt -0.1 0.5
vt 0.1 0.3
vt 0.1 0.5
vt 0.3 0.6249999
vt 0.3 0.8249999
vt 0.5 0.6249999
vt 0.5 0.8249999
vt -0.15 0.5749999
vt 0.15 0.5749999
vt 0.15 0.8749999
vt -0.15 0.8749999
vt 0.15 0.15
vt 0.15 0.325
vt 0.15 0.6749999
vt 0.5 0.5749999
vt 0.325 0.6749999
vt 0.325 0.7749999
vt 0.15 0.7749999
vt 0.5 0.8749999
vt 0.15 -0.325
vt 0.15 -0.15
vt -0.05 0.5749999
vt -0.15 0.6749999
vt 0.325 0.5749999
vt -0.325 0.5749999
vt -0.15 -0.15
vt -0.05 -0.325
vt -0.15 -0.5
vt 0.15 -0.5
vt 0.05 -0.325
vt 0.05 -0.15
vt -0.05 -0.15
vt -0.15 -0.325
vt -0.15 0.15
vt -0.15 0.325
vt -0.15 0.7749999
vt -0.5 0.8749999
vt -0.325 0.7749999
vt -0.325 0.6749999
vt -0.5 0.5749999
vt -0.05 0.8749999
vt 0.325 0.8749999
vt 0.05 0.8749999
vt 0.05 0.15
vt 0.05 0.325
vt -0.15 0.5
vt -0.05 0.15
vt -0.05 0.325
vt 0.15 0.5
vt -0.325 0.8749999
vt 0.05 0.5749999
vt 0.5 -0.475
vt 0.4 0.02499998
vt 0.475 -0.4
vt 0.425 -0.4
vt 0.425 -0.45
vt 0.475 -0.45
vt 0.4 -0.475
vt -0.4 -0.475
vt -0.5 -0.475
vt -0.4 0.02499998
vt -0.425 -0.05000004
vt -0.425 -5.960464E-08
vt -0.475 -5.960464E-08
vt -0.475 -0.05000004
vt 0.4 0.4
vt 0.4 0.5
vt 0.5 0.4
vt 0.475 -0.05000004
vt 0.475 -5.960464E-08
vt 0.425 -5.960464E-08
vt 0.425 -0.05000004
vt -0.5 0.4
vt -0.4 0.4
vt -0.4 0.5
vt 0.4 -0.5
vt 0.4 -0.4
vt 0.5 -0.4
vt -0.425 -0.4
vt -0.475 -0.4
vt -0.475 -0.45
vt -0.425 -0.45
vt -0.5 -0.4
vt -0.4 -0.5
vt -0.4 -0.4
vt -0.4 -0.05000004
vt -0.4 -5.960464E-08
vt 0.4 -0.45
vt 0.4 -0.4
vt 0.425 -0.4
vt 0.425 0.4
vt 0.475 -0.4
vt 0.475 0.4
vt 0.4 -5.960464E-08
vt 0.4 -0.05000004
vt -0.4 -0.4
vt -0.4 -0.45
vt -0.4 -0.425
vt 0.4 -0.425
vt -0.4 -0.475
vt 0.4 -0.475
vt -0.4 0.425
vt -0.4 0.475
vt 0.4 0.425
vt 0.4 0.475
vt -0.475 -0.4
vt -0.475 0.4
vt -0.425 -0.4
vt -0.425 0.4
vt -0.2 -0.2
vt -0.2 -0.3
vt -0.3 -0.2
vt -0.3 -0.3
vt -0.5 -0.4750001
vt -0.4 -0.4750001
vt -0.3 -0.975
vt -0.2 -0.975
vt -0.2 -0.975
vt -0.3 -0.975
vt 0.4 -0.4750001
vt 0.5 -0.4750001
vt 0.2 -0.975
vt 0.3 -0.975
vt 0.2 -0.975
vt 0.3 -0.975
vt 0.4 -0.475
vt 0.5 -0.475
vt 0.2 -0.975
vt 0.3 -0.975
vt -0.4 -0.475
vt -0.5 -0.475
vt 0.3 -0.2
vt 0.3 -0.3
vt 0.2 -0.2
vt 0.2 -0.3
vt -0.3 -0.975
vt -0.2 -0.975
vt -0.2 0.3
vt -0.2 0.2
vt -0.3 0.3
vt -0.3 0.2
vt 0.3 0.3
vt 0.3 0.2
vt 0.2 0.3
vt 0.2 0.2

usemtl custom8(Clone)

f 3/3/1 2/2/1 1/1/1
f 2/2/1 3/3/1 4/4/1
f 5/7/2 2/6/2 4/5/2
f 2/6/2 5/7/2 6/8/2
f 7/9/3 3/6/3 1/5/3
f 3/6/3 7/9/3 8/10/3
f 8/10/3 7/9/3 9/11/3
f 10/12/3 3/6/3 8/10/3
f 3/5/4 5/13/4 4/6/4
f 5/13/4 3/5/4 11/14/4
f 11/14/4 3/5/4 10/9/4
f 12/16/5 2/5/5 6/15/5
f 2/5/5 12/16/5 1/6/5
f 1/6/5 12/16/5 7/12/5
f 14/19/6 9/18/6 13/17/6
f 9/18/6 14/19/6 8/20/6
f 15/21/2 6/8/2 5/7/2
f 6/8/2 15/21/2 16/22/2
f 15/25/6 17/24/6 16/23/6
f 17/24/6 15/25/6 18/26/6
f 17/21/3 9/11/3 7/9/3
f 9/11/3 17/21/3 19/27/3
f 19/27/3 17/21/3 20/28/3
f 18/22/3 20/28/3 17/21/3
f 10/12/3 20/28/3 18/22/3
f 20/28/3 10/12/3 8/10/3
f 20/31/7 14/30/7 21/29/7
f 14/30/7 20/31/7 8/12/7
f 13/34/8 19/33/8 22/32/8
f 19/33/8 13/34/8 9/9/8
f 20/37/1 22/36/1 19/35/1
f 22/36/1 20/37/1 21/38/1
f 17/22/5 6/15/5 16/39/5
f 6/15/5 17/22/5 12/16/5
f 12/16/5 17/22/5 7/12/5
f 11/14/4 15/40/4 5/13/4
f 15/40/4 11/14/4 18/21/4
f 18/21/4 11/14/4 10/9/4
f 25/43/2 24/42/2 23/41/2
f 24/42/2 25/43/2 26/44/2
f 28/47/9 24/46/9 27/45/9
f 24/46/9 28/47/9 23/48/9
f 26/51/10 30/50/10 29/49/10
f 30/50/10 26/51/10 25/52/10
f 31/55/11 25/54/11 23/53/11
f 25/54/11 31/55/11 32/56/11
f 33/59/12 24/58/12 26/57/12
f 24/58/12 33/59/12 34/60/12
f 35/61/13 34/60/13 33/59/13
f 34/60/13 35/61/13 36/62/13
f 37/64/14 33/59/14 29/63/14
f 33/59/14 37/64/14 35/61/14
f 33/59/15 26/57/15 29/63/15
f 35/59/16 38/65/16 36/60/16
f 38/65/16 35/59/16 39/66/16
f 39/66/16 35/59/16 40/67/16
f 40/67/16 35/59/16 41/68/16
f 41/68/16 35/59/16 37/69/16
f 41/68/16 37/69/16 42/70/16
f 42/70/16 37/69/16 43/71/16
f 43/71/16 37/69/16 44/72/16
f 44/72/16 37/69/16 45/56/16
f 45/56/16 37/69/16 46/73/16
f 47/55/16 36/60/16 38/65/16
f 48/74/16 36/60/16 47/55/16
f 36/60/16 48/74/16 49/75/16
f 47/55/16 38/65/16 50/76/16
f 47/55/16 50/76/16 51/77/16
f 47/55/16 51/77/16 52/78/16
f 47/55/16 52/78/16 53/79/16
f 47/55/16 53/79/16 45/56/16
f 45/56/16 53/79/16 54/80/16
f 45/56/16 54/80/16 55/81/16
f 45/56/16 55/81/16 44/72/16
f 30/50/6 37/82/6 29/49/6
f 37/82/6 30/50/6 46/83/6
f 45/85/17 30/84/17 32/56/17
f 30/84/17 45/85/17 46/86/17
f 30/84/18 25/54/18 32/56/18
f 47/87/19 32/56/19 31/55/19
f 32/56/19 47/87/19 45/85/19
f 48/89/20 31/55/20 28/88/20
f 31/55/20 48/89/20 47/87/20
f 31/55/21 23/53/21 28/88/21
f 48/91/1 27/45/1 49/90/1
f 27/45/1 48/91/1 28/47/1
f 36/62/22 27/92/22 34/60/22
f 27/92/22 36/62/22 49/93/22
f 24/58/23 34/60/23 27/92/23

usemtl dark(Clone)

f 57/95/6 13/17/6 56/94/6
f 13/17/6 57/95/6 14/19/6
f 56/11/16 58/28/16 57/10/16
f 58/28/16 56/11/16 59/27/16
f 21/29/7 57/97/7 58/96/7
f 57/97/7 21/29/7 14/30/7
f 21/38/1 59/98/1 22/36/1
f 59/98/1 21/38/1 58/99/1
f 13/34/8 59/101/8 56/100/8
f 59/101/8 13/34/8 22/32/8
f 62/104/16 61/103/16 60/102/16
f 61/103/16 62/104/16 63/105/16
f 65/108/1 62/107/1 64/106/1
f 62/107/1 65/108/1 63/109/1
f 65/112/13 61/111/13 63/110/13
f 61/111/13 65/112/13 66/113/13
f 61/116/6 67/115/6 60/114/6
f 67/115/6 61/116/6 66/117/6
f 67/120/19 62/119/19 60/118/19
f 62/119/19 67/120/19 64/121/19

usemtl _defaultMat(Clone)

f 69/123/16 67/102/16 68/122/16
f 67/102/16 69/123/16 70/124/16
f 67/102/16 70/124/16 64/104/16
f 64/104/16 70/124/16 65/105/16
f 68/122/16 66/103/16 71/125/16
f 66/103/16 68/122/16 67/102/16
f 71/125/16 66/103/16 65/105/16
f 71/125/16 65/105/16 70/124/16
f 55/83/6 73/127/6 72/126/6
f 68/129/19 75/128/19 74/123/19
f 75/128/19 68/129/19 76/130/19
f 76/130/19 68/129/19 73/131/19
f 73/131/19 77/124/19 72/132/19
f 77/124/19 73/131/19 71/133/19
f 71/133/19 73/131/19 68/129/19
f 54/91/1 75/135/1 76/134/1
f 78/136/16 52/78/16 51/77/16
f 52/78/16 78/136/16 74/122/16
f 52/78/16 74/122/16 53/79/16
f 53/79/16 74/122/16 75/137/16
f 53/79/16 75/137/16 54/80/16
f 79/138/19 78/123/19 51/87/19
f 81/139/13 50/62/13 80/122/13
f 69/142/1 81/141/1 82/140/1
f 81/141/1 69/142/1 68/143/1
f 81/141/1 68/143/1 79/144/1
f 78/145/1 68/143/1 74/135/1
f 79/144/1 68/143/1 78/145/1
f 80/146/1 82/140/1 81/141/1
f 84/140/1 39/90/1 83/147/1
f 86/149/6 40/82/6 85/148/6
f 70/151/13 85/150/13 87/125/13
f 85/150/13 70/151/13 86/152/13
f 86/152/13 70/151/13 83/153/13
f 83/153/13 82/122/13 84/137/13
f 82/122/13 83/153/13 69/154/13
f 69/154/13 83/153/13 70/151/13
f 43/71/16 77/125/16 88/155/16
f 77/125/16 55/81/16 72/150/16
f 55/81/16 77/125/16 44/72/16
f 44/72/16 77/125/16 43/71/16
f 89/156/19 43/85/19 88/124/19
f 41/68/16 85/132/16 40/67/16
f 85/132/16 41/68/16 87/124/16
f 90/157/16 41/68/16 42/70/16
f 87/124/16 41/68/16 90/157/16
f 77/126/6 89/159/6 88/158/6
f 90/161/6 70/160/6 87/148/6
f 70/160/6 90/161/6 91/162/6
f 70/160/6 91/162/6 71/163/6
f 71/163/6 91/162/6 89/159/6
f 71/163/6 89/159/6 77/126/6
f 81/141/24 51/145/24 50/146/24
f 51/145/24 81/141/24 79/144/24
f 86/152/25 39/137/25 40/150/25
f 39/137/25 86/152/25 83/153/25
f 91/164/13 90/125/13 42/61/13
f 42/161/26 89/159/26 91/162/26
f 89/159/26 42/161/26 43/158/26
f 76/130/27 55/132/27 54/128/27
f 55/132/27 76/130/27 73/131/27
f 38/65/16 82/123/16 50/76/16
f 82/123/16 38/65/16 39/66/16
f 82/123/16 39/66/16 84/128/16
f 80/165/16 50/76/16 82/123/16
f 31/60/2 27/74/2 28/75/2
f 27/74/2 31/60/2 34/55/2
f 34/55/2 31/60/2 32/59/2
f 34/55/2 32/59/2 33/56/2
f 33/56/2 32/59/2 30/69/2
f 33/56/2 30/69/2 29/73/2
f 94/167/13 93/166/13 92/5/13
f 93/166/13 94/167/13 95/168/13
f 95/168/13 94/167/13 96/169/13
f 96/169/13 94/167/13 97/170/13
f 98/171/13 93/166/13 95/168/13
f 93/166/13 98/171/13 99/172/13
f 99/172/13 98/171/13 97/170/13
f 99/172/13 97/170/13 94/167/13
f 94/175/16 100/174/16 99/173/16
f 100/174/16 94/175/16 101/176/16
f 101/176/16 94/175/16 102/177/16
f 102/177/16 94/175/16 103/178/16
f 104/179/16 100/174/16 101/176/16
f 100/174/16 104/179/16 105/6/16
f 105/6/16 104/179/16 103/178/16
f 105/6/16 103/178/16 94/175/16
f 108/175/2 107/174/2 106/173/2
f 107/174/2 108/175/2 2/6/2
f 111/182/6 110/181/6 109/180/6
f 110/181/6 111/182/6 3/4/6
f 110/175/16 113/174/16 112/173/16
f 113/174/16 110/175/16 3/6/16
f 114/167/13 107/166/13 2/5/13
f 107/166/13 114/167/13 115/172/13
f 114/5/16 116/172/16 115/166/16
f 116/172/16 114/5/16 117/183/16
f 117/183/16 114/5/16 118/184/16
f 118/184/16 114/5/16 119/185/16
f 120/186/16 116/172/16 117/183/16
f 116/172/16 120/186/16 121/167/16
f 121/167/16 120/186/16 119/185/16
f 121/167/16 119/185/16 114/5/16
f 116/188/1 107/2/1 115/187/1
f 107/2/1 116/188/1 106/189/1
f 100/173/19 4/6/19 122/174/19
f 4/6/19 100/173/19 105/175/19
f 4/5/2 93/172/2 122/166/2
f 93/172/2 4/5/2 92/167/2
f 100/182/1 93/181/1 99/180/1
f 93/181/1 100/182/1 122/4/1
f 116/173/19 108/6/19 106/174/19
f 108/6/19 116/173/19 123/179/19
f 123/179/19 116/173/19 124/176/19
f 124/176/19 116/173/19 125/177/19
f 126/178/19 108/6/19 123/179/19
f 108/6/19 126/178/19 121/175/19
f 121/175/19 126/178/19 125/177/19
f 121/175/19 125/177/19 116/173/19
f 4/3/6 94/191/6 92/190/6
f 94/191/6 4/3/6 105/192/6
f 110/6/13 127/173/13 109/175/13
f 127/173/13 110/6/13 128/193/13
f 128/193/13 110/6/13 129/194/13
f 129/194/13 110/6/13 130/195/13
f 131/196/13 127/173/13 128/193/13
f 127/173/13 131/196/13 112/174/13
f 112/174/13 131/196/13 130/195/13
f 112/174/13 130/195/13 110/6/13
f 113/166/19 111/167/19 132/172/19
f 111/167/19 113/166/19 3/5/19
f 1/6/13 134/173/13 133/175/13
f 134/173/13 1/6/13 135/174/13
f 137/173/2 136/196/2 134/174/2
f 136/196/2 137/173/2 138/175/2
f 136/196/2 138/175/2 139/193/2
f 139/193/2 138/175/2 140/194/2
f 141/195/2 134/174/2 136/196/2
f 134/174/2 141/195/2 133/6/2
f 133/6/2 141/195/2 140/194/2
f 133/6/2 140/194/2 138/175/2
f 1/5/16 142/172/16 135/166/16
f 142/172/16 1/5/16 143/167/16
f 113/3/1 127/191/1 112/190/1
f 127/191/1 113/3/1 132/192/1
f 132/166/2 144/171/2 127/172/2
f 144/171/2 132/166/2 111/5/2
f 144/171/2 111/5/2 145/168/2
f 145/168/2 111/5/2 146/169/2
f 147/170/2 127/172/2 144/171/2
f 127/172/2 147/170/2 109/167/2
f 109/167/2 147/170/2 146/169/2
f 109/167/2 146/169/2 111/5/2
f 142/166/19 138/167/19 137/172/19
f 138/167/19 142/166/19 148/186/19
f 148/186/19 142/166/19 149/183/19
f 149/183/19 142/166/19 150/184/19
f 151/185/19 138/167/19 148/186/19
f 138/167/19 151/185/19 143/5/19
f 143/5/19 151/185/19 150/184/19
f 143/5/19 150/184/19 142/166/19
f 142/198/1 134/197/1 135/1/1
f 134/197/1 142/198/1 137/199/1
f 144/202/19 103/201/19 104/200/19
f 103/201/19 144/202/19 145/203/19
f 103/206/28 146/205/28 102/204/28
f 146/205/28 103/206/28 145/207/28
f 146/210/13 101/209/13 102/208/13
f 101/209/13 146/210/13 147/211/13
f 147/204/9 104/207/9 101/205/9
f 104/207/9 147/204/9 144/206/9
f 95/203/2 123/200/2 98/202/2
f 123/200/2 95/203/2 126/201/2
f 126/214/29 96/213/29 125/212/29
f 96/213/29 126/214/29 95/215/29
f 124/209/16 96/210/16 97/211/16
f 96/210/16 124/209/16 125/208/16
f 97/218/30 123/217/30 124/216/30
f 123/217/30 97/218/30 98/219/30
f 108/198/6 114/197/6 2/1/6
f 114/197/6 108/198/6 121/199/6
f 136/202/19 119/201/19 120/200/19
f 119/201/19 136/202/19 139/203/19
f 119/222/28 140/221/28 118/220/28
f 140/221/28 119/222/28 139/223/28
f 140/210/13 117/209/13 118/208/13
f 117/209/13 140/210/13 141/211/13
f 141/220/9 120/223/9 117/221/9
f 120/223/9 141/220/9 136/222/9
f 138/188/6 1/2/6 133/187/6
f 1/2/6 138/188/6 143/189/6
f 128/203/2 148/200/2 131/202/2
f 148/200/2 128/203/2 151/201/2
f 130/215/30 148/212/30 149/214/30
f 148/212/30 130/215/30 131/213/30
f 151/216/29 129/219/29 150/217/29
f 129/219/29 151/216/29 128/218/29
f 149/209/16 129/210/16 130/211/16
f 129/210/16 149/209/16 150/208/16
f 154/2/31 153/188/31 152/189/31
f 153/188/31 154/2/31 155/187/31
f 158/226/32 157/225/32 156/224/32
f 157/225/32 158/226/32 159/227/32
f 158/230/33 153/229/33 155/228/33
f 153/229/33 158/230/33 156/231/33
f 155/229/34 159/233/34 158/232/34
f 159/233/34 155/229/34 154/228/34
f 157/236/35 154/235/35 152/234/35
f 154/235/35 157/236/35 159/237/35
f 157/239/36 153/234/36 156/238/36
f 153/234/36 157/239/36 152/235/36
f 162/181/31 161/182/31 160/4/31
f 161/182/31 162/181/31 163/180/31
f 164/242/33 161/241/33 163/240/33
f 161/241/33 164/242/33 165/243/33
f 166/239/37 161/240/37 165/238/37
f 161/240/37 166/239/37 160/241/37
f 163/244/38 167/233/38 164/232/38
f 167/233/38 163/244/38 162/245/38
f 164/248/32 166/247/32 165/246/32
f 166/247/32 164/248/32 167/249/32
f 166/250/35 162/244/35 160/245/35
f 162/244/35 166/250/35 167/251/35
f 170/250/39 169/244/39 168/245/39
f 169/244/39 170/250/39 171/251/39
f 169/191/31 172/3/31 168/192/31
f 172/3/31 169/191/31 173/190/31
f 176/234/34 175/239/34 174/235/34
f 175/239/34 176/234/34 177/238/34
f 178/233/37 168/244/37 172/245/37
f 168/244/37 178/233/37 170/232/37
f 175/230/40 179/229/40 174/228/40
f 179/229/40 175/230/40 180/231/40
f 182/236/39 176/235/39 181/234/39
f 176/235/39 182/236/39 177/237/39
f 169/240/38 183/239/38 173/241/38
f 183/239/38 169/240/38 171/238/38
f 176/197/31 179/198/31 181/199/31
f 179/198/31 176/197/31 174/1/31
f 183/242/40 172/241/40 173/240/40
f 172/241/40 183/242/40 178/243/40
f 180/233/36 181/229/36 179/228/36
f 181/229/36 180/233/36 182/232/36
f 175/254/32 182/253/32 180/252/32
f 182/253/32 175/254/32 177/255/32
f 183/258/32 170/257/32 178/256/32
f 170/257/32 183/258/32 171/259/32

