# Created by Kenney (www.kenney.nl)

mtllib walking_00_03.mtl

g mergedBlocks

v 0.5 0.25 0.5
v 0.5 0.25 -0.5
v -0.5 0.25 0.5
v -0.5 0.25 -0.5
v -0.38 0.55 -0.5
v 0.38 0.55 -0.5
v 0.46 0.35 0.46
v -0.3533261 0.35 0.46
v 0.3533261 0.35 0.46
v -0.46 0.35 0.46
v -0.38 0.55 -0.06
v 0.38 0.55 -0.06
v 0.3533261 0.35 0.2985695
v -0.3533261 0.35 0.2985695
v -0.3 0.75 -0.5
v 0.3 0.75 -0.5
v 0.3 0.75 0.3
v -0.3 0.75 0.3
v 0.2304652 0.6571523 0.3371391
v -0.2304652 0.6571523 0.3371391
v -0.2304652 0.6571523 0.2371391
v 0.2304652 0.6571523 0.2371391
v 0.3533261 0.35 0.1371391
v -0.3533261 0.35 0.1371391
v -0.2304652 0.6571523 0.1371391
v 0.2304652 0.6571523 0.1371391
v -0.4 0.25 -0.5
v -0.4 -0.25 -0.5
v -0.4 0.25 -0.4
v -0.4 -0.175 -0.475
v -0.4 -0.175 -0.425
v -0.4 -0.225 -0.425
v -0.4 -0.225 -0.475
v -0.4 -0.25 -0.4
v -0.5 -0.25 -0.4
v -0.425 0.175 -0.4
v -0.425 0.225 -0.4
v -0.475 0.225 -0.4
v -0.475 0.175 -0.4
v -0.5 0.25 -0.4
v 0.4 -0.25 -0.5
v 0.5 -0.25 -0.5
v 0.4 0.25 -0.5
v -0.4 0.25 0.4
v -0.4 0.25 0.5
v -0.5 0.25 0.4
v -0.4 -0.25 0.5
v -0.5 -0.25 0.5
v 0.5 0.25 -0.4
v 0.5 -0.25 -0.4
v 0.4 -0.25 -0.4
v 0.475 0.175 -0.4
v 0.475 0.225 -0.4
v 0.425 0.225 -0.4
v 0.425 0.175 -0.4
v 0.4 0.25 -0.4
v -0.5 -0.25 -0.5
v 0.4 0.175 -0.475
v 0.4 0.175 -0.425
v 0.4 0.225 -0.425
v 0.4 0.225 -0.475
v -0.4 -0.25 0.4
v -0.4 -0.175 0.425
v -0.4 -0.175 0.475
v -0.4 -0.225 0.475
v -0.4 -0.225 0.425
v -0.5 -0.25 0.4
v 0.5 0.25 0.4
v 0.5 -0.25 0.4
v 0.5 -0.25 0.5
v 0.425 -0.225 0.4
v 0.4 -0.25 0.4
v 0.4 0.25 0.4
v 0.425 -0.175 0.4
v 0.475 -0.175 0.4
v 0.475 -0.225 0.4
v 0.4 -0.25 0.5
v 0.4 0.25 0.5
v -0.475 -0.225 0.4
v -0.475 -0.175 0.4
v -0.425 -0.175 0.4
v -0.425 -0.225 0.4
v 0.4 0.175 0.425
v 0.4 0.175 0.475
v 0.4 0.225 0.475
v 0.4 0.225 0.425
v 0.4 -0.25 0.5
v 0.4 -0.25 0.4
v 0.5 -0.25 0.5
v 0.5 -0.25 0.4
v 0.2 -0.75 0.2
v 0.2 -0.75 0.3
v 0.3 -0.75 0.2
v 0.3 -0.75 0.3
v -0.5 -0.25 0.5
v -0.5 -0.25 0.4
v -0.4 -0.25 0.5
v -0.4 -0.25 0.4
v -0.2 -0.75 0.2
v -0.3 -0.75 0.2
v -0.3 -0.75 0.3
v -0.2 -0.75 0.3
v -0.5 -0.25 -0.4
v -0.4 -0.25 -0.4
v -0.3 -0.75 -0.2
v -0.2 -0.75 -0.2
v -0.5 -0.25 -0.5
v -0.4 -0.25 -0.5
v 0.5 -0.25 -0.5
v 0.3 -0.75 -0.3
v 0.5 -0.25 -0.4
v 0.3 -0.75 -0.2
v -0.3 -0.75 -0.3
v 0.4 -0.25 -0.5
v 0.2 -0.75 -0.3
v 0.4 -0.25 -0.4
v 0.2 -0.75 -0.2
v -0.2 -0.75 -0.3

vn 0 -1 0
vn 0 0 -1
vn 0 0.3713907 0.9284768
vn -0.9284768 0.3713907 0
vn 0.9284768 0.3713907 0
vn 0 1 0
vn 0.9284768 -0.3713907 0
vn -0.9284768 -0.3713907 0
vn 0 0 1
vn 1 0 0
vn -1 0 0
vn 0 0.8944272 0.4472136
vn 0 -0.8944272 -0.4472136
vn -0.4472136 0.8944272 0
vn 0.4472136 -0.8944272 0
vn 8.742278E-08 1 0
vn -8.742278E-08 -1 0
vn 3.246801E-08 0.3713907 -0.9284768
vn 0.9284767 -0.3713908 0
vn -3.246801E-08 -0.3713907 0.9284768
vn -0.9284767 0.3713908 0
vn -0.9284768 -0.3713906 0
vn 0.9284768 0.3713906 0
vn 3.246801E-08 0.3713907 0.9284768
vn -3.246801E-08 -0.3713907 -0.9284768

vt -0.5 -0.5
vt -0.5 0.5
vt 0.5 -0.5
vt 0.5 0.5
vt 0.5 0.25
vt -0.5 0.25
vt 0.38 0.55
vt -0.38 0.55
vt 0.46 0.35
vt -0.3533261 0.35
vt 0.3533261 0.35
vt -0.46 0.35
vt -0.5 0.55
vt -0.06 0.55
vt 0.5 0.55
vt 0.06 0.55
vt -0.3533261 0.2985695
vt -0.3533261 0.46
vt 0.3533261 0.2985695
vt 0.3533261 0.46
vt 0.3 0.75
vt -0.3 0.75
vt -0.3 -0.5
vt -0.3 0.3
vt 0.3 -0.5
vt 0.3 0.3
vt 0.2304652 0.6571523
vt -0.2304652 0.6571523
vt -0.2371391 0.6571523
vt -0.2985695 0.35
vt -0.3371391 0.6571523
vt 0.2371391 0.6571523
vt 0.3371391 0.6571523
vt 0.2985695 0.35
vt -0.2304652 -0.3371391
vt -0.2304652 -0.2371391
vt 0.2304652 -0.3371391
vt 0.2304652 -0.2371391
vt 0.5 0.75
vt -0.5 0.75
vt -0.3533261 0.1371391
vt 0.3533261 0.1371391
vt -0.1371391 0.6571523
vt -0.1371391 0.35
vt -0.2304652 -0.1371391
vt 0.2304652 -0.1371391
vt 0.1371391 0.35
vt 0.1371391 0.6571523
vt 0.5 -0.25
vt 0.4 0.25
vt 0.475 -0.175
vt 0.425 -0.175
vt 0.425 -0.225
vt 0.475 -0.225
vt 0.4 -0.25
vt -0.4 -0.25
vt -0.5 -0.25
vt -0.4 0.25
vt -0.425 0.175
vt -0.425 0.225
vt -0.475 0.225
vt -0.475 0.175
vt 0.4 0.4
vt 0.4 0.5
vt 0.5 0.4
vt 0.475 0.175
vt 0.475 0.225
vt 0.425 0.225
vt 0.425 0.175
vt -0.5 0.4
vt -0.4 0.4
vt -0.4 0.5
vt 0.4 -0.5
vt 0.4 -0.4
vt 0.5 -0.4
vt -0.425 -0.175
vt -0.475 -0.175
vt -0.475 -0.225
vt -0.425 -0.225
vt -0.5 -0.4
vt -0.4 -0.5
vt -0.4 -0.4
vt -0.4 0.175
vt -0.4 0.225
vt 0.4 -0.225
vt 0.4 -0.175
vt 0.425 -0.4
vt 0.425 0.4
vt 0.475 -0.4
vt 0.475 0.4
vt 0.4 0.225
vt 0.4 0.175
vt -0.4 -0.175
vt -0.4 -0.225
vt -0.4 -0.425
vt 0.4 -0.425
vt -0.4 -0.475
vt 0.4 -0.475
vt -0.4 0.425
vt -0.4 0.475
vt 0.4 0.425
vt 0.4 0.475
vt -0.475 -0.4
vt -0.475 0.4
vt -0.425 -0.4
vt -0.425 0.4
vt -0.2 -0.2
vt -0.2 -0.3
vt -0.3 -0.2
vt -0.3 -0.3
vt -0.5 -0.25
vt -0.4 -0.25
vt -0.3 -0.75
vt -0.2 -0.75
vt -0.2 -0.75
vt -0.3 -0.75
vt 0.4 -0.25
vt 0.5 -0.25
vt 0.2 -0.75
vt 0.3 -0.75
vt 0.2 -0.75
vt 0.3 -0.75
vt 0.4 -0.25
vt 0.5 -0.25
vt 0.2 -0.75
vt 0.3 -0.75
vt 0.4 -0.25
vt -0.4 -0.25
vt -0.5 -0.25
vt 0.3 -0.2
vt 0.3 -0.3
vt 0.2 -0.2
vt 0.2 -0.3
vt -0.5 -0.25
vt -0.3 -0.75
vt -0.2 -0.75
vt -0.4 -0.25
vt 0.5 -0.25
vt -0.2 0.3
vt -0.2 0.2
vt -0.3 0.3
vt -0.3 0.2
vt 0.3 0.3
vt 0.3 0.2
vt 0.2 0.3
vt 0.2 0.2

usemtl custom7(Clone)

f 3/3/1 2/2/1 1/1/1
f 2/2/1 3/3/1 4/4/1
f 5/7/2 2/6/2 4/5/2
f 2/6/2 5/7/2 6/8/2
f 7/9/3 3/6/3 1/5/3
f 3/6/3 7/9/3 8/10/3
f 8/10/3 7/9/3 9/11/3
f 10/12/3 3/6/3 8/10/3
f 3/5/4 5/13/4 4/6/4
f 5/13/4 3/5/4 11/14/4
f 11/14/4 3/5/4 10/9/4
f 12/16/5 2/5/5 6/15/5
f 2/5/5 12/16/5 1/6/5
f 1/6/5 12/16/5 7/12/5
f 14/19/6 9/18/6 13/17/6
f 9/18/6 14/19/6 8/20/6
f 15/21/2 6/8/2 5/7/2
f 6/8/2 15/21/2 16/22/2
f 15/25/6 17/24/6 16/23/6
f 17/24/6 15/25/6 18/26/6
f 17/21/3 9/11/3 7/9/3
f 9/11/3 17/21/3 19/27/3
f 19/27/3 17/21/3 20/28/3
f 18/22/3 20/28/3 17/21/3
f 10/12/3 20/28/3 18/22/3
f 20/28/3 10/12/3 8/10/3
f 20/31/7 14/30/7 21/29/7
f 14/30/7 20/31/7 8/12/7
f 13/34/8 19/33/8 22/32/8
f 19/33/8 13/34/8 9/9/8
f 20/37/1 22/36/1 19/35/1
f 22/36/1 20/37/1 21/38/1
f 17/22/5 6/15/5 16/39/5
f 6/15/5 17/22/5 12/16/5
f 12/16/5 17/22/5 7/12/5
f 11/14/4 15/40/4 5/13/4
f 15/40/4 11/14/4 18/21/4
f 18/21/4 11/14/4 10/9/4

usemtl dark(Clone)

f 24/42/6 13/17/6 23/41/6
f 13/17/6 24/42/6 14/19/6
f 23/11/9 25/28/9 24/10/9
f 25/28/9 23/11/9 26/27/9
f 21/29/7 24/44/7 25/43/7
f 24/44/7 21/29/7 14/30/7
f 21/38/1 26/45/1 22/36/1
f 26/45/1 21/38/1 25/46/1
f 13/34/8 26/48/8 23/47/8
f 26/48/8 13/34/8 22/32/8

usemtl _defaultMat(Clone)

f 29/50/10 28/49/10 27/5/10
f 28/49/10 29/50/10 30/51/10
f 30/51/10 29/50/10 31/52/10
f 31/52/10 29/50/10 32/53/10
f 33/54/10 28/49/10 30/51/10
f 28/49/10 33/54/10 34/55/10
f 34/55/10 33/54/10 32/53/10
f 34/55/10 32/53/10 29/50/10
f 29/58/9 35/57/9 34/56/9
f 35/57/9 29/58/9 36/59/9
f 36/59/9 29/58/9 37/60/9
f 37/60/9 29/58/9 38/61/9
f 39/62/9 35/57/9 36/59/9
f 35/57/9 39/62/9 40/6/9
f 40/6/9 39/62/9 38/61/9
f 40/6/9 38/61/9 29/58/9
f 43/58/2 42/57/2 41/56/2
f 42/57/2 43/58/2 2/6/2
f 46/65/6 45/64/6 44/63/6
f 45/64/6 46/65/6 3/4/6
f 45/58/9 48/57/9 47/56/9
f 48/57/9 45/58/9 3/6/9
f 49/50/10 42/49/10 2/5/10
f 42/49/10 49/50/10 50/55/10
f 49/5/9 51/55/9 50/49/9
f 51/55/9 49/5/9 52/66/9
f 52/66/9 49/5/9 53/67/9
f 53/67/9 49/5/9 54/68/9
f 55/69/9 51/55/9 52/66/9
f 51/55/9 55/69/9 56/50/9
f 56/50/9 55/69/9 54/68/9
f 56/50/9 54/68/9 49/5/9
f 51/71/1 42/2/1 50/70/1
f 42/2/1 51/71/1 41/72/1
f 35/56/11 4/6/11 57/57/11
f 4/6/11 35/56/11 40/58/11
f 4/5/2 28/55/2 57/49/2
f 28/55/2 4/5/2 27/50/2
f 35/65/1 28/64/1 34/63/1
f 28/64/1 35/65/1 57/4/1
f 51/56/11 43/6/11 41/57/11
f 43/6/11 51/56/11 58/62/11
f 58/62/11 51/56/11 59/59/11
f 59/59/11 51/56/11 60/60/11
f 61/61/11 43/6/11 58/62/11
f 43/6/11 61/61/11 56/58/11
f 56/58/11 61/61/11 60/60/11
f 56/58/11 60/60/11 51/56/11
f 4/3/6 29/74/6 27/73/6
f 29/74/6 4/3/6 40/75/6
f 45/6/10 62/56/10 44/58/10
f 62/56/10 45/6/10 63/76/10
f 63/76/10 45/6/10 64/77/10
f 64/77/10 45/6/10 65/78/10
f 66/79/10 62/56/10 63/76/10
f 62/56/10 66/79/10 47/57/10
f 47/57/10 66/79/10 65/78/10
f 47/57/10 65/78/10 45/6/10
f 48/49/11 46/50/11 67/55/11
f 46/50/11 48/49/11 3/5/11
f 1/6/10 69/56/10 68/58/10
f 69/56/10 1/6/10 70/57/10
f 72/56/2 71/79/2 69/57/2
f 71/79/2 72/56/2 73/58/2
f 71/79/2 73/58/2 74/76/2
f 74/76/2 73/58/2 75/77/2
f 76/78/2 69/57/2 71/79/2
f 69/57/2 76/78/2 68/6/2
f 68/6/2 76/78/2 75/77/2
f 68/6/2 75/77/2 73/58/2
f 1/5/9 77/55/9 70/49/9
f 77/55/9 1/5/9 78/50/9
f 48/3/1 62/74/1 47/73/1
f 62/74/1 48/3/1 67/75/1
f 67/49/2 79/54/2 62/55/2
f 79/54/2 67/49/2 46/5/2
f 79/54/2 46/5/2 80/51/2
f 80/51/2 46/5/2 81/52/2
f 82/53/2 62/55/2 79/54/2
f 62/55/2 82/53/2 44/50/2
f 44/50/2 82/53/2 81/52/2
f 44/50/2 81/52/2 46/5/2
f 77/49/11 73/50/11 72/55/11
f 73/50/11 77/49/11 83/69/11
f 83/69/11 77/49/11 84/66/11
f 84/66/11 77/49/11 85/67/11
f 86/68/11 73/50/11 83/69/11
f 73/50/11 86/68/11 78/5/11
f 78/5/11 86/68/11 85/67/11
f 78/5/11 85/67/11 77/49/11
f 77/81/1 69/80/1 70/1/1
f 69/80/1 77/81/1 72/82/1
f 79/85/11 38/84/11 39/83/11
f 38/84/11 79/85/11 80/86/11
f 38/89/12 81/88/12 37/87/12
f 81/88/12 38/89/12 80/90/12
f 81/93/10 36/92/10 37/91/10
f 36/92/10 81/93/10 82/94/10
f 82/87/13 39/90/13 36/88/13
f 39/90/13 82/87/13 79/89/13
f 30/86/2 58/83/2 33/85/2
f 58/83/2 30/86/2 61/84/2
f 61/97/14 31/96/14 60/95/14
f 31/96/14 61/97/14 30/98/14
f 59/92/9 31/93/9 32/94/9
f 31/93/9 59/92/9 60/91/9
f 32/101/15 58/100/15 59/99/15
f 58/100/15 32/101/15 33/102/15
f 43/81/6 49/80/6 2/1/6
f 49/80/6 43/81/6 56/82/6
f 71/85/11 54/84/11 55/83/11
f 54/84/11 71/85/11 74/86/11
f 54/105/12 75/104/12 53/103/12
f 75/104/12 54/105/12 74/106/12
f 75/93/10 52/92/10 53/91/10
f 52/92/10 75/93/10 76/94/10
f 76/103/13 55/106/13 52/104/13
f 55/106/13 76/103/13 71/105/13
f 73/71/6 1/2/6 68/70/6
f 1/2/6 73/71/6 78/72/6
f 63/86/2 83/83/2 66/85/2
f 83/83/2 63/86/2 86/84/2
f 65/98/15 83/95/15 84/97/15
f 83/95/15 65/98/15 66/96/15
f 86/99/14 64/102/14 85/100/14
f 64/102/14 86/99/14 63/101/14
f 84/92/9 64/93/9 65/94/9
f 64/93/9 84/92/9 85/91/9
f 89/2/16 88/71/16 87/72/16
f 88/71/16 89/2/16 90/70/16
f 93/109/17 92/108/17 91/107/17
f 92/108/17 93/109/17 94/110/17
f 93/113/18 88/112/18 90/111/18
f 88/112/18 93/113/18 91/114/18
f 90/112/19 94/116/19 93/115/19
f 94/116/19 90/112/19 89/111/19
f 92/119/20 89/118/20 87/117/20
f 89/118/20 92/119/20 94/120/20
f 92/122/21 88/117/21 91/121/21
f 88/117/21 92/122/21 87/118/21
f 97/64/16 96/65/16 95/4/16
f 96/65/16 97/64/16 98/63/16
f 99/125/18 96/124/18 98/123/18
f 96/124/18 99/125/18 100/126/18
f 101/122/22 96/127/22 100/121/22
f 96/127/22 101/122/22 95/124/22
f 98/128/23 102/116/23 99/115/23
f 102/116/23 98/128/23 97/129/23
f 99/132/17 101/131/17 100/130/17
f 101/131/17 99/132/17 102/133/17
f 101/135/20 97/128/20 95/134/20
f 97/128/20 101/135/20 102/136/20
f 105/135/24 104/128/24 103/134/24
f 104/128/24 105/135/24 106/136/24
f 104/74/16 107/3/16 103/75/16
f 107/3/16 104/74/16 108/73/16
f 111/117/19 110/122/19 109/118/19
f 110/122/19 111/117/19 112/121/19
f 113/116/22 103/137/22 107/134/22
f 103/137/22 113/116/22 105/115/22
f 110/113/25 114/112/25 109/111/25
f 114/112/25 110/113/25 115/114/25
f 117/119/24 111/118/24 116/117/24
f 111/118/24 117/119/24 112/120/24
f 104/123/23 118/122/23 108/138/23
f 118/122/23 104/123/23 106/121/23
f 111/80/16 114/81/16 116/82/16
f 114/81/16 111/80/16 109/1/16
f 118/125/25 107/124/25 108/123/25
f 107/124/25 118/125/25 113/126/25
f 115/116/21 116/112/21 114/111/21
f 116/112/21 115/116/21 117/115/21
f 110/141/17 117/140/17 115/139/17
f 117/140/17 110/141/17 112/142/17
f 118/145/17 105/144/17 113/143/17
f 105/144/17 118/145/17 106/146/17

