# Created by Kenney (www.kenney.nl)

mtllib tile_free_1.mtl

g mergedBlocks

v 0.45 0 0.4
v 0.45 0 -0.4
v 0.4 0 0.45
v 0.4 0 -0.45
v -0.4 0 0.45
v -0.4 0 -0.45
v -0.45 0 0.4
v -0.45 0 -0.4
v 0.45 0.048 0.4
v 0.4 0.048 0.45
v 0.45 0.048 -0.4
v 0.4 0.048 -0.45
v -0.4 0.048 -0.45
v -0.4 0.048 0.45
v -0.45 0.048 -0.4
v -0.45 0.048 0.4

vn 0 -1 0
vn 0 1 0
vn 0 0 1
vn 0.7071068 0 0.7071068
vn 1 0 0
vn 0.7071068 0 -0.7071068
vn 0 0 -1
vn -0.7071068 0 -0.7071068
vn -1 0 0
vn -0.7071068 0 0.7071068

vt -0.45 -0.4
vt -0.45 0.4
vt -0.4 -0.45
vt -0.4 0.45
vt 0.4 -0.45
vt 0.4 0.45
vt 0.45 -0.4
vt 0.45 0.4
vt 0.4 0
vt -0.4 0
vt 0.4 0.048
vt -0.4 0.048
vt 0.45 0.048
vt 0.45 0
vt -0.45 0.048
vt -0.45 0

usemtl stoneDark(Clone)

f 3/3/1 2/2/1 1/1/1
f 2/2/1 3/3/1 4/4/1
f 4/4/1 3/3/1 5/5/1
f 4/4/1 5/5/1 6/6/1
f 6/6/1 5/5/1 7/7/1
f 6/6/1 7/7/1 8/8/1
f 11/1/2 10/4/2 9/2/2
f 10/4/2 11/1/2 12/3/2
f 10/4/2 12/3/2 13/5/2
f 10/4/2 13/5/2 14/6/2
f 14/6/2 13/5/2 15/7/2
f 14/6/2 15/7/2 16/8/2
f 10/11/3 5/10/3 3/9/3
f 5/10/3 10/11/3 14/12/3
f 10/11/4 1/14/4 9/13/4
f 1/14/4 10/11/4 3/9/4
f 9/12/5 2/9/5 11/11/5
f 2/9/5 9/12/5 1/10/5
f 11/15/6 4/10/6 12/12/6
f 4/10/6 11/15/6 2/16/6
f 13/11/7 4/10/7 6/9/7
f 4/10/7 13/11/7 12/12/7
f 8/14/8 13/11/8 6/9/8
f 13/11/8 8/14/8 15/13/8
f 7/9/9 15/12/9 8/10/9
f 15/12/9 7/9/9 16/11/9
f 14/12/10 7/16/10 5/10/10
f 7/16/10 14/12/10 16/15/10

