# Created by Kenney (www.kenney.nl)

mtllib gems_ruby_5.mtl

g mergedBlocks

v 0.4253254 0.4128656 2.887646E-15
v 0.5 0.15 2.887646E-15
v 0.4045085 0.3045085 0.25
v 0.4045085 -0.004508466 0.25
v 0.4253254 -0.1128655 2.887646E-15
v 0.2628655 0.15 0.4253254
v 0.1545085 0.4 -0.4045085
v 0.4045085 0.3045085 -0.25
v 0.25 0.5545084 -0.1545085
v 1.082867E-15 0.5753254 -0.2628655
v 0.2628655 0.15 -0.4253254
v 0.1545085 0.4 0.4045085
v 0.25 0.5545084 0.1545085
v 1.082867E-15 0.5753254 0.2628655
v -0.25 -0.2545085 0.1545085
v -0.25 -0.2545085 -0.1545085
v -0.4253254 -0.1128655 2.887646E-15
v 1.082867E-15 -0.35 2.887646E-15
v 1.082867E-15 -0.2753254 -0.2628655
v 1.082867E-15 -0.2753254 0.2628655
v 1.082867E-15 0.65 2.887646E-15
v 0.1545085 -0.09999996 0.4045085
v 0.25 -0.2545085 0.1545085
v 0.1545085 -0.09999996 -0.4045085
v 0.4045085 -0.004508466 -0.25
v 0.25 -0.2545085 -0.1545085
v -0.1545085 -0.09999996 -0.4045085
v -0.4045085 -0.004508466 -0.25
v -0.2628655 0.15 -0.4253254
v 1.082867E-15 0.15 0.5
v -0.1545085 -0.09999996 0.4045085
v -0.2628655 0.15 0.4253254
v -0.25 0.5545084 -0.1545085
v -0.25 0.5545084 0.1545085
v -0.4253254 0.4128656 2.887646E-15
v 1.082867E-15 0.15 -0.5
v -0.5 0.15 2.887646E-15
v -0.4045085 0.3045085 0.25
v -0.4045085 -0.004508466 0.25
v -0.1545085 0.4 0.4045085
v -0.4045085 0.3045085 -0.25
v -0.1545085 0.4 -0.4045085
v -0.125 -0.55 0.1150008
v -0.125 -0.55 -0.1249992
v -0.405 -0.55 0.1150008
v -0.405 -0.55 -0.1249992
v -0.125 -0.55 -0.4049992
v -0.125 -0.55 0.3950008
v 0.115 -0.55 -0.4049992
v 0.115 -0.55 -0.1249992
v 0.115 -0.55 0.1150008
v 0.115 -0.55 0.3950008
v 0.395 -0.55 -0.1249992
v 0.395 -0.55 0.1150008
v -0.405 -0.1 -0.1249992
v -0.405 -0.1 0.1150008
v 0.115 -0.1 -0.4049992
v -0.125 -0.1 -0.4049992
v 0.115 -0.1 0.3950008
v -0.125 -0.1 0.3950008
v 0.395 -0.1 -0.1249992
v 0.395 -0.1 0.1150008
v -0.125 -0.1 -0.1249992
v -0.125 -0.1 0.1150008
v 0.115 -0.1 0.1150008
v 0.115 -0.1 -0.1249992
v 0.4330127 -0.452 -0.25
v 0.4330127 -0.65 -0.25
v 0.4829629 -0.452 -0.1294095
v 0.4829629 -0.65 -0.1294095
v 0.5 -0.452 0
v 0.5 -0.65 0
v 0.4829629 -0.452 0.1294095
v 0.4829629 -0.65 0.1294095
v 0.4330127 -0.452 0.25
v 0.4330127 -0.65 0.25
v 0.3535534 -0.65 -0.3535534
v 0.3535534 -0.452 -0.3535534
v 0.3535534 -0.452 0.3535534
v 0.3535534 -0.65 0.3535534
v 0.25 -0.65 0.4330127
v 0.25 -0.452 0.4330127
v 0.1294095 -0.65 0.4829629
v 0.1294095 -0.452 0.4829629
v 0 -0.65 0.5
v 0 -0.452 0.5
v -0.1294095 -0.65 0.4829629
v -0.1294095 -0.452 0.4829629
v 0.25 -0.452 -0.4330127
v 0.25 -0.65 -0.4330127
v 0.1294095 -0.452 -0.4829629
v 0.1294095 -0.65 -0.4829629
v 0 -0.452 -0.5
v 0 -0.65 -0.5
v -0.1294095 -0.452 -0.4829629
v -0.1294095 -0.65 -0.4829629
v -0.25 -0.65 0.4330127
v -0.25 -0.452 0.4330127
v -0.3535534 -0.65 0.3535534
v -0.3535534 -0.452 0.3535534
v -0.4330127 -0.452 0.25
v -0.4330127 -0.65 0.25
v -0.4829629 -0.452 0.1294095
v -0.4829629 -0.65 0.1294095
v -0.5 -0.452 0
v -0.5 -0.65 0
v -0.4829629 -0.452 -0.1294095
v -0.4829629 -0.65 -0.1294095
v -0.4330127 -0.452 -0.25
v -0.4330127 -0.65 -0.25
v -0.3535534 -0.452 -0.3535534
v -0.3535534 -0.65 -0.3535534
v -0.25 -0.65 -0.4330127
v -0.25 -0.452 -0.4330127

vn 0.9435222 0.2680349 0.1947387
vn 0.9660217 0 0.2584611
vn 0.9107586 0.08941776 0.403142
vn 0.9107586 -0.08941776 0.403142
vn 0.9435222 -0.2680349 0.1947387
vn 0.7778675 0 0.6284283
vn 0.5076165 0.5628797 -0.6522974
vn 0.6522974 0.5076165 -0.5628797
vn 0.5628797 0.6522974 -0.5076165
vn 0.3150939 0.7487834 -0.5831288
vn 0.7487834 0.5831288 -0.3150939
vn 0.5831288 0.3150939 -0.7487834
vn 0.6522974 0.5076165 0.5628797
vn 0.5831288 0.3150939 0.7487834
vn 0.5076165 0.5628797 0.6522974
vn 0.5628797 0.6522974 0.5076165
vn 0.3150939 0.7487834 0.5831288
vn 0.7487834 0.5831288 0.3150939
vn -0.403142 -0.9107586 0.08941776
vn -0.403142 -0.9107586 -0.08941776
vn -0.6284283 -0.7778675 0
vn -0.2584611 -0.9660217 0
vn -0.1947387 -0.9435222 -0.2680349
vn -0.1947387 -0.9435222 0.2680349
vn 0.403142 0.9107586 -0.08941776
vn 0.403142 0.9107586 0.08941776
vn 0.2584611 0.9660217 0
vn 0.1947387 0.9435222 0.2680349
vn 0.1947387 0.9435222 -0.2680349
vn 0.6284283 0.7778675 0
vn 0.5076165 -0.5628797 0.6522974
vn 0.5628797 -0.6522974 0.5076165
vn 0.3150939 -0.7487834 0.5831288
vn 0.6522974 -0.5076165 0.5628797
vn 0.7487834 -0.5831288 0.3150939
vn 0.5831288 -0.3150939 0.7487834
vn 0.5076165 -0.5628797 -0.6522974
vn 0.6522974 -0.5076165 -0.5628797
vn 0.5831288 -0.3150939 -0.7487834
vn 0.5628797 -0.6522974 -0.5076165
vn 0.3150939 -0.7487834 -0.5831288
vn 0.7487834 -0.5831288 -0.3150939
vn -0.3150939 -0.7487834 -0.5831288
vn -0.5076165 -0.5628797 -0.6522974
vn -0.5628797 -0.6522974 -0.5076165
vn -0.6522974 -0.5076165 -0.5628797
vn -0.7487834 -0.5831288 -0.3150939
vn -0.5831288 -0.3150939 -0.7487834
vn 0 -0.2584611 0.9660217
vn -0.08941776 -0.403142 0.9107586
vn -0.2680349 -0.1947387 0.9435222
vn 0.08941776 -0.403142 0.9107586
vn 0 -0.6284283 0.7778675
vn 0.2680349 -0.1947387 0.9435222
vn -0.403142 0.9107586 -0.08941776
vn -0.403142 0.9107586 0.08941776
vn -0.6284283 0.7778675 0
vn -0.2584611 0.9660217 0
vn -0.1947387 0.9435222 -0.2680349
vn -0.1947387 0.9435222 0.2680349
vn -0.2680349 -0.1947387 -0.9435222
vn -0.08941776 -0.403142 -0.9107586
vn 0 -0.2584611 -0.9660217
vn 0.08941776 -0.403142 -0.9107586
vn 0 -0.6284283 -0.7778675
vn 0.2680349 -0.1947387 -0.9435222
vn -0.9660217 0 0.2584611
vn -0.9435222 0.2680349 0.1947387
vn -0.9107586 0.08941776 0.403142
vn -0.9107586 -0.08941776 0.403142
vn -0.9435222 -0.2680349 0.1947387
vn -0.7778675 0 0.6284283
vn -0.7487834 0.5831288 0.3150939
vn -0.5628797 0.6522974 0.5076165
vn -0.6522974 0.5076165 0.5628797
vn -0.5076165 0.5628797 0.6522974
vn -0.3150939 0.7487834 0.5831288
vn -0.5831288 0.3150939 0.7487834
vn 0.403142 -0.9107586 0.08941776
vn 0.403142 -0.9107586 -0.08941776
vn 0.2584611 -0.9660217 0
vn 0.1947387 -0.9435222 -0.2680349
vn 0.6284283 -0.7778675 0
vn 0.1947387 -0.9435222 0.2680349
vn 0.9107586 0.08941776 -0.403142
vn 0.9107586 -0.08941776 -0.403142
vn 0.9660217 0 -0.2584611
vn 0.9435222 0.2680349 -0.1947387
vn 0.9435222 -0.2680349 -0.1947387
vn 0.7778675 0 -0.6284283
vn -0.9107586 -0.08941776 -0.403142
vn -0.7778675 0 -0.6284283
vn -0.9107586 0.08941776 -0.403142
vn -0.9660217 0 -0.2584611
vn -0.9435222 0.2680349 -0.1947387
vn -0.9435222 -0.2680349 -0.1947387
vn 0.2680349 0.1947387 0.9435222
vn 0 0.2584611 0.9660217
vn 0.08941776 0.403142 0.9107586
vn -0.08941776 0.403142 0.9107586
vn -0.2680349 0.1947387 0.9435222
vn 0 0.6284283 0.7778675
vn -0.5628797 -0.6522974 0.5076165
vn -0.7487834 -0.5831288 0.3150939
vn -0.6522974 -0.5076165 0.5628797
vn -0.5076165 -0.5628797 0.6522974
vn -0.3150939 -0.7487834 0.5831288
vn -0.5831288 -0.3150939 0.7487834
vn -0.08941776 0.403142 -0.9107586
vn 0.08941776 0.403142 -0.9107586
vn 0 0.6284283 -0.7778675
vn 0 0.2584611 -0.9660217
vn -0.2680349 0.1947387 -0.9435222
vn 0.2680349 0.1947387 -0.9435222
vn -0.5076165 0.5628797 -0.6522974
vn -0.3150939 0.7487834 -0.5831288
vn -0.5628797 0.6522974 -0.5076165
vn -0.6522974 0.5076165 -0.5628797
vn -0.7487834 0.5831288 -0.3150939
vn -0.5831288 0.3150939 -0.7487834
vn 0 -1 0
vn -1 0 0
vn 0 0 -1
vn 0 0 1
vn 1 0 0
vn 0 1 0
vn 0.8660254 0 -0.5
vn 0.9659259 0 -0.2588191
vn 0.9659259 0 0.2588191
vn 0.8660254 0 0.5
vn 0.7071068 0 -0.7071068
vn 0.7071068 0 0.7071068
vn 0.5 0 0.8660254
vn 0.2588191 0 0.9659259
vn -0.2588191 0 0.9659259
vn 0.5 0 -0.8660254
vn 0.2588191 0 -0.9659259
vn -0.2588191 0 -0.9659259
vn -0.5 0 0.8660254
vn -0.7071068 0 0.7071068
vn -0.8660254 0 0.5
vn -0.9659259 0 0.2588191
vn -0.9659259 0 -0.2588191
vn -0.8660254 0 -0.5
vn -0.7071068 0 -0.7071068
vn -0.5 0 -0.8660254

vt -2.887646E-15 0.4128656
vt -2.887646E-15 0.15
vt -0.25 0.3045085
vt -0.25 -0.004508466
vt -2.887646E-15 -0.1128655
vt -0.4253254 0.15
vt -0.1545085 -0.4045085
vt -0.4045085 -0.25
vt -0.25 -0.1545085
vt -1.082867E-15 -0.2628655
vt 0.1545085 0.5545084
vt 0.25 0.3045085
vt -0.2628655 0.15
vt -0.4045085 0.3045085
vt -0.1545085 0.4
vt 0.4045085 0.3045085
vt 0.2628655 0.15
vt 0.1545085 0.4
vt -0.4045085 0.25
vt -0.1545085 0.4045085
vt -0.25 0.1545085
vt -1.082867E-15 0.2628655
vt -0.1545085 0.5545084
vt 0.25 -0.1545085
vt 0.25 0.1545085
vt 0.4253254 -2.887646E-15
vt -1.082867E-15 -2.887646E-15
vt -1.082867E-15 2.887646E-15
vt -0.4253254 2.887646E-15
vt 0.25 -0.2545085
vt 0.1545085 -0.09999996
vt 0.4045085 -0.004508466
vt -0.1545085 -0.2545085
vt -0.1545085 -0.09999996
vt -0.4045085 -0.004508466
vt -0.25 -0.2545085
vt 0.25 -0.004508466
vt 0.1545085 -0.2545085
vt 0.1545085 0.4045085
vt 2.887646E-15 -0.1128655
vt 1.082867E-15 0.15
vt 1.082867E-15 -0.2753254
vt 0.4253254 2.887646E-15
vt -1.082867E-15 0.15
vt -1.082867E-15 -0.2753254
vt 2.887646E-15 0.15
vt 2.887646E-15 0.4128656
vt 0.4253254 0.15
vt 0.4045085 0.25
vt -0.4253254 -2.887646E-15
vt 1.082867E-15 0.5753254
vt 0.1545085 -0.4045085
vt -1.082867E-15 0.5753254
vt 0.4045085 -0.25
vt 0.125 -0.1150008
vt 0.125 0.1249992
vt 0.405 -0.1150008
vt 0.405 0.1249992
vt -0.125 -0.55
vt 0.125 0.4049992
vt 0.125 -0.3950008
vt -0.115 0.4049992
vt -0.115 0.1249992
vt -0.115 -0.1150008
vt -0.115 -0.3950008
vt -0.395 0.1249992
vt -0.395 -0.1150008
vt -0.1249992 -0.55
vt -0.1249992 -0.1
vt 0.1150008 -0.55
vt 0.1150008 -0.1
vt -0.115 -0.55
vt -0.115 -0.1
vt 0.125 -0.55
vt 0.125 -0.1
vt 0.115 -0.55
vt 0.115 -0.1
vt -0.125 -0.1
vt 0.1249992 -0.1
vt 0.1249992 -0.55
vt -0.1150008 -0.1
vt -0.1150008 -0.55
vt 0.125 -0.1249992
vt 0.125 0.1150008
vt 0.405 -0.1249992
vt 0.405 0.1150008
vt 0.125 0.3950008
vt 0.125 -0.4049992
vt -0.115 0.3950008
vt -0.115 0.1150008
vt -0.115 -0.1249992
vt -0.115 -0.4049992
vt -0.395 -0.1249992
vt -0.395 0.1150008
vt 0.3950008 -0.55
vt 0.3950008 -0.1
vt -0.405 -0.55
vt -0.405 -0.1
vt 0.395 -0.55
vt 0.395 -0.1
vt -0.3950008 -0.1
vt -0.3950008 -0.55
vt 0.4049992 -0.1
vt 0.4049992 -0.55
vt -0.395 -0.55
vt -0.395 -0.1
vt 0.405 -0.55
vt 0.405 -0.1
vt -0.4049992 -0.55
vt -0.4049992 -0.1
vt 0.25 -0.452
vt 0.25 -0.65
vt 0.1294095 -0.452
vt 0.1294095 -0.65
vt 0 -0.452
vt 0 -0.65
vt -0.1294095 -0.452
vt -0.1294095 -0.65
vt -0.25 -0.452
vt -0.25 -0.65
vt 0.3535534 -0.65
vt 0.3535534 -0.452
vt -0.3535534 -0.452
vt -0.3535534 -0.65
vt -0.5 0
vt -0.4829629 0.1294095
vt -0.4829629 -0.1294095
vt -0.4330127 0.25
vt -0.4330127 -0.25
vt -0.3535534 0.3535534
vt -0.3535534 -0.3535534
vt -0.25 0.4330127
vt -0.25 -0.4330127
vt -0.1294095 0.4829629
vt -0.1294095 -0.4829629
vt 0 -0.5
vt 0 0.5
vt 0.1294095 -0.4829629
vt 0.1294095 0.4829629
vt 0.25 0.4330127
vt 0.25 -0.4330127
vt 0.3535534 0.3535534
vt 0.3535534 -0.3535534
vt 0.4330127 0.25
vt 0.4330127 -0.25
vt 0.4829629 0.1294095
vt 0.4829629 -0.1294095
vt 0.5 0

usemtl custom9(Clone)

f 3/3/3 2/2/2 1/1/1
f 4/4/4 2/2/2 3/3/3
f 4/4/4 5/5/5 2/2/2
f 6/6/6 4/4/4 3/3/3
f 9/9/9 8/8/8 7/7/7
f 10/10/10 9/9/9 7/7/7
f 1/1/11 8/12/8 9/11/9
f 7/15/7 8/14/8 11/13/12
f 12/18/15 6/17/14 3/16/13
f 13/21/16 12/20/15 3/19/13
f 14/22/17 12/20/15 13/21/16
f 3/3/13 1/1/18 13/23/16
f 17/26/21 16/25/20 15/24/19
f 16/25/20 18/27/22 15/24/19
f 16/25/20 19/22/23 18/27/22
f 15/24/19 18/27/22 20/10/24
f 21/28/27 13/21/26 9/9/25
f 14/22/28 13/21/26 21/28/27
f 21/28/27 9/9/25 10/10/29
f 13/21/26 1/29/30 9/9/25
f 20/10/33 23/9/32 22/7/31
f 4/32/34 22/31/31 23/30/32
f 4/4/34 23/33/32 5/5/35
f 6/17/36 22/31/31 4/32/34
f 11/13/39 25/35/38 24/34/37
f 25/35/38 26/36/40 24/34/37
f 19/22/41 24/20/37 26/21/40
f 5/5/42 26/38/40 25/37/38
f 16/25/45 27/39/44 19/22/43
f 28/32/46 27/31/44 16/30/45
f 17/40/47 28/4/46 16/33/45
f 29/17/48 27/31/44 28/32/46
f 32/13/51 31/34/50 30/41/49
f 30/41/49 31/34/50 22/31/52
f 31/34/50 20/42/53 22/31/52
f 30/41/49 22/31/52 6/17/54
f 35/43/57 34/25/56 33/24/55
f 34/25/56 21/28/58 33/24/55
f 33/24/55 21/28/58 10/10/59
f 34/25/56 14/22/60 21/28/58
f 36/44/63 27/31/62 29/17/61
f 36/44/63 24/34/64 27/31/62
f 24/34/64 19/45/65 27/31/62
f 11/13/66 24/34/64 36/44/63
f 38/12/69 35/47/68 37/46/67
f 38/12/69 37/46/67 39/37/70
f 39/37/70 37/46/67 17/40/71
f 32/48/72 38/12/69 39/37/70
f 38/12/75 34/11/74 35/47/73
f 34/25/74 38/49/75 40/39/76
f 34/25/74 40/39/76 14/22/77
f 40/15/76 38/14/75 32/13/78
f 18/27/81 26/21/80 23/9/79
f 19/22/82 26/21/80 18/27/81
f 26/21/80 5/50/83 23/9/79
f 18/27/81 23/9/79 20/10/84
f 2/2/87 25/37/86 8/12/85
f 2/2/87 8/12/85 1/1/88
f 5/5/89 25/37/86 2/2/87
f 25/37/86 11/48/90 8/12/85
f 41/3/93 29/6/92 28/4/91
f 37/46/94 41/3/93 28/4/91
f 35/47/95 41/3/93 37/46/94
f 37/46/94 28/4/91 17/40/96
f 12/18/99 30/41/98 6/17/97
f 40/15/100 30/41/98 12/18/99
f 40/15/100 32/13/101 30/41/98
f 14/51/102 40/15/100 12/18/99
f 39/37/105 17/40/104 15/38/103
f 39/35/105 15/36/103 31/34/106
f 15/24/103 20/10/107 31/52/106
f 32/13/108 39/35/105 31/34/106
f 10/53/111 7/15/110 42/18/109
f 7/15/110 36/44/112 42/18/109
f 42/18/109 36/44/112 29/17/113
f 7/15/110 11/13/114 36/44/112
f 33/24/117 10/10/116 42/52/115
f 33/24/117 42/52/115 41/54/118
f 35/47/119 33/23/117 41/3/118
f 42/18/115 29/17/120 41/16/118

usemtl custom2(Clone)

f 45/57/121 44/56/121 43/55/121
f 44/56/121 45/57/121 46/58/121
f 47/59/121 43/59/121 44/59/121
f 47/59/121 48/59/121 43/59/121
f 49/62/121 48/61/121 47/60/121
f 50/63/121 48/61/121 49/62/121
f 51/64/121 48/61/121 50/63/121
f 48/61/121 51/64/121 52/65/121
f 53/66/121 51/64/121 50/63/121
f 51/64/121 53/66/121 54/67/121
f 45/70/122 55/69/122 46/68/122
f 55/69/122 45/70/122 56/71/122
f 47/74/123 57/73/123 49/72/123
f 57/73/123 47/74/123 58/75/123
f 59/77/124 48/59/124 52/76/124
f 48/59/124 59/77/124 60/78/124
f 62/81/125 53/80/125 61/79/125
f 53/80/125 62/81/125 54/82/125
f 55/85/126 64/84/126 63/83/126
f 64/84/126 55/85/126 56/86/126
f 60/78/126 63/78/126 64/78/126
f 60/78/126 58/78/126 63/78/126
f 59/89/126 58/88/126 60/87/126
f 65/90/126 58/88/126 59/89/126
f 66/91/126 58/88/126 65/90/126
f 58/88/126 66/91/126 57/92/126
f 65/90/126 61/93/126 66/91/126
f 61/93/126 65/90/126 62/94/126
f 48/95/122 64/71/122 43/70/122
f 64/71/122 48/95/122 60/96/122
f 64/78/124 45/97/124 43/59/124
f 45/97/124 64/78/124 56/98/124
f 62/100/124 51/76/124 54/99/124
f 51/76/124 62/100/124 65/77/124
f 59/101/125 51/82/125 65/81/125
f 51/82/125 59/101/125 52/102/125
f 66/79/125 49/104/125 57/103/125
f 49/104/125 66/79/125 50/80/125
f 66/73/123 53/105/123 50/72/123
f 53/105/123 66/73/123 61/106/123
f 55/108/123 44/74/123 46/107/123
f 44/74/123 55/108/123 63/75/123
f 44/68/122 58/110/122 47/109/122
f 58/110/122 44/68/122 63/69/122

usemtl custom1(Clone)

f 69/113/128 68/112/127 67/111/127
f 68/112/127 69/113/128 70/114/128
f 71/115/125 70/114/128 69/113/128
f 70/114/128 71/115/125 72/116/125
f 73/117/129 72/116/125 71/115/125
f 72/116/125 73/117/129 74/118/129
f 75/119/130 74/118/129 73/117/129
f 74/118/129 75/119/130 76/120/130
f 77/121/131 67/111/127 68/112/127
f 67/111/127 77/121/131 78/122/131
f 79/123/132 76/120/130 75/119/130
f 76/120/130 79/123/132 80/124/132
f 79/122/132 81/112/133 80/121/132
f 81/112/133 79/122/132 82/111/133
f 82/111/133 83/114/134 81/112/133
f 83/114/134 82/111/133 84/113/134
f 84/113/134 85/116/124 83/114/134
f 85/116/124 84/113/134 86/115/124
f 86/115/124 87/118/135 85/116/124
f 87/118/135 86/115/124 88/117/135
f 77/124/131 89/119/136 78/123/131
f 89/119/136 77/124/131 90/120/136
f 90/120/136 91/117/137 89/119/136
f 91/117/137 90/120/136 92/118/137
f 92/118/137 93/115/123 91/117/137
f 93/115/123 92/118/137 94/116/123
f 94/116/123 95/113/138 93/115/123
f 95/113/138 94/116/123 96/114/138
f 88/117/135 97/120/139 87/118/135
f 97/120/139 88/117/135 98/119/139
f 98/119/139 99/124/140 97/120/139
f 99/124/140 98/119/139 100/123/140
f 101/111/141 99/121/140 100/122/140
f 99/121/140 101/111/141 102/112/141
f 103/113/142 102/112/141 101/111/141
f 102/112/141 103/113/142 104/114/142
f 105/115/122 104/114/142 103/113/142
f 104/114/142 105/115/122 106/116/122
f 107/117/143 106/116/122 105/115/122
f 106/116/122 107/117/143 108/118/143
f 109/119/144 108/118/143 107/117/143
f 108/118/143 109/119/144 110/120/144
f 111/123/145 110/120/144 109/119/144
f 110/120/144 111/123/145 112/124/145
f 111/122/145 113/112/146 112/121/145
f 113/112/146 111/122/145 114/111/146
f 114/111/146 96/114/138 113/112/146
f 96/114/138 114/111/146 95/113/138
f 74/127/121 70/126/121 72/125/121
f 70/126/121 74/127/121 68/128/121
f 68/128/121 74/127/121 76/129/121
f 68/128/121 76/129/121 77/130/121
f 77/130/121 76/129/121 80/131/121
f 77/130/121 80/131/121 90/132/121
f 90/132/121 80/131/121 81/133/121
f 90/132/121 81/133/121 92/134/121
f 92/134/121 81/133/121 83/135/121
f 92/134/121 83/135/121 85/136/121
f 92/134/121 85/136/121 94/137/121
f 94/137/121 85/136/121 87/138/121
f 94/137/121 87/138/121 96/139/121
f 96/139/121 87/138/121 113/140/121
f 113/140/121 87/138/121 97/141/121
f 113/140/121 97/141/121 112/142/121
f 112/142/121 97/141/121 99/143/121
f 112/142/121 99/143/121 110/144/121
f 110/144/121 99/143/121 102/145/121
f 110/144/121 102/145/121 108/146/121
f 108/146/121 102/145/121 104/147/121
f 108/146/121 104/147/121 106/148/121
f 69/127/126 73/126/126 71/125/126
f 73/126/126 69/127/126 67/129/126
f 73/126/126 67/129/126 75/128/126
f 75/128/126 67/129/126 78/131/126
f 75/128/126 78/131/126 79/130/126
f 79/130/126 78/131/126 89/133/126
f 79/130/126 89/133/126 82/132/126
f 82/132/126 89/133/126 91/135/126
f 82/132/126 91/135/126 84/134/126
f 84/134/126 91/135/126 93/136/126
f 84/134/126 93/136/126 86/137/126
f 86/137/126 93/136/126 95/138/126
f 86/137/126 95/138/126 88/139/126
f 88/139/126 95/138/126 114/141/126
f 88/139/126 114/141/126 98/140/126
f 98/140/126 114/141/126 111/143/126
f 98/140/126 111/143/126 100/142/126
f 100/142/126 111/143/126 109/145/126
f 100/142/126 109/145/126 101/144/126
f 101/144/126 109/145/126 107/147/126
f 101/144/126 107/147/126 103/146/126
f 103/146/126 107/147/126 105/148/126

