# Created by Kenney (www.kenney.nl)

mtllib gems_aquamarine_original.mtl

g mergedBlocks

v 0.405 0 0.2309401
v 0.405 0 -0.2309401
v 9.706821E-14 0 0.4618802
v -1.093479E-13 0 -0.4618802
v -0.405 0 0.2309401
v -0.405 0 -0.2309401
v 0 1 0

vn 0 -1 0
vn -0.4597242 0.3723767 -0.8062191
vn 0.4597242 0.3723767 -0.8062191
vn 0.92687 0.3753824 0
vn 0.4597242 0.3723767 0.8062191
vn -0.4597242 0.3723767 0.8062191
vn -0.92687 0.3753824 0

vt -0.405 -0.2309401
vt -0.405 0.2309401
vt -9.706821E-14 -0.4618802
vt 1.093479E-13 0.4618802
vt 0.405 -0.2309401
vt 0.405 0.2309401
vt 0.405 0
vt 1.093479E-13 0
vt 0 1
vt -0.405 0
vt 0.2309401 0
vt -0.2309401 0
vt 9.706821E-14 0

usemtl custom6(Clone)

f 3/3/1 2/2/1 1/1/1
f 2/2/1 3/3/1 4/4/1
f 4/4/1 3/3/1 5/5/1
f 4/4/1 5/5/1 6/6/1
f 7/9/2 4/8/2 6/7/2
f 7/9/3 2/10/3 4/8/3
f 1/12/4 2/11/4 7/9/4
f 7/9/5 3/13/5 1/7/5
f 7/9/6 5/10/6 3/13/6
f 5/11/7 7/9/7 6/12/7

