# Created by Kenney (www.kenney.nl)

mtllib gems_sapphire_1.mtl

g mergedBlocks

v 0.4330127 0.01422501 -0.25
v 0.4330127 -0.183775 -0.25
v 0.4829629 0.01422501 -0.1294095
v 0.4829629 -0.183775 -0.1294095
v 0.5 0.01422501 0
v 0.5 -0.183775 0
v 0.4829629 0.01422501 0.1294095
v 0.4829629 -0.183775 0.1294095
v 0.4330127 0.01422501 0.25
v 0.4330127 -0.183775 0.25
v 0.3535534 -0.183775 -0.3535534
v 0.3535534 0.01422501 -0.3535534
v 0.3535534 0.01422501 0.3535534
v 0.3535534 -0.183775 0.3535534
v 0.25 -0.183775 0.4330127
v 0.25 0.01422501 0.4330127
v 0.1294095 -0.183775 0.4829629
v 0.1294095 0.01422501 0.4829629
v 0 -0.183775 0.5
v 0 0.01422501 0.5
v -0.1294095 -0.183775 0.4829629
v -0.1294095 0.01422501 0.4829629
v 0.25 0.01422501 -0.4330127
v 0.25 -0.183775 -0.4330127
v 0.1294095 0.01422501 -0.4829629
v 0.1294095 -0.183775 -0.4829629
v 0 0.01422501 -0.5
v 0 -0.183775 -0.5
v -0.1294095 0.01422501 -0.4829629
v -0.1294095 -0.183775 -0.4829629
v -0.25 -0.183775 0.4330127
v -0.25 0.01422501 0.4330127
v -0.3535534 -0.183775 0.3535534
v -0.3535534 0.01422501 0.3535534
v -0.4330127 0.01422501 0.25
v -0.4330127 -0.183775 0.25
v -0.4829629 0.01422501 0.1294095
v -0.4829629 -0.183775 0.1294095
v -0.5 0.01422501 0
v -0.5 -0.183775 0
v -0.4829629 0.01422501 -0.1294095
v -0.4829629 -0.183775 -0.1294095
v -0.4330127 0.01422501 -0.25
v -0.4330127 -0.183775 -0.25
v -0.3535534 0.01422501 -0.3535534
v -0.3535534 -0.183775 -0.3535534
v -0.25 -0.183775 -0.4330127
v -0.25 0.01422501 -0.4330127
v 0.001600027 0.02502501 0.1888493
v -0.03978473 0.02502501 0.1639503
v 0.001600027 0.05677501 0.1888493
v -0.15285 0.02502501 0.09592479
v -0.15285 0.05677501 0.09592479
v 0.15605 0.05677501 -0.08992427
v 0.15605 0.05677501 0.09592479
v 0.04021253 0.183775 -0.02023087
v 0.04021253 0.183775 0.02623139
v 0.001600027 0.05677501 -0.1828488
v 0.001600027 0.183775 -0.043462
v -0.15285 0.02502501 -0.08992427
v -0.15285 0.05677501 -0.08992427
v 0.15605 0.02502501 0.09592479
v 0.04298478 0.02502501 0.1639503
v 0.15605 0.02502501 -0.08992427
v -0.03701247 0.183775 -0.02023087
v -0.03701247 0.183775 0.02623139
v 0.001600027 0.02502501 -0.1828488
v 0.04298478 0.02502501 -0.1579497
v 0.001600027 0.183775 0.04946252
v -0.03978473 0.02502501 -0.1579497
v 0.04298478 0.02502501 0.1639503
v 0.001600024 -0.006724991 0.1888493
v 0.15605 0.025025 0.09592479
v 0.15605 -0.006725006 0.09592479
v -0.15285 -0.006724976 -0.08992427
v -0.15285 -0.006724976 0.09592479
v -0.03701249 -0.133725 -0.02023087
v -0.03701249 -0.133725 0.02623139
v 0.001600024 -0.006724991 -0.1828488
v 0.001600013 -0.133725 -0.043462
v 0.15605 0.025025 -0.08992427
v 0.15605 -0.006725006 -0.08992427
v -0.15285 0.02502502 0.09592479
v -0.03978473 0.02502501 0.1639503
v -0.15285 0.02502502 -0.08992427
v 0.04021251 -0.133725 -0.02023087
v 0.04021251 -0.133725 0.02623139
v -0.03978473 0.02502501 -0.1579497
v 0.001600013 -0.133725 0.04946252
v 0.04298478 0.02502501 -0.1579497

vn 0.8660254 0 -0.5
vn 0.9659259 0 -0.2588191
vn 1 0 0
vn 0.9659259 0 0.2588191
vn 0.8660254 0 0.5
vn 0.7071068 0 -0.7071068
vn 0.7071068 0 0.7071068
vn 0.5 0 0.8660254
vn 0.2588191 0 0.9659259
vn 0 0 1
vn -0.2588191 0 0.9659259
vn 0.5 0 -0.8660254
vn 0.2588191 0 -0.9659259
vn 0 0 -1
vn -0.2588191 0 -0.9659259
vn -0.5 0 0.8660254
vn -0.7071068 0 0.7071068
vn -0.8660254 0 0.5
vn -0.9659259 0 0.2588191
vn -1 0 0
vn -0.9659259 0 -0.2588191
vn -0.8660254 0 -0.5
vn -0.7071068 0 -0.7071068
vn -0.5 0 -0.8660254
vn 0 -1 0
vn 0 1 0
vn -0.5155337 0 0.8568693
vn 0.7388302 0.6738917 0
vn 0.3755491 0.6850814 -0.6242006
vn 0.5155337 0 0.8568693
vn -0.7388302 0.6738917 0
vn 0.5155337 0 -0.8568693
vn -0.3755491 0.6850814 0.6242006
vn 0.3755491 0.6850814 0.6242006
vn -0.3755491 0.6850814 -0.6242006
vn -0.5155337 0 -0.8568693
vn 0.5155337 -4.506938E-08 0.8568693
vn -0.7388303 -0.6738916 0
vn -0.3755491 -0.6850814 -0.6242006
vn 1 -8.742278E-08 0
vn -0.5155337 4.506938E-08 0.8568693
vn -1 8.742278E-08 0
vn 0.7388301 -0.6738917 0
vn -0.5155337 4.506938E-08 -0.8568693
vn 0.375549 -0.6850814 0.6242007
vn -0.3755491 -0.6850814 0.6242006
vn 0.375549 -0.6850814 -0.6242007
vn -8.742278E-08 -1 0
vn 0.5155337 -4.506938E-08 -0.8568693
vn 8.742278E-08 1 0

vt 0.25 0.01422501
vt 0.25 -0.183775
vt 0.1294095 0.01422501
vt 0.1294095 -0.183775
vt 0 0.01422501
vt 0 -0.183775
vt -0.1294095 0.01422501
vt -0.1294095 -0.183775
vt -0.25 0.01422501
vt -0.25 -0.183775
vt 0.3535534 -0.183775
vt 0.3535534 0.01422501
vt -0.3535534 0.01422501
vt -0.3535534 -0.183775
vt -0.5 0
vt -0.4829629 0.1294095
vt -0.4829629 -0.1294095
vt -0.4330127 0.25
vt -0.4330127 -0.25
vt -0.3535534 0.3535534
vt -0.3535534 -0.3535534
vt -0.25 0.4330127
vt -0.25 -0.4330127
vt -0.1294095 0.4829629
vt -0.1294095 -0.4829629
vt 0 -0.5
vt 0 0.5
vt 0.1294095 -0.4829629
vt 0.1294095 0.4829629
vt 0.25 0.4330127
vt 0.25 -0.4330127
vt 0.3535534 0.3535534
vt 0.3535534 -0.3535534
vt 0.4330127 0.25
vt 0.4330127 -0.25
vt 0.4829629 0.1294095
vt 0.4829629 -0.1294095
vt 0.5 0
vt 0.001600027 0.02502501
vt -0.03978473 0.02502501
vt 0.001600027 0.05677501
vt -0.15285 0.02502501
vt -0.15285 0.05677501
vt 0.08992427 0.05677501
vt -0.09592479 0.05677501
vt 0.02023087 0.183775
vt -0.02623139 0.183775
vt -0.15605 -0.08992427
vt -0.04021253 -0.02023087
vt -0.001600027 -0.1828488
vt -0.001600027 -0.043462
vt -0.08992427 0.02502501
vt -0.08992427 0.05677501
vt 0.09592479 0.02502501
vt 0.09592479 0.05677501
vt 0.15605 0.02502501
vt 0.04298478 0.02502501
vt 0.15605 0.05677501
vt 0.08992427 0.02502501
vt -0.09592479 0.02502501
vt -0.02023087 0.183775
vt 0.02623139 0.183775
vt -0.001600027 0.02502501
vt -0.04298478 0.02502501
vt -0.001600027 0.05677501
vt -0.15605 0.02502501
vt -0.15605 0.05677501
vt -0.001600027 0.04946252
vt -0.001600027 0.1888493
vt 0.03701247 0.02623139
vt 0.15285 0.09592479
vt -0.15605 0.09592479
vt -0.04021253 0.02623139
vt 0.03701247 -0.02023087
vt 0.15285 -0.08992427
vt 0.15285 0.02502501
vt 0.03978473 0.02502501
vt 0.15285 0.05677501
vt -0.15605 -0.09592479
vt -0.15605 0.08992427
vt -0.04298478 -0.1639503
vt -0.04298478 0.1579497
vt -0.001600027 0.1828488
vt -0.001600027 -0.1888493
vt 0.03978473 -0.1639503
vt 0.03978473 0.1579497
vt 0.15285 -0.09592479
vt 0.15285 0.08992427
vt 0.04298478 0.02502501
vt 0.001600024 -0.00672499
vt 0.15605 0.025025
vt 0.15605 -0.006725003
vt -0.08992427 -0.006724976
vt 0.09592479 -0.006724976
vt -0.02023087 -0.133725
vt 0.02623139 -0.133725
vt 0.03701249 0.02023087
vt -0.001600024 0.1828488
vt -0.001600013 0.043462
vt 0.08992427 0.025025
vt 0.08992427 -0.006725003
vt -0.09592479 0.025025
vt -0.09592479 -0.006725003
vt -0.15285 0.02502502
vt -0.03978473 0.02502501
vt -0.15285 -0.006724976
vt -0.08992427 0.02502502
vt 0.09592479 0.02502502
vt 0.02023087 -0.133725
vt -0.02623139 -0.133725
vt 0.03978473 0.02502501
vt -0.001600024 -0.00672499
vt 0.15285 0.02502502
vt 0.15285 -0.006724976
vt -0.001600013 -0.04946252
vt -0.001600024 -0.1888493
vt -0.04021251 -0.02623139
vt 0.03701249 -0.02623139
vt -0.04021251 0.02023087
vt -0.15605 0.025025
vt -0.04298478 0.02502501
vt -0.15605 -0.006725003
vt 0.03978473 0.1639503
vt 0.03978473 -0.1579497
vt -0.04298478 0.1639503
vt -0.04298478 -0.1579497

usemtl custom1(Clone)

f 3/3/2 2/2/1 1/1/1
f 2/2/1 3/3/2 4/4/2
f 5/5/3 4/4/2 3/3/2
f 4/4/2 5/5/3 6/6/3
f 7/7/4 6/6/3 5/5/3
f 6/6/3 7/7/4 8/8/4
f 9/9/5 8/8/4 7/7/4
f 8/8/4 9/9/5 10/10/5
f 11/11/6 1/1/1 2/2/1
f 1/1/1 11/11/6 12/12/6
f 13/13/7 10/10/5 9/9/5
f 10/10/5 13/13/7 14/14/7
f 13/12/7 15/2/8 14/11/7
f 15/2/8 13/12/7 16/1/8
f 16/1/8 17/4/9 15/2/8
f 17/4/9 16/1/8 18/3/9
f 18/3/9 19/6/10 17/4/9
f 19/6/10 18/3/9 20/5/10
f 20/5/10 21/8/11 19/6/10
f 21/8/11 20/5/10 22/7/11
f 11/14/6 23/9/12 12/13/6
f 23/9/12 11/14/6 24/10/12
f 24/10/12 25/7/13 23/9/12
f 25/7/13 24/10/12 26/8/13
f 26/8/13 27/5/14 25/7/13
f 27/5/14 26/8/13 28/6/14
f 28/6/14 29/3/15 27/5/14
f 29/3/15 28/6/14 30/4/15
f 22/7/11 31/10/16 21/8/11
f 31/10/16 22/7/11 32/9/16
f 32/9/16 33/14/17 31/10/16
f 33/14/17 32/9/16 34/13/17
f 35/1/18 33/11/17 34/12/17
f 33/11/17 35/1/18 36/2/18
f 37/3/19 36/2/18 35/1/18
f 36/2/18 37/3/19 38/4/19
f 39/5/20 38/4/19 37/3/19
f 38/4/19 39/5/20 40/6/20
f 41/7/21 40/6/20 39/5/20
f 40/6/20 41/7/21 42/8/21
f 43/9/22 42/8/21 41/7/21
f 42/8/21 43/9/22 44/10/22
f 45/13/23 44/10/22 43/9/22
f 44/10/22 45/13/23 46/14/23
f 45/12/23 47/2/24 46/11/23
f 47/2/24 45/12/23 48/1/24
f 48/1/24 30/4/15 47/2/24
f 30/4/15 48/1/24 29/3/15
f 8/17/25 4/16/25 6/15/25
f 4/16/25 8/17/25 2/18/25
f 2/18/25 8/17/25 10/19/25
f 2/18/25 10/19/25 11/20/25
f 11/20/25 10/19/25 14/21/25
f 11/20/25 14/21/25 24/22/25
f 24/22/25 14/21/25 15/23/25
f 24/22/25 15/23/25 26/24/25
f 26/24/25 15/23/25 17/25/25
f 26/24/25 17/25/25 19/26/25
f 26/24/25 19/26/25 28/27/25
f 28/27/25 19/26/25 21/28/25
f 28/27/25 21/28/25 30/29/25
f 30/29/25 21/28/25 47/30/25
f 47/30/25 21/28/25 31/31/25
f 47/30/25 31/31/25 46/32/25
f 46/32/25 31/31/25 33/33/25
f 46/32/25 33/33/25 44/34/25
f 44/34/25 33/33/25 36/35/25
f 44/34/25 36/35/25 42/36/25
f 42/36/25 36/35/25 38/37/25
f 42/36/25 38/37/25 40/38/25
f 3/17/26 7/16/26 5/15/26
f 7/16/26 3/17/26 1/19/26
f 7/16/26 1/19/26 9/18/26
f 9/18/26 1/19/26 12/21/26
f 9/18/26 12/21/26 13/20/26
f 13/20/26 12/21/26 23/23/26
f 13/20/26 23/23/26 16/22/26
f 16/22/26 23/23/26 25/25/26
f 16/22/26 25/25/26 18/24/26
f 18/24/26 25/25/26 27/26/26
f 18/24/26 27/26/26 20/27/26
f 20/27/26 27/26/26 29/28/26
f 20/27/26 29/28/26 22/29/26
f 22/29/26 29/28/26 48/31/26
f 22/29/26 48/31/26 32/30/26
f 32/30/26 48/31/26 45/33/26
f 32/30/26 45/33/26 34/32/26
f 34/32/26 45/33/26 43/35/26
f 34/32/26 43/35/26 35/34/26
f 35/34/26 43/35/26 41/37/26
f 35/34/26 41/37/26 37/36/26
f 37/36/26 41/37/26 39/38/26

usemtl custom10(Clone)

f 51/41/27 50/40/27 49/39/27
f 50/40/27 51/41/27 52/42/27
f 52/42/27 51/41/27 53/43/27
f 56/46/28 55/45/28 54/44/28
f 55/45/28 56/46/28 57/47/28
f 58/50/29 56/49/29 54/48/29
f 56/49/29 58/50/29 59/51/29
f 52/54/20 61/53/20 60/52/20
f 61/53/20 52/54/20 53/55/20
f 55/58/30 63/57/30 62/56/30
f 63/57/30 55/58/30 49/39/30
f 49/39/30 55/58/30 51/41/30
f 55/45/3 64/59/3 54/44/3
f 64/59/3 55/45/3 62/60/3
f 53/55/31 65/61/31 61/53/31
f 65/61/31 53/55/31 66/62/31
f 58/65/32 68/64/32 67/63/32
f 68/64/32 58/65/32 64/66/32
f 64/66/32 58/65/32 54/67/32
f 66/70/33 51/69/33 69/68/33
f 51/69/33 66/70/33 53/71/33
f 57/73/34 51/69/34 55/72/34
f 51/69/34 57/73/34 69/68/34
f 58/50/35 65/74/35 59/51/35
f 65/74/35 58/50/35 61/75/35
f 59/51/26 57/73/26 56/49/26
f 57/73/26 59/51/26 69/68/26
f 69/68/26 59/51/26 65/74/26
f 69/68/26 65/74/26 66/70/26
f 61/78/36 70/77/36 60/76/36
f 70/77/36 61/78/36 67/63/36
f 67/63/36 61/78/36 58/65/36
f 63/81/25 64/80/25 62/79/25
f 64/80/25 63/81/25 68/82/25
f 68/82/25 63/81/25 67/83/25
f 67/83/25 63/81/25 49/84/25
f 67/83/25 49/84/25 50/85/25
f 67/83/25 50/85/25 70/86/25
f 70/86/25 50/85/25 52/87/25
f 70/86/25 52/87/25 60/88/25
f 72/90/37 71/89/37 49/39/37
f 71/89/37 72/90/37 73/91/37
f 73/91/37 72/90/37 74/92/37
f 77/95/38 76/94/38 75/93/38
f 76/94/38 77/95/38 78/96/38
f 79/98/39 77/97/39 75/88/39
f 77/97/39 79/98/39 80/99/39
f 73/102/40 82/101/40 81/100/40
f 82/101/40 73/102/40 74/103/40
f 76/106/41 84/105/41 83/104/41
f 84/105/41 76/106/41 49/39/41
f 49/39/41 76/106/41 72/90/41
f 76/94/42 85/107/42 75/93/42
f 85/107/42 76/94/42 83/108/42
f 74/103/43 86/109/43 82/101/43
f 86/109/43 74/103/43 87/110/43
f 79/112/44 88/111/44 67/63/44
f 88/111/44 79/112/44 85/113/44
f 85/113/44 79/112/44 75/114/44
f 87/117/45 72/116/45 89/115/45
f 72/116/45 87/117/45 74/79/45
f 78/118/46 72/116/46 76/87/46
f 72/116/46 78/118/46 89/115/46
f 79/98/47 86/119/47 80/99/47
f 86/119/47 79/98/47 82/80/47
f 80/99/48 78/118/48 77/97/48
f 78/118/48 80/99/48 89/115/48
f 89/115/48 80/99/48 86/119/48
f 89/115/48 86/119/48 87/117/48
f 82/122/49 90/121/49 81/120/49
f 90/121/49 82/122/49 67/63/49
f 67/63/49 82/122/49 79/112/49
f 84/123/50 85/75/50 83/71/50
f 85/75/50 84/123/50 88/124/50
f 88/124/50 84/123/50 67/50/50
f 67/50/50 84/123/50 49/69/50
f 67/50/50 49/69/50 71/125/50
f 67/50/50 71/125/50 90/126/50
f 90/126/50 71/125/50 73/72/50
f 90/126/50 73/72/50 81/48/50

