# Created by Kenney (www.kenney.nl)

mtllib gems_topaz_3.mtl

g mergedBlocks

v 0.4330127 -0.07700001 -0.25
v 0.4330127 -0.275 -0.25
v 0.4829629 -0.07700001 -0.1294095
v 0.4829629 -0.275 -0.1294095
v 0.5 -0.07700001 0
v 0.5 -0.275 0
v 0.4829629 -0.07700001 0.1294095
v 0.4829629 -0.275 0.1294095
v 0.4330127 -0.07700001 0.25
v 0.4330127 -0.275 0.25
v 0.3535534 -0.275 -0.3535534
v 0.3535534 -0.07700001 -0.3535534
v 0.3535534 -0.07700001 0.3535534
v 0.3535534 -0.275 0.3535534
v 0.25 -0.275 0.4330127
v 0.25 -0.07700001 0.4330127
v 0.1294095 -0.275 0.4829629
v 0.1294095 -0.07700001 0.4829629
v 0 -0.275 0.5
v 0 -0.07700001 0.5
v -0.1294095 -0.275 0.4829629
v -0.1294095 -0.07700001 0.4829629
v 0.25 -0.07700001 -0.4330127
v 0.25 -0.275 -0.4330127
v 0.1294095 -0.07700001 -0.4829629
v 0.1294095 -0.275 -0.4829629
v 0 -0.07700001 -0.5
v 0 -0.275 -0.5
v -0.1294095 -0.07700001 -0.4829629
v -0.1294095 -0.275 -0.4829629
v -0.25 -0.275 0.4330127
v -0.25 -0.07700001 0.4330127
v -0.3535534 -0.275 0.3535534
v -0.3535534 -0.07700001 0.3535534
v -0.4330127 -0.07700001 0.25
v -0.4330127 -0.275 0.25
v -0.4829629 -0.07700001 0.1294095
v -0.4829629 -0.275 0.1294095
v -0.5 -0.07700001 0
v -0.5 -0.275 0
v -0.4829629 -0.07700001 -0.1294095
v -0.4829629 -0.275 -0.1294095
v -0.4330127 -0.07700001 -0.25
v -0.4330127 -0.275 -0.25
v -0.3535534 -0.07700001 -0.3535534
v -0.3535534 -0.275 -0.3535534
v -0.25 -0.275 -0.4330127
v -0.25 -0.07700001 -0.4330127
v -0.3 0.05500001 -0.1732051
v -0.225 0.275 -0.1299038
v -0.3 0.05500001 0.1732051
v -0.225 0.275 0.1299038
v 0.3 0.05500001 -0.1732051
v 0.3 0.05500001 0.1732051
v 0.225 0.275 -0.1299038
v 0.225 0.275 0.1299038
v -4.331469E-16 0.05500001 0.3464102
v 0 0.275 0.2598076
v 0.3 -0.165 0.1732051
v 0.3 -0.165 -0.1732051
v 0.225 -0.275 0.1299038
v 0.225 -0.275 -0.1299038
v 0 -0.275 -0.2598076
v -4.331469E-16 -0.165 -0.3464102
v -0.225 -0.275 -0.1299038
v -0.3 -0.165 -0.1732051
v -0.225 -0.275 0.1299038
v -0.3 -0.165 0.1732051
v -4.331469E-16 0.05500001 -0.3464102
v 0 0.275 -0.2598076
v 0 -0.275 0.2598076
v -4.331469E-16 -0.165 0.3464102

vn 0.8660254 0 -0.5
vn 0.9659259 0 -0.2588191
vn 1 0 0
vn 0.9659259 0 0.2588191
vn 0.8660254 0 0.5
vn 0.7071068 0 -0.7071068
vn 0.7071068 0 0.7071068
vn 0.5 0 0.8660254
vn 0.2588191 0 0.9659259
vn 0 0 1
vn -0.2588191 0 0.9659259
vn 0.5 0 -0.8660254
vn 0.2588191 0 -0.9659259
vn 0 0 -1
vn -0.2588191 0 -0.9659259
vn -0.5 0 0.8660254
vn -0.7071068 0 0.7071068
vn -0.8660254 0 0.5
vn -0.9659259 0 0.2588191
vn -1 0 0
vn -0.9659259 0 -0.2588191
vn -0.8660254 0 -0.5
vn -0.7071068 0 -0.7071068
vn -0.5 0 -0.8660254
vn 0 -1 0
vn 0 1 0
vn -0.9465102 0.3226739 0
vn 0.9465102 0.3226739 0
vn 0.4732551 0.3226739 0.8197018
vn 0.8262274 -0.5633368 0
vn -0.4131137 -0.5633368 -0.7155339
vn -0.8262274 -0.5633368 0
vn -0.4732551 0.3226739 -0.8197018
vn 0.4131137 -0.5633368 -0.7155339
vn -0.4131137 -0.5633368 0.7155339
vn 0.4732551 0.3226739 -0.8197018
vn -0.4732551 0.3226739 0.8197018
vn 0.5 0 0.8660254
vn 0.5 0 -0.8660254
vn -0.5 0 -0.8660254
vn -0.5 0 0.8660254
vn 0.4131137 -0.5633368 0.7155339

vt 0.25 -0.07700001
vt 0.25 -0.275
vt 0.1294095 -0.07700001
vt 0.1294095 -0.275
vt 0 -0.07700001
vt 0 -0.275
vt -0.1294095 -0.07700001
vt -0.1294095 -0.275
vt -0.25 -0.07700001
vt -0.25 -0.275
vt 0.3535534 -0.275
vt 0.3535534 -0.07700001
vt -0.3535534 -0.07700001
vt -0.3535534 -0.275
vt -0.5 0
vt -0.4829629 0.1294095
vt -0.4829629 -0.1294095
vt -0.4330127 0.25
vt -0.4330127 -0.25
vt -0.3535534 0.3535534
vt -0.3535534 -0.3535534
vt -0.25 0.4330127
vt -0.25 -0.4330127
vt -0.1294095 0.4829629
vt -0.1294095 -0.4829629
vt 0 -0.5
vt 0 0.5
vt 0.1294095 -0.4829629
vt 0.1294095 0.4829629
vt 0.25 0.4330127
vt 0.25 -0.4330127
vt 0.3535534 0.3535534
vt 0.3535534 -0.3535534
vt 0.4330127 0.25
vt 0.4330127 -0.25
vt 0.4829629 0.1294095
vt 0.4829629 -0.1294095
vt 0.5 0
vt -0.1732051 0.05500001
vt -0.1299038 0.275
vt 0.1732051 0.05500001
vt 0.1299038 0.275
vt 0.3 0.05500001
vt -4.331469E-16 0.05500001
vt 0.225 0.275
vt 0 0.275
vt -0.1732051 -0.165
vt 0.1732051 -0.165
vt -0.1299038 -0.275
vt 0.1299038 -0.275
vt 4.331469E-16 -0.165
vt 0.225 -0.275
vt 0.3 -0.165
vt 4.331469E-16 0.05500001
vt -0.3 -0.165
vt -0.225 -0.275
vt -4.331469E-16 -0.165
vt -0.3 0.05500001
vt -0.225 0.275
vt -0.225 -0.1299038
vt -0.225 0.1299038
vt 0 -0.2598076
vt 0 0.2598076
vt 0.225 -0.1299038
vt 0.225 0.1299038

usemtl custom1(Clone)

f 3/3/2 2/2/1 1/1/1
f 2/2/1 3/3/2 4/4/2
f 5/5/3 4/4/2 3/3/2
f 4/4/2 5/5/3 6/6/3
f 7/7/4 6/6/3 5/5/3
f 6/6/3 7/7/4 8/8/4
f 9/9/5 8/8/4 7/7/4
f 8/8/4 9/9/5 10/10/5
f 11/11/6 1/1/1 2/2/1
f 1/1/1 11/11/6 12/12/6
f 13/13/7 10/10/5 9/9/5
f 10/10/5 13/13/7 14/14/7
f 13/12/7 15/2/8 14/11/7
f 15/2/8 13/12/7 16/1/8
f 16/1/8 17/4/9 15/2/8
f 17/4/9 16/1/8 18/3/9
f 18/3/9 19/6/10 17/4/9
f 19/6/10 18/3/9 20/5/10
f 20/5/10 21/8/11 19/6/10
f 21/8/11 20/5/10 22/7/11
f 11/14/6 23/9/12 12/13/6
f 23/9/12 11/14/6 24/10/12
f 24/10/12 25/7/13 23/9/12
f 25/7/13 24/10/12 26/8/13
f 26/8/13 27/5/14 25/7/13
f 27/5/14 26/8/13 28/6/14
f 28/6/14 29/3/15 27/5/14
f 29/3/15 28/6/14 30/4/15
f 22/7/11 31/10/16 21/8/11
f 31/10/16 22/7/11 32/9/16
f 32/9/16 33/14/17 31/10/16
f 33/14/17 32/9/16 34/13/17
f 35/1/18 33/11/17 34/12/17
f 33/11/17 35/1/18 36/2/18
f 37/3/19 36/2/18 35/1/18
f 36/2/18 37/3/19 38/4/19
f 39/5/20 38/4/19 37/3/19
f 38/4/19 39/5/20 40/6/20
f 41/7/21 40/6/20 39/5/20
f 40/6/20 41/7/21 42/8/21
f 43/9/22 42/8/21 41/7/21
f 42/8/21 43/9/22 44/10/22
f 45/13/23 44/10/22 43/9/22
f 44/10/22 45/13/23 46/14/23
f 45/12/23 47/2/24 46/11/23
f 47/2/24 45/12/23 48/1/24
f 48/1/24 30/4/15 47/2/24
f 30/4/15 48/1/24 29/3/15
f 8/17/25 4/16/25 6/15/25
f 4/16/25 8/17/25 2/18/25
f 2/18/25 8/17/25 10/19/25
f 2/18/25 10/19/25 11/20/25
f 11/20/25 10/19/25 14/21/25
f 11/20/25 14/21/25 24/22/25
f 24/22/25 14/21/25 15/23/25
f 24/22/25 15/23/25 26/24/25
f 26/24/25 15/23/25 17/25/25
f 26/24/25 17/25/25 19/26/25
f 26/24/25 19/26/25 28/27/25
f 28/27/25 19/26/25 21/28/25
f 28/27/25 21/28/25 30/29/25
f 30/29/25 21/28/25 47/30/25
f 47/30/25 21/28/25 31/31/25
f 47/30/25 31/31/25 46/32/25
f 46/32/25 31/31/25 33/33/25
f 46/32/25 33/33/25 44/34/25
f 44/34/25 33/33/25 36/35/25
f 44/34/25 36/35/25 42/36/25
f 42/36/25 36/35/25 38/37/25
f 42/36/25 38/37/25 40/38/25
f 3/17/26 7/16/26 5/15/26
f 7/16/26 3/17/26 1/19/26
f 7/16/26 1/19/26 9/18/26
f 9/18/26 1/19/26 12/21/26
f 9/18/26 12/21/26 13/20/26
f 13/20/26 12/21/26 23/23/26
f 13/20/26 23/23/26 16/22/26
f 16/22/26 23/23/26 25/25/26
f 16/22/26 25/25/26 18/24/26
f 18/24/26 25/25/26 27/26/26
f 18/24/26 27/26/26 20/27/26
f 20/27/26 27/26/26 29/28/26
f 20/27/26 29/28/26 22/29/26
f 22/29/26 29/28/26 48/31/26
f 22/29/26 48/31/26 32/30/26
f 32/30/26 48/31/26 45/33/26
f 32/30/26 45/33/26 34/32/26
f 34/32/26 45/33/26 43/35/26
f 34/32/26 43/35/26 35/34/26
f 35/34/26 43/35/26 41/37/26
f 35/34/26 41/37/26 37/36/26
f 37/36/26 41/37/26 39/38/26

usemtl custom11(Clone)

f 51/41/27 50/40/27 49/39/27
f 50/40/27 51/41/27 52/42/27
f 55/42/28 54/39/28 53/41/28
f 54/39/28 55/42/28 56/40/28
f 56/45/29 57/44/29 54/43/29
f 57/44/29 56/45/29 58/46/29
f 61/49/30 60/48/30 59/47/30
f 60/48/30 61/49/30 62/50/30
f 65/52/31 64/51/31 63/6/31
f 64/51/31 65/52/31 66/53/31
f 68/48/32 65/49/32 67/50/32
f 65/49/32 68/48/32 66/47/32
f 50/45/33 69/54/33 49/43/33
f 69/54/33 50/45/33 70/46/33
f 62/56/34 64/51/34 60/55/34
f 64/51/34 62/56/34 63/6/34
f 72/57/35 67/56/35 71/6/35
f 67/56/35 72/57/35 68/55/35
f 70/46/36 53/58/36 69/54/36
f 53/58/36 70/46/36 55/59/36
f 58/46/37 51/58/37 57/44/37
f 51/58/37 58/46/37 52/59/37
f 54/43/38 72/57/38 59/53/38
f 72/57/38 54/43/38 57/44/38
f 69/54/39 60/55/39 64/51/39
f 60/55/39 69/54/39 53/58/39
f 49/43/40 64/51/40 66/53/40
f 64/51/40 49/43/40 69/54/40
f 68/48/20 49/39/20 66/47/20
f 49/39/20 68/48/20 51/41/20
f 54/39/3 60/48/3 53/41/3
f 60/48/3 54/39/3 59/47/3
f 57/44/41 68/55/41 72/57/41
f 68/55/41 57/44/41 51/58/41
f 70/62/26 56/61/26 55/60/26
f 56/61/26 70/62/26 58/63/26
f 58/63/26 70/62/26 50/64/26
f 58/63/26 50/64/26 52/65/26
f 71/62/25 62/61/25 61/60/25
f 62/61/25 71/62/25 63/63/25
f 63/63/25 71/62/25 67/64/25
f 63/63/25 67/64/25 65/65/25
f 72/57/42 61/52/42 59/53/42
f 61/52/42 72/57/42 71/6/42

