# Created by Kenney (www.kenney.nl)

mtllib gems_sapphire_4.mtl

g mergedBlocks

v 0.0045 0.02499998 0.4676537
v 0.1021675 0.02499997 0.405
v 0.004499992 -0.06500002 0.4676537
v 0.369 0.02499994 0.2338269
v 0.369 -0.06500005 0.2338269
v -0.36 -0.06499999 -0.2338269
v -0.36 -0.06499999 0.2338269
v -0.08662503 -0.425 -0.05845672
v -0.08662503 -0.425 0.05845672
v 0.004499992 -0.06500002 -0.4676537
v 0.004499961 -0.425 -0.1169134
v 0.369 0.02499994 -0.2338269
v 0.369 -0.06500005 -0.2338269
v -0.36 0.02500001 0.2338269
v -0.09316748 0.02499999 0.405
v -0.36 0.02500001 -0.2338269
v 0.09562496 -0.425 -0.05845672
v 0.09562496 -0.425 0.05845672
v 0.0045 0.02499998 -0.4676537
v -0.09316748 0.02499999 -0.405
v 0.004499961 -0.425 0.1169134
v 0.1021675 0.02499997 -0.405
v -0.09316748 0.02499998 0.405
v 0.0045 0.115 0.4676537
v -0.36 0.02499998 0.2338269
v -0.36 0.115 0.2338269
v 0.369 0.115 -0.2338269
v 0.369 0.115 0.2338269
v 0.095625 0.475 -0.05845672
v 0.095625 0.475 0.05845672
v 0.0045 0.115 -0.4676537
v 0.0045 0.475 -0.1169134
v -0.36 0.02499998 -0.2338269
v -0.36 0.115 -0.2338269
v 0.369 0.02499998 0.2338269
v 0.1021675 0.02499998 0.405
v 0.369 0.02499998 -0.2338269
v -0.08662499 0.475 -0.05845672
v -0.08662499 0.475 0.05845672
v 0.1021675 0.02499998 -0.405
v 0.0045 0.475 0.1169134
v -0.09316748 0.02499998 -0.405
v 0.4330127 -0.277 -0.25
v 0.4330127 -0.475 -0.25
v 0.4829629 -0.277 -0.1294095
v 0.4829629 -0.475 -0.1294095
v 0.5 -0.277 0
v 0.5 -0.475 0
v 0.4829629 -0.277 0.1294095
v 0.4829629 -0.475 0.1294095
v 0.4330127 -0.277 0.25
v 0.4330127 -0.475 0.25
v 0.3535534 -0.475 -0.3535534
v 0.3535534 -0.277 -0.3535534
v 0.3535534 -0.277 0.3535534
v 0.3535534 -0.475 0.3535534
v 0.25 -0.475 0.4330127
v 0.25 -0.277 0.4330127
v 0.1294095 -0.475 0.4829629
v 0.1294095 -0.277 0.4829629
v 0 -0.475 0.5
v 0 -0.277 0.5
v -0.1294095 -0.475 0.4829629
v -0.1294095 -0.277 0.4829629
v 0.25 -0.277 -0.4330127
v 0.25 -0.475 -0.4330127
v 0.1294095 -0.277 -0.4829629
v 0.1294095 -0.475 -0.4829629
v 0 -0.277 -0.5
v 0 -0.475 -0.5
v -0.1294095 -0.277 -0.4829629
v -0.1294095 -0.475 -0.4829629
v -0.25 -0.475 0.4330127
v -0.25 -0.277 0.4330127
v -0.3535534 -0.475 0.3535534
v -0.3535534 -0.277 0.3535534
v -0.4330127 -0.277 0.25
v -0.4330127 -0.475 0.25
v -0.4829629 -0.277 0.1294095
v -0.4829629 -0.475 0.1294095
v -0.5 -0.277 0
v -0.5 -0.475 0
v -0.4829629 -0.277 -0.1294095
v -0.4829629 -0.475 -0.1294095
v -0.4330127 -0.277 -0.25
v -0.4330127 -0.475 -0.25
v -0.3535534 -0.277 -0.3535534
v -0.3535534 -0.475 -0.3535534
v -0.25 -0.475 -0.4330127
v -0.25 -0.277 -0.4330127

vn 0.5399492 -4.720386E-08 0.8416976
vn -0.796402 -0.6047676 0
vn -0.4175156 -0.6341017 -0.6508423
vn 1 -8.742278E-08 0
vn -0.5399492 4.720386E-08 0.8416976
vn -1 8.742278E-08 0
vn 0.7964019 -0.6047677 0
vn -0.5399492 4.720386E-08 -0.8416976
vn 0.4175155 -0.6341019 0.6508423
vn -0.4175156 -0.6341017 0.6508423
vn 0.4175155 -0.6341019 -0.6508423
vn -8.742278E-08 -1 0
vn 0.5399492 -4.720386E-08 -0.8416976
vn 8.742278E-08 1 0
vn -0.5399492 0 0.8416976
vn 0.7964019 0.6047677 0
vn 0.4175155 0.6341018 -0.6508423
vn -1 0 0
vn 0.5399492 0 0.8416976
vn 1 0 0
vn -0.7964019 0.6047677 0
vn 0.5399492 0 -0.8416976
vn -0.4175155 0.6341018 0.6508423
vn 0.4175155 0.6341018 0.6508423
vn -0.4175155 0.6341018 -0.6508423
vn 0 1 0
vn -0.5399492 0 -0.8416976
vn 0 -1 0
vn 0.8660254 0 -0.5
vn 0.9659259 0 -0.2588191
vn 0.9659259 0 0.2588191
vn 0.8660254 0 0.5
vn 0.7071068 0 -0.7071068
vn 0.7071068 0 0.7071068
vn 0.5 0 0.8660254
vn 0.2588191 0 0.9659259
vn 0 0 1
vn -0.2588191 0 0.9659259
vn 0.5 0 -0.8660254
vn 0.2588191 0 -0.9659259
vn 0 0 -1
vn -0.2588191 0 -0.9659259
vn -0.5 0 0.8660254
vn -0.7071068 0 0.7071068
vn -0.8660254 0 0.5
vn -0.9659259 0 0.2588191
vn -0.9659259 0 -0.2588191
vn -0.8660254 0 -0.5
vn -0.7071068 0 -0.7071068
vn -0.5 0 -0.8660254

vt 0.0045 0.02499998
vt 0.1021675 0.02499997
vt 0.004499992 -0.06500002
vt 0.369 0.02499994
vt 0.369 -0.06500006
vt -0.2338269 -0.06499999
vt 0.2338269 -0.06499999
vt -0.05845672 -0.425
vt 0.05845672 -0.425
vt 0.36 -0.06499999
vt 0.08662504 -0.425
vt -0.004499992 -0.06500002
vt -0.004499961 -0.425
vt 0.2338269 0.02499994
vt 0.2338269 -0.06500006
vt -0.2338269 0.02499994
vt -0.2338269 -0.06500006
vt -0.36 0.02500001
vt -0.09316748 0.02499999
vt -0.36 -0.06499999
vt -0.2338269 0.02500001
vt 0.2338269 0.02500001
vt -0.0045 0.02499998
vt 0.09316748 0.02499999
vt 0.36 0.02500001
vt 0.004499961 -0.425
vt 0.09562495 -0.425
vt -0.08662504 -0.425
vt -0.09562495 -0.425
vt -0.369 -0.06500006
vt 0.08662504 0.05845672
vt 0.08662504 -0.05845672
vt -0.004499961 0.1169134
vt -0.004499961 -0.1169134
vt -0.09562495 0.05845672
vt -0.09562495 -0.05845672
vt -0.369 0.02499994
vt -0.1021675 0.02499997
vt 0.36 0.2338269
vt 0.36 -0.2338269
vt 0.09316748 0.405
vt 0.09316748 -0.405
vt -0.0045 -0.4676537
vt -0.0045 0.4676537
vt -0.1021675 0.405
vt -0.1021675 -0.405
vt -0.369 0.2338269
vt -0.369 -0.2338269
vt -0.09316748 0.02499998
vt 0.0045 0.115
vt -0.36 0.02499998
vt -0.36 0.115
vt 0.2338269 0.115
vt -0.2338269 0.115
vt 0.05845672 0.475
vt -0.05845672 0.475
vt -0.369 0.115
vt -0.095625 0.475
vt -0.0045 0.115
vt -0.0045 0.475
vt -0.2338269 0.02499998
vt 0.2338269 0.02499998
vt 0.369 0.02499998
vt 0.1021675 0.02499998
vt 0.369 0.115
vt -0.1021675 0.02499998
vt -0.369 0.02499998
vt 0.0045 0.475
vt -0.08662499 0.475
vt 0.095625 0.475
vt 0.08662499 0.475
vt 0.36 0.115
vt -0.095625 -0.05845672
vt -0.095625 0.05845672
vt -0.0045 -0.1169134
vt -0.0045 0.1169134
vt 0.08662499 -0.05845672
vt 0.08662499 0.05845672
vt 0.36 0.02499998
vt 0.09316748 0.02499998
vt 0.25 -0.277
vt 0.25 -0.475
vt 0.1294095 -0.277
vt 0.1294095 -0.475
vt 0 -0.277
vt 0 -0.475
vt -0.1294095 -0.277
vt -0.1294095 -0.475
vt -0.25 -0.277
vt -0.25 -0.475
vt 0.3535534 -0.475
vt 0.3535534 -0.277
vt -0.3535534 -0.277
vt -0.3535534 -0.475
vt -0.5 0
vt -0.4829629 0.1294095
vt -0.4829629 -0.1294095
vt -0.4330127 0.25
vt -0.4330127 -0.25
vt -0.3535534 0.3535534
vt -0.3535534 -0.3535534
vt -0.25 0.4330127
vt -0.25 -0.4330127
vt -0.1294095 0.4829629
vt -0.1294095 -0.4829629
vt 0 -0.5
vt 0 0.5
vt 0.1294095 -0.4829629
vt 0.1294095 0.4829629
vt 0.25 0.4330127
vt 0.25 -0.4330127
vt 0.3535534 0.3535534
vt 0.3535534 -0.3535534
vt 0.4330127 0.25
vt 0.4330127 -0.25
vt 0.4829629 0.1294095
vt 0.4829629 -0.1294095
vt 0.5 0

usemtl custom10(Clone)

f 3/3/1 2/2/1 1/1/1
f 2/2/1 3/3/1 4/4/1
f 4/4/1 3/3/1 5/5/1
f 8/8/2 7/7/2 6/6/2
f 7/7/2 8/8/2 9/9/2
f 10/12/3 8/11/3 6/10/3
f 8/11/3 10/12/3 11/13/3
f 4/16/4 13/15/4 12/14/4
f 13/15/4 4/16/4 5/17/4
f 7/20/5 15/19/5 14/18/5
f 15/19/5 7/20/5 1/1/5
f 1/1/5 7/20/5 3/3/5
f 7/7/6 16/21/6 6/6/6
f 16/21/6 7/7/6 14/22/6
f 5/17/7 17/9/7 13/15/7
f 17/9/7 5/17/7 18/8/7
f 10/12/8 20/24/8 19/23/8
f 20/24/8 10/12/8 16/25/8
f 16/25/8 10/12/8 6/10/8
f 18/27/9 3/3/9 21/26/9
f 3/3/9 18/27/9 5/5/9
f 9/28/10 3/3/10 7/20/10
f 3/3/10 9/28/10 21/26/10
f 10/12/11 17/29/11 11/13/11
f 17/29/11 10/12/11 13/30/11
f 11/33/12 9/32/12 8/31/12
f 9/32/12 11/33/12 21/34/12
f 21/34/12 11/33/12 17/35/12
f 21/34/12 17/35/12 18/36/12
f 13/30/13 22/38/13 12/37/13
f 22/38/13 13/30/13 19/23/13
f 19/23/13 13/30/13 10/12/13
f 15/41/14 16/40/14 14/39/14
f 16/40/14 15/41/14 20/42/14
f 20/42/14 15/41/14 19/43/14
f 19/43/14 15/41/14 1/44/14
f 19/43/14 1/44/14 2/45/14
f 19/43/14 2/45/14 22/46/14
f 22/46/14 2/45/14 4/47/14
f 22/46/14 4/47/14 12/48/14
f 24/50/15 23/49/15 1/1/15
f 23/49/15 24/50/15 25/51/15
f 25/51/15 24/50/15 26/52/15
f 29/55/16 28/54/16 27/53/16
f 28/54/16 29/55/16 30/56/16
f 31/59/17 29/58/17 27/57/17
f 29/58/17 31/59/17 32/60/17
f 25/62/18 34/54/18 33/61/18
f 34/54/18 25/62/18 26/53/18
f 28/65/19 36/64/19 35/63/19
f 36/64/19 28/65/19 1/1/19
f 1/1/19 28/65/19 24/50/19
f 28/54/20 37/62/20 27/53/20
f 37/62/20 28/54/20 35/61/20
f 26/53/21 38/56/21 34/54/21
f 38/56/21 26/53/21 39/55/21
f 31/59/22 40/66/22 19/23/22
f 40/66/22 31/59/22 37/67/22
f 37/67/22 31/59/22 27/57/22
f 39/69/23 24/50/23 41/68/23
f 24/50/23 39/69/23 26/52/23
f 30/70/24 24/50/24 28/65/24
f 24/50/24 30/70/24 41/68/24
f 31/59/25 38/71/25 32/60/25
f 38/71/25 31/59/25 34/72/25
f 32/75/26 30/74/26 29/73/26
f 30/74/26 32/75/26 41/76/26
f 41/76/26 32/75/26 38/77/26
f 41/76/26 38/77/26 39/78/26
f 34/72/27 42/80/27 33/79/27
f 42/80/27 34/72/27 19/23/27
f 19/23/27 34/72/27 31/59/27
f 36/46/28 37/47/28 35/48/28
f 37/47/28 36/46/28 40/45/28
f 40/45/28 36/46/28 19/44/28
f 19/44/28 36/46/28 1/43/28
f 19/44/28 1/43/28 23/42/28
f 19/44/28 23/42/28 42/41/28
f 42/41/28 23/42/28 25/40/28
f 42/41/28 25/40/28 33/39/28

usemtl custom1(Clone)

f 45/83/30 44/82/29 43/81/29
f 44/82/29 45/83/30 46/84/30
f 47/85/20 46/84/30 45/83/30
f 46/84/30 47/85/20 48/86/20
f 49/87/31 48/86/20 47/85/20
f 48/86/20 49/87/31 50/88/31
f 51/89/32 50/88/31 49/87/31
f 50/88/31 51/89/32 52/90/32
f 53/91/33 43/81/29 44/82/29
f 43/81/29 53/91/33 54/92/33
f 55/93/34 52/90/32 51/89/32
f 52/90/32 55/93/34 56/94/34
f 55/92/34 57/82/35 56/91/34
f 57/82/35 55/92/34 58/81/35
f 58/81/35 59/84/36 57/82/35
f 59/84/36 58/81/35 60/83/36
f 60/83/36 61/86/37 59/84/36
f 61/86/37 60/83/36 62/85/37
f 62/85/37 63/88/38 61/86/37
f 63/88/38 62/85/37 64/87/38
f 53/94/33 65/89/39 54/93/33
f 65/89/39 53/94/33 66/90/39
f 66/90/39 67/87/40 65/89/39
f 67/87/40 66/90/39 68/88/40
f 68/88/40 69/85/41 67/87/40
f 69/85/41 68/88/40 70/86/41
f 70/86/41 71/83/42 69/85/41
f 71/83/42 70/86/41 72/84/42
f 64/87/38 73/90/43 63/88/38
f 73/90/43 64/87/38 74/89/43
f 74/89/43 75/94/44 73/90/43
f 75/94/44 74/89/43 76/93/44
f 77/81/45 75/91/44 76/92/44
f 75/91/44 77/81/45 78/82/45
f 79/83/46 78/82/45 77/81/45
f 78/82/45 79/83/46 80/84/46
f 81/85/18 80/84/46 79/83/46
f 80/84/46 81/85/18 82/86/18
f 83/87/47 82/86/18 81/85/18
f 82/86/18 83/87/47 84/88/47
f 85/89/48 84/88/47 83/87/47
f 84/88/47 85/89/48 86/90/48
f 87/93/49 86/90/48 85/89/48
f 86/90/48 87/93/49 88/94/49
f 87/92/49 89/82/50 88/91/49
f 89/82/50 87/92/49 90/81/50
f 90/81/50 72/84/42 89/82/50
f 72/84/42 90/81/50 71/83/42
f 50/97/28 46/96/28 48/95/28
f 46/96/28 50/97/28 44/98/28
f 44/98/28 50/97/28 52/99/28
f 44/98/28 52/99/28 53/100/28
f 53/100/28 52/99/28 56/101/28
f 53/100/28 56/101/28 66/102/28
f 66/102/28 56/101/28 57/103/28
f 66/102/28 57/103/28 68/104/28
f 68/104/28 57/103/28 59/105/28
f 68/104/28 59/105/28 61/106/28
f 68/104/28 61/106/28 70/107/28
f 70/107/28 61/106/28 63/108/28
f 70/107/28 63/108/28 72/109/28
f 72/109/28 63/108/28 89/110/28
f 89/110/28 63/108/28 73/111/28
f 89/110/28 73/111/28 88/112/28
f 88/112/28 73/111/28 75/113/28
f 88/112/28 75/113/28 86/114/28
f 86/114/28 75/113/28 78/115/28
f 86/114/28 78/115/28 84/116/28
f 84/116/28 78/115/28 80/117/28
f 84/116/28 80/117/28 82/118/28
f 45/97/26 49/96/26 47/95/26
f 49/96/26 45/97/26 43/99/26
f 49/96/26 43/99/26 51/98/26
f 51/98/26 43/99/26 54/101/26
f 51/98/26 54/101/26 55/100/26
f 55/100/26 54/101/26 65/103/26
f 55/100/26 65/103/26 58/102/26
f 58/102/26 65/103/26 67/105/26
f 58/102/26 67/105/26 60/104/26
f 60/104/26 67/105/26 69/106/26
f 60/104/26 69/106/26 62/107/26
f 62/107/26 69/106/26 71/108/26
f 62/107/26 71/108/26 64/109/26
f 64/109/26 71/108/26 90/111/26
f 64/109/26 90/111/26 74/110/26
f 74/110/26 90/111/26 87/113/26
f 74/110/26 87/113/26 76/112/26
f 76/112/26 87/113/26 85/115/26
f 76/112/26 85/115/26 77/114/26
f 77/114/26 85/115/26 83/117/26
f 77/114/26 83/117/26 79/116/26
f 79/116/26 83/117/26 81/118/26

