# Created by Kenney (www.kenney.nl)

mtllib gems_diamond_original.mtl

g mergedBlocks

v 0.2425 0.468 0.1400074
v 0.12125 0.468 0.2100112
v 0.2425 0.468 -5.486527E-14
v 0.12125 0.468 -0.2100112
v -0.12125 0.468 0.2100112
v -6.948398E-14 0.468 -0.2800149
v -0.12125 0.468 -0.2100112
v -0.2425 0.468 0.1400074
v -0.2425 0.468 5.269953E-14
v 0.5 0.18 0.2886751
v 0.5 0.18 -0.2886751
v 1.198373E-13 0.18 0.5773503
v -1.349974E-13 0.18 -0.5773503
v -0.5 0.18 0.2886751
v -0.5 0.18 -0.2886751
v 0.435625 0.252 -0.2515082
v -0.306875 0.396 -0.1771744
v 8.626842E-14 0.324 0.4286825
v 0.2425 -0.468 0.1400074
v 0.12125 -0.468 0.2100112
v 0.2425 -0.468 -5.486527E-14
v 0.12125 -0.468 -0.2100112
v -0.12125 -0.468 0.2100112
v -6.948398E-14 -0.468 -0.2800149
v -0.12125 -0.468 -0.2100112
v -0.2425 -0.468 0.1400074
v -0.2425 -0.468 5.269953E-14
v 0.435625 0.01800001 -0.2515082
v -0.306875 -0.306 -0.1771744
v 8.626842E-14 -0.144 0.4286825

vn 0 1 0
vn 0 -1 0
vn 0.3727391 0.66653 -0.6456031
vn -0.3727391 0.66653 -0.6456031
vn 0.7454782 0.66653 0
vn 0.3727391 0.66653 0.6456031
vn -0.7454782 0.66653 0
vn -0.3727391 0.66653 0.6456031
vn 0 0.8351763 0.5499822
vn 0.5138817 0.8049228 -0.2966897
vn -0.3865732 0.8948454 -0.2231881
vn 0.4646575 -0.369288 -0.8048105
vn -0.4646575 -0.369288 -0.8048105
vn 0.929315 -0.369288 0
vn 0.4646575 -0.369288 0.8048105
vn -0.929315 -0.369288 0
vn -0.4646575 -0.369288 0.8048105
vn 0 -0.5594227 0.8288826
vn 0.7416629 -0.5163155 -0.4281993
vn -0.646606 -0.6652325 -0.3733181

vt -0.2425 0.1400074
vt -0.12125 0.2100112
vt -0.2425 -5.486527E-14
vt -0.12125 -0.2100112
vt 0.12125 0.2100112
vt 6.948398E-14 -0.2800149
vt 0.12125 -0.2100112
vt 0.2425 0.1400074
vt 0.2425 5.269953E-14
vt -0.5 -0.2886751
vt -0.5 0.2886751
vt -1.198373E-13 -0.5773503
vt 1.349974E-13 0.5773503
vt 0.5 -0.2886751
vt 0.5 0.2886751
vt 1.349974E-13 -0.5773503
vt -0.435625 -0.2515082
vt 0.306875 -0.1771744
vt 0.2886751 0.18
vt -0.2886751 0.18
vt 0.2515082 0.252
vt 5.486527E-14 0.468
vt -0.1400074 0.468
vt -1.198373E-13 0.5773503
vt -8.626842E-14 0.4286825
vt -0.1771744 0.396
vt 5.269953E-14 0.468
vt 0.1400074 0.468
vt -1.349974E-13 0.18
vt 0.5 0.18
vt -6.948398E-14 -0.468
vt 0.435625 0.01800001
vt 0.12125 -0.468
vt -0.5 0.18
vt -0.306875 -0.306
vt -0.12125 -0.468
vt -0.2515082 0.01800001
vt -5.486527E-14 -0.468
vt 0.1400074 -0.468
vt -1.198373E-13 0.18
vt -0.2425 -0.468
vt -8.626842E-14 -0.144
vt 0.1771744 -0.306
vt -5.269953E-14 -0.468
vt -0.1400074 -0.468
vt 0.2425 -0.468
vt -0.2100112 -0.468

usemtl custom7(Clone)

f 3/3/1 2/2/1 1/1/1
f 2/2/1 3/3/1 4/4/1
f 2/2/1 4/4/1 5/5/1
f 5/5/1 4/4/1 6/6/1
f 5/5/1 6/6/1 7/7/1
f 5/5/1 7/7/1 8/8/1
f 8/8/1 7/7/1 9/9/1
f 12/12/2 11/11/2 10/10/2
f 11/11/2 12/12/2 13/13/2
f 13/13/2 12/12/2 14/14/2
f 13/13/2 14/14/2 15/15/2
f 6/6/3 11/10/3 13/16/3
f 11/10/3 6/6/3 16/17/3
f 16/17/3 6/6/3 4/4/3
f 17/18/4 13/16/4 15/14/4
f 13/16/4 17/18/4 6/6/4
f 6/6/4 17/18/4 7/7/4
f 16/21/5 10/20/5 11/19/5
f 10/20/5 16/21/5 3/22/5
f 10/20/5 3/22/5 1/23/5
f 1/1/6 12/24/6 10/11/6
f 12/24/6 1/1/6 18/25/6
f 18/25/6 1/1/6 2/2/6
f 14/19/7 17/26/7 15/20/7
f 17/26/7 14/19/7 9/27/7
f 9/27/7 14/19/7 8/28/7
f 18/25/8 14/15/8 12/24/8
f 14/15/8 18/25/8 8/8/8
f 8/8/8 18/25/8 5/5/8
f 5/5/9 18/25/9 2/2/9
f 3/3/10 16/17/10 4/4/10
f 9/9/11 7/7/11 17/18/11
f 29/18/20 25/7/20 27/9/20
f 22/47/19 28/37/19 21/38/19
f 20/36/18 30/42/18 23/33/18
f 23/33/17 30/42/17 26/46/17
f 26/46/17 30/42/17 14/30/17
f 12/40/17 14/30/17 30/42/17
f 26/45/16 14/20/16 27/44/16
f 27/44/16 14/20/16 29/43/16
f 15/19/16 29/43/16 14/20/16
f 20/36/15 19/41/15 30/42/15
f 30/42/15 19/41/15 12/40/15
f 10/34/15 12/40/15 19/41/15
f 19/39/14 21/38/14 10/19/14
f 21/38/14 28/37/14 10/19/14
f 11/20/14 10/19/14 28/37/14
f 25/36/13 29/35/13 24/31/13
f 24/31/13 29/35/13 13/29/13
f 15/34/13 13/29/13 29/35/13
f 22/33/12 24/31/12 28/32/12
f 28/32/12 24/31/12 11/30/12
f 13/29/12 11/30/12 24/31/12
f 15/15/1 14/14/1 13/13/1
f 14/14/1 12/12/1 13/13/1
f 13/13/1 12/12/1 11/11/1
f 10/10/1 11/11/1 12/12/1
f 27/9/2 25/7/2 26/8/2
f 26/8/2 25/7/2 23/5/2
f 25/7/2 24/6/2 23/5/2
f 24/6/2 22/4/2 23/5/2
f 23/5/2 22/4/2 20/2/2
f 22/4/2 21/3/2 20/2/2
f 19/1/2 20/2/2 21/3/2

