# Created by Kenney (www.kenney.nl)

mtllib gems_emerald_3.mtl

g mergedBlocks

v -0.110575 0.347 0.1287754
v 0.129575 0.347 0.1287754
v -0.110575 0.1688 0.2985871
v 0.129575 0.1688 0.2985871
v -0.2803867 0.1688 -0.1113746
v -0.2803867 0.1688 0.1287754
v -0.110575 0.1688 -0.2811863
v 0.129575 0.1688 -0.2811863
v 0.2993867 0.1688 -0.1113746
v 0.2993867 0.1688 0.1287754
v -0.110575 0.347 -0.1113746
v 0.129575 0.347 -0.1113746
v -0.110575 -0.247 -0.1113746
v 0.129575 -0.247 -0.1113746
v -0.1105749 0.1688 -0.2811863
v 0.129575 0.1688 -0.2811863
v -0.2803867 0.1688 0.1287753
v -0.2803866 0.1688 -0.1113747
v -0.110575 0.1688 0.2985871
v 0.129575 0.1688 0.2985871
v 0.2993867 0.1688 0.1287754
v 0.2993867 0.1688 -0.1113746
v -0.110575 -0.247 0.1287754
v 0.129575 -0.247 0.1287754
v 0.4330127 -0.149 -0.25
v 0.4330127 -0.347 -0.25
v 0.4829629 -0.149 -0.1294095
v 0.4829629 -0.347 -0.1294095
v 0.5 -0.149 0
v 0.5 -0.347 0
v 0.4829629 -0.149 0.1294095
v 0.4829629 -0.347 0.1294095
v 0.4330127 -0.149 0.25
v 0.4330127 -0.347 0.25
v 0.3535534 -0.347 -0.3535534
v 0.3535534 -0.149 -0.3535534
v 0.3535534 -0.149 0.3535534
v 0.3535534 -0.347 0.3535534
v 0.25 -0.347 0.4330127
v 0.25 -0.149 0.4330127
v 0.1294095 -0.347 0.4829629
v 0.1294095 -0.149 0.4829629
v 0 -0.347 0.5
v 0 -0.149 0.5
v -0.1294095 -0.347 0.4829629
v -0.1294095 -0.149 0.4829629
v 0.25 -0.149 -0.4330127
v 0.25 -0.347 -0.4330127
v 0.1294095 -0.149 -0.4829629
v 0.1294095 -0.347 -0.4829629
v 0 -0.149 -0.5
v 0 -0.347 -0.5
v -0.1294095 -0.149 -0.4829629
v -0.1294095 -0.347 -0.4829629
v -0.25 -0.347 0.4330127
v -0.25 -0.149 0.4330127
v -0.3535534 -0.347 0.3535534
v -0.3535534 -0.149 0.3535534
v -0.4330127 -0.149 0.25
v -0.4330127 -0.347 0.25
v -0.4829629 -0.149 0.1294095
v -0.4829629 -0.347 0.1294095
v -0.5 -0.149 0
v -0.5 -0.347 0
v -0.4829629 -0.149 -0.1294095
v -0.4829629 -0.347 -0.1294095
v -0.4330127 -0.149 -0.25
v -0.4330127 -0.347 -0.25
v -0.3535534 -0.149 -0.3535534
v -0.3535534 -0.347 -0.3535534
v -0.25 -0.347 -0.4330127
v -0.25 -0.149 -0.4330127

vn 6.030971E-08 0.6898626 0.7239403
vn -8.742278E-08 -1 0
vn -0.7239403 0.6898627 0
vn 8.742278E-08 1 0
vn -0.5864047 0.5588012 -0.5864048
vn 0.7239404 0.6898625 0
vn 0.5864048 0.5588012 -0.5864048
vn 0.5864048 0.5588012 0.5864048
vn -0.5864047 0.5588012 0.5864048
vn 6.030971E-08 0.6898626 -0.7239403
vn 8.093354E-08 -0.3780829 -0.9257717
vn 0 1 0
vn -0.9257717 -0.3780829 -8.093354E-08
vn 0 -1 0
vn -0.6793472 -0.2774436 0.679347
vn 0.9257717 -0.3780829 8.093354E-08
vn 0.679347 -0.2774436 0.6793472
vn 0.6793472 -0.2774436 -0.679347
vn -0.679347 -0.2774436 -0.6793472
vn -8.093354E-08 -0.3780829 0.9257717
vn 0.8660254 0 -0.5
vn 0.9659259 0 -0.2588191
vn 1 0 0
vn 0.9659259 0 0.2588191
vn 0.8660254 0 0.5
vn 0.7071068 0 -0.7071068
vn 0.7071068 0 0.7071068
vn 0.5 0 0.8660254
vn 0.2588191 0 0.9659259
vn 0 0 1
vn -0.2588191 0 0.9659259
vn 0.5 0 -0.8660254
vn 0.2588191 0 -0.9659259
vn 0 0 -1
vn -0.2588191 0 -0.9659259
vn -0.5 0 0.8660254
vn -0.7071068 0 0.7071068
vn -0.8660254 0 0.5
vn -0.9659259 0 0.2588191
vn -1 0 0
vn -0.9659259 0 -0.2588191
vn -0.8660254 0 -0.5
vn -0.7071068 0 -0.7071068
vn -0.5 0 -0.8660254

vt -0.110575 0.347
vt 0.129575 0.347
vt -0.110575 0.1688
vt 0.129575 0.1688
vt 0.2803867 0.1113746
vt 0.2803867 -0.1287754
vt 0.110575 0.2811863
vt 0.110575 -0.2985871
vt -0.129575 0.2811863
vt -0.129575 -0.2985871
vt -0.2993867 0.1113746
vt -0.2993867 -0.1287754
vt -0.1113746 0.347
vt 0.1287754 0.347
vt -0.1113746 0.1688
vt 0.1287754 0.1688
vt 0.110575 0.1287754
vt 0.110575 -0.1113746
vt -0.129575 0.1287754
vt -0.129575 -0.1113746
vt 0.110575 0.1688
vt 0.110575 0.347
vt 0.2803867 0.1688
vt 0.1113746 0.1688
vt -0.1287754 0.1688
vt 0.1113746 0.347
vt -0.1287754 0.347
vt -0.2993867 0.1688
vt -0.129575 0.347
vt -0.129575 0.1688
vt 0.2993867 0.1688
vt -0.2803867 0.1688
vt 0.110575 -0.247
vt -0.129575 -0.247
vt 0.1105749 0.1688
vt -0.1295751 0.1688
vt 0.2803867 0.1287753
vt 0.2803866 -0.1113747
vt 0.110575 0.2985871
vt 0.1105749 -0.2811863
vt -0.129575 0.2985871
vt -0.1295751 -0.2811863
vt -0.2993867 0.1287754
vt -0.2993867 -0.1113746
vt 0.1287754 -0.247
vt -0.1113746 -0.247
vt 0.1287753 0.1688
vt -0.1113747 0.1688
vt 0.110575 0.1113746
vt 0.110575 -0.1287754
vt -0.129575 0.1113746
vt -0.129575 -0.1287754
vt 0.2985871 0.1688
vt -0.1287754 0.1688
vt 0.1113746 0.1688
vt -0.1287754 -0.247
vt 0.1113746 -0.247
vt 0.2993867 0.1688
vt 0.129575 -0.247
vt 0.129575 0.1688
vt 0.2811863 0.1688
vt 0.2803866 0.1688
vt -0.110575 -0.247
vt -0.110575 0.1688
vt 0.25 -0.149
vt 0.25 -0.347
vt 0.1294095 -0.149
vt 0.1294095 -0.347
vt 0 -0.149
vt 0 -0.347
vt -0.1294095 -0.149
vt -0.1294095 -0.347
vt -0.25 -0.149
vt -0.25 -0.347
vt 0.3535534 -0.347
vt 0.3535534 -0.149
vt -0.3535534 -0.149
vt -0.3535534 -0.347
vt -0.5 0
vt -0.4829629 0.1294095
vt -0.4829629 -0.1294095
vt -0.4330127 0.25
vt -0.4330127 -0.25
vt -0.3535534 0.3535534
vt -0.3535534 -0.3535534
vt -0.25 0.4330127
vt -0.25 -0.4330127
vt -0.1294095 0.4829629
vt -0.1294095 -0.4829629
vt 0 -0.5
vt 0 0.5
vt 0.1294095 -0.4829629
vt 0.1294095 0.4829629
vt 0.25 0.4330127
vt 0.25 -0.4330127
vt 0.3535534 0.3535534
vt 0.3535534 -0.3535534
vt 0.4330127 0.25
vt 0.4330127 -0.25
vt 0.4829629 0.1294095
vt 0.4829629 -0.1294095
vt 0.5 0

usemtl foliage(Clone)

f 3/3/1 2/2/1 1/1/1
f 2/2/1 3/3/1 4/4/1
f 7/7/2 6/6/2 5/5/2
f 6/6/2 7/7/2 3/8/2
f 3/8/2 7/7/2 8/9/2
f 3/8/2 8/9/2 4/10/2
f 4/10/2 8/9/2 9/11/2
f 4/10/2 9/11/2 10/12/2
f 5/15/3 1/14/3 11/13/3
f 1/14/3 5/15/3 6/16/3
f 2/19/4 11/18/4 1/17/4
f 11/18/4 2/19/4 12/20/4
f 5/23/5 11/22/5 7/21/5
f 12/26/6 10/25/6 9/24/6
f 10/25/6 12/26/6 2/27/6
f 8/30/7 12/29/7 9/28/7
f 4/4/8 10/31/8 2/2/8
f 3/3/9 1/1/9 6/32/9
f 8/30/10 11/22/10 12/29/10
f 11/22/10 8/30/10 7/21/10
f 15/35/11 14/34/11 13/33/11
f 14/34/11 15/35/11 16/36/11
f 19/39/12 18/38/12 17/37/12
f 18/38/12 19/39/12 15/40/12
f 15/40/12 19/39/12 20/41/12
f 15/40/12 20/41/12 16/42/12
f 16/42/12 20/41/12 21/43/12
f 16/42/12 21/43/12 22/44/12
f 17/47/13 13/46/13 23/45/13
f 13/46/13 17/47/13 18/48/13
f 14/51/14 23/50/14 13/49/14
f 23/50/14 14/51/14 24/52/14
f 17/47/15 23/45/15 19/53/15
f 24/56/16 22/55/16 21/54/16
f 22/55/16 24/56/16 14/57/16
f 20/60/17 24/59/17 21/58/17
f 16/61/18 22/55/18 14/57/18
f 15/35/19 13/33/19 18/62/19
f 20/60/20 23/63/20 24/59/20
f 23/63/20 20/60/20 19/64/20

usemtl custom1(Clone)

f 27/67/22 26/66/21 25/65/21
f 26/66/21 27/67/22 28/68/22
f 29/69/23 28/68/22 27/67/22
f 28/68/22 29/69/23 30/70/23
f 31/71/24 30/70/23 29/69/23
f 30/70/23 31/71/24 32/72/24
f 33/73/25 32/72/24 31/71/24
f 32/72/24 33/73/25 34/74/25
f 35/75/26 25/65/21 26/66/21
f 25/65/21 35/75/26 36/76/26
f 37/77/27 34/74/25 33/73/25
f 34/74/25 37/77/27 38/78/27
f 37/76/27 39/66/28 38/75/27
f 39/66/28 37/76/27 40/65/28
f 40/65/28 41/68/29 39/66/28
f 41/68/29 40/65/28 42/67/29
f 42/67/29 43/70/30 41/68/29
f 43/70/30 42/67/29 44/69/30
f 44/69/30 45/72/31 43/70/30
f 45/72/31 44/69/30 46/71/31
f 35/78/26 47/73/32 36/77/26
f 47/73/32 35/78/26 48/74/32
f 48/74/32 49/71/33 47/73/32
f 49/71/33 48/74/32 50/72/33
f 50/72/33 51/69/34 49/71/33
f 51/69/34 50/72/33 52/70/34
f 52/70/34 53/67/35 51/69/34
f 53/67/35 52/70/34 54/68/35
f 46/71/31 55/74/36 45/72/31
f 55/74/36 46/71/31 56/73/36
f 56/73/36 57/78/37 55/74/36
f 57/78/37 56/73/36 58/77/37
f 59/65/38 57/75/37 58/76/37
f 57/75/37 59/65/38 60/66/38
f 61/67/39 60/66/38 59/65/38
f 60/66/38 61/67/39 62/68/39
f 63/69/40 62/68/39 61/67/39
f 62/68/39 63/69/40 64/70/40
f 65/71/41 64/70/40 63/69/40
f 64/70/40 65/71/41 66/72/41
f 67/73/42 66/72/41 65/71/41
f 66/72/41 67/73/42 68/74/42
f 69/77/43 68/74/42 67/73/42
f 68/74/42 69/77/43 70/78/43
f 69/76/43 71/66/44 70/75/43
f 71/66/44 69/76/43 72/65/44
f 72/65/44 54/68/35 71/66/44
f 54/68/35 72/65/44 53/67/35
f 32/81/14 28/80/14 30/79/14
f 28/80/14 32/81/14 26/82/14
f 26/82/14 32/81/14 34/83/14
f 26/82/14 34/83/14 35/84/14
f 35/84/14 34/83/14 38/85/14
f 35/84/14 38/85/14 48/86/14
f 48/86/14 38/85/14 39/87/14
f 48/86/14 39/87/14 50/88/14
f 50/88/14 39/87/14 41/89/14
f 50/88/14 41/89/14 43/90/14
f 50/88/14 43/90/14 52/91/14
f 52/91/14 43/90/14 45/92/14
f 52/91/14 45/92/14 54/93/14
f 54/93/14 45/92/14 71/94/14
f 71/94/14 45/92/14 55/95/14
f 71/94/14 55/95/14 70/96/14
f 70/96/14 55/95/14 57/97/14
f 70/96/14 57/97/14 68/98/14
f 68/98/14 57/97/14 60/99/14
f 68/98/14 60/99/14 66/100/14
f 66/100/14 60/99/14 62/101/14
f 66/100/14 62/101/14 64/102/14
f 27/81/12 31/80/12 29/79/12
f 31/80/12 27/81/12 25/83/12
f 31/80/12 25/83/12 33/82/12
f 33/82/12 25/83/12 36/85/12
f 33/82/12 36/85/12 37/84/12
f 37/84/12 36/85/12 47/87/12
f 37/84/12 47/87/12 40/86/12
f 40/86/12 47/87/12 49/89/12
f 40/86/12 49/89/12 42/88/12
f 42/88/12 49/89/12 51/90/12
f 42/88/12 51/90/12 44/91/12
f 44/91/12 51/90/12 53/92/12
f 44/91/12 53/92/12 46/93/12
f 46/93/12 53/92/12 72/95/12
f 46/93/12 72/95/12 56/94/12
f 56/94/12 72/95/12 69/97/12
f 56/94/12 69/97/12 58/96/12
f 58/96/12 69/97/12 67/99/12
f 58/96/12 67/99/12 59/98/12
f 59/98/12 67/99/12 65/101/12
f 59/98/12 65/101/12 61/100/12
f 61/100/12 65/101/12 63/102/12

