# Created by Kenney (www.kenney.nl)

mtllib gems_diamond_5.mtl

g mergedBlocks

v -0.125 -0.543 0.1149999
v -0.125 -0.543 -0.1250001
v -0.405 -0.543 0.1149999
v -0.405 -0.543 -0.1250001
v -0.125 -0.543 -0.4050001
v -0.125 -0.543 0.3949999
v 0.115 -0.543 -0.4050001
v 0.115 -0.543 -0.1250001
v 0.115 -0.543 0.1149999
v 0.115 -0.543 0.3949999
v 0.395 -0.543 -0.1250001
v 0.395 -0.543 0.1149999
v -0.405 -0.09300005 -0.1250001
v -0.405 -0.09300005 0.1149999
v 0.115 -0.09300005 -0.4050001
v -0.125 -0.09300005 -0.4050001
v 0.115 -0.09300005 0.3949999
v -0.125 -0.09300005 0.3949999
v 0.395 -0.09300005 -0.1250001
v 0.395 -0.09300005 0.1149999
v -0.125 -0.09300005 -0.1250001
v -0.125 -0.09300005 0.1149999
v 0.115 -0.09300005 0.1149999
v 0.115 -0.09300005 -0.1250001
v 0.2425 -0.293 -0.1400075
v 0.2425 -0.293 -3.72529E-08
v 0.12125 -0.293 -0.2100112
v -0.12125 -0.293 -0.2100112
v 0.12125 -0.293 0.2100112
v -0.2425 -0.293 -0.1400074
v -0.2425 -0.293 3.72529E-08
v 4.470348E-08 -0.293 0.2800149
v -0.12125 -0.293 0.2100112
v 0.5 0.355 -0.2886752
v -8.940697E-08 0.355 -0.5773503
v 0.5000001 0.355 0.2886751
v -0.5000001 0.355 -0.2886751
v 8.940697E-08 0.355 0.5773503
v -0.5 0.355 0.2886752
v -5.960464E-08 0.193 -0.5030165
v -0.306875 -0.131 0.1771744
v 0.37125 0.03100002 0.2143412
v 0.2425 0.643 -0.1400075
v 0.2425 0.643 -3.72529E-08
v 0.12125 0.643 -0.2100112
v -0.12125 0.643 -0.2100112
v 0.12125 0.643 0.2100112
v -0.2425 0.643 -0.1400074
v -0.2425 0.643 3.72529E-08
v 4.470348E-08 0.643 0.2800149
v -0.12125 0.643 0.2100112
v -5.960464E-08 0.427 -0.5030165
v -0.306875 0.571 0.1771744
v 0.37125 0.499 0.2143412
v 0.4330127 -0.445 -0.25
v 0.4330127 -0.643 -0.25
v 0.4829629 -0.445 -0.1294095
v 0.4829629 -0.643 -0.1294095
v 0.5 -0.445 0
v 0.5 -0.643 0
v 0.4829629 -0.445 0.1294095
v 0.4829629 -0.643 0.1294095
v 0.4330127 -0.445 0.25
v 0.4330127 -0.643 0.25
v 0.3535534 -0.643 -0.3535534
v 0.3535534 -0.445 -0.3535534
v 0.3535534 -0.445 0.3535534
v 0.3535534 -0.643 0.3535534
v 0.25 -0.643 0.4330127
v 0.25 -0.445 0.4330127
v 0.1294095 -0.643 0.4829629
v 0.1294095 -0.445 0.4829629
v 0 -0.643 0.5
v 0 -0.445 0.5
v -0.1294095 -0.643 0.4829629
v -0.1294095 -0.445 0.4829629
v 0.25 -0.445 -0.4330127
v 0.25 -0.643 -0.4330127
v 0.1294095 -0.445 -0.4829629
v 0.1294095 -0.643 -0.4829629
v 0 -0.445 -0.5
v 0 -0.643 -0.5
v -0.1294095 -0.445 -0.4829629
v -0.1294095 -0.643 -0.4829629
v -0.25 -0.643 0.4330127
v -0.25 -0.445 0.4330127
v -0.3535534 -0.643 0.3535534
v -0.3535534 -0.445 0.3535534
v -0.4330127 -0.445 0.25
v -0.4330127 -0.643 0.25
v -0.4829629 -0.445 0.1294095
v -0.4829629 -0.643 0.1294095
v -0.5 -0.445 0
v -0.5 -0.643 0
v -0.4829629 -0.445 -0.1294095
v -0.4829629 -0.643 -0.1294095
v -0.4330127 -0.445 -0.25
v -0.4330127 -0.643 -0.25
v -0.3535534 -0.445 -0.3535534
v -0.3535534 -0.643 -0.3535534
v -0.25 -0.643 -0.4330127
v -0.25 -0.445 -0.4330127

vn 0 -1 0
vn -1 0 0
vn 0 0 -1
vn 0 0 1
vn 1 0 0
vn 0 1 0
vn -0.4646576 -0.369288 -0.8048104
vn -0.929315 -0.369288 1.429961E-07
vn 0.4646574 -0.369288 -0.8048105
vn 0.929315 -0.369288 -1.429961E-07
vn -0.4646574 -0.369288 0.8048105
vn 0.4646576 -0.369288 0.8048104
vn 0.7178335 -0.5594227 0.4144412
vn -1.09605E-07 -0.5163155 -0.8563985
vn -0.6466058 -0.6652325 0.3733182
vn -0.3727392 0.66653 -0.6456031
vn -0.7454782 0.66653 1.147086E-07
vn 0.372739 0.66653 -0.6456031
vn 0.7454782 0.66653 -1.147086E-07
vn -0.372739 0.66653 0.6456031
vn 0.3727392 0.66653 0.6456031
vn 0.4762986 0.8351764 0.274991
vn -7.594285E-08 0.8049229 -0.5933795
vn -0.3865731 0.8948454 0.2231882
vn 0.8660254 0 -0.5
vn 0.9659259 0 -0.2588191
vn 0.9659259 0 0.2588191
vn 0.8660254 0 0.5
vn 0.7071068 0 -0.7071068
vn 0.7071068 0 0.7071068
vn 0.5 0 0.8660254
vn 0.2588191 0 0.9659259
vn -0.2588191 0 0.9659259
vn 0.5 0 -0.8660254
vn 0.2588191 0 -0.9659259
vn -0.2588191 0 -0.9659259
vn -0.5 0 0.8660254
vn -0.7071068 0 0.7071068
vn -0.8660254 0 0.5
vn -0.9659259 0 0.2588191
vn -0.9659259 0 -0.2588191
vn -0.8660254 0 -0.5
vn -0.7071068 0 -0.7071068
vn -0.5 0 -0.8660254

vt 0.125 -0.1149999
vt 0.125 0.1250001
vt 0.405 -0.1149999
vt 0.405 0.1250001
vt -0.125 -0.543
vt 0.125 0.4050001
vt 0.125 -0.3949999
vt -0.115 0.4050001
vt -0.115 0.1250001
vt -0.115 -0.1149999
vt -0.115 -0.3949999
vt -0.395 0.1250001
vt -0.395 -0.1149999
vt -0.1250001 -0.543
vt -0.1250001 -0.09300005
vt 0.1149999 -0.543
vt 0.1149999 -0.09300005
vt -0.115 -0.543
vt -0.115 -0.09300005
vt 0.125 -0.543
vt 0.125 -0.09300005
vt 0.115 -0.543
vt 0.115 -0.09300005
vt -0.125 -0.09300005
vt 0.1250001 -0.09300005
vt 0.1250001 -0.543
vt -0.1149999 -0.09300005
vt -0.1149999 -0.543
vt 0.125 -0.1250001
vt 0.125 0.1149999
vt 0.405 -0.1250001
vt 0.405 0.1149999
vt 0.125 0.3949999
vt 0.125 -0.4050001
vt -0.115 0.3949999
vt -0.115 0.1149999
vt -0.115 -0.1250001
vt -0.115 -0.4050001
vt -0.395 -0.1250001
vt -0.395 0.1149999
vt 0.3949999 -0.543
vt 0.3949999 -0.09300005
vt -0.405 -0.543
vt -0.405 -0.09300005
vt 0.395 -0.543
vt 0.395 -0.09300005
vt -0.3949999 -0.09300005
vt -0.3949999 -0.543
vt 0.4050001 -0.09300005
vt 0.4050001 -0.543
vt -0.395 -0.543
vt -0.395 -0.09300005
vt 0.405 -0.543
vt 0.405 -0.09300005
vt -0.4050001 -0.543
vt -0.4050001 -0.09300005
vt -0.2425 -0.1400075
vt -0.2425 -3.725175E-08
vt -0.12125 -0.2100112
vt 0.12125 -0.2100111
vt -0.12125 0.2100111
vt 0.2425 -0.1400074
vt 0.2425 3.725175E-08
vt -4.382981E-08 0.2800149
vt 0.12125 0.2100112
vt -0.5 0.2886752
vt 8.504328E-08 0.5773503
vt -0.5000001 -0.2886751
vt 0.5000001 0.2886751
vt -8.504328E-08 -0.5773503
vt 0.5 -0.2886752
vt -0.5000001 0.355
vt -8.504328E-08 0.355
vt -0.2425 -0.293
vt -6.54267E-08 0.193
vt -0.12125 -0.293
vt -0.2886752 0.355
vt 0.2886751 0.355
vt -0.1771744 -0.131
vt 0.1400074 -0.293
vt -3.725175E-08 -0.293
vt 0.5 0.355
vt 0.12125 -0.293
vt 0.2425 -0.293
vt -0.1400075 -0.293
vt 0.2143412 0.03100002
vt 0.306875 -0.131
vt -4.382981E-08 -0.293
vt -0.37125 0.03100002
vt 0.2100111 -0.293
vt 0.306875 0.1771744
vt 0.5000001 -0.2886751
vt 8.504328E-08 -0.5773503
vt 6.54267E-08 -0.5030165
vt 0.2886752 0.355
vt -0.2886751 0.355
vt 0.1771744 0.571
vt -0.1400074 0.643
vt 3.725175E-08 0.643
vt -0.5 -0.2886752
vt 0.1400075 0.643
vt -0.2143412 0.499
vt 0.5 0.2886752
vt -8.504328E-08 0.5773503
vt -0.5000001 0.2886751
vt -0.37125 0.2143412
vt 0.25 -0.445
vt 0.25 -0.643
vt 0.1294095 -0.445
vt 0.1294095 -0.643
vt 0 -0.445
vt 0 -0.643
vt -0.1294095 -0.445
vt -0.1294095 -0.643
vt -0.25 -0.445
vt -0.25 -0.643
vt 0.3535534 -0.643
vt 0.3535534 -0.445
vt -0.3535534 -0.445
vt -0.3535534 -0.643
vt -0.5 0
vt -0.4829629 0.1294095
vt -0.4829629 -0.1294095
vt -0.4330127 0.25
vt -0.4330127 -0.25
vt -0.3535534 0.3535534
vt -0.3535534 -0.3535534
vt -0.25 0.4330127
vt -0.25 -0.4330127
vt -0.1294095 0.4829629
vt -0.1294095 -0.4829629
vt 0 -0.5
vt 0 0.5
vt 0.1294095 -0.4829629
vt 0.1294095 0.4829629
vt 0.25 0.4330127
vt 0.25 -0.4330127
vt 0.3535534 0.3535534
vt 0.3535534 -0.3535534
vt 0.4330127 0.25
vt 0.4330127 -0.25
vt 0.4829629 0.1294095
vt 0.4829629 -0.1294095
vt 0.5 0

usemtl custom2(Clone)

f 3/3/1 2/2/1 1/1/1
f 2/2/1 3/3/1 4/4/1
f 5/5/1 1/5/1 2/5/1
f 5/5/1 6/5/1 1/5/1
f 7/8/1 6/7/1 5/6/1
f 8/9/1 6/7/1 7/8/1
f 9/10/1 6/7/1 8/9/1
f 6/7/1 9/10/1 10/11/1
f 11/12/1 9/10/1 8/9/1
f 9/10/1 11/12/1 12/13/1
f 3/16/2 13/15/2 4/14/2
f 13/15/2 3/16/2 14/17/2
f 5/20/3 15/19/3 7/18/3
f 15/19/3 5/20/3 16/21/3
f 17/23/4 6/5/4 10/22/4
f 6/5/4 17/23/4 18/24/4
f 20/27/5 11/26/5 19/25/5
f 11/26/5 20/27/5 12/28/5
f 13/31/6 22/30/6 21/29/6
f 22/30/6 13/31/6 14/32/6
f 18/24/6 21/24/6 22/24/6
f 18/24/6 16/24/6 21/24/6
f 17/35/6 16/34/6 18/33/6
f 23/36/6 16/34/6 17/35/6
f 24/37/6 16/34/6 23/36/6
f 16/34/6 24/37/6 15/38/6
f 23/36/6 19/39/6 24/37/6
f 19/39/6 23/36/6 20/40/6
f 6/41/2 22/17/2 1/16/2
f 22/17/2 6/41/2 18/42/2
f 22/24/4 3/43/4 1/5/4
f 3/43/4 22/24/4 14/44/4
f 20/46/4 9/22/4 12/45/4
f 9/22/4 20/46/4 23/23/4
f 17/47/5 9/28/5 23/27/5
f 9/28/5 17/47/5 10/48/5
f 24/25/5 7/50/5 15/49/5
f 7/50/5 24/25/5 8/26/5
f 24/19/3 11/51/3 8/18/3
f 11/51/3 24/19/3 19/52/3
f 13/54/3 2/20/3 4/53/3
f 2/20/3 13/54/3 21/21/3
f 2/14/2 16/56/2 5/55/2
f 16/56/2 2/14/2 21/15/2

usemtl custom7(Clone)

f 41/91/15 31/63/15 33/65/15
f 28/76/14 40/75/14 27/83/14
f 26/81/13 42/86/13 29/90/13
f 29/76/12 42/89/12 32/88/12
f 32/88/12 42/89/12 38/73/12
f 36/72/12 38/73/12 42/89/12
f 32/88/11 38/73/11 33/83/11
f 33/83/11 38/73/11 41/87/11
f 39/82/11 41/87/11 38/73/11
f 26/81/10 25/85/10 42/86/10
f 42/86/10 25/85/10 36/78/10
f 34/77/10 36/78/10 25/85/10
f 25/84/9 27/83/9 34/82/9
f 27/83/9 40/75/9 34/82/9
f 35/73/9 34/82/9 40/75/9
f 31/81/8 41/79/8 30/80/8
f 30/80/8 41/79/8 37/78/8
f 39/77/8 37/78/8 41/79/8
f 28/76/7 30/74/7 40/75/7
f 40/75/7 30/74/7 35/73/7
f 37/72/7 35/73/7 30/74/7
f 39/71/6 38/70/6 37/69/6
f 38/70/6 36/68/6 37/69/6
f 37/69/6 36/68/6 35/67/6
f 34/66/6 35/67/6 36/68/6
f 33/65/1 31/63/1 32/64/1
f 32/64/1 31/63/1 29/61/1
f 31/63/1 30/62/1 29/61/1
f 30/62/1 28/60/1 29/61/1
f 29/61/1 28/60/1 26/58/1
f 28/60/1 27/59/1 26/58/1
f 25/57/1 26/58/1 27/59/1
f 45/59/6 44/58/6 43/57/6
f 44/58/6 45/59/6 46/60/6
f 44/58/6 46/60/6 47/61/6
f 47/61/6 46/60/6 48/62/6
f 47/61/6 48/62/6 49/63/6
f 47/61/6 49/63/6 50/64/6
f 50/64/6 49/63/6 51/65/6
f 36/68/1 35/67/1 34/66/1
f 35/67/1 36/68/1 37/69/1
f 37/69/1 36/68/1 38/70/1
f 37/69/1 38/70/1 39/71/1
f 48/62/16 35/93/16 37/92/16
f 35/93/16 48/62/16 52/94/16
f 52/94/16 48/62/16 46/60/16
f 53/97/17 37/96/17 39/95/17
f 37/96/17 53/97/17 48/98/17
f 48/98/17 53/97/17 49/99/17
f 52/94/18 34/100/18 35/93/18
f 34/100/18 52/94/18 45/59/18
f 34/100/18 45/59/18 43/57/18
f 43/101/19 36/96/19 34/95/19
f 36/96/19 43/101/19 54/102/19
f 54/102/19 43/101/19 44/99/19
f 38/104/20 53/91/20 39/103/20
f 53/91/20 38/104/20 51/65/20
f 51/65/20 38/104/20 50/64/20
f 54/106/21 38/104/21 36/105/21
f 38/104/21 54/106/21 50/64/21
f 50/64/21 54/106/21 47/61/21
f 47/61/22 54/106/22 44/58/22
f 45/59/23 52/94/23 46/60/23
f 51/65/24 49/63/24 53/91/24

usemtl custom1(Clone)

f 57/109/26 56/108/25 55/107/25
f 56/108/25 57/109/26 58/110/26
f 59/111/5 58/110/26 57/109/26
f 58/110/26 59/111/5 60/112/5
f 61/113/27 60/112/5 59/111/5
f 60/112/5 61/113/27 62/114/27
f 63/115/28 62/114/27 61/113/27
f 62/114/27 63/115/28 64/116/28
f 65/117/29 55/107/25 56/108/25
f 55/107/25 65/117/29 66/118/29
f 67/119/30 64/116/28 63/115/28
f 64/116/28 67/119/30 68/120/30
f 67/118/30 69/108/31 68/117/30
f 69/108/31 67/118/30 70/107/31
f 70/107/31 71/110/32 69/108/31
f 71/110/32 70/107/31 72/109/32
f 72/109/32 73/112/4 71/110/32
f 73/112/4 72/109/32 74/111/4
f 74/111/4 75/114/33 73/112/4
f 75/114/33 74/111/4 76/113/33
f 65/120/29 77/115/34 66/119/29
f 77/115/34 65/120/29 78/116/34
f 78/116/34 79/113/35 77/115/34
f 79/113/35 78/116/34 80/114/35
f 80/114/35 81/111/3 79/113/35
f 81/111/3 80/114/35 82/112/3
f 82/112/3 83/109/36 81/111/3
f 83/109/36 82/112/3 84/110/36
f 76/113/33 85/116/37 75/114/33
f 85/116/37 76/113/33 86/115/37
f 86/115/37 87/120/38 85/116/37
f 87/120/38 86/115/37 88/119/38
f 89/107/39 87/117/38 88/118/38
f 87/117/38 89/107/39 90/108/39
f 91/109/40 90/108/39 89/107/39
f 90/108/39 91/109/40 92/110/40
f 93/111/2 92/110/40 91/109/40
f 92/110/40 93/111/2 94/112/2
f 95/113/41 94/112/2 93/111/2
f 94/112/2 95/113/41 96/114/41
f 97/115/42 96/114/41 95/113/41
f 96/114/41 97/115/42 98/116/42
f 99/119/43 98/116/42 97/115/42
f 98/116/42 99/119/43 100/120/43
f 99/118/43 101/108/44 100/117/43
f 101/108/44 99/118/43 102/107/44
f 102/107/44 84/110/36 101/108/44
f 84/110/36 102/107/44 83/109/36
f 62/123/1 58/122/1 60/121/1
f 58/122/1 62/123/1 56/124/1
f 56/124/1 62/123/1 64/125/1
f 56/124/1 64/125/1 65/126/1
f 65/126/1 64/125/1 68/127/1
f 65/126/1 68/127/1 78/128/1
f 78/128/1 68/127/1 69/129/1
f 78/128/1 69/129/1 80/130/1
f 80/130/1 69/129/1 71/131/1
f 80/130/1 71/131/1 73/132/1
f 80/130/1 73/132/1 82/133/1
f 82/133/1 73/132/1 75/134/1
f 82/133/1 75/134/1 84/135/1
f 84/135/1 75/134/1 101/136/1
f 101/136/1 75/134/1 85/137/1
f 101/136/1 85/137/1 100/138/1
f 100/138/1 85/137/1 87/139/1
f 100/138/1 87/139/1 98/140/1
f 98/140/1 87/139/1 90/141/1
f 98/140/1 90/141/1 96/142/1
f 96/142/1 90/141/1 92/143/1
f 96/142/1 92/143/1 94/144/1
f 57/123/6 61/122/6 59/121/6
f 61/122/6 57/123/6 55/125/6
f 61/122/6 55/125/6 63/124/6
f 63/124/6 55/125/6 66/127/6
f 63/124/6 66/127/6 67/126/6
f 67/126/6 66/127/6 77/129/6
f 67/126/6 77/129/6 70/128/6
f 70/128/6 77/129/6 79/131/6
f 70/128/6 79/131/6 72/130/6
f 72/130/6 79/131/6 81/132/6
f 72/130/6 81/132/6 74/133/6
f 74/133/6 81/132/6 83/134/6
f 74/133/6 83/134/6 76/135/6
f 76/135/6 83/134/6 102/137/6
f 76/135/6 102/137/6 86/136/6
f 86/136/6 102/137/6 99/139/6
f 86/136/6 99/139/6 88/138/6
f 88/138/6 99/139/6 97/141/6
f 88/138/6 97/141/6 89/140/6
f 89/140/6 97/141/6 95/143/6
f 89/140/6 95/143/6 91/142/6
f 91/142/6 95/143/6 93/144/6

