# Created by Kenney (www.kenney.nl)

mtllib gems_topaz_6.mtl

g mergedBlocks

v -0.55 0.43228 -0.3175426
v -0.4125 0.7614 -0.238157
v -0.55 0.43228 0.3175426
v -0.4125 0.7614 0.238157
v 0.55 0.43228 -0.3175426
v 0.55 0.43228 0.3175426
v 0.4125 0.7614 -0.238157
v 0.4125 0.7614 0.238157
v -7.941025E-16 0.43228 0.6350853
v 0 0.7614 0.476314
v 0.55 0.10316 0.3175426
v 0.55 0.10316 -0.3175426
v 0.4125 -0.0614 0.238157
v 0.4125 -0.0614 -0.238157
v 0 -0.0614 -0.476314
v -7.941025E-16 0.10316 -0.6350853
v -0.4125 -0.0614 -0.238157
v -0.55 0.10316 -0.3175426
v -0.4125 -0.0614 0.238157
v -0.55 0.10316 0.3175426
v -7.941025E-16 0.43228 -0.6350853
v 0 0.7614 -0.476314
v 0 -0.0614 0.476314
v -7.941025E-16 0.10316 0.6350853
v -0.12 -0.7614 0.12
v -0.12 -0.7614 -0.12
v -0.4 -0.7614 0.12
v -0.4 -0.7614 -0.12
v -0.12 -0.7614 -0.4
v -0.12 -0.7614 0.4
v 0.12 -0.7614 -0.4
v 0.12 -0.7614 -0.12
v 0.12 -0.7614 0.12
v 0.12 -0.7614 0.4
v 0.4 -0.7614 -0.12
v 0.4 -0.7614 0.12
v -0.4 -0.005400002 -0.12
v -0.4 -0.005400002 0.12
v 0.12 -0.005400002 -0.4
v -0.12 -0.005400002 -0.4
v 0.12 -0.005400002 0.4
v -0.12 -0.005400002 0.4
v 0.4 -0.005400002 -0.12
v 0.4 -0.005400002 0.12
v -0.12 -0.005400002 -0.12
v -0.12 -0.005400002 0.12
v 0.12 -0.005400002 0.12
v 0.12 -0.005400002 -0.12
v 0.4330127 -0.5634 -0.25
v 0.4330127 -0.7614 -0.25
v 0.4829629 -0.5634 -0.1294095
v 0.4829629 -0.7614 -0.1294095
v 0.5 -0.5634 0
v 0.5 -0.7614 0
v 0.4829629 -0.5634 0.1294095
v 0.4829629 -0.7614 0.1294095
v 0.4330127 -0.5634 0.25
v 0.4330127 -0.7614 0.25
v 0.3535534 -0.7614 -0.3535534
v 0.3535534 -0.5634 -0.3535534
v 0.3535534 -0.5634 0.3535534
v 0.3535534 -0.7614 0.3535534
v 0.25 -0.7614 0.4330127
v 0.25 -0.5634 0.4330127
v 0.1294095 -0.7614 0.4829629
v 0.1294095 -0.5634 0.4829629
v 0 -0.7614 0.5
v 0 -0.5634 0.5
v -0.1294095 -0.7614 0.4829629
v -0.1294095 -0.5634 0.4829629
v 0.25 -0.5634 -0.4330127
v 0.25 -0.7614 -0.4330127
v 0.1294095 -0.5634 -0.4829629
v 0.1294095 -0.7614 -0.4829629
v 0 -0.5634 -0.5
v 0 -0.7614 -0.5
v -0.1294095 -0.5634 -0.4829629
v -0.1294095 -0.7614 -0.4829629
v -0.25 -0.7614 0.4330127
v -0.25 -0.5634 0.4330127
v -0.3535534 -0.7614 0.3535534
v -0.3535534 -0.5634 0.3535534
v -0.4330127 -0.5634 0.25
v -0.4330127 -0.7614 0.25
v -0.4829629 -0.5634 0.1294095
v -0.4829629 -0.7614 0.1294095
v -0.5 -0.5634 0
v -0.5 -0.7614 0
v -0.4829629 -0.5634 -0.1294095
v -0.4829629 -0.7614 -0.1294095
v -0.4330127 -0.5634 -0.25
v -0.4330127 -0.7614 -0.25
v -0.3535534 -0.5634 -0.3535534
v -0.3535534 -0.7614 -0.3535534
v -0.25 -0.7614 -0.4330127
v -0.25 -0.5634 -0.4330127

vn -0.9227116 0.3854912 0
vn 0.9227116 0.3854912 0
vn 0.4613558 0.3854912 0.7990916
vn 0.7673796 -0.641193 0
vn -0.3836899 -0.641193 -0.6645703
vn -0.7673796 -0.641193 0
vn -0.4613558 0.3854912 -0.7990916
vn 0.3836899 -0.641193 -0.6645703
vn -0.3836899 -0.641193 0.6645703
vn 0.4613558 0.3854912 -0.7990916
vn -0.4613558 0.3854912 0.7990916
vn 0.5 0 0.8660254
vn 0.5 0 -0.8660254
vn -0.5 0 -0.8660254
vn -1 0 0
vn 1 0 0
vn -0.5 0 0.8660254
vn 0 1 0
vn 0 -1 0
vn 0.3836899 -0.641193 0.6645703
vn 0 0 -1
vn 0 0 1
vn 0.8660254 0 -0.5
vn 0.9659259 0 -0.2588191
vn 0.9659259 0 0.2588191
vn 0.8660254 0 0.5
vn 0.7071068 0 -0.7071068
vn 0.7071068 0 0.7071068
vn 0.5 0 0.8660254
vn 0.2588191 0 0.9659259
vn -0.2588191 0 0.9659259
vn 0.5 0 -0.8660254
vn 0.2588191 0 -0.9659259
vn -0.2588191 0 -0.9659259
vn -0.5 0 0.8660254
vn -0.7071068 0 0.7071068
vn -0.8660254 0 0.5
vn -0.9659259 0 0.2588191
vn -0.9659259 0 -0.2588191
vn -0.8660254 0 -0.5
vn -0.7071068 0 -0.7071068
vn -0.5 0 -0.8660254

vt -0.3175426 0.43228
vt -0.238157 0.7614
vt 0.3175426 0.43228
vt 0.238157 0.7614
vt 0.55 0.43228
vt -7.941025E-16 0.43228
vt 0.4125 0.7614
vt 0 0.7614
vt -0.3175426 0.10316
vt 0.3175426 0.10316
vt -0.238157 -0.0614
vt 0.238157 -0.0614
vt 0 -0.0614
vt 7.941025E-16 0.10316
vt 0.4125 -0.0614
vt 0.55 0.10316
vt 7.941025E-16 0.43228
vt -0.55 0.10316
vt -0.4125 -0.0614
vt -7.941025E-16 0.10316
vt -0.55 0.43228
vt -0.4125 0.7614
vt -0.4125 -0.238157
vt -0.4125 0.238157
vt 0 -0.476314
vt 0 0.476314
vt 0.4125 -0.238157
vt 0.4125 0.238157
vt 0.12 -0.12
vt 0.12 0.12
vt 0.4 -0.12
vt 0.4 0.12
vt -0.12 -0.7614
vt 0.12 0.4
vt 0.12 -0.4
vt -0.12 0.4
vt -0.12 0.12
vt -0.12 -0.12
vt -0.12 -0.4
vt -0.4 0.12
vt -0.4 -0.12
vt -0.12 -0.005400002
vt 0.12 -0.7614
vt 0.12 -0.005400002
vt 0.4 -0.7614
vt 0.4 -0.005400002
vt -0.4 -0.7614
vt -0.4 -0.005400002
vt 0.25 -0.5634
vt 0.25 -0.7614
vt 0.1294095 -0.5634
vt 0.1294095 -0.7614
vt 0 -0.5634
vt 0 -0.7614
vt -0.1294095 -0.5634
vt -0.1294095 -0.7614
vt -0.25 -0.5634
vt -0.25 -0.7614
vt 0.3535534 -0.7614
vt 0.3535534 -0.5634
vt -0.3535534 -0.5634
vt -0.3535534 -0.7614
vt -0.5 0
vt -0.4829629 0.1294095
vt -0.4829629 -0.1294095
vt -0.4330127 0.25
vt -0.4330127 -0.25
vt -0.3535534 0.3535534
vt -0.3535534 -0.3535534
vt -0.25 0.4330127
vt -0.25 -0.4330127
vt -0.1294095 0.4829629
vt -0.1294095 -0.4829629
vt 0 -0.5
vt 0 0.5
vt 0.1294095 -0.4829629
vt 0.1294095 0.4829629
vt 0.25 0.4330127
vt 0.25 -0.4330127
vt 0.3535534 0.3535534
vt 0.3535534 -0.3535534
vt 0.4330127 0.25
vt 0.4330127 -0.25
vt 0.4829629 0.1294095
vt 0.4829629 -0.1294095
vt 0.5 0

usemtl custom11(Clone)

f 3/3/1 2/2/1 1/1/1
f 2/2/1 3/3/1 4/4/1
f 7/4/2 6/1/2 5/3/2
f 6/1/2 7/4/2 8/2/2
f 8/7/3 9/6/3 6/5/3
f 9/6/3 8/7/3 10/8/3
f 13/11/4 12/10/4 11/9/4
f 12/10/4 13/11/4 14/12/4
f 17/15/5 16/14/5 15/13/5
f 16/14/5 17/15/5 18/16/5
f 20/10/6 17/11/6 19/12/6
f 17/11/6 20/10/6 18/9/6
f 2/7/7 21/17/7 1/5/7
f 21/17/7 2/7/7 22/8/7
f 14/19/8 16/14/8 12/18/8
f 16/14/8 14/19/8 15/13/8
f 24/20/9 19/19/9 23/13/9
f 19/19/9 24/20/9 20/18/9
f 22/8/10 5/21/10 21/17/10
f 5/21/10 22/8/10 7/22/10
f 10/8/11 3/21/11 9/6/11
f 3/21/11 10/8/11 4/22/11
f 6/5/12 24/20/12 11/16/12
f 24/20/12 6/5/12 9/6/12
f 21/17/13 12/18/13 16/14/13
f 12/18/13 21/17/13 5/21/13
f 1/5/14 16/14/14 18/16/14
f 16/14/14 1/5/14 21/17/14
f 20/10/15 1/1/15 18/9/15
f 1/1/15 20/10/15 3/3/15
f 6/1/16 12/10/16 5/3/16
f 12/10/16 6/1/16 11/9/16
f 9/6/17 20/18/17 24/20/17
f 20/18/17 9/6/17 3/21/17
f 22/25/18 8/24/18 7/23/18
f 8/24/18 22/25/18 10/26/18
f 10/26/18 22/25/18 2/27/18
f 10/26/18 2/27/18 4/28/18
f 23/25/19 14/24/19 13/23/19
f 14/24/19 23/25/19 15/26/19
f 15/26/19 23/25/19 19/27/19
f 15/26/19 19/27/19 17/28/19
f 24/20/20 13/15/20 11/16/20
f 13/15/20 24/20/20 23/13/20

usemtl custom2(Clone)

f 27/31/19 26/30/19 25/29/19
f 26/30/19 27/31/19 28/32/19
f 29/33/19 25/33/19 26/33/19
f 29/33/19 30/33/19 25/33/19
f 31/36/19 30/35/19 29/34/19
f 32/37/19 30/35/19 31/36/19
f 33/38/19 30/35/19 32/37/19
f 30/35/19 33/38/19 34/39/19
f 35/40/19 33/38/19 32/37/19
f 33/38/19 35/40/19 36/41/19
f 27/43/15 37/42/15 28/33/15
f 37/42/15 27/43/15 38/44/15
f 29/43/21 39/42/21 31/33/21
f 39/42/21 29/43/21 40/44/21
f 41/44/22 30/33/22 34/43/22
f 30/33/22 41/44/22 42/42/22
f 44/42/16 35/43/16 43/44/16
f 35/43/16 44/42/16 36/33/16
f 37/31/18 46/30/18 45/29/18
f 46/30/18 37/31/18 38/32/18
f 42/42/18 45/42/18 46/42/18
f 42/42/18 40/42/18 45/42/18
f 41/36/18 40/35/18 42/34/18
f 47/37/18 40/35/18 41/36/18
f 48/38/18 40/35/18 47/37/18
f 40/35/18 48/38/18 39/39/18
f 47/37/18 43/41/18 48/38/18
f 43/41/18 47/37/18 44/40/18
f 30/45/15 46/44/15 25/43/15
f 46/44/15 30/45/15 42/46/15
f 46/42/22 27/47/22 25/33/22
f 27/47/22 46/42/22 38/48/22
f 44/46/22 33/43/22 36/45/22
f 33/43/22 44/46/22 47/44/22
f 41/48/16 33/33/16 47/42/16
f 33/33/16 41/48/16 34/47/16
f 48/44/16 31/45/16 39/46/16
f 31/45/16 48/44/16 32/43/16
f 48/42/21 35/47/21 32/33/21
f 35/47/21 48/42/21 43/48/21
f 37/46/21 26/43/21 28/45/21
f 26/43/21 37/46/21 45/44/21
f 26/33/15 40/48/15 29/47/15
f 40/48/15 26/33/15 45/42/15

usemtl custom1(Clone)

f 51/51/24 50/50/23 49/49/23
f 50/50/23 51/51/24 52/52/24
f 53/53/16 52/52/24 51/51/24
f 52/52/24 53/53/16 54/54/16
f 55/55/25 54/54/16 53/53/16
f 54/54/16 55/55/25 56/56/25
f 57/57/26 56/56/25 55/55/25
f 56/56/25 57/57/26 58/58/26
f 59/59/27 49/49/23 50/50/23
f 49/49/23 59/59/27 60/60/27
f 61/61/28 58/58/26 57/57/26
f 58/58/26 61/61/28 62/62/28
f 61/60/28 63/50/29 62/59/28
f 63/50/29 61/60/28 64/49/29
f 64/49/29 65/52/30 63/50/29
f 65/52/30 64/49/29 66/51/30
f 66/51/30 67/54/22 65/52/30
f 67/54/22 66/51/30 68/53/22
f 68/53/22 69/56/31 67/54/22
f 69/56/31 68/53/22 70/55/31
f 59/62/27 71/57/32 60/61/27
f 71/57/32 59/62/27 72/58/32
f 72/58/32 73/55/33 71/57/32
f 73/55/33 72/58/32 74/56/33
f 74/56/33 75/53/21 73/55/33
f 75/53/21 74/56/33 76/54/21
f 76/54/21 77/51/34 75/53/21
f 77/51/34 76/54/21 78/52/34
f 70/55/31 79/58/35 69/56/31
f 79/58/35 70/55/31 80/57/35
f 80/57/35 81/62/36 79/58/35
f 81/62/36 80/57/35 82/61/36
f 83/49/37 81/59/36 82/60/36
f 81/59/36 83/49/37 84/50/37
f 85/51/38 84/50/37 83/49/37
f 84/50/37 85/51/38 86/52/38
f 87/53/15 86/52/38 85/51/38
f 86/52/38 87/53/15 88/54/15
f 89/55/39 88/54/15 87/53/15
f 88/54/15 89/55/39 90/56/39
f 91/57/40 90/56/39 89/55/39
f 90/56/39 91/57/40 92/58/40
f 93/61/41 92/58/40 91/57/40
f 92/58/40 93/61/41 94/62/41
f 93/60/41 95/50/42 94/59/41
f 95/50/42 93/60/41 96/49/42
f 96/49/42 78/52/34 95/50/42
f 78/52/34 96/49/42 77/51/34
f 56/65/19 52/64/19 54/63/19
f 52/64/19 56/65/19 50/66/19
f 50/66/19 56/65/19 58/67/19
f 50/66/19 58/67/19 59/68/19
f 59/68/19 58/67/19 62/69/19
f 59/68/19 62/69/19 72/70/19
f 72/70/19 62/69/19 63/71/19
f 72/70/19 63/71/19 74/72/19
f 74/72/19 63/71/19 65/73/19
f 74/72/19 65/73/19 67/74/19
f 74/72/19 67/74/19 76/75/19
f 76/75/19 67/74/19 69/76/19
f 76/75/19 69/76/19 78/77/19
f 78/77/19 69/76/19 95/78/19
f 95/78/19 69/76/19 79/79/19
f 95/78/19 79/79/19 94/80/19
f 94/80/19 79/79/19 81/81/19
f 94/80/19 81/81/19 92/82/19
f 92/82/19 81/81/19 84/83/19
f 92/82/19 84/83/19 90/84/19
f 90/84/19 84/83/19 86/85/19
f 90/84/19 86/85/19 88/86/19
f 51/65/18 55/64/18 53/63/18
f 55/64/18 51/65/18 49/67/18
f 55/64/18 49/67/18 57/66/18
f 57/66/18 49/67/18 60/69/18
f 57/66/18 60/69/18 61/68/18
f 61/68/18 60/69/18 71/71/18
f 61/68/18 71/71/18 64/70/18
f 64/70/18 71/71/18 73/73/18
f 64/70/18 73/73/18 66/72/18
f 66/72/18 73/73/18 75/74/18
f 66/72/18 75/74/18 68/75/18
f 68/75/18 75/74/18 77/76/18
f 68/75/18 77/76/18 70/77/18
f 70/77/18 77/76/18 96/79/18
f 70/77/18 96/79/18 80/78/18
f 80/78/18 96/79/18 93/81/18
f 80/78/18 93/81/18 82/80/18
f 82/80/18 93/81/18 91/83/18
f 82/80/18 91/83/18 83/82/18
f 83/82/18 91/83/18 89/85/18
f 83/82/18 89/85/18 85/84/18
f 85/84/18 89/85/18 87/86/18

