# Created by Kenney (www.kenney.nl)

mtllib gems_amethyst_1.mtl

g mergedBlocks

v 0.4330127 -0.02309451 -0.25
v 0.4330127 -0.2210945 -0.25
v 0.4829629 -0.02309451 -0.1294095
v 0.4829629 -0.2210945 -0.1294095
v 0.5 -0.02309451 0
v 0.5 -0.2210945 0
v 0.4829629 -0.02309451 0.1294095
v 0.4829629 -0.2210945 0.1294095
v 0.4330127 -0.02309451 0.25
v 0.4330127 -0.2210945 0.25
v 0.3535534 -0.2210945 -0.3535534
v 0.3535534 -0.02309451 -0.3535534
v 0.3535534 -0.02309451 0.3535534
v 0.3535534 -0.2210945 0.3535534
v 0.25 -0.2210945 0.4330127
v 0.25 -0.02309451 0.4330127
v 0.1294095 -0.2210945 0.4829629
v 0.1294095 -0.02309451 0.4829629
v 0 -0.2210945 0.5
v 0 -0.02309451 0.5
v -0.1294095 -0.2210945 0.4829629
v -0.1294095 -0.02309451 0.4829629
v 0.25 -0.02309451 -0.4330127
v 0.25 -0.2210945 -0.4330127
v 0.1294095 -0.02309451 -0.4829629
v 0.1294095 -0.2210945 -0.4829629
v 0 -0.02309451 -0.5
v 0 -0.2210945 -0.5
v -0.1294095 -0.02309451 -0.4829629
v -0.1294095 -0.2210945 -0.4829629
v -0.25 -0.2210945 0.4330127
v -0.25 -0.02309451 0.4330127
v -0.3535534 -0.2210945 0.3535534
v -0.3535534 -0.02309451 0.3535534
v -0.4330127 -0.02309451 0.25
v -0.4330127 -0.2210945 0.25
v -0.4829629 -0.02309451 0.1294095
v -0.4829629 -0.2210945 0.1294095
v -0.5 -0.02309451 0
v -0.5 -0.2210945 0
v -0.4829629 -0.02309451 -0.1294095
v -0.4829629 -0.2210945 -0.1294095
v -0.4330127 -0.02309451 -0.25
v -0.4330127 -0.2210945 -0.25
v -0.3535534 -0.02309451 -0.3535534
v -0.3535534 -0.2210945 -0.3535534
v -0.25 -0.2210945 -0.4330127
v -0.25 -0.02309451 -0.4330127
v 0.08469133 -0.2210945 0.3560541
v -0.1258892 -0.2210945 0.4010409
v 0.02293972 -0.1236896 0.3003376
v -0.09977571 -0.09122126 0.303584
v -0.04870994 -0.09122126 0.2926747
v -0.2064698 0 -0.1249498
v -0.1360495 0 -0.1399939
v -0.1524439 0.2210945 -0.07620394
v -0.001278099 0 -0.1687853
v -0.0854284 0.2210945 -0.09052059
v -0.1053314 -0.07691891 -0.1675303
v -0.09415778 -0.2210945 -0.2092308
v 0.01585675 -0.2210945 -0.2327335
v 0.03246582 0.2210945 -0.05893092
v -0.1685806 0.2210945 -0.01598096
v -0.1338385 0.2210945 0.09014833
v -0.08295974 0.2210945 0.1360546
v -0.01594427 0.2210945 0.121738
v 0.08334459 0.2210945 -0.0130246
v 0.0672079 0.2210945 0.04719838
v 0.01465202 -0.09122126 0.2358755
v -0.2586517 -0.1886262 0.2509989
v -0.1650188 -0.09122126 0.1877328
v -0.1385453 -0.09122126 0.2686034
v -0.3020084 -0.2210945 -0.242577
v -0.3352799 -0.2210945 -0.1184059
v -0.1638322 -0.2210945 -0.2720959
v -0.2869862 -0.2210945 -0.07483195
v -0.3270388 -0.2210945 0.07464644
v -0.2544965 -0.2210945 0.1400991
v -0.2857639 -0.2210945 0.2567909
v 0.06751454 -0.2210945 -0.1861242
v 0.1560933 -0.2210945 -0.2050475
v 0.1231291 -0.2210945 0.2126026
v 0.3073317 -0.2210945 -0.06858987
v 0.179892 -0.2210945 0.1274023
v 0.259365 -0.2210945 0.1104243
v 0.159123 -0.2210945 0.2049131
v -0.1620958 -0.09122126 0.176824
v -0.1071642 -0.09122126 0.2263871
v 0.02474528 -0.09122126 0.198207
v -0.2914584 -0.1105473 0.06704533
v 0.07808414 0.1105472 0.1317943
v 0.1031696 0.09403075 0.05687766
v 0.1242409 0.09403075 -0.02176137
v 0.08308326 0.09403075 -0.1025352
v 0.1437419 -0.06353188 -0.1589513
v 0.1680658 0.09403075 -0.07976422
v -0.2158254 0 -0.09003416
v -0.3174897 -0.1658209 -0.1222065
v -0.2386798 0 -0.110655
v -0.2560509 0 -0.1637196
v -0.2479825 0 -0.1938311
v 0.2009492 0.01524943 0.05771758
v 0.13317 0.09403075 0.05046863
v 0.04397711 0.09403075 -0.0941809
v 0.2047411 0.09403075 -0.04667322
v 0.1931092 0.09403075 -0.003262281
v -0.1723996 -0.1105473 -0.2401218
v -0.1555277 0 -0.1851946
v -0.1300883 0 -0.1622414
v -0.2144748 0 -0.2009894

vn 0.8660254 0 -0.5
vn 0.9659259 0 -0.2588191
vn 1 0 0
vn 0.9659259 0 0.2588191
vn 0.8660254 0 0.5
vn 0.7071068 0 -0.7071068
vn 0.7071068 0 0.7071068
vn 0.5 0 0.8660254
vn 0.2588191 0 0.9659259
vn 0 0 1
vn -0.2588191 0 0.9659259
vn 0.5 0 -0.8660254
vn 0.2588191 0 -0.9659259
vn 0 0 -1
vn -0.2588191 0 -0.9659259
vn -0.5 0 0.8660254
vn -0.7071068 0 0.7071068
vn -0.8660254 0 0.5
vn -0.9659259 0 0.2588191
vn -1 0 0
vn -0.9659259 0 -0.2588191
vn -0.8660254 0 -0.5
vn -0.7071068 0 -0.7071068
vn -0.5 0 -0.8660254
vn 0 -1 0
vn 0 1 0
vn 0.1718087 0.5689468 0.8042272
vn -0.201864 0.2576572 -0.9449146
vn 0.236863 0.4030718 -0.8839847
vn 0.3461571 0.8550211 0.3861532
vn -0.6343362 0.7446459 0.2076538
vn -0.8730749 0.3950377 0.2858064
vn 0.9269324 0.2812617 0.2483708
vn -0.5509043 0.5689468 0.6105767
vn -0.7688805 0.6052917 -0.206021
vn 0.5633612 0.5363488 0.6284537
vn 0.7688805 0.6052917 0.206021
vn 0.2364196 0.4069399 -0.8823297
vn -0.6472768 0.2576572 0.717388
vn -0.9269324 0.2812617 -0.2483708
vn 0.2017094 0.2604181 0.9441905
vn 0.6472768 0.2576572 -0.717388
vn -0.2017094 0.2604181 -0.9441905
vn 0.201864 0.2576572 0.9449146
vn 0.6467808 0.2604181 -0.7168382
vn 0.5614977 0.5407171 0.6263748
vn 0.9260861 0.2842338 0.2481441

vt 0.25 -0.02309451
vt 0.25 -0.2210945
vt 0.1294095 -0.02309451
vt 0.1294095 -0.2210945
vt 0 -0.02309451
vt 0 -0.2210945
vt -0.1294095 -0.02309451
vt -0.1294095 -0.2210945
vt -0.25 -0.02309451
vt -0.25 -0.2210945
vt 0.3535534 -0.2210945
vt 0.3535534 -0.02309451
vt -0.3535534 -0.02309451
vt -0.3535534 -0.2210945
vt -0.5 0
vt -0.4829629 0.1294095
vt -0.4829629 -0.1294095
vt -0.4330127 0.25
vt -0.4330127 -0.25
vt -0.3535534 0.3535534
vt -0.3535534 -0.3535534
vt -0.25 0.4330127
vt -0.25 -0.4330127
vt -0.1294095 0.4829629
vt -0.1294095 -0.4829629
vt 0 -0.5
vt 0 0.5
vt 0.1294095 -0.4829629
vt 0.1294095 0.4829629
vt 0.25 0.4330127
vt 0.25 -0.4330127
vt 0.3535534 0.3535534
vt 0.3535534 -0.3535534
vt 0.4330127 0.25
vt 0.4330127 -0.25
vt 0.4829629 0.1294095
vt 0.4829629 -0.1294095
vt 0.5 0
vt 0.08469132 -0.2210945
vt -0.1258892 -0.2210945
vt 0.02293972 -0.1236896
vt -0.09977572 -0.09122126
vt -0.04870993 -0.09122126
vt 0.2064698 3.39675E-09
vt 0.1360495 3.39675E-09
vt 0.1524439 0.2210945
vt 0.001278095 3.39675E-09
vt 0.08542841 0.2210945
vt 0.1053314 -0.07691891
vt 0.09415778 -0.2210945
vt -0.01585675 -0.2210945
vt -0.03246582 0.2210945
vt 0.1524439 -0.07620394
vt 0.08542841 -0.09052058
vt 0.1685806 -0.01598096
vt 0.1338385 0.09014833
vt -0.03246582 -0.05893091
vt 0.08295973 0.1360546
vt 0.01594427 0.121738
vt -0.0833446 -0.0130246
vt -0.0672079 0.04719838
vt 0.04870993 0.2926747
vt -0.01465202 0.2358755
vt -0.02293972 0.3003376
vt 0.2586517 0.2509989
vt 0.1650188 0.1877328
vt 0.1385453 0.2686034
vt 0.3020084 0.242577
vt 0.3352799 0.1184059
vt 0.1638322 0.2720959
vt 0.2869861 0.07483195
vt 0.3270388 -0.07464644
vt 0.2544965 -0.1400991
vt 0.09415778 0.2092308
vt 0.2857639 -0.2567909
vt 0.1258892 -0.4010409
vt -0.01585675 0.2327334
vt -0.06751455 0.1861242
vt -0.08469132 -0.3560541
vt -0.1560933 0.2050475
vt -0.1231291 -0.2126026
vt -0.3073317 0.06858988
vt -0.179892 -0.1274023
vt -0.259365 -0.1104243
vt -0.159123 -0.2049131
vt 0.1620958 0.176824
vt 0.1071642 0.2263871
vt 0.09977572 0.303584
vt -0.02474527 0.198207
vt 0.09014833 0.2210945
vt 0.06704533 -0.1105473
vt -0.01598096 0.2210945
vt -0.2049131 -0.2210945
vt -0.1317943 0.1105472
vt -0.1274023 -0.2210945
vt -0.04719838 0.2210945
vt -0.05687766 0.09403075
vt 0.02176136 0.09403075
vt 0.0130246 0.2210945
vt -0.2857639 -0.2210945
vt -0.2586517 -0.1886262
vt -0.1385453 -0.09122126
vt 0.2567909 -0.2210945
vt 0.1400991 -0.2210945
vt 0.2509989 -0.1886262
vt 0.1877328 -0.09122126
vt 0.176824 -0.09122126
vt 0.07808414 0.1105472
vt -0.01594427 0.2210945
vt 0.0672079 0.2210945
vt -0.3560541 -0.2210945
vt -0.3003376 -0.1236896
vt -0.2126026 -0.2210945
vt -0.2358755 -0.09122126
vt -0.198207 -0.09122126
vt -0.08308326 0.09403075
vt -0.1437419 -0.06353188
vt -0.1680658 0.09403075
vt -0.2869861 -0.2210945
vt -0.3352799 -0.2210945
vt -0.2158254 3.39675E-09
vt -0.3174897 -0.1658209
vt -0.2386798 3.39675E-09
vt -0.1184059 -0.2210945
vt -0.242577 -0.2210945
vt -0.1222065 -0.1658209
vt -0.1637196 3.39675E-09
vt -0.1938311 3.39675E-09
vt 0.259365 -0.2210945
vt 0.179892 -0.2210945
vt 0.2009491 0.01524943
vt 0.1031696 0.09403075
vt 0.13317 0.09403075
vt -0.06751455 -0.2210945
vt -0.04397712 0.09403075
vt -0.1242409 0.09403075
vt -0.0833446 0.2210945
vt -0.1560933 -0.2210945
vt -0.2544965 -0.2210945
vt -0.3270388 -0.2210945
vt -0.1620958 -0.09122126
vt -0.2914584 -0.1105473
vt -0.1338385 0.2210945
vt -0.1071642 -0.09122126
vt -0.08295973 0.2210945
vt 0.159123 -0.2210945
vt 0.1231291 -0.2210945
vt 0.02474527 -0.09122126
vt -0.3073317 -0.2210945
vt -0.2047411 0.09403075
vt -0.04397712 -0.09418089
vt -0.08308326 -0.1025352
vt -0.1242409 -0.02176136
vt -0.1680658 -0.07976422
vt -0.1031696 0.05687766
vt -0.13317 0.05046863
vt -0.2047411 -0.04667323
vt -0.1931092 -0.003262284
vt -0.110655 3.39675E-09
vt 0.1638322 -0.2210945
vt 0.1723996 -0.1105473
vt 0.1555277 3.39675E-09
vt 0.1300883 3.39675E-09
vt 0.1399939 3.39675E-09
vt 0.1622414 3.39675E-09
vt 0.1675303 -0.07691891
vt 0.1931092 0.09403075
vt -0.1104243 -0.2210945
vt -0.05771757 0.01524943
vt 0.06858988 -0.2210945
vt 0.003262284 0.09403075
vt 0.04667323 0.09403075
vt 0.2386798 -0.110655
vt 0.2064698 -0.1249498
vt 0.2158254 -0.09003416
vt 0.1555277 -0.1851946
vt 0.2144748 -0.2009894
vt 0.2560509 -0.1637196
vt 0.2479825 -0.1938311
vt 0.1360495 -0.1399939
vt 0.1300883 -0.1622414
vt 0.2144748 3.39675E-09
vt 0.07464644 -0.2210945
vt -0.07483195 -0.2210945
vt -0.07620394 0.2210945
vt -0.09003416 3.39675E-09
vt -0.1249498 3.39675E-09
vt 0.3020084 -0.2210945
vt 0.2479825 3.39675E-09

usemtl custom1(Clone)

f 3/3/2 2/2/1 1/1/1
f 2/2/1 3/3/2 4/4/2
f 5/5/3 4/4/2 3/3/2
f 4/4/2 5/5/3 6/6/3
f 7/7/4 6/6/3 5/5/3
f 6/6/3 7/7/4 8/8/4
f 9/9/5 8/8/4 7/7/4
f 8/8/4 9/9/5 10/10/5
f 11/11/6 1/1/1 2/2/1
f 1/1/1 11/11/6 12/12/6
f 13/13/7 10/10/5 9/9/5
f 10/10/5 13/13/7 14/14/7
f 13/12/7 15/2/8 14/11/7
f 15/2/8 13/12/7 16/1/8
f 16/1/8 17/4/9 15/2/8
f 17/4/9 16/1/8 18/3/9
f 18/3/9 19/6/10 17/4/9
f 19/6/10 18/3/9 20/5/10
f 20/5/10 21/8/11 19/6/10
f 21/8/11 20/5/10 22/7/11
f 11/14/6 23/9/12 12/13/6
f 23/9/12 11/14/6 24/10/12
f 24/10/12 25/7/13 23/9/12
f 25/7/13 24/10/12 26/8/13
f 26/8/13 27/5/14 25/7/13
f 27/5/14 26/8/13 28/6/14
f 28/6/14 29/3/15 27/5/14
f 29/3/15 28/6/14 30/4/15
f 22/7/11 31/10/16 21/8/11
f 31/10/16 22/7/11 32/9/16
f 32/9/16 33/14/17 31/10/16
f 33/14/17 32/9/16 34/13/17
f 35/1/18 33/11/17 34/12/17
f 33/11/17 35/1/18 36/2/18
f 37/3/19 36/2/18 35/1/18
f 36/2/18 37/3/19 38/4/19
f 39/5/20 38/4/19 37/3/19
f 38/4/19 39/5/20 40/6/20
f 41/7/21 40/6/20 39/5/20
f 40/6/20 41/7/21 42/8/21
f 43/9/22 42/8/21 41/7/21
f 42/8/21 43/9/22 44/10/22
f 45/13/23 44/10/22 43/9/22
f 44/10/22 45/13/23 46/14/23
f 45/12/23 47/2/24 46/11/23
f 47/2/24 45/12/23 48/1/24
f 48/1/24 30/4/15 47/2/24
f 30/4/15 48/1/24 29/3/15
f 8/17/25 4/16/25 6/15/25
f 4/16/25 8/17/25 2/18/25
f 2/18/25 8/17/25 10/19/25
f 2/18/25 10/19/25 11/20/25
f 11/20/25 10/19/25 14/21/25
f 11/20/25 14/21/25 24/22/25
f 24/22/25 14/21/25 15/23/25
f 24/22/25 15/23/25 26/24/25
f 26/24/25 15/23/25 17/25/25
f 26/24/25 17/25/25 19/26/25
f 26/24/25 19/26/25 28/27/25
f 28/27/25 19/26/25 21/28/25
f 28/27/25 21/28/25 30/29/25
f 30/29/25 21/28/25 47/30/25
f 47/30/25 21/28/25 31/31/25
f 47/30/25 31/31/25 46/32/25
f 46/32/25 31/31/25 33/33/25
f 46/32/25 33/33/25 44/34/25
f 44/34/25 33/33/25 36/35/25
f 44/34/25 36/35/25 42/36/25
f 42/36/25 36/35/25 38/37/25
f 42/36/25 38/37/25 40/38/25
f 3/17/26 7/16/26 5/15/26
f 7/16/26 3/17/26 1/19/26
f 7/16/26 1/19/26 9/18/26
f 9/18/26 1/19/26 12/21/26
f 9/18/26 12/21/26 13/20/26
f 13/20/26 12/21/26 23/23/26
f 13/20/26 23/23/26 16/22/26
f 16/22/26 23/23/26 25/25/26
f 16/22/26 25/25/26 18/24/26
f 18/24/26 25/25/26 27/26/26
f 18/24/26 27/26/26 20/27/26
f 20/27/26 27/26/26 29/28/26
f 20/27/26 29/28/26 22/29/26
f 22/29/26 29/28/26 48/31/26
f 22/29/26 48/31/26 32/30/26
f 32/30/26 48/31/26 45/33/26
f 32/30/26 45/33/26 34/32/26
f 34/32/26 45/33/26 43/35/26
f 34/32/26 43/35/26 35/34/26
f 35/34/26 43/35/26 41/37/26
f 35/34/26 41/37/26 37/36/26
f 37/36/26 41/37/26 39/38/26

usemtl custom5(Clone)

f 51/41/27 50/40/27 49/39/27
f 50/40/27 51/41/27 52/42/27
f 52/42/27 51/41/27 53/43/27
f 56/46/28 55/45/28 54/44/28
f 55/45/28 56/46/28 57/47/28
f 57/47/28 56/46/28 58/48/28
f 57/47/28 59/49/28 55/45/28
f 57/47/28 60/50/28 59/49/28
f 60/50/28 57/47/28 61/51/28
f 62/52/29 57/47/29 58/48/29
f 63/55/26 58/54/26 56/53/26
f 58/54/26 63/55/26 64/56/26
f 58/54/26 64/56/26 62/57/26
f 62/57/26 64/56/26 65/58/26
f 62/57/26 65/58/26 66/59/26
f 62/57/26 66/59/26 67/60/26
f 67/60/26 66/59/26 68/61/26
f 51/64/30 69/63/30 53/62/30
f 72/67/31 71/66/31 70/65/31
f 75/70/25 74/69/25 73/68/25
f 74/69/25 75/70/25 76/71/25
f 76/71/25 75/70/25 77/72/25
f 77/72/25 75/70/25 78/73/25
f 78/73/25 75/70/25 60/74/25
f 78/73/25 60/74/25 79/75/25
f 79/75/25 60/74/25 50/76/25
f 50/76/25 60/74/25 61/77/25
f 50/76/25 61/77/25 80/78/25
f 50/76/25 80/78/25 49/79/25
f 49/79/25 80/78/25 81/80/25
f 49/79/25 81/80/25 82/81/25
f 83/82/25 82/81/25 81/80/25
f 82/81/25 83/82/25 84/83/25
f 84/83/25 83/82/25 85/84/25
f 86/85/25 82/81/25 84/83/25
f 71/66/26 88/87/26 87/86/26
f 88/87/26 71/66/26 72/67/26
f 88/87/26 72/67/26 52/88/26
f 88/87/26 52/88/26 89/89/26
f 89/89/26 52/88/26 53/62/26
f 89/89/26 53/62/26 69/63/26
f 63/92/32 90/91/32 64/90/32
f 84/95/33 91/94/33 86/93/33
f 91/94/33 84/95/33 68/96/33
f 68/96/33 84/95/33 92/97/33
f 68/96/33 92/97/33 93/98/33
f 68/96/33 93/98/33 67/99/33
f 52/42/34 79/100/34 50/40/34
f 79/100/34 52/42/34 70/101/34
f 70/101/34 52/42/34 72/102/34
f 70/105/35 78/104/35 79/103/35
f 78/104/35 70/105/35 71/106/35
f 78/104/35 71/106/35 87/107/35
f 68/110/36 66/109/36 91/108/36
f 82/113/37 51/112/37 49/111/37
f 51/112/37 82/113/37 69/114/37
f 69/114/37 82/113/37 89/115/37
f 96/118/38 95/117/38 94/116/38
f 97/121/39 74/120/39 76/119/39
f 74/120/39 97/121/39 98/122/39
f 98/122/39 97/121/39 99/123/39
f 98/126/40 73/125/40 74/124/40
f 73/125/40 98/126/40 100/127/40
f 73/125/40 100/127/40 101/128/40
f 102/131/41 84/130/41 85/129/41
f 84/130/41 102/131/41 92/132/41
f 92/132/41 102/131/41 103/133/41
f 57/47/42 80/134/42 61/51/42
f 80/134/42 57/47/42 104/135/42
f 104/135/42 57/47/42 62/52/42
f 104/135/42 62/52/42 93/136/42
f 93/136/42 62/52/42 67/137/42
f 104/135/43 81/138/43 80/134/43
f 81/138/43 104/135/43 95/117/43
f 95/117/43 104/135/43 94/116/43
f 87/141/39 77/140/39 78/139/39
f 77/140/39 87/141/39 90/142/39
f 90/142/39 87/141/39 64/143/39
f 64/143/39 87/141/39 88/144/39
f 64/143/39 88/144/39 65/145/39
f 91/108/44 82/147/44 86/146/44
f 82/147/44 91/108/44 89/148/44
f 89/148/44 91/108/44 88/144/44
f 88/144/44 91/108/44 65/145/44
f 65/145/44 91/108/44 66/109/44
f 95/117/45 83/149/45 81/138/45
f 83/149/45 95/117/45 105/150/45
f 105/150/45 95/117/45 96/118/45
f 93/153/26 94/152/26 104/151/26
f 94/152/26 93/153/26 96/154/26
f 96/154/26 93/153/26 92/155/26
f 96/154/26 92/155/26 103/156/26
f 96/154/26 103/156/26 105/157/26
f 105/157/26 103/156/26 106/158/26
f 100/127/32 98/126/32 99/159/32
f 107/161/42 60/50/42 75/160/42
f 60/50/42 107/161/42 59/49/42
f 59/49/42 107/161/42 108/162/42
f 59/49/42 108/162/42 109/163/42
f 59/166/33 109/165/33 55/164/33
f 106/167/46 103/133/46 102/131/46
f 83/170/47 102/169/47 85/168/47
f 102/169/47 83/170/47 106/171/47
f 106/171/47 83/170/47 105/172/47
f 97/175/26 54/174/26 99/173/26
f 108/176/26 99/173/26 54/174/26
f 110/177/26 99/173/26 108/176/26
f 110/177/26 100/178/26 99/173/26
f 100/178/26 110/177/26 101/179/26
f 108/176/26 54/174/26 55/180/26
f 108/176/26 55/180/26 109/181/26
f 108/162/29 107/161/29 110/182/29
f 90/91/40 76/184/40 77/183/40
f 76/184/40 90/91/40 63/92/40
f 76/184/40 63/92/40 56/185/40
f 76/184/40 56/185/40 97/186/40
f 97/186/40 56/185/40 54/187/40
f 101/189/28 75/160/28 73/188/28
f 75/160/28 101/189/28 107/161/28
f 107/161/28 101/189/28 110/182/28

