# Created by Kenney (www.kenney.nl)

mtllib gems_diamond_4.mtl

g mergedBlocks

v 0.1645807 0.4541 0.1378438
v 0.06929035 0.4541 0.1883654
v 0.1645807 0.4541 0.03680038
v 0.06929035 0.4541 -0.1147647
v -0.1212904 0.4541 0.1883654
v -0.02600002 0.4541 -0.1652863
v -0.1212904 0.4541 -0.1147647
v -0.2165808 0.4541 0.1378438
v -0.2165808 0.4541 0.03680038
v 0.36695 0.2208 0.2451372
v 0.36695 0.2208 -0.1715365
v -0.02600002 0.2208 0.4534741
v -0.02600002 0.2208 -0.3798733
v -0.41895 0.2208 0.2451372
v -0.41895 0.2208 -0.1715365
v 0.3163577 0.279125 -0.1447131
v -0.2671731 0.395775 -0.09106635
v -0.02600002 0.33745 0.3461806
v 0.1645807 -0.3041 0.1378438
v 0.06929035 -0.3041 0.1883654
v 0.1645807 -0.3041 0.03680038
v 0.06929035 -0.3041 -0.1147647
v -0.1212904 -0.3041 0.1883654
v -0.02600002 -0.3041 -0.1652863
v -0.1212904 -0.3041 -0.1147647
v -0.2165808 -0.3041 0.1378438
v -0.2165808 -0.3041 0.03680038
v 0.3163577 0.08957504 -0.1447131
v -0.2671731 -0.172875 -0.09106635
v -0.02600002 -0.04164997 0.3461806
v 0.4330127 -0.2560999 -0.25
v 0.4330127 -0.4541 -0.25
v 0.4829629 -0.2560999 -0.1294095
v 0.4829629 -0.4541 -0.1294095
v 0.5 -0.2560999 0
v 0.5 -0.4541 0
v 0.4829629 -0.2560999 0.1294095
v 0.4829629 -0.4541 0.1294095
v 0.4330127 -0.2560999 0.25
v 0.4330127 -0.4541 0.25
v 0.3535534 -0.4541 -0.3535534
v 0.3535534 -0.2560999 -0.3535534
v 0.3535534 -0.2560999 0.3535534
v 0.3535534 -0.4541 0.3535534
v 0.25 -0.4541 0.4330127
v 0.25 -0.2560999 0.4330127
v 0.1294095 -0.4541 0.4829629
v 0.1294095 -0.2560999 0.4829629
v 0 -0.4541 0.5
v 0 -0.2560999 0.5
v -0.1294095 -0.4541 0.4829629
v -0.1294095 -0.2560999 0.4829629
v 0.25 -0.2560999 -0.4330127
v 0.25 -0.4541 -0.4330127
v 0.1294095 -0.2560999 -0.4829629
v 0.1294095 -0.4541 -0.4829629
v 0 -0.2560999 -0.5
v 0 -0.4541 -0.5
v -0.1294095 -0.2560999 -0.4829629
v -0.1294095 -0.4541 -0.4829629
v -0.25 -0.4541 0.4330127
v -0.25 -0.2560999 0.4330127
v -0.3535534 -0.4541 0.3535534
v -0.3535534 -0.2560999 0.3535534
v -0.4330127 -0.2560999 0.25
v -0.4330127 -0.4541 0.25
v -0.4829629 -0.2560999 0.1294095
v -0.4829629 -0.4541 0.1294095
v -0.5 -0.2560999 0
v -0.5 -0.4541 0
v -0.4829629 -0.2560999 -0.1294095
v -0.4829629 -0.4541 -0.1294095
v -0.4330127 -0.2560999 -0.25
v -0.4330127 -0.4541 -0.25
v -0.3535534 -0.2560999 -0.3535534
v -0.3535534 -0.4541 -0.3535534
v -0.25 -0.4541 -0.4330127
v -0.25 -0.2560999 -0.4330127

vn 0 1 0
vn 0 -1 0
vn 0.3635245 0.6306574 -0.6856539
vn -0.3635245 0.6306574 -0.6856539
vn 0.7554072 0.6552557 0
vn 0.3635245 0.6306574 0.6856539
vn -0.7554072 0.6552557 0
vn -0.3635245 0.6306574 0.6856539
vn 0 0.8041664 0.5944043
vn 0.5195571 0.7895315 -0.3266505
vn -0.394096 0.8850409 -0.2477719
vn 0.4405654 -0.33971 -0.8309628
vn -0.4405654 -0.33971 -0.8309628
vn 0.9330567 -0.3597294 0
vn 0.4405654 -0.33971 0.8309628
vn -0.9330567 -0.3597294 0
vn -0.4405654 -0.33971 0.8309628
vn 0 -0.5153242 0.8569952
vn 0.734923 -0.4963821 -0.462053
vn -0.6466304 -0.6454396 -0.4065426
vn 0.8660254 0 -0.5
vn 0.9659259 0 -0.2588191
vn 1 0 0
vn 0.9659259 0 0.2588191
vn 0.8660254 0 0.5
vn 0.7071068 0 -0.7071068
vn 0.7071068 0 0.7071068
vn 0.5 0 0.8660254
vn 0.2588191 0 0.9659259
vn 0 0 1
vn -0.2588191 0 0.9659259
vn 0.5 0 -0.8660254
vn 0.2588191 0 -0.9659259
vn 0 0 -1
vn -0.2588191 0 -0.9659259
vn -0.5 0 0.8660254
vn -0.7071068 0 0.7071068
vn -0.8660254 0 0.5
vn -0.9659259 0 0.2588191
vn -1 0 0
vn -0.9659259 0 -0.2588191
vn -0.8660254 0 -0.5
vn -0.7071068 0 -0.7071068
vn -0.5 0 -0.8660254

vt -0.1645807 0.1378438
vt -0.06929035 0.1883654
vt -0.1645807 0.03680038
vt -0.06929035 -0.1147647
vt 0.1212904 0.1883654
vt 0.02600002 -0.1652863
vt 0.1212904 -0.1147647
vt 0.2165808 0.1378438
vt 0.2165808 0.03680038
vt -0.36695 -0.2451372
vt -0.36695 0.1715365
vt 0.02600002 -0.4534741
vt 0.02600002 0.3798733
vt 0.41895 -0.2451372
vt 0.41895 0.1715365
vt 0.02600002 0.2208
vt -0.36695 0.2208
vt 0.02600002 0.4541
vt -0.3163577 0.279125
vt -0.06929035 0.4541
vt 0.41895 0.2208
vt 0.2671731 0.395775
vt 0.1212904 0.4541
vt 0.1715365 0.2208
vt -0.2451372 0.2208
vt 0.1447131 0.279125
vt -0.03680038 0.4541
vt -0.1378438 0.4541
vt 0.36695 0.2208
vt -0.02600002 0.2208
vt 0.1645807 0.4541
vt -0.02600002 0.33745
vt 0.06929035 0.4541
vt -0.1715365 0.2208
vt -0.09106635 0.395775
vt 0.2451372 0.2208
vt 0.03680038 0.4541
vt 0.1378438 0.4541
vt -0.41895 0.2208
vt -0.2165808 0.4541
vt -0.1212904 0.4541
vt 0.02600002 0.3461806
vt -0.3163577 -0.1447131
vt 0.2671731 -0.09106635
vt -0.02600002 -0.3041
vt 0.3163577 0.08957504
vt 0.06929035 -0.3041
vt -0.2671731 -0.172875
vt -0.1212904 -0.3041
vt -0.1447131 0.08957504
vt 0.03680038 -0.3041
vt 0.1378438 -0.3041
vt -0.1645807 -0.3041
vt 0.02600002 -0.04164997
vt -0.06929035 -0.3041
vt 0.09106635 -0.172875
vt -0.03680038 -0.3041
vt -0.1378438 -0.3041
vt 0.2165808 -0.3041
vt 0.1212904 -0.3041
vt -0.1147647 -0.3041
vt 0.1147647 -0.3041
vt 0.25 -0.2560999
vt 0.25 -0.4541
vt 0.1294095 -0.2560999
vt 0.1294095 -0.4541
vt 0 -0.2560999
vt 0 -0.4541
vt -0.1294095 -0.2560999
vt -0.1294095 -0.4541
vt -0.25 -0.2560999
vt -0.25 -0.4541
vt 0.3535534 -0.4541
vt 0.3535534 -0.2560999
vt -0.3535534 -0.2560999
vt -0.3535534 -0.4541
vt -0.5 0
vt -0.4829629 0.1294095
vt -0.4829629 -0.1294095
vt -0.4330127 0.25
vt -0.4330127 -0.25
vt -0.3535534 0.3535534
vt -0.3535534 -0.3535534
vt -0.25 0.4330127
vt -0.25 -0.4330127
vt -0.1294095 0.4829629
vt -0.1294095 -0.4829629
vt 0 -0.5
vt 0 0.5
vt 0.1294095 -0.4829629
vt 0.1294095 0.4829629
vt 0.25 0.4330127
vt 0.25 -0.4330127
vt 0.3535534 0.3535534
vt 0.3535534 -0.3535534
vt 0.4330127 0.25
vt 0.4330127 -0.25
vt 0.4829629 0.1294095
vt 0.4829629 -0.1294095
vt 0.5 0

usemtl custom7(Clone)

f 3/3/1 2/2/1 1/1/1
f 2/2/1 3/3/1 4/4/1
f 2/2/1 4/4/1 5/5/1
f 5/5/1 4/4/1 6/6/1
f 5/5/1 6/6/1 7/7/1
f 5/5/1 7/7/1 8/8/1
f 8/8/1 7/7/1 9/9/1
f 12/12/2 11/11/2 10/10/2
f 11/11/2 12/12/2 13/13/2
f 13/13/2 12/12/2 14/14/2
f 13/13/2 14/14/2 15/15/2
f 6/18/3 11/17/3 13/16/3
f 11/17/3 6/18/3 16/19/3
f 16/19/3 6/18/3 4/20/3
f 17/22/4 13/16/4 15/21/4
f 13/16/4 17/22/4 6/18/4
f 6/18/4 17/22/4 7/23/4
f 16/26/5 10/25/5 11/24/5
f 10/25/5 16/26/5 3/27/5
f 10/25/5 3/27/5 1/28/5
f 1/31/6 12/30/6 10/29/6
f 12/30/6 1/31/6 18/32/6
f 18/32/6 1/31/6 2/33/6
f 14/36/7 17/35/7 15/34/7
f 17/35/7 14/36/7 9/37/7
f 9/37/7 14/36/7 8/38/7
f 18/32/8 14/39/8 12/30/8
f 14/39/8 18/32/8 8/40/8
f 8/40/8 18/32/8 5/41/8
f 5/5/9 18/42/9 2/2/9
f 3/3/10 16/43/10 4/4/10
f 9/9/11 7/7/11 17/44/11
f 29/56/20 25/62/20 27/57/20
f 22/61/19 28/50/19 21/51/19
f 20/55/18 30/54/18 23/60/18
f 23/60/17 30/54/17 26/59/17
f 26/59/17 30/54/17 14/21/17
f 12/16/17 14/21/17 30/54/17
f 26/58/16 14/25/16 27/57/16
f 27/57/16 14/25/16 29/56/16
f 15/24/16 29/56/16 14/25/16
f 20/55/15 19/53/15 30/54/15
f 30/54/15 19/53/15 12/16/15
f 10/17/15 12/16/15 19/53/15
f 19/52/14 21/51/14 10/36/14
f 21/51/14 28/50/14 10/36/14
f 11/34/14 10/36/14 28/50/14
f 25/49/13 29/48/13 24/45/13
f 24/45/13 29/48/13 13/30/13
f 15/39/13 13/30/13 29/48/13
f 22/47/12 24/45/12 28/46/12
f 28/46/12 24/45/12 11/29/12
f 13/30/12 11/29/12 24/45/12
f 15/15/1 14/14/1 13/13/1
f 14/14/1 12/12/1 13/13/1
f 13/13/1 12/12/1 11/11/1
f 10/10/1 11/11/1 12/12/1
f 27/9/2 25/7/2 26/8/2
f 26/8/2 25/7/2 23/5/2
f 25/7/2 24/6/2 23/5/2
f 24/6/2 22/4/2 23/5/2
f 23/5/2 22/4/2 20/2/2
f 22/4/2 21/3/2 20/2/2
f 19/1/2 20/2/2 21/3/2

usemtl custom1(Clone)

f 33/65/22 32/64/21 31/63/21
f 32/64/21 33/65/22 34/66/22
f 35/67/23 34/66/22 33/65/22
f 34/66/22 35/67/23 36/68/23
f 37/69/24 36/68/23 35/67/23
f 36/68/23 37/69/24 38/70/24
f 39/71/25 38/70/24 37/69/24
f 38/70/24 39/71/25 40/72/25
f 41/73/26 31/63/21 32/64/21
f 31/63/21 41/73/26 42/74/26
f 43/75/27 40/72/25 39/71/25
f 40/72/25 43/75/27 44/76/27
f 43/74/27 45/64/28 44/73/27
f 45/64/28 43/74/27 46/63/28
f 46/63/28 47/66/29 45/64/28
f 47/66/29 46/63/28 48/65/29
f 48/65/29 49/68/30 47/66/29
f 49/68/30 48/65/29 50/67/30
f 50/67/30 51/70/31 49/68/30
f 51/70/31 50/67/30 52/69/31
f 41/76/26 53/71/32 42/75/26
f 53/71/32 41/76/26 54/72/32
f 54/72/32 55/69/33 53/71/32
f 55/69/33 54/72/32 56/70/33
f 56/70/33 57/67/34 55/69/33
f 57/67/34 56/70/33 58/68/34
f 58/68/34 59/65/35 57/67/34
f 59/65/35 58/68/34 60/66/35
f 52/69/31 61/72/36 51/70/31
f 61/72/36 52/69/31 62/71/36
f 62/71/36 63/76/37 61/72/36
f 63/76/37 62/71/36 64/75/37
f 65/63/38 63/73/37 64/74/37
f 63/73/37 65/63/38 66/64/38
f 67/65/39 66/64/38 65/63/38
f 66/64/38 67/65/39 68/66/39
f 69/67/40 68/66/39 67/65/39
f 68/66/39 69/67/40 70/68/40
f 71/69/41 70/68/40 69/67/40
f 70/68/40 71/69/41 72/70/41
f 73/71/42 72/70/41 71/69/41
f 72/70/41 73/71/42 74/72/42
f 75/75/43 74/72/42 73/71/42
f 74/72/42 75/75/43 76/76/43
f 75/74/43 77/64/44 76/73/43
f 77/64/44 75/74/43 78/63/44
f 78/63/44 60/66/35 77/64/44
f 60/66/35 78/63/44 59/65/35
f 38/79/2 34/78/2 36/77/2
f 34/78/2 38/79/2 32/80/2
f 32/80/2 38/79/2 40/81/2
f 32/80/2 40/81/2 41/82/2
f 41/82/2 40/81/2 44/83/2
f 41/82/2 44/83/2 54/84/2
f 54/84/2 44/83/2 45/85/2
f 54/84/2 45/85/2 56/86/2
f 56/86/2 45/85/2 47/87/2
f 56/86/2 47/87/2 49/88/2
f 56/86/2 49/88/2 58/89/2
f 58/89/2 49/88/2 51/90/2
f 58/89/2 51/90/2 60/91/2
f 60/91/2 51/90/2 77/92/2
f 77/92/2 51/90/2 61/93/2
f 77/92/2 61/93/2 76/94/2
f 76/94/2 61/93/2 63/95/2
f 76/94/2 63/95/2 74/96/2
f 74/96/2 63/95/2 66/97/2
f 74/96/2 66/97/2 72/98/2
f 72/98/2 66/97/2 68/99/2
f 72/98/2 68/99/2 70/100/2
f 33/79/1 37/78/1 35/77/1
f 37/78/1 33/79/1 31/81/1
f 37/78/1 31/81/1 39/80/1
f 39/80/1 31/81/1 42/83/1
f 39/80/1 42/83/1 43/82/1
f 43/82/1 42/83/1 53/85/1
f 43/82/1 53/85/1 46/84/1
f 46/84/1 53/85/1 55/87/1
f 46/84/1 55/87/1 48/86/1
f 48/86/1 55/87/1 57/88/1
f 48/86/1 57/88/1 50/89/1
f 50/89/1 57/88/1 59/90/1
f 50/89/1 59/90/1 52/91/1
f 52/91/1 59/90/1 78/93/1
f 52/91/1 78/93/1 62/92/1
f 62/92/1 78/93/1 75/95/1
f 62/92/1 75/95/1 64/94/1
f 64/94/1 75/95/1 73/97/1
f 64/94/1 73/97/1 65/96/1
f 65/96/1 73/97/1 71/99/1
f 65/96/1 71/99/1 67/98/1
f 67/98/1 71/99/1 69/100/1

