# Created by Kenney (www.kenney.nl)

mtllib gems_topaz_4.mtl

g mergedBlocks

v -0.36085 0.12 -0.2104442
v -0.2706375 0.4 -0.1578331
v -0.36085 0.12 0.2104442
v -0.2706375 0.4 0.1578331
v 0.36085 0.12 -0.2104442
v 0.36085 0.12 0.2104442
v 0.2706375 0.4 -0.1578331
v 0.2706375 0.4 0.1578331
v -5.210035E-16 0.12 0.4208883
v 0 0.4 0.3156663
v 0.36085 -0.16 0.2104442
v 0.36085 -0.16 -0.2104442
v 0.2706375 -0.3 0.1578331
v 0.2706375 -0.3 -0.1578331
v 0 -0.3 -0.3156663
v -5.210035E-16 -0.16 -0.4208883
v -0.2706375 -0.3 -0.1578331
v -0.36085 -0.16 -0.2104442
v -0.2706375 -0.3 0.1578331
v -0.36085 -0.16 0.2104442
v -5.210035E-16 0.12 -0.4208883
v 0 0.4 -0.3156663
v 0 -0.3 0.3156663
v -5.210035E-16 -0.16 0.4208883
v 0.4330127 -0.202 -0.25
v 0.4330127 -0.4 -0.25
v 0.4829629 -0.202 -0.1294095
v 0.4829629 -0.4 -0.1294095
v 0.5 -0.202 0
v 0.5 -0.4 0
v 0.4829629 -0.202 0.1294095
v 0.4829629 -0.4 0.1294095
v 0.4330127 -0.202 0.25
v 0.4330127 -0.4 0.25
v 0.3535534 -0.4 -0.3535534
v 0.3535534 -0.202 -0.3535534
v 0.3535534 -0.202 0.3535534
v 0.3535534 -0.4 0.3535534
v 0.25 -0.4 0.4330127
v 0.25 -0.202 0.4330127
v 0.1294095 -0.4 0.4829629
v 0.1294095 -0.202 0.4829629
v 0 -0.4 0.5
v 0 -0.202 0.5
v -0.1294095 -0.4 0.4829629
v -0.1294095 -0.202 0.4829629
v 0.25 -0.202 -0.4330127
v 0.25 -0.4 -0.4330127
v 0.1294095 -0.202 -0.4829629
v 0.1294095 -0.4 -0.4829629
v 0 -0.202 -0.5
v 0 -0.4 -0.5
v -0.1294095 -0.202 -0.4829629
v -0.1294095 -0.4 -0.4829629
v -0.25 -0.4 0.4330127
v -0.25 -0.202 0.4330127
v -0.3535534 -0.4 0.3535534
v -0.3535534 -0.202 0.3535534
v -0.4330127 -0.202 0.25
v -0.4330127 -0.4 0.25
v -0.4829629 -0.202 0.1294095
v -0.4829629 -0.4 0.1294095
v -0.5 -0.202 0
v -0.5 -0.4 0
v -0.4829629 -0.202 -0.1294095
v -0.4829629 -0.4 -0.1294095
v -0.4330127 -0.202 -0.25
v -0.4330127 -0.4 -0.25
v -0.3535534 -0.202 -0.3535534
v -0.3535534 -0.4 -0.3535534
v -0.25 -0.4 -0.4330127
v -0.25 -0.202 -0.4330127

vn -0.9518179 0.3066639 0
vn 0.9518179 0.3066639 0
vn 0.4791639 0.3087613 0.8216255
vn 0.8405976 -0.5416602 0
vn -0.4225358 -0.544543 -0.7245249
vn -0.8405976 -0.5416602 0
vn -0.4791639 0.3087613 -0.8216255
vn 0.4225358 -0.544543 -0.7245249
vn -0.4225358 -0.544543 0.7245249
vn 0.4791639 0.3087613 -0.8216255
vn -0.4791639 0.3087613 0.8216255
vn 0.5037787 0 0.8638327
vn 0.5037787 0 -0.8638327
vn -0.5037787 0 -0.8638327
vn -1 0 0
vn 1 0 0
vn -0.5037787 0 0.8638327
vn 0 1 0
vn 0 -1 0
vn 0.4225358 -0.544543 0.7245249
vn 0.8660254 0 -0.5
vn 0.9659259 0 -0.2588191
vn 0.9659259 0 0.2588191
vn 0.8660254 0 0.5
vn 0.7071068 0 -0.7071068
vn 0.7071068 0 0.7071068
vn 0.5 0 0.8660254
vn 0.2588191 0 0.9659259
vn 0 0 1
vn -0.2588191 0 0.9659259
vn 0.5 0 -0.8660254
vn 0.2588191 0 -0.9659259
vn 0 0 -1
vn -0.2588191 0 -0.9659259
vn -0.5 0 0.8660254
vn -0.7071068 0 0.7071068
vn -0.8660254 0 0.5
vn -0.9659259 0 0.2588191
vn -0.9659259 0 -0.2588191
vn -0.8660254 0 -0.5
vn -0.7071068 0 -0.7071068
vn -0.5 0 -0.8660254

vt -0.2104442 0.12
vt -0.1578331 0.4
vt 0.2104442 0.12
vt 0.1578331 0.4
vt 0.36085 0.12
vt -5.210035E-16 0.12
vt 0.2706375 0.4
vt 0 0.4
vt -0.2104442 -0.16
vt 0.2104442 -0.16
vt -0.1578331 -0.3
vt 0.1578331 -0.3
vt 0 -0.3
vt 5.210035E-16 -0.16
vt 0.2706375 -0.3
vt 0.36085 -0.16
vt 5.210035E-16 0.12
vt -0.36085 -0.16
vt -0.2706375 -0.3
vt -5.210035E-16 -0.16
vt -0.36085 0.12
vt -0.2706375 0.4
vt -0.2706375 -0.1578331
vt -0.2706375 0.1578331
vt 0 -0.3156663
vt 0 0.3156663
vt 0.2706375 -0.1578331
vt 0.2706375 0.1578331
vt 0.25 -0.202
vt 0.25 -0.4
vt 0.1294095 -0.202
vt 0.1294095 -0.4
vt 0 -0.202
vt 0 -0.4
vt -0.1294095 -0.202
vt -0.1294095 -0.4
vt -0.25 -0.202
vt -0.25 -0.4
vt 0.3535534 -0.4
vt 0.3535534 -0.202
vt -0.3535534 -0.202
vt -0.3535534 -0.4
vt -0.5 0
vt -0.4829629 0.1294095
vt -0.4829629 -0.1294095
vt -0.4330127 0.25
vt -0.4330127 -0.25
vt -0.3535534 0.3535534
vt -0.3535534 -0.3535534
vt -0.25 0.4330127
vt -0.25 -0.4330127
vt -0.1294095 0.4829629
vt -0.1294095 -0.4829629
vt 0 -0.5
vt 0 0.5
vt 0.1294095 -0.4829629
vt 0.1294095 0.4829629
vt 0.25 0.4330127
vt 0.25 -0.4330127
vt 0.3535534 0.3535534
vt 0.3535534 -0.3535534
vt 0.4330127 0.25
vt 0.4330127 -0.25
vt 0.4829629 0.1294095
vt 0.4829629 -0.1294095
vt 0.5 0

usemtl custom11(Clone)

f 3/3/1 2/2/1 1/1/1
f 2/2/1 3/3/1 4/4/1
f 7/4/2 6/1/2 5/3/2
f 6/1/2 7/4/2 8/2/2
f 8/7/3 9/6/3 6/5/3
f 9/6/3 8/7/3 10/8/3
f 13/11/4 12/10/4 11/9/4
f 12/10/4 13/11/4 14/12/4
f 17/15/5 16/14/5 15/13/5
f 16/14/5 17/15/5 18/16/5
f 20/10/6 17/11/6 19/12/6
f 17/11/6 20/10/6 18/9/6
f 2/7/7 21/17/7 1/5/7
f 21/17/7 2/7/7 22/8/7
f 14/19/8 16/14/8 12/18/8
f 16/14/8 14/19/8 15/13/8
f 24/20/9 19/19/9 23/13/9
f 19/19/9 24/20/9 20/18/9
f 22/8/10 5/21/10 21/17/10
f 5/21/10 22/8/10 7/22/10
f 10/8/11 3/21/11 9/6/11
f 3/21/11 10/8/11 4/22/11
f 6/5/12 24/20/12 11/16/12
f 24/20/12 6/5/12 9/6/12
f 21/17/13 12/18/13 16/14/13
f 12/18/13 21/17/13 5/21/13
f 1/5/14 16/14/14 18/16/14
f 16/14/14 1/5/14 21/17/14
f 20/10/15 1/1/15 18/9/15
f 1/1/15 20/10/15 3/3/15
f 6/1/16 12/10/16 5/3/16
f 12/10/16 6/1/16 11/9/16
f 9/6/17 20/18/17 24/20/17
f 20/18/17 9/6/17 3/21/17
f 22/25/18 8/24/18 7/23/18
f 8/24/18 22/25/18 10/26/18
f 10/26/18 22/25/18 2/27/18
f 10/26/18 2/27/18 4/28/18
f 23/25/19 14/24/19 13/23/19
f 14/24/19 23/25/19 15/26/19
f 15/26/19 23/25/19 19/27/19
f 15/26/19 19/27/19 17/28/19
f 24/20/20 13/15/20 11/16/20
f 13/15/20 24/20/20 23/13/20

usemtl custom1(Clone)

f 27/31/22 26/30/21 25/29/21
f 26/30/21 27/31/22 28/32/22
f 29/33/16 28/32/22 27/31/22
f 28/32/22 29/33/16 30/34/16
f 31/35/23 30/34/16 29/33/16
f 30/34/16 31/35/23 32/36/23
f 33/37/24 32/36/23 31/35/23
f 32/36/23 33/37/24 34/38/24
f 35/39/25 25/29/21 26/30/21
f 25/29/21 35/39/25 36/40/25
f 37/41/26 34/38/24 33/37/24
f 34/38/24 37/41/26 38/42/26
f 37/40/26 39/30/27 38/39/26
f 39/30/27 37/40/26 40/29/27
f 40/29/27 41/32/28 39/30/27
f 41/32/28 40/29/27 42/31/28
f 42/31/28 43/34/29 41/32/28
f 43/34/29 42/31/28 44/33/29
f 44/33/29 45/36/30 43/34/29
f 45/36/30 44/33/29 46/35/30
f 35/42/25 47/37/31 36/41/25
f 47/37/31 35/42/25 48/38/31
f 48/38/31 49/35/32 47/37/31
f 49/35/32 48/38/31 50/36/32
f 50/36/32 51/33/33 49/35/32
f 51/33/33 50/36/32 52/34/33
f 52/34/33 53/31/34 51/33/33
f 53/31/34 52/34/33 54/32/34
f 46/35/30 55/38/35 45/36/30
f 55/38/35 46/35/30 56/37/35
f 56/37/35 57/42/36 55/38/35
f 57/42/36 56/37/35 58/41/36
f 59/29/37 57/39/36 58/40/36
f 57/39/36 59/29/37 60/30/37
f 61/31/38 60/30/37 59/29/37
f 60/30/37 61/31/38 62/32/38
f 63/33/15 62/32/38 61/31/38
f 62/32/38 63/33/15 64/34/15
f 65/35/39 64/34/15 63/33/15
f 64/34/15 65/35/39 66/36/39
f 67/37/40 66/36/39 65/35/39
f 66/36/39 67/37/40 68/38/40
f 69/41/41 68/38/40 67/37/40
f 68/38/40 69/41/41 70/42/41
f 69/40/41 71/30/42 70/39/41
f 71/30/42 69/40/41 72/29/42
f 72/29/42 54/32/34 71/30/42
f 54/32/34 72/29/42 53/31/34
f 32/45/19 28/44/19 30/43/19
f 28/44/19 32/45/19 26/46/19
f 26/46/19 32/45/19 34/47/19
f 26/46/19 34/47/19 35/48/19
f 35/48/19 34/47/19 38/49/19
f 35/48/19 38/49/19 48/50/19
f 48/50/19 38/49/19 39/51/19
f 48/50/19 39/51/19 50/52/19
f 50/52/19 39/51/19 41/53/19
f 50/52/19 41/53/19 43/54/19
f 50/52/19 43/54/19 52/55/19
f 52/55/19 43/54/19 45/56/19
f 52/55/19 45/56/19 54/57/19
f 54/57/19 45/56/19 71/58/19
f 71/58/19 45/56/19 55/59/19
f 71/58/19 55/59/19 70/60/19
f 70/60/19 55/59/19 57/61/19
f 70/60/19 57/61/19 68/62/19
f 68/62/19 57/61/19 60/63/19
f 68/62/19 60/63/19 66/64/19
f 66/64/19 60/63/19 62/65/19
f 66/64/19 62/65/19 64/66/19
f 27/45/18 31/44/18 29/43/18
f 31/44/18 27/45/18 25/47/18
f 31/44/18 25/47/18 33/46/18
f 33/46/18 25/47/18 36/49/18
f 33/46/18 36/49/18 37/48/18
f 37/48/18 36/49/18 47/51/18
f 37/48/18 47/51/18 40/50/18
f 40/50/18 47/51/18 49/53/18
f 40/50/18 49/53/18 42/52/18
f 42/52/18 49/53/18 51/54/18
f 42/52/18 51/54/18 44/55/18
f 44/55/18 51/54/18 53/56/18
f 44/55/18 53/56/18 46/57/18
f 46/57/18 53/56/18 72/59/18
f 46/57/18 72/59/18 56/58/18
f 56/58/18 72/59/18 69/61/18
f 56/58/18 69/61/18 58/60/18
f 58/60/18 69/61/18 67/63/18
f 58/60/18 67/63/18 59/62/18
f 59/62/18 67/63/18 65/65/18
f 59/62/18 65/65/18 61/64/18
f 61/64/18 65/65/18 63/66/18

