# Created by Kenney (www.kenney.nl)

mtllib gems_diamond_2.mtl

g mergedBlocks

v 0.4330127 -0.01740001 -0.25
v 0.4330127 -0.2154 -0.25
v 0.4829629 -0.01740001 -0.1294095
v 0.4829629 -0.2154 -0.1294095
v 0.5 -0.01740001 0
v 0.5 -0.2154 0
v 0.4829629 -0.01740001 0.1294095
v 0.4829629 -0.2154 0.1294095
v 0.4330127 -0.01740001 0.25
v 0.4330127 -0.2154 0.25
v 0.3535534 -0.2154 -0.3535534
v 0.3535534 -0.01740001 -0.3535534
v 0.3535534 -0.01740001 0.3535534
v 0.3535534 -0.2154 0.3535534
v 0.25 -0.2154 0.4330127
v 0.25 -0.01740001 0.4330127
v 0.1294095 -0.2154 0.4829629
v 0.1294095 -0.01740001 0.4829629
v 0 -0.2154 0.5
v 0 -0.01740001 0.5
v -0.1294095 -0.2154 0.4829629
v -0.1294095 -0.01740001 0.4829629
v 0.25 -0.01740001 -0.4330127
v 0.25 -0.2154 -0.4330127
v 0.1294095 -0.01740001 -0.4829629
v 0.1294095 -0.2154 -0.4829629
v 0 -0.01740001 -0.5
v 0 -0.2154 -0.5
v -0.1294095 -0.01740001 -0.4829629
v -0.1294095 -0.2154 -0.4829629
v -0.25 -0.2154 0.4330127
v -0.25 -0.01740001 0.4330127
v -0.3535534 -0.2154 0.3535534
v -0.3535534 -0.01740001 0.3535534
v -0.4330127 -0.01740001 0.25
v -0.4330127 -0.2154 0.25
v -0.4829629 -0.01740001 0.1294095
v -0.4829629 -0.2154 0.1294095
v -0.5 -0.01740001 0
v -0.5 -0.2154 0
v -0.4829629 -0.01740001 -0.1294095
v -0.4829629 -0.2154 -0.1294095
v -0.4330127 -0.01740001 -0.25
v -0.4330127 -0.2154 -0.25
v -0.3535534 -0.01740001 -0.3535534
v -0.3535534 -0.2154 -0.3535534
v -0.25 -0.2154 -0.4330127
v -0.25 -0.01740001 -0.4330127
v 0.09132189 0.2154 0.05106848
v 0.04641089 0.2154 0.07815292
v 0.09132189 0.2154 -0.003100395
v 0.04641089 0.2154 -0.08435372
v -0.04341111 0.2154 0.07815292
v 0.001499891 0.2154 -0.1114382
v -0.04341111 0.2154 -0.08435372
v -0.08832211 0.2154 0.05106848
v -0.08832211 0.2154 -0.003100395
v 0.1866999 0.129 0.108588
v 0.1866999 0.129 -0.1147888
v 0.001499891 0.129 0.2202764
v 0.001499891 0.129 -0.2264772
v -0.1837001 0.129 0.108588
v -0.1837001 0.129 -0.1147888
v 0.1628554 0.1506 -0.1004089
v -0.1121666 0.1938 -0.07164916
v 0.001499891 0.1722 0.1627569
v 0.09132189 -0.06540002 0.05106848
v 0.04641089 -0.06540002 0.07815292
v 0.09132189 -0.06540002 -0.003100395
v 0.04641089 -0.06540002 -0.08435372
v -0.04341111 -0.06540002 0.07815292
v 0.001499891 -0.06540002 -0.1114382
v -0.04341111 -0.06540002 -0.08435372
v -0.08832211 -0.06540002 0.05106848
v -0.08832211 -0.06540002 -0.003100395
v 0.1628554 0.08039998 -0.1004089
v -0.1121666 -0.01680002 -0.07164916
v 0.001499891 0.03179998 0.1627569

vn 0.8660254 0 -0.5
vn 0.9659259 0 -0.2588191
vn 1 0 0
vn 0.9659259 0 0.2588191
vn 0.8660254 0 0.5
vn 0.7071068 0 -0.7071068
vn 0.7071068 0 0.7071068
vn 0.5 0 0.8660254
vn 0.2588191 0 0.9659259
vn 0 0 1
vn -0.2588191 0 0.9659259
vn 0.5 0 -0.8660254
vn 0.2588191 0 -0.9659259
vn 0 0 -1
vn -0.2588191 0 -0.9659259
vn -0.5 0 0.8660254
vn -0.7071068 0 0.7071068
vn -0.8660254 0 0.5
vn -0.9659259 0 0.2588191
vn -1 0 0
vn -0.9659259 0 -0.2588191
vn -0.8660254 0 -0.5
vn -0.7071068 0 -0.7071068
vn -0.5 0 -0.8660254
vn 0 -1 0
vn 0 1 0
vn 0.3405211 0.7518107 -0.5646468
vn -0.3405211 0.7518107 -0.5646468
vn 0.6713645 0.7411273 0
vn 0.3405211 0.7518107 0.5646468
vn -0.6713645 0.7411273 0
vn -0.3405211 0.7518107 0.5646468
vn 0 0.8906139 0.4547603
vn 0.4451885 0.8609633 -0.2460682
vn -0.3248909 0.9285463 -0.1795764
vn 0.4606565 -0.4520215 -0.7638534
vn -0.4606565 -0.4520215 -0.7638534
vn 0.8977675 -0.4404695 0
vn 0.4606565 -0.4520215 0.7638534
vn -0.8977675 -0.4404695 0
vn -0.4606565 -0.4520215 0.7638534
vn 0 -0.656542 0.7542894
vn 0.699405 -0.6011556 -0.3865808
vn -0.5853059 -0.743475 -0.3235151

vt 0.25 -0.01740001
vt 0.25 -0.2154
vt 0.1294095 -0.01740001
vt 0.1294095 -0.2154
vt 0 -0.01740001
vt 0 -0.2154
vt -0.1294095 -0.01740001
vt -0.1294095 -0.2154
vt -0.25 -0.01740001
vt -0.25 -0.2154
vt 0.3535534 -0.2154
vt 0.3535534 -0.01740001
vt -0.3535534 -0.01740001
vt -0.3535534 -0.2154
vt -0.5 0
vt -0.4829629 0.1294095
vt -0.4829629 -0.1294095
vt -0.4330127 0.25
vt -0.4330127 -0.25
vt -0.3535534 0.3535534
vt -0.3535534 -0.3535534
vt -0.25 0.4330127
vt -0.25 -0.4330127
vt -0.1294095 0.4829629
vt -0.1294095 -0.4829629
vt 0 -0.5
vt 0 0.5
vt 0.1294095 -0.4829629
vt 0.1294095 0.4829629
vt 0.25 0.4330127
vt 0.25 -0.4330127
vt 0.3535534 0.3535534
vt 0.3535534 -0.3535534
vt 0.4330127 0.25
vt 0.4330127 -0.25
vt 0.4829629 0.1294095
vt 0.4829629 -0.1294095
vt 0.5 0
vt -0.09132189 0.05106848
vt -0.04641089 0.07815292
vt -0.09132189 -0.003100395
vt -0.04641089 -0.08435372
vt 0.04341111 0.07815292
vt -0.001499891 -0.1114382
vt 0.04341111 -0.08435372
vt 0.08832211 0.05106848
vt 0.08832211 -0.003100395
vt -0.1866999 -0.108588
vt -0.1866999 0.1147888
vt -0.001499891 -0.2202764
vt -0.001499891 0.2264772
vt 0.1837001 -0.108588
vt 0.1837001 0.1147888
vt -0.001499891 -0.2264772
vt -0.1866999 -0.1147888
vt -0.1628554 -0.1004089
vt 0.1837001 -0.1147888
vt 0.1121666 -0.07164916
vt -0.1866999 0.108588
vt -0.001499891 0.2202764
vt -0.001499891 0.1627569
vt 0.1837001 0.108588
vt 0.001499891 0.129
vt 0.1866999 0.129
vt 0.001499891 -0.06540002
vt 0.1628554 0.08039998
vt 0.04641089 -0.06540002
vt -0.1837001 0.129
vt -0.1121666 -0.01680002
vt -0.04341111 -0.06540002
vt -0.1147888 0.129
vt 0.108588 0.129
vt -0.1004089 0.08039998
vt -0.003100395 -0.06540002
vt 0.05106848 -0.06540002
vt -0.1866999 0.129
vt -0.001499891 0.129
vt -0.09132189 -0.06540002
vt -0.001499891 0.03179998
vt -0.04641089 -0.06540002
vt 0.1147888 0.129
vt 0.07164916 -0.01680002
vt -0.108588 0.129
vt 0.003100395 -0.06540002
vt -0.05106848 -0.06540002
vt 0.1837001 0.129
vt 0.08832211 -0.06540002
vt 0.04341111 -0.06540002
vt -0.08435372 -0.06540002

usemtl custom1(Clone)

f 3/3/2 2/2/1 1/1/1
f 2/2/1 3/3/2 4/4/2
f 5/5/3 4/4/2 3/3/2
f 4/4/2 5/5/3 6/6/3
f 7/7/4 6/6/3 5/5/3
f 6/6/3 7/7/4 8/8/4
f 9/9/5 8/8/4 7/7/4
f 8/8/4 9/9/5 10/10/5
f 11/11/6 1/1/1 2/2/1
f 1/1/1 11/11/6 12/12/6
f 13/13/7 10/10/5 9/9/5
f 10/10/5 13/13/7 14/14/7
f 13/12/7 15/2/8 14/11/7
f 15/2/8 13/12/7 16/1/8
f 16/1/8 17/4/9 15/2/8
f 17/4/9 16/1/8 18/3/9
f 18/3/9 19/6/10 17/4/9
f 19/6/10 18/3/9 20/5/10
f 20/5/10 21/8/11 19/6/10
f 21/8/11 20/5/10 22/7/11
f 11/14/6 23/9/12 12/13/6
f 23/9/12 11/14/6 24/10/12
f 24/10/12 25/7/13 23/9/12
f 25/7/13 24/10/12 26/8/13
f 26/8/13 27/5/14 25/7/13
f 27/5/14 26/8/13 28/6/14
f 28/6/14 29/3/15 27/5/14
f 29/3/15 28/6/14 30/4/15
f 22/7/11 31/10/16 21/8/11
f 31/10/16 22/7/11 32/9/16
f 32/9/16 33/14/17 31/10/16
f 33/14/17 32/9/16 34/13/17
f 35/1/18 33/11/17 34/12/17
f 33/11/17 35/1/18 36/2/18
f 37/3/19 36/2/18 35/1/18
f 36/2/18 37/3/19 38/4/19
f 39/5/20 38/4/19 37/3/19
f 38/4/19 39/5/20 40/6/20
f 41/7/21 40/6/20 39/5/20
f 40/6/20 41/7/21 42/8/21
f 43/9/22 42/8/21 41/7/21
f 42/8/21 43/9/22 44/10/22
f 45/13/23 44/10/22 43/9/22
f 44/10/22 45/13/23 46/14/23
f 45/12/23 47/2/24 46/11/23
f 47/2/24 45/12/23 48/1/24
f 48/1/24 30/4/15 47/2/24
f 30/4/15 48/1/24 29/3/15
f 8/17/25 4/16/25 6/15/25
f 4/16/25 8/17/25 2/18/25
f 2/18/25 8/17/25 10/19/25
f 2/18/25 10/19/25 11/20/25
f 11/20/25 10/19/25 14/21/25
f 11/20/25 14/21/25 24/22/25
f 24/22/25 14/21/25 15/23/25
f 24/22/25 15/23/25 26/24/25
f 26/24/25 15/23/25 17/25/25
f 26/24/25 17/25/25 19/26/25
f 26/24/25 19/26/25 28/27/25
f 28/27/25 19/26/25 21/28/25
f 28/27/25 21/28/25 30/29/25
f 30/29/25 21/28/25 47/30/25
f 47/30/25 21/28/25 31/31/25
f 47/30/25 31/31/25 46/32/25
f 46/32/25 31/31/25 33/33/25
f 46/32/25 33/33/25 44/34/25
f 44/34/25 33/33/25 36/35/25
f 44/34/25 36/35/25 42/36/25
f 42/36/25 36/35/25 38/37/25
f 42/36/25 38/37/25 40/38/25
f 3/17/26 7/16/26 5/15/26
f 7/16/26 3/17/26 1/19/26
f 7/16/26 1/19/26 9/18/26
f 9/18/26 1/19/26 12/21/26
f 9/18/26 12/21/26 13/20/26
f 13/20/26 12/21/26 23/23/26
f 13/20/26 23/23/26 16/22/26
f 16/22/26 23/23/26 25/25/26
f 16/22/26 25/25/26 18/24/26
f 18/24/26 25/25/26 27/26/26
f 18/24/26 27/26/26 20/27/26
f 20/27/26 27/26/26 29/28/26
f 20/27/26 29/28/26 22/29/26
f 22/29/26 29/28/26 48/31/26
f 22/29/26 48/31/26 32/30/26
f 32/30/26 48/31/26 45/33/26
f 32/30/26 45/33/26 34/32/26
f 34/32/26 45/33/26 43/35/26
f 34/32/26 43/35/26 35/34/26
f 35/34/26 43/35/26 41/37/26
f 35/34/26 41/37/26 37/36/26
f 37/36/26 41/37/26 39/38/26

usemtl custom7(Clone)

f 51/41/26 50/40/26 49/39/26
f 50/40/26 51/41/26 52/42/26
f 50/40/26 52/42/26 53/43/26
f 53/43/26 52/42/26 54/44/26
f 53/43/26 54/44/26 55/45/26
f 53/43/26 55/45/26 56/46/26
f 56/46/26 55/45/26 57/47/26
f 60/50/25 59/49/25 58/48/25
f 59/49/25 60/50/25 61/51/25
f 61/51/25 60/50/25 62/52/25
f 61/51/25 62/52/25 63/53/25
f 54/44/27 59/55/27 61/54/27
f 59/55/27 54/44/27 64/56/27
f 64/56/27 54/44/27 52/42/27
f 65/58/28 61/54/28 63/57/28
f 61/54/28 65/58/28 54/44/28
f 54/44/28 65/58/28 55/45/28
f 64/56/29 58/59/29 59/55/29
f 58/59/29 64/56/29 51/41/29
f 58/59/29 51/41/29 49/39/29
f 49/39/30 60/60/30 58/59/30
f 60/60/30 49/39/30 66/61/30
f 66/61/30 49/39/30 50/40/30
f 62/62/31 65/58/31 63/57/31
f 65/58/31 62/62/31 57/47/31
f 57/47/31 62/62/31 56/46/31
f 66/61/32 62/62/32 60/60/32
f 62/62/32 66/61/32 56/46/32
f 56/46/32 66/61/32 53/43/32
f 53/43/33 66/61/33 50/40/33
f 51/41/34 64/56/34 52/42/34
f 57/47/35 55/45/35 65/58/35
f 77/58/44 73/45/44 75/47/44
f 70/89/43 76/73/43 69/74/43
f 68/80/42 78/79/42 71/88/42
f 71/88/41 78/79/41 74/87/41
f 74/87/41 78/79/41 62/86/41
f 60/77/41 62/86/41 78/79/41
f 74/85/40 62/83/40 75/84/40
f 75/84/40 62/83/40 77/82/40
f 63/81/40 77/82/40 62/83/40
f 68/80/39 67/78/39 78/79/39
f 78/79/39 67/78/39 60/77/39
f 58/76/39 60/77/39 67/78/39
f 67/75/38 69/74/38 58/72/38
f 69/74/38 76/73/38 58/72/38
f 59/71/38 58/72/38 76/73/38
f 73/70/37 77/69/37 72/65/37
f 72/65/37 77/69/37 61/63/37
f 63/68/37 61/63/37 77/69/37
f 70/67/36 72/65/36 76/66/36
f 76/66/36 72/65/36 59/64/36
f 61/63/36 59/64/36 72/65/36
f 63/53/26 62/52/26 61/51/26
f 62/52/26 60/50/26 61/51/26
f 61/51/26 60/50/26 59/49/26
f 58/48/26 59/49/26 60/50/26
f 75/47/25 73/45/25 74/46/25
f 74/46/25 73/45/25 71/43/25
f 73/45/25 72/44/25 71/43/25
f 72/44/25 70/42/25 71/43/25
f 71/43/25 70/42/25 68/40/25
f 70/42/25 69/41/25 68/40/25
f 67/39/25 68/40/25 69/41/25

