# Created by Kenney (www.kenney.nl)

mtllib gems_sapphire_2.mtl

g mergedBlocks

v 0.4330127 -0.05339999 -0.25
v 0.4330127 -0.2514 -0.25
v 0.4829629 -0.05339999 -0.1294095
v 0.4829629 -0.2514 -0.1294095
v 0.5 -0.05339999 0
v 0.5 -0.2514 0
v 0.4829629 -0.05339999 0.1294095
v 0.4829629 -0.2514 0.1294095
v 0.4330127 -0.05339999 0.25
v 0.4330127 -0.2514 0.25
v 0.3535534 -0.2514 -0.3535534
v 0.3535534 -0.05339999 -0.3535534
v 0.3535534 -0.05339999 0.3535534
v 0.3535534 -0.2514 0.3535534
v 0.25 -0.2514 0.4330127
v 0.25 -0.05339999 0.4330127
v 0.1294095 -0.2514 0.4829629
v 0.1294095 -0.05339999 0.4829629
v 0 -0.2514 0.5
v 0 -0.05339999 0.5
v -0.1294095 -0.2514 0.4829629
v -0.1294095 -0.05339999 0.4829629
v 0.25 -0.05339999 -0.4330127
v 0.25 -0.2514 -0.4330127
v 0.1294095 -0.05339999 -0.4829629
v 0.1294095 -0.2514 -0.4829629
v 0 -0.05339999 -0.5
v 0 -0.2514 -0.5
v -0.1294095 -0.05339999 -0.4829629
v -0.1294095 -0.2514 -0.4829629
v -0.25 -0.2514 0.4330127
v -0.25 -0.05339999 0.4330127
v -0.3535534 -0.2514 0.3535534
v -0.3535534 -0.05339999 0.3535534
v -0.4330127 -0.05339999 0.25
v -0.4330127 -0.2514 0.25
v -0.4829629 -0.05339999 0.1294095
v -0.4829629 -0.2514 0.1294095
v -0.5 -0.05339999 0
v -0.5 -0.2514 0
v -0.4829629 -0.05339999 -0.1294095
v -0.4829629 -0.2514 -0.1294095
v -0.4330127 -0.05339999 -0.25
v -0.4330127 -0.2514 -0.25
v -0.3535534 -0.05339999 -0.3535534
v -0.3535534 -0.2514 -0.3535534
v -0.25 -0.2514 -0.4330127
v -0.25 -0.05339999 -0.4330127
v -0.002300024 0.07500002 0.2605579
v 0.0550411 0.07500001 0.2264
v -0.002300027 0.03972002 0.2605579
v 0.2117 0.075 0.1330789
v 0.2117 0.03972 0.1330789
v -0.2163 0.03972004 -0.121879
v -0.2163 0.03972004 0.1330789
v -0.05580004 -0.1014 -0.02626976
v -0.05580004 -0.1014 0.03746971
v -0.002300027 0.03972002 -0.2493579
v -0.002300039 -0.1014 -0.0581395
v 0.2117 0.075 -0.121879
v 0.2117 0.03972 -0.121879
v -0.2163 0.07500004 0.1330789
v -0.05964115 0.07500003 0.2264
v -0.2163 0.07500004 -0.121879
v 0.05119996 -0.1014 -0.02626976
v 0.05119996 -0.1014 0.03746971
v -0.002300024 0.07500002 -0.2493579
v -0.05964115 0.07500003 -0.2152
v -0.002300039 -0.1014 0.06933945
v 0.0550411 0.07500001 -0.2152
v -0.05964115 0.07500002 0.2264
v -0.002300024 0.11028 0.2605579
v -0.2163 0.07500002 0.1330789
v -0.2163 0.11028 0.1330789
v 0.2117 0.11028 -0.121879
v 0.2117 0.11028 0.1330789
v 0.05119998 0.2514 -0.02626976
v 0.05119998 0.2514 0.03746971
v -0.002300024 0.11028 -0.2493579
v -0.002300024 0.2514 -0.0581395
v -0.2163 0.07500002 -0.121879
v -0.2163 0.11028 -0.121879
v 0.2117 0.07500002 0.1330789
v 0.0550411 0.07500002 0.2264
v 0.2117 0.07500002 -0.121879
v -0.05580002 0.2514 -0.02626976
v -0.05580002 0.2514 0.03746971
v 0.0550411 0.07500002 -0.2152
v -0.002300024 0.2514 0.06933945
v -0.05964115 0.07500002 -0.2152

vn 0.8660254 0 -0.5
vn 0.9659259 0 -0.2588191
vn 1 0 0
vn 0.9659259 0 0.2588191
vn 0.8660254 0 0.5
vn 0.7071068 0 -0.7071068
vn 0.7071068 0 0.7071068
vn 0.5 0 0.8660254
vn 0.2588191 0 0.9659259
vn 0 0 1
vn -0.2588191 0 0.9659259
vn 0.5 0 -0.8660254
vn 0.2588191 0 -0.9659259
vn 0 0 -1
vn -0.2588191 0 -0.9659259
vn -0.5 0 0.8660254
vn -0.7071068 0 0.7071068
vn -0.8660254 0 0.5
vn -0.9659259 0 0.2588191
vn -1 0 0
vn -0.9659259 0 -0.2588191
vn -0.8660254 0 -0.5
vn -0.7071068 0 -0.7071068
vn -0.5 0 -0.8660254
vn 0 -1 0
vn 0 1 0
vn 0.5117743 -4.474073E-08 0.85912
vn -0.6603115 -0.7509919 0
vn -0.333479 -0.7585512 -0.559814
vn 1 -8.742277E-08 0
vn -0.5117743 4.474073E-08 0.85912
vn -1 8.742277E-08 0
vn 0.6603114 -0.750992 0
vn -0.5117743 4.474073E-08 -0.85912
vn 0.3334789 -0.7585513 0.559814
vn -0.333479 -0.7585512 0.559814
vn 0.3334789 -0.7585513 -0.559814
vn -8.742278E-08 -1 0
vn 0.5117743 -4.474073E-08 -0.85912
vn 8.742278E-08 1 0
vn -0.5117743 0 0.85912
vn 0.6603115 0.7509919 0
vn 0.333479 0.7585512 -0.559814
vn 0.5117743 0 0.85912
vn -0.6603115 0.7509919 0
vn 0.5117743 0 -0.85912
vn -0.333479 0.7585512 0.559814
vn 0.333479 0.7585512 0.559814
vn -0.333479 0.7585512 -0.559814
vn -0.5117743 0 -0.85912

vt 0.25 -0.05339999
vt 0.25 -0.2514
vt 0.1294095 -0.05339999
vt 0.1294095 -0.2514
vt 0 -0.05339999
vt 0 -0.2514
vt -0.1294095 -0.05339999
vt -0.1294095 -0.2514
vt -0.25 -0.05339999
vt -0.25 -0.2514
vt 0.3535534 -0.2514
vt 0.3535534 -0.05339999
vt -0.3535534 -0.05339999
vt -0.3535534 -0.2514
vt -0.5 0
vt -0.4829629 0.1294095
vt -0.4829629 -0.1294095
vt -0.4330127 0.25
vt -0.4330127 -0.25
vt -0.3535534 0.3535534
vt -0.3535534 -0.3535534
vt -0.25 0.4330127
vt -0.25 -0.4330127
vt -0.1294095 0.4829629
vt -0.1294095 -0.4829629
vt 0 -0.5
vt 0 0.5
vt 0.1294095 -0.4829629
vt 0.1294095 0.4829629
vt 0.25 0.4330127
vt 0.25 -0.4330127
vt 0.3535534 0.3535534
vt 0.3535534 -0.3535534
vt 0.4330127 0.25
vt 0.4330127 -0.25
vt 0.4829629 0.1294095
vt 0.4829629 -0.1294095
vt 0.5 0
vt -0.002300024 0.07500002
vt 0.0550411 0.07500001
vt -0.002300027 0.03972002
vt 0.2117 0.075
vt 0.2117 0.03972
vt 0.2163 0.121879
vt 0.2163 -0.1330789
vt 0.05580004 0.02626976
vt 0.05580004 -0.03746971
vt 0.002300027 0.2493579
vt 0.002300039 0.05813949
vt 0.121879 0.075
vt 0.121879 0.03972
vt -0.1330789 0.075
vt -0.1330789 0.03972
vt -0.2163 0.07500004
vt -0.05964115 0.07500003
vt -0.2163 0.03972004
vt -0.121879 0.03972004
vt -0.121879 0.07500004
vt 0.1330789 0.03972004
vt 0.1330789 0.07500004
vt -0.2117 0.121879
vt -0.05119996 0.02626976
vt -0.2117 -0.1330789
vt -0.05119996 -0.03746971
vt 0.002300024 0.07500002
vt 0.05964115 0.07500003
vt 0.002300027 0.03972002
vt 0.2163 0.07500004
vt 0.2163 0.03972004
vt 0.002300039 -0.06933945
vt 0.002300027 -0.2605579
vt -0.2117 0.075
vt -0.0550411 0.07500001
vt -0.2117 0.03972
vt 0.2163 0.1330789
vt 0.2163 -0.121879
vt 0.05964115 0.2264
vt 0.05964115 -0.2152
vt 0.002300024 -0.2493579
vt 0.002300024 0.2605579
vt -0.0550411 0.2264
vt -0.0550411 -0.2152
vt -0.2117 0.1330789
vt -0.2117 -0.121879
vt -0.05964115 0.07500002
vt -0.002300024 0.11028
vt -0.2163 0.07500002
vt -0.2163 0.11028
vt -0.05119998 -0.02626976
vt -0.05119998 0.03746971
vt 0.002300024 -0.05813949
vt -0.121879 0.07500002
vt -0.121879 0.11028
vt 0.1330789 0.07500002
vt 0.1330789 0.11028
vt 0.2117 0.07500002
vt 0.0550411 0.07500002
vt 0.2117 0.11028
vt 0.121879 0.11028
vt 0.121879 0.07500002
vt -0.1330789 0.11028
vt -0.1330789 0.07500002
vt 0.05580002 -0.02626976
vt 0.05580002 0.03746971
vt -0.0550411 0.07500002
vt 0.002300024 0.11028
vt -0.2117 0.07500002
vt -0.2117 0.11028
vt 0.002300024 0.06933945
vt 0.2163 0.07500002
vt 0.05964115 0.07500002
vt 0.2163 0.11028
vt -0.0550411 -0.2264
vt -0.0550411 0.2152
vt 0.002300024 0.2493579
vt 0.002300024 -0.2605579
vt 0.05964115 -0.2264
vt 0.05964115 0.2152

usemtl custom1(Clone)

f 3/3/2 2/2/1 1/1/1
f 2/2/1 3/3/2 4/4/2
f 5/5/3 4/4/2 3/3/2
f 4/4/2 5/5/3 6/6/3
f 7/7/4 6/6/3 5/5/3
f 6/6/3 7/7/4 8/8/4
f 9/9/5 8/8/4 7/7/4
f 8/8/4 9/9/5 10/10/5
f 11/11/6 1/1/1 2/2/1
f 1/1/1 11/11/6 12/12/6
f 13/13/7 10/10/5 9/9/5
f 10/10/5 13/13/7 14/14/7
f 13/12/7 15/2/8 14/11/7
f 15/2/8 13/12/7 16/1/8
f 16/1/8 17/4/9 15/2/8
f 17/4/9 16/1/8 18/3/9
f 18/3/9 19/6/10 17/4/9
f 19/6/10 18/3/9 20/5/10
f 20/5/10 21/8/11 19/6/10
f 21/8/11 20/5/10 22/7/11
f 11/14/6 23/9/12 12/13/6
f 23/9/12 11/14/6 24/10/12
f 24/10/12 25/7/13 23/9/12
f 25/7/13 24/10/12 26/8/13
f 26/8/13 27/5/14 25/7/13
f 27/5/14 26/8/13 28/6/14
f 28/6/14 29/3/15 27/5/14
f 29/3/15 28/6/14 30/4/15
f 22/7/11 31/10/16 21/8/11
f 31/10/16 22/7/11 32/9/16
f 32/9/16 33/14/17 31/10/16
f 33/14/17 32/9/16 34/13/17
f 35/1/18 33/11/17 34/12/17
f 33/11/17 35/1/18 36/2/18
f 37/3/19 36/2/18 35/1/18
f 36/2/18 37/3/19 38/4/19
f 39/5/20 38/4/19 37/3/19
f 38/4/19 39/5/20 40/6/20
f 41/7/21 40/6/20 39/5/20
f 40/6/20 41/7/21 42/8/21
f 43/9/22 42/8/21 41/7/21
f 42/8/21 43/9/22 44/10/22
f 45/13/23 44/10/22 43/9/22
f 44/10/22 45/13/23 46/14/23
f 45/12/23 47/2/24 46/11/23
f 47/2/24 45/12/23 48/1/24
f 48/1/24 30/4/15 47/2/24
f 30/4/15 48/1/24 29/3/15
f 8/17/25 4/16/25 6/15/25
f 4/16/25 8/17/25 2/18/25
f 2/18/25 8/17/25 10/19/25
f 2/18/25 10/19/25 11/20/25
f 11/20/25 10/19/25 14/21/25
f 11/20/25 14/21/25 24/22/25
f 24/22/25 14/21/25 15/23/25
f 24/22/25 15/23/25 26/24/25
f 26/24/25 15/23/25 17/25/25
f 26/24/25 17/25/25 19/26/25
f 26/24/25 19/26/25 28/27/25
f 28/27/25 19/26/25 21/28/25
f 28/27/25 21/28/25 30/29/25
f 30/29/25 21/28/25 47/30/25
f 47/30/25 21/28/25 31/31/25
f 47/30/25 31/31/25 46/32/25
f 46/32/25 31/31/25 33/33/25
f 46/32/25 33/33/25 44/34/25
f 44/34/25 33/33/25 36/35/25
f 44/34/25 36/35/25 42/36/25
f 42/36/25 36/35/25 38/37/25
f 42/36/25 38/37/25 40/38/25
f 3/17/26 7/16/26 5/15/26
f 7/16/26 3/17/26 1/19/26
f 7/16/26 1/19/26 9/18/26
f 9/18/26 1/19/26 12/21/26
f 9/18/26 12/21/26 13/20/26
f 13/20/26 12/21/26 23/23/26
f 13/20/26 23/23/26 16/22/26
f 16/22/26 23/23/26 25/25/26
f 16/22/26 25/25/26 18/24/26
f 18/24/26 25/25/26 27/26/26
f 18/24/26 27/26/26 20/27/26
f 20/27/26 27/26/26 29/28/26
f 20/27/26 29/28/26 22/29/26
f 22/29/26 29/28/26 48/31/26
f 22/29/26 48/31/26 32/30/26
f 32/30/26 48/31/26 45/33/26
f 32/30/26 45/33/26 34/32/26
f 34/32/26 45/33/26 43/35/26
f 34/32/26 43/35/26 35/34/26
f 35/34/26 43/35/26 41/37/26
f 35/34/26 41/37/26 37/36/26
f 37/36/26 41/37/26 39/38/26

usemtl custom10(Clone)

f 51/41/27 50/40/27 49/39/27
f 50/40/27 51/41/27 52/42/27
f 52/42/27 51/41/27 53/43/27
f 56/46/28 55/45/28 54/44/28
f 55/45/28 56/46/28 57/47/28
f 58/48/29 56/46/29 54/44/29
f 56/46/29 58/48/29 59/49/29
f 52/52/30 61/51/30 60/50/30
f 61/51/30 52/52/30 53/53/30
f 55/56/31 63/55/31 62/54/31
f 63/55/31 55/56/31 49/39/31
f 49/39/31 55/56/31 51/41/31
f 55/59/32 64/58/32 54/57/32
f 64/58/32 55/59/32 62/60/32
f 53/63/33 65/62/33 61/61/33
f 65/62/33 53/63/33 66/64/33
f 58/67/34 68/66/34 67/65/34
f 68/66/34 58/67/34 64/68/34
f 64/68/34 58/67/34 54/69/34
f 66/64/35 51/71/35 69/70/35
f 51/71/35 66/64/35 53/63/35
f 57/47/36 51/71/36 55/45/36
f 51/71/36 57/47/36 69/70/36
f 58/48/37 65/62/37 59/49/37
f 65/62/37 58/48/37 61/61/37
f 59/49/38 57/47/38 56/46/38
f 57/47/38 59/49/38 69/70/38
f 69/70/38 59/49/38 65/62/38
f 69/70/38 65/62/38 66/64/38
f 61/74/39 70/73/39 60/72/39
f 70/73/39 61/74/39 67/65/39
f 67/65/39 61/74/39 58/67/39
f 63/77/40 64/76/40 62/75/40
f 64/76/40 63/77/40 68/78/40
f 68/78/40 63/77/40 67/79/40
f 67/79/40 63/77/40 49/80/40
f 67/79/40 49/80/40 50/81/40
f 67/79/40 50/81/40 70/82/40
f 70/82/40 50/81/40 52/83/40
f 70/82/40 52/83/40 60/84/40
f 72/86/41 71/85/41 49/39/41
f 71/85/41 72/86/41 73/87/41
f 73/87/41 72/86/41 74/88/41
f 77/89/42 76/83/42 75/84/42
f 76/83/42 77/89/42 78/90/42
f 79/79/43 77/89/43 75/84/43
f 77/89/43 79/79/43 80/91/43
f 73/94/20 82/93/20 81/92/20
f 82/93/20 73/94/20 74/95/20
f 76/98/44 84/97/44 83/96/44
f 84/97/44 76/98/44 49/39/44
f 49/39/44 76/98/44 72/86/44
f 76/101/3 85/100/3 75/99/3
f 85/100/3 76/101/3 83/102/3
f 74/75/45 86/103/45 82/76/45
f 86/103/45 74/75/45 87/104/45
f 79/106/46 88/105/46 67/65/46
f 88/105/46 79/106/46 85/107/46
f 85/107/46 79/106/46 75/108/46
f 87/104/47 72/80/47 89/109/47
f 72/80/47 87/104/47 74/75/47
f 78/90/48 72/80/48 76/83/48
f 72/80/48 78/90/48 89/109/48
f 79/79/49 86/103/49 80/91/49
f 86/103/49 79/79/49 82/76/49
f 80/91/26 78/90/26 77/89/26
f 78/90/26 80/91/26 89/109/26
f 89/109/26 80/91/26 86/103/26
f 89/109/26 86/103/26 87/104/26
f 82/112/50 90/111/50 81/110/50
f 90/111/50 82/112/50 67/65/50
f 67/65/50 82/112/50 79/106/50
f 84/113/25 85/61/25 83/63/25
f 85/61/25 84/113/25 88/114/25
f 88/114/25 84/113/25 67/115/25
f 67/115/25 84/113/25 49/116/25
f 67/115/25 49/116/25 71/117/25
f 67/115/25 71/117/25 90/118/25
f 90/118/25 71/117/25 73/45/25
f 90/118/25 73/45/25 81/44/25

