# Created by Kenney (www.kenney.nl)

mtllib gems_emerald_4.mtl

g mergedBlocks

v -0.159125 0.45 0.159125
v 0.168925 0.45 0.159125
v -0.159125 0.1799999 0.3910914
v 0.168925 0.1799999 0.3910914
v -0.3910914 0.18 -0.168925
v -0.3910914 0.18 0.159125
v -0.159125 0.1799999 -0.4008914
v 0.168925 0.1799999 -0.4008914
v 0.4008914 0.1799999 -0.168925
v 0.4008914 0.1799999 0.159125
v -0.159125 0.45 -0.168925
v 0.168925 0.45 -0.168925
v -0.159125 -0.45 -0.168925
v 0.168925 -0.45 -0.168925
v -0.159125 0.18 -0.4008914
v 0.168925 0.18 -0.4008914
v -0.3910914 0.18 0.159125
v -0.3910913 0.18 -0.168925
v -0.159125 0.18 0.3910914
v 0.168925 0.18 0.3910914
v 0.4008914 0.18 0.1591251
v 0.4008914 0.18 -0.168925
v -0.159125 -0.45 0.159125
v 0.168925 -0.45 0.159125
v 0.4330127 -0.252 -0.25
v 0.4330127 -0.45 -0.25
v 0.4829629 -0.252 -0.1294095
v 0.4829629 -0.45 -0.1294095
v 0.5 -0.252 0
v 0.5 -0.45 0
v 0.4829629 -0.252 0.1294095
v 0.4829629 -0.45 0.1294095
v 0.4330127 -0.252 0.25
v 0.4330127 -0.45 0.25
v 0.3535534 -0.45 -0.3535534
v 0.3535534 -0.252 -0.3535534
v 0.3535534 -0.252 0.3535534
v 0.3535534 -0.45 0.3535534
v 0.25 -0.45 0.4330127
v 0.25 -0.252 0.4330127
v 0.1294095 -0.45 0.4829629
v 0.1294095 -0.252 0.4829629
v 0 -0.45 0.5
v 0 -0.252 0.5
v -0.1294095 -0.45 0.4829629
v -0.1294095 -0.252 0.4829629
v 0.25 -0.252 -0.4330127
v 0.25 -0.45 -0.4330127
v 0.1294095 -0.252 -0.4829629
v 0.1294095 -0.45 -0.4829629
v 0 -0.252 -0.5
v 0 -0.45 -0.5
v -0.1294095 -0.252 -0.4829629
v -0.1294095 -0.45 -0.4829629
v -0.25 -0.45 0.4330127
v -0.25 -0.252 0.4330127
v -0.3535534 -0.45 0.3535534
v -0.3535534 -0.252 0.3535534
v -0.4330127 -0.252 0.25
v -0.4330127 -0.45 0.25
v -0.4829629 -0.252 0.1294095
v -0.4829629 -0.45 0.1294095
v -0.5 -0.252 0
v -0.5 -0.45 0
v -0.4829629 -0.252 -0.1294095
v -0.4829629 -0.45 -0.1294095
v -0.4330127 -0.252 -0.25
v -0.4330127 -0.45 -0.25
v -0.3535534 -0.252 -0.3535534
v -0.3535534 -0.45 -0.3535534
v -0.25 -0.45 -0.4330127
v -0.25 -0.252 -0.4330127

vn 5.697009E-08 0.6516619 0.7585096
vn -8.742278E-08 -1 0
vn -0.7585095 0.651662 0
vn 8.742278E-08 1 0
vn -0.6043303 0.5192012 -0.6043304
vn 0.7585096 0.6516619 0
vn 0.6043303 0.519201 -0.6043303
vn 0.6043303 0.519201 0.6043303
vn -0.6043303 0.5192012 0.6043304
vn 5.697009E-08 0.6516619 -0.7585096
vn 8.203842E-08 -0.3455232 -0.9384102
vn 0 1 0
vn -0.9384102 -0.3455232 -8.203843E-08
vn 0 -1 0
vn -0.6842943 -0.2519576 0.6842942
vn 0.9384102 -0.3455232 8.203843E-08
vn 0.6842942 -0.2519576 0.6842943
vn 0.6842943 -0.2519576 -0.6842942
vn -0.6842942 -0.2519576 -0.6842943
vn -8.203842E-08 -0.3455232 0.9384102
vn 0.8660254 0 -0.5
vn 0.9659259 0 -0.2588191
vn 1 0 0
vn 0.9659259 0 0.2588191
vn 0.8660254 0 0.5
vn 0.7071068 0 -0.7071068
vn 0.7071068 0 0.7071068
vn 0.5 0 0.8660254
vn 0.2588191 0 0.9659259
vn 0 0 1
vn -0.2588191 0 0.9659259
vn 0.5 0 -0.8660254
vn 0.2588191 0 -0.9659259
vn 0 0 -1
vn -0.2588191 0 -0.9659259
vn -0.5 0 0.8660254
vn -0.7071068 0 0.7071068
vn -0.8660254 0 0.5
vn -0.9659259 0 0.2588191
vn -1 0 0
vn -0.9659259 0 -0.2588191
vn -0.8660254 0 -0.5
vn -0.7071068 0 -0.7071068
vn -0.5 0 -0.8660254

vt -0.159125 0.45
vt 0.168925 0.45
vt -0.159125 0.18
vt 0.168925 0.1799999
vt 0.3910914 0.168925
vt 0.3910914 -0.159125
vt 0.159125 0.4008914
vt 0.159125 -0.3910914
vt -0.168925 0.4008914
vt -0.168925 -0.3910914
vt -0.4008914 0.168925
vt -0.4008914 -0.159125
vt -0.168925 0.45
vt 0.159125 0.45
vt -0.168925 0.18
vt 0.159125 0.18
vt 0.159125 0.159125
vt 0.159125 -0.168925
vt -0.168925 0.159125
vt -0.168925 -0.168925
vt 0.159125 0.18
vt 0.159125 0.45
vt 0.3910914 0.18
vt 0.168925 0.1799999
vt -0.159125 0.1799999
vt 0.168925 0.45
vt -0.159125 0.45
vt -0.4008914 0.1799999
vt -0.168925 0.45
vt -0.168925 0.1799999
vt 0.4008914 0.1799999
vt -0.3910914 0.18
vt 0.159125 -0.45
vt -0.168925 -0.45
vt 0.1591249 0.18
vt -0.168925 0.18
vt 0.3910914 0.159125
vt 0.3910913 -0.168925
vt 0.159125 0.3910914
vt 0.1591249 -0.4008914
vt -0.168925 0.3910914
vt -0.168925 -0.4008914
vt -0.4008914 0.1591251
vt -0.4008914 -0.168925
vt 0.159125 -0.45
vt -0.168925 -0.45
vt 0.159125 0.18
vt -0.168925 0.18
vt 0.159125 0.168925
vt 0.159125 -0.159125
vt -0.168925 0.168925
vt -0.168925 -0.159125
vt -0.1591251 0.18
vt 0.168925 0.18
vt -0.159125 -0.45
vt 0.168925 -0.45
vt 0.4008914 0.18
vt 0.168925 -0.45
vt 0.168925 0.18
vt 0.4008914 0.18
vt 0.3910913 0.18
vt -0.159125 -0.45
vt -0.159125 0.18
vt 0.25 -0.252
vt 0.25 -0.45
vt 0.1294095 -0.252
vt 0.1294095 -0.45
vt 0 -0.252
vt 0 -0.45
vt -0.1294095 -0.252
vt -0.1294095 -0.45
vt -0.25 -0.252
vt -0.25 -0.45
vt 0.3535534 -0.45
vt 0.3535534 -0.252
vt -0.3535534 -0.252
vt -0.3535534 -0.45
vt -0.5 0
vt -0.4829629 0.1294095
vt -0.4829629 -0.1294095
vt -0.4330127 0.25
vt -0.4330127 -0.25
vt -0.3535534 0.3535534
vt -0.3535534 -0.3535534
vt -0.25 0.4330127
vt -0.25 -0.4330127
vt -0.1294095 0.4829629
vt -0.1294095 -0.4829629
vt 0 -0.5
vt 0 0.5
vt 0.1294095 -0.4829629
vt 0.1294095 0.4829629
vt 0.25 0.4330127
vt 0.25 -0.4330127
vt 0.3535534 0.3535534
vt 0.3535534 -0.3535534
vt 0.4330127 0.25
vt 0.4330127 -0.25
vt 0.4829629 0.1294095
vt 0.4829629 -0.1294095
vt 0.5 0

usemtl foliage(Clone)

f 3/3/1 2/2/1 1/1/1
f 2/2/1 3/3/1 4/4/1
f 7/7/2 6/6/2 5/5/2
f 6/6/2 7/7/2 3/8/2
f 3/8/2 7/7/2 8/9/2
f 3/8/2 8/9/2 4/10/2
f 4/10/2 8/9/2 9/11/2
f 4/10/2 9/11/2 10/12/2
f 5/15/3 1/14/3 11/13/3
f 1/14/3 5/15/3 6/16/3
f 2/19/4 11/18/4 1/17/4
f 11/18/4 2/19/4 12/20/4
f 5/23/5 11/22/5 7/21/5
f 12/26/6 10/25/6 9/24/6
f 10/25/6 12/26/6 2/27/6
f 8/30/7 12/29/7 9/28/7
f 4/4/8 10/31/8 2/2/8
f 3/3/9 1/1/9 6/32/9
f 8/30/10 11/22/10 12/29/10
f 11/22/10 8/30/10 7/21/10
f 15/35/11 14/34/11 13/33/11
f 14/34/11 15/35/11 16/36/11
f 19/39/12 18/38/12 17/37/12
f 18/38/12 19/39/12 15/40/12
f 15/40/12 19/39/12 20/41/12
f 15/40/12 20/41/12 16/42/12
f 16/42/12 20/41/12 21/43/12
f 16/42/12 21/43/12 22/44/12
f 17/47/13 13/46/13 23/45/13
f 13/46/13 17/47/13 18/48/13
f 14/51/14 23/50/14 13/49/14
f 23/50/14 14/51/14 24/52/14
f 17/47/15 23/45/15 19/23/15
f 24/55/16 22/54/16 21/53/16
f 22/54/16 24/55/16 14/56/16
f 20/59/17 24/58/17 21/57/17
f 16/60/18 22/54/18 14/56/18
f 15/35/19 13/33/19 18/61/19
f 20/59/20 23/62/20 24/58/20
f 23/62/20 20/59/20 19/63/20

usemtl custom1(Clone)

f 27/66/22 26/65/21 25/64/21
f 26/65/21 27/66/22 28/67/22
f 29/68/23 28/67/22 27/66/22
f 28/67/22 29/68/23 30/69/23
f 31/70/24 30/69/23 29/68/23
f 30/69/23 31/70/24 32/71/24
f 33/72/25 32/71/24 31/70/24
f 32/71/24 33/72/25 34/73/25
f 35/74/26 25/64/21 26/65/21
f 25/64/21 35/74/26 36/75/26
f 37/76/27 34/73/25 33/72/25
f 34/73/25 37/76/27 38/77/27
f 37/75/27 39/65/28 38/74/27
f 39/65/28 37/75/27 40/64/28
f 40/64/28 41/67/29 39/65/28
f 41/67/29 40/64/28 42/66/29
f 42/66/29 43/69/30 41/67/29
f 43/69/30 42/66/29 44/68/30
f 44/68/30 45/71/31 43/69/30
f 45/71/31 44/68/30 46/70/31
f 35/77/26 47/72/32 36/76/26
f 47/72/32 35/77/26 48/73/32
f 48/73/32 49/70/33 47/72/32
f 49/70/33 48/73/32 50/71/33
f 50/71/33 51/68/34 49/70/33
f 51/68/34 50/71/33 52/69/34
f 52/69/34 53/66/35 51/68/34
f 53/66/35 52/69/34 54/67/35
f 46/70/31 55/73/36 45/71/31
f 55/73/36 46/70/31 56/72/36
f 56/72/36 57/77/37 55/73/36
f 57/77/37 56/72/36 58/76/37
f 59/64/38 57/74/37 58/75/37
f 57/74/37 59/64/38 60/65/38
f 61/66/39 60/65/38 59/64/38
f 60/65/38 61/66/39 62/67/39
f 63/68/40 62/67/39 61/66/39
f 62/67/39 63/68/40 64/69/40
f 65/70/41 64/69/40 63/68/40
f 64/69/40 65/70/41 66/71/41
f 67/72/42 66/71/41 65/70/41
f 66/71/41 67/72/42 68/73/42
f 69/76/43 68/73/42 67/72/42
f 68/73/42 69/76/43 70/77/43
f 69/75/43 71/65/44 70/74/43
f 71/65/44 69/75/43 72/64/44
f 72/64/44 54/67/35 71/65/44
f 54/67/35 72/64/44 53/66/35
f 32/80/14 28/79/14 30/78/14
f 28/79/14 32/80/14 26/81/14
f 26/81/14 32/80/14 34/82/14
f 26/81/14 34/82/14 35/83/14
f 35/83/14 34/82/14 38/84/14
f 35/83/14 38/84/14 48/85/14
f 48/85/14 38/84/14 39/86/14
f 48/85/14 39/86/14 50/87/14
f 50/87/14 39/86/14 41/88/14
f 50/87/14 41/88/14 43/89/14
f 50/87/14 43/89/14 52/90/14
f 52/90/14 43/89/14 45/91/14
f 52/90/14 45/91/14 54/92/14
f 54/92/14 45/91/14 71/93/14
f 71/93/14 45/91/14 55/94/14
f 71/93/14 55/94/14 70/95/14
f 70/95/14 55/94/14 57/96/14
f 70/95/14 57/96/14 68/97/14
f 68/97/14 57/96/14 60/98/14
f 68/97/14 60/98/14 66/99/14
f 66/99/14 60/98/14 62/100/14
f 66/99/14 62/100/14 64/101/14
f 27/80/12 31/79/12 29/78/12
f 31/79/12 27/80/12 25/82/12
f 31/79/12 25/82/12 33/81/12
f 33/81/12 25/82/12 36/84/12
f 33/81/12 36/84/12 37/83/12
f 37/83/12 36/84/12 47/86/12
f 37/83/12 47/86/12 40/85/12
f 40/85/12 47/86/12 49/88/12
f 40/85/12 49/88/12 42/87/12
f 42/87/12 49/88/12 51/89/12
f 42/87/12 51/89/12 44/90/12
f 44/90/12 51/89/12 53/91/12
f 44/90/12 53/91/12 46/92/12
f 46/92/12 53/91/12 72/94/12
f 46/92/12 72/94/12 56/93/12
f 56/93/12 72/94/12 69/96/12
f 56/93/12 69/96/12 58/95/12
f 58/95/12 69/96/12 67/98/12
f 58/95/12 67/98/12 59/97/12
f 59/97/12 67/98/12 65/100/12
f 59/97/12 65/100/12 61/99/12
f 61/99/12 65/100/12 63/101/12

