# Created by Kenney (www.kenney.nl)

mtllib gems_diamond_1.mtl

g mergedBlocks

v 0.4330127 0.0326 -0.25
v 0.4330127 -0.1654 -0.25
v 0.4829629 0.0326 -0.1294095
v 0.4829629 -0.1654 -0.1294095
v 0.5 0.0326 0
v 0.5 -0.1654 0
v 0.4829629 0.0326 0.1294095
v 0.4829629 -0.1654 0.1294095
v 0.4330127 0.0326 0.25
v 0.4330127 -0.1654 0.25
v 0.3535534 -0.1654 -0.3535534
v 0.3535534 0.0326 -0.3535534
v 0.3535534 0.0326 0.3535534
v 0.3535534 -0.1654 0.3535534
v 0.25 -0.1654 0.4330127
v 0.25 0.0326 0.4330127
v 0.1294095 -0.1654 0.4829629
v 0.1294095 0.0326 0.4829629
v 0 -0.1654 0.5
v 0 0.0326 0.5
v -0.1294095 -0.1654 0.4829629
v -0.1294095 0.0326 0.4829629
v 0.25 0.0326 -0.4330127
v 0.25 -0.1654 -0.4330127
v 0.1294095 0.0326 -0.4829629
v 0.1294095 -0.1654 -0.4829629
v 0 0.0326 -0.5
v 0 -0.1654 -0.5
v -0.1294095 0.0326 -0.4829629
v -0.1294095 -0.1654 -0.4829629
v -0.25 -0.1654 0.4330127
v -0.25 0.0326 0.4330127
v -0.3535534 -0.1654 0.3535534
v -0.3535534 0.0326 0.3535534
v -0.4330127 0.0326 0.25
v -0.4330127 -0.1654 0.25
v -0.4829629 0.0326 0.1294095
v -0.4829629 -0.1654 0.1294095
v -0.5 0.0326 0
v -0.5 -0.1654 0
v -0.4829629 0.0326 -0.1294095
v -0.4829629 -0.1654 -0.1294095
v -0.4330127 0.0326 -0.25
v -0.4330127 -0.1654 -0.25
v -0.3535534 0.0326 -0.3535534
v -0.3535534 -0.1654 -0.3535534
v -0.25 -0.1654 -0.4330127
v -0.25 0.0326 -0.4330127
v 0.05877111 0.1654 0.02592229
v 0.02758562 0.1654 0.04328321
v 0.05877111 0.1654 -0.008799553
v 0.02758562 0.1654 -0.06088232
v -0.03478538 0.1654 0.04328321
v -0.003599882 0.1654 -0.07824324
v -0.03478538 0.1654 -0.06088232
v -0.06597088 0.1654 0.02592229
v -0.06597088 0.1654 -0.008799553
v 0.1250001 0.079 0.06279188
v 0.1250001 0.079 -0.08039098
v -0.003599882 0.079 0.1343833
v -0.003599882 0.079 -0.1519824
v -0.1321999 0.079 0.06279188
v -0.1321999 0.079 -0.08039098
v 0.1084429 0.1006 -0.07117359
v -0.08252813 0.1438 -0.05273879
v -0.003599882 0.1222 0.09751371
v 0.05877111 -0.1154 0.02592229
v 0.02758562 -0.1154 0.04328321
v 0.05877111 -0.1154 -0.008799553
v 0.02758562 -0.1154 -0.06088232
v -0.03478538 -0.1154 0.04328321
v -0.003599882 -0.1154 -0.07824324
v -0.03478538 -0.1154 -0.06088232
v -0.06597088 -0.1154 0.02592229
v -0.06597088 -0.1154 -0.008799553
v 0.1084429 0.0304 -0.07117359
v -0.08252813 -0.0668 -0.05273879
v -0.003599882 -0.0182 0.09751371

vn 0.8660254 0 -0.5
vn 0.9659259 0 -0.2588191
vn 1 0 0
vn 0.9659259 0 0.2588191
vn 0.8660254 0 0.5
vn 0.7071068 0 -0.7071068
vn 0.7071068 0 0.7071068
vn 0.5 0 0.8660254
vn 0.2588191 0 0.9659259
vn 0 0 1
vn -0.2588191 0 0.9659259
vn 0.5 0 -0.8660254
vn 0.2588191 0 -0.9659259
vn 0 0 -1
vn -0.2588191 0 -0.9659259
vn -0.5 0 0.8660254
vn -0.7071068 0 0.7071068
vn -0.8660254 0 0.5
vn -0.9659259 0 0.2588191
vn -1 0 0
vn -0.9659259 0 -0.2588191
vn -0.8660254 0 -0.5
vn -0.7071068 0 -0.7071068
vn -0.5 0 -0.8660254
vn 0 -1 0
vn 0 1 0
vn 0.3899283 0.5977908 -0.70043
vn -0.3899283 0.5977908 -0.70043
vn 0.7936551 0.6083679 0
vn 0.3899283 0.5977908 0.70043
vn -0.7936551 0.6083679 0
vn -0.3899283 0.5977908 0.70043
vn 0 0.7821645 0.6230719
vn 0.5623767 0.7552106 -0.3367332
vn -0.4344939 0.8622826 -0.2601611
vn 0.4617093 -0.3145941 -0.8293704
vn -0.4617093 -0.3145941 -0.8293704
vn 0.9465752 -0.3224832 0
vn 0.4617093 -0.3145941 0.8293704
vn -0.9465752 -0.3224832 0
vn -0.4617093 -0.3145941 0.8293704
vn 0 -0.4872247 0.8732767
vn 0.763661 -0.4557838 -0.4572559
vn -0.6841455 -0.6034371 -0.4096445

vt 0.25 0.0326
vt 0.25 -0.1654
vt 0.1294095 0.0326
vt 0.1294095 -0.1654
vt 0 0.0326
vt 0 -0.1654
vt -0.1294095 0.0326
vt -0.1294095 -0.1654
vt -0.25 0.0326
vt -0.25 -0.1654
vt 0.3535534 -0.1654
vt 0.3535534 0.0326
vt -0.3535534 0.0326
vt -0.3535534 -0.1654
vt -0.5 0
vt -0.4829629 0.1294095
vt -0.4829629 -0.1294095
vt -0.4330127 0.25
vt -0.4330127 -0.25
vt -0.3535534 0.3535534
vt -0.3535534 -0.3535534
vt -0.25 0.4330127
vt -0.25 -0.4330127
vt -0.1294095 0.4829629
vt -0.1294095 -0.4829629
vt 0 -0.5
vt 0 0.5
vt 0.1294095 -0.4829629
vt 0.1294095 0.4829629
vt 0.25 0.4330127
vt 0.25 -0.4330127
vt 0.3535534 0.3535534
vt 0.3535534 -0.3535534
vt 0.4330127 0.25
vt 0.4330127 -0.25
vt 0.4829629 0.1294095
vt 0.4829629 -0.1294095
vt 0.5 0
vt -0.05877111 0.02592229
vt -0.02758562 0.04328321
vt -0.05877111 -0.008799553
vt -0.02758562 -0.06088232
vt 0.03478538 0.04328321
vt 0.003599882 -0.07824324
vt 0.03478538 -0.06088232
vt 0.06597088 0.02592229
vt 0.06597088 -0.008799553
vt -0.1250001 -0.06279188
vt -0.1250001 0.08039098
vt 0.003599882 -0.1343833
vt 0.003599882 0.1519824
vt 0.1321999 -0.06279188
vt 0.1321999 0.08039098
vt 0.003599882 0.079
vt -0.1250001 0.079
vt 0.003599882 0.1654
vt -0.1084429 0.1006
vt -0.02758562 0.1654
vt 0.1321999 0.079
vt 0.08252813 0.1438
vt 0.03478538 0.1654
vt 0.08039098 0.079
vt -0.06279188 0.079
vt 0.07117359 0.1006
vt 0.008799553 0.1654
vt -0.02592229 0.1654
vt 0.1250001 0.079
vt -0.003599882 0.079
vt 0.05877111 0.1654
vt -0.003599882 0.1222
vt 0.02758562 0.1654
vt -0.08039098 0.079
vt -0.05273879 0.1438
vt 0.06279188 0.079
vt -0.008799553 0.1654
vt 0.02592229 0.1654
vt -0.1321999 0.079
vt -0.06597088 0.1654
vt -0.03478538 0.1654
vt 0.003599882 0.09751371
vt -0.1084429 -0.07117359
vt 0.08252813 -0.05273879
vt -0.003599882 -0.1154
vt 0.1084429 0.0304
vt 0.02758562 -0.1154
vt -0.08252813 -0.0668
vt -0.03478538 -0.1154
vt -0.07117359 0.0304
vt -0.008799553 -0.1154
vt 0.02592229 -0.1154
vt -0.05877111 -0.1154
vt 0.003599882 -0.0182
vt -0.02758562 -0.1154
vt 0.05273879 -0.0668
vt 0.008799553 -0.1154
vt -0.02592229 -0.1154
vt 0.06597088 -0.1154
vt 0.03478538 -0.1154
vt -0.06088232 -0.1154
vt 0.06088232 -0.1154

usemtl custom1(Clone)

f 3/3/2 2/2/1 1/1/1
f 2/2/1 3/3/2 4/4/2
f 5/5/3 4/4/2 3/3/2
f 4/4/2 5/5/3 6/6/3
f 7/7/4 6/6/3 5/5/3
f 6/6/3 7/7/4 8/8/4
f 9/9/5 8/8/4 7/7/4
f 8/8/4 9/9/5 10/10/5
f 11/11/6 1/1/1 2/2/1
f 1/1/1 11/11/6 12/12/6
f 13/13/7 10/10/5 9/9/5
f 10/10/5 13/13/7 14/14/7
f 13/12/7 15/2/8 14/11/7
f 15/2/8 13/12/7 16/1/8
f 16/1/8 17/4/9 15/2/8
f 17/4/9 16/1/8 18/3/9
f 18/3/9 19/6/10 17/4/9
f 19/6/10 18/3/9 20/5/10
f 20/5/10 21/8/11 19/6/10
f 21/8/11 20/5/10 22/7/11
f 11/14/6 23/9/12 12/13/6
f 23/9/12 11/14/6 24/10/12
f 24/10/12 25/7/13 23/9/12
f 25/7/13 24/10/12 26/8/13
f 26/8/13 27/5/14 25/7/13
f 27/5/14 26/8/13 28/6/14
f 28/6/14 29/3/15 27/5/14
f 29/3/15 28/6/14 30/4/15
f 22/7/11 31/10/16 21/8/11
f 31/10/16 22/7/11 32/9/16
f 32/9/16 33/14/17 31/10/16
f 33/14/17 32/9/16 34/13/17
f 35/1/18 33/11/17 34/12/17
f 33/11/17 35/1/18 36/2/18
f 37/3/19 36/2/18 35/1/18
f 36/2/18 37/3/19 38/4/19
f 39/5/20 38/4/19 37/3/19
f 38/4/19 39/5/20 40/6/20
f 41/7/21 40/6/20 39/5/20
f 40/6/20 41/7/21 42/8/21
f 43/9/22 42/8/21 41/7/21
f 42/8/21 43/9/22 44/10/22
f 45/13/23 44/10/22 43/9/22
f 44/10/22 45/13/23 46/14/23
f 45/12/23 47/2/24 46/11/23
f 47/2/24 45/12/23 48/1/24
f 48/1/24 30/4/15 47/2/24
f 30/4/15 48/1/24 29/3/15
f 8/17/25 4/16/25 6/15/25
f 4/16/25 8/17/25 2/18/25
f 2/18/25 8/17/25 10/19/25
f 2/18/25 10/19/25 11/20/25
f 11/20/25 10/19/25 14/21/25
f 11/20/25 14/21/25 24/22/25
f 24/22/25 14/21/25 15/23/25
f 24/22/25 15/23/25 26/24/25
f 26/24/25 15/23/25 17/25/25
f 26/24/25 17/25/25 19/26/25
f 26/24/25 19/26/25 28/27/25
f 28/27/25 19/26/25 21/28/25
f 28/27/25 21/28/25 30/29/25
f 30/29/25 21/28/25 47/30/25
f 47/30/25 21/28/25 31/31/25
f 47/30/25 31/31/25 46/32/25
f 46/32/25 31/31/25 33/33/25
f 46/32/25 33/33/25 44/34/25
f 44/34/25 33/33/25 36/35/25
f 44/34/25 36/35/25 42/36/25
f 42/36/25 36/35/25 38/37/25
f 42/36/25 38/37/25 40/38/25
f 3/17/26 7/16/26 5/15/26
f 7/16/26 3/17/26 1/19/26
f 7/16/26 1/19/26 9/18/26
f 9/18/26 1/19/26 12/21/26
f 9/18/26 12/21/26 13/20/26
f 13/20/26 12/21/26 23/23/26
f 13/20/26 23/23/26 16/22/26
f 16/22/26 23/23/26 25/25/26
f 16/22/26 25/25/26 18/24/26
f 18/24/26 25/25/26 27/26/26
f 18/24/26 27/26/26 20/27/26
f 20/27/26 27/26/26 29/28/26
f 20/27/26 29/28/26 22/29/26
f 22/29/26 29/28/26 48/31/26
f 22/29/26 48/31/26 32/30/26
f 32/30/26 48/31/26 45/33/26
f 32/30/26 45/33/26 34/32/26
f 34/32/26 45/33/26 43/35/26
f 34/32/26 43/35/26 35/34/26
f 35/34/26 43/35/26 41/37/26
f 35/34/26 41/37/26 37/36/26
f 37/36/26 41/37/26 39/38/26

usemtl custom7(Clone)

f 51/41/26 50/40/26 49/39/26
f 50/40/26 51/41/26 52/42/26
f 50/40/26 52/42/26 53/43/26
f 53/43/26 52/42/26 54/44/26
f 53/43/26 54/44/26 55/45/26
f 53/43/26 55/45/26 56/46/26
f 56/46/26 55/45/26 57/47/26
f 60/50/25 59/49/25 58/48/25
f 59/49/25 60/50/25 61/51/25
f 61/51/25 60/50/25 62/52/25
f 61/51/25 62/52/25 63/53/25
f 54/56/27 59/55/27 61/54/27
f 59/55/27 54/56/27 64/57/27
f 64/57/27 54/56/27 52/58/27
f 65/60/28 61/54/28 63/59/28
f 61/54/28 65/60/28 54/56/28
f 54/56/28 65/60/28 55/61/28
f 64/64/29 58/63/29 59/62/29
f 58/63/29 64/64/29 51/65/29
f 58/63/29 51/65/29 49/66/29
f 49/69/30 60/68/30 58/67/30
f 60/68/30 49/69/30 66/70/30
f 66/70/30 49/69/30 50/71/30
f 62/74/31 65/73/31 63/72/31
f 65/73/31 62/74/31 57/75/31
f 57/75/31 62/74/31 56/76/31
f 66/70/32 62/77/32 60/68/32
f 62/77/32 66/70/32 56/78/32
f 56/78/32 66/70/32 53/79/32
f 53/43/33 66/80/33 50/40/33
f 51/41/34 64/81/34 52/42/34
f 57/47/35 55/45/35 65/82/35
f 77/94/44 73/100/44 75/95/44
f 70/99/43 76/88/43 69/89/43
f 68/93/42 78/92/42 71/98/42
f 71/98/41 78/92/41 74/97/41
f 74/97/41 78/92/41 62/59/41
f 60/54/41 62/59/41 78/92/41
f 74/96/40 62/63/40 75/95/40
f 75/95/40 62/63/40 77/94/40
f 63/62/40 77/94/40 62/63/40
f 68/93/39 67/91/39 78/92/39
f 78/92/39 67/91/39 60/54/39
f 58/55/39 60/54/39 67/91/39
f 67/90/38 69/89/38 58/74/38
f 69/89/38 76/88/38 58/74/38
f 59/72/38 58/74/38 76/88/38
f 73/87/37 77/86/37 72/83/37
f 72/83/37 77/86/37 61/68/37
f 63/77/37 61/68/37 77/86/37
f 70/85/36 72/83/36 76/84/36
f 76/84/36 72/83/36 59/67/36
f 61/68/36 59/67/36 72/83/36
f 63/53/26 62/52/26 61/51/26
f 62/52/26 60/50/26 61/51/26
f 61/51/26 60/50/26 59/49/26
f 58/48/26 59/49/26 60/50/26
f 75/47/25 73/45/25 74/46/25
f 74/46/25 73/45/25 71/43/25
f 73/45/25 72/44/25 71/43/25
f 72/44/25 70/42/25 71/43/25
f 71/43/25 70/42/25 68/40/25
f 70/42/25 69/41/25 68/40/25
f 67/39/25 68/40/25 69/41/25

