# Created by Kenney (www.kenney.nl)

mtllib gems_ruby_6.mtl

g mergedBlocks

v 0.5103905 0.5654387 3.465175E-15
v 0.6 0.25 3.465175E-15
v 0.4854102 0.4354102 0.3
v 0.4854102 0.0645898 0.3
v 0.5103905 -0.06543869 3.465175E-15
v 0.3154387 0.25 0.5103905
v 0.1854102 0.55 -0.4854102
v 0.4854102 0.4354102 -0.3
v 0.3 0.7354101 -0.1854102
v 1.299441E-15 0.7603905 -0.3154387
v 0.3154387 0.25 -0.5103905
v 0.1854102 0.55 0.4854102
v 0.3 0.7354101 0.1854102
v 1.299441E-15 0.7603905 0.3154387
v -0.3 -0.2354102 0.1854102
v -0.3 -0.2354102 -0.1854102
v -0.5103905 -0.06543869 3.465175E-15
v 1.299441E-15 -0.35 3.465175E-15
v 1.299441E-15 -0.2603905 -0.3154387
v 1.299441E-15 -0.2603905 0.3154387
v 1.299441E-15 0.85 3.465175E-15
v 0.1854102 -0.05000001 0.4854102
v 0.3 -0.2354102 0.1854102
v 0.1854102 -0.05000001 -0.4854102
v 0.4854102 0.0645898 -0.3
v 0.3 -0.2354102 -0.1854102
v -0.1854102 -0.05000001 -0.4854102
v -0.4854102 0.0645898 -0.3
v -0.3154387 0.25 -0.5103905
v 1.299441E-15 0.25 0.6
v -0.1854102 -0.05000001 0.4854102
v -0.3154387 0.25 0.5103905
v -0.3 0.7354101 -0.1854102
v -0.3 0.7354101 0.1854102
v -0.5103905 0.5654387 3.465175E-15
v 1.299441E-15 0.25 -0.6
v -0.6 0.25 3.465175E-15
v -0.4854102 0.4354102 0.3
v -0.4854102 0.0645898 0.3
v -0.1854102 0.55 0.4854102
v -0.4854102 0.4354102 -0.3
v -0.1854102 0.55 -0.4854102
v -0.12 -0.85 0.12
v -0.12 -0.85 -0.12
v -0.4 -0.85 0.12
v -0.4 -0.85 -0.12
v -0.12 -0.85 -0.4
v -0.12 -0.85 0.4
v 0.12 -0.85 -0.4
v 0.12 -0.85 -0.12
v 0.12 -0.85 0.12
v 0.12 -0.85 0.4
v 0.4 -0.85 -0.12
v 0.4 -0.85 0.12
v -0.4 -0.09400004 -0.12
v -0.4 -0.09400004 0.12
v 0.12 -0.09400004 -0.4
v -0.12 -0.09400004 -0.4
v 0.12 -0.09400004 0.4
v -0.12 -0.09400004 0.4
v 0.4 -0.09400004 -0.12
v 0.4 -0.09400004 0.12
v -0.12 -0.09400004 -0.12
v -0.12 -0.09400004 0.12
v 0.12 -0.09400004 0.12
v 0.12 -0.09400004 -0.12
v 0.4330127 -0.652 -0.25
v 0.4330127 -0.85 -0.25
v 0.4829629 -0.652 -0.1294095
v 0.4829629 -0.85 -0.1294095
v 0.5 -0.652 0
v 0.5 -0.85 0
v 0.4829629 -0.652 0.1294095
v 0.4829629 -0.85 0.1294095
v 0.4330127 -0.652 0.25
v 0.4330127 -0.85 0.25
v 0.3535534 -0.85 -0.3535534
v 0.3535534 -0.652 -0.3535534
v 0.3535534 -0.652 0.3535534
v 0.3535534 -0.85 0.3535534
v 0.25 -0.85 0.4330127
v 0.25 -0.652 0.4330127
v 0.1294095 -0.85 0.4829629
v 0.1294095 -0.652 0.4829629
v 0 -0.85 0.5
v 0 -0.652 0.5
v -0.1294095 -0.85 0.4829629
v -0.1294095 -0.652 0.4829629
v 0.25 -0.652 -0.4330127
v 0.25 -0.85 -0.4330127
v 0.1294095 -0.652 -0.4829629
v 0.1294095 -0.85 -0.4829629
v 0 -0.652 -0.5
v 0 -0.85 -0.5
v -0.1294095 -0.652 -0.4829629
v -0.1294095 -0.85 -0.4829629
v -0.25 -0.85 0.4330127
v -0.25 -0.652 0.4330127
v -0.3535534 -0.85 0.3535534
v -0.3535534 -0.652 0.3535534
v -0.4330127 -0.652 0.25
v -0.4330127 -0.85 0.25
v -0.4829629 -0.652 0.1294095
v -0.4829629 -0.85 0.1294095
v -0.5 -0.652 0
v -0.5 -0.85 0
v -0.4829629 -0.652 -0.1294095
v -0.4829629 -0.85 -0.1294095
v -0.4330127 -0.652 -0.25
v -0.4330127 -0.85 -0.25
v -0.3535534 -0.652 -0.3535534
v -0.3535534 -0.85 -0.3535534
v -0.25 -0.85 -0.4330127
v -0.25 -0.652 -0.4330127

vn 0.9435222 0.2680349 0.1947387
vn 0.9660217 0 0.2584611
vn 0.9107586 0.08941776 0.403142
vn 0.9107586 -0.08941776 0.403142
vn 0.9435222 -0.2680349 0.1947387
vn 0.7778675 0 0.6284283
vn 0.5076165 0.5628797 -0.6522974
vn 0.6522974 0.5076165 -0.5628797
vn 0.5628797 0.6522974 -0.5076165
vn 0.3150939 0.7487834 -0.5831288
vn 0.7487834 0.5831288 -0.3150939
vn 0.5831288 0.3150939 -0.7487834
vn 0.6522974 0.5076165 0.5628797
vn 0.5831288 0.3150939 0.7487834
vn 0.5076165 0.5628797 0.6522974
vn 0.5628797 0.6522974 0.5076165
vn 0.3150939 0.7487834 0.5831288
vn 0.7487834 0.5831288 0.3150939
vn -0.403142 -0.9107586 0.08941776
vn -0.403142 -0.9107586 -0.08941776
vn -0.6284283 -0.7778675 0
vn -0.2584611 -0.9660217 0
vn -0.1947387 -0.9435222 -0.2680349
vn -0.1947387 -0.9435222 0.2680349
vn 0.403142 0.9107586 -0.08941776
vn 0.403142 0.9107586 0.08941776
vn 0.2584611 0.9660217 0
vn 0.1947387 0.9435222 0.2680349
vn 0.1947387 0.9435222 -0.2680349
vn 0.6284283 0.7778675 0
vn 0.5076165 -0.5628797 0.6522974
vn 0.5628797 -0.6522974 0.5076165
vn 0.3150939 -0.7487834 0.5831288
vn 0.6522974 -0.5076165 0.5628797
vn 0.7487834 -0.5831288 0.3150939
vn 0.5831288 -0.3150939 0.7487834
vn 0.5076165 -0.5628797 -0.6522974
vn 0.6522974 -0.5076165 -0.5628797
vn 0.5831288 -0.3150939 -0.7487834
vn 0.5628797 -0.6522974 -0.5076165
vn 0.3150939 -0.7487834 -0.5831288
vn 0.7487834 -0.5831288 -0.3150939
vn -0.3150939 -0.7487834 -0.5831288
vn -0.5076165 -0.5628797 -0.6522974
vn -0.5628797 -0.6522974 -0.5076165
vn -0.6522974 -0.5076165 -0.5628797
vn -0.7487834 -0.5831288 -0.3150939
vn -0.5831288 -0.3150939 -0.7487834
vn 0 -0.2584611 0.9660217
vn -0.08941776 -0.403142 0.9107586
vn -0.2680349 -0.1947387 0.9435222
vn 0.08941776 -0.403142 0.9107586
vn 0 -0.6284283 0.7778675
vn 0.2680349 -0.1947387 0.9435222
vn -0.403142 0.9107586 -0.08941776
vn -0.403142 0.9107586 0.08941776
vn -0.6284283 0.7778675 0
vn -0.2584611 0.9660217 0
vn -0.1947387 0.9435222 -0.2680349
vn -0.1947387 0.9435222 0.2680349
vn -0.2680349 -0.1947387 -0.9435222
vn -0.08941776 -0.403142 -0.9107586
vn 0 -0.2584611 -0.9660217
vn 0.08941776 -0.403142 -0.9107586
vn 0 -0.6284283 -0.7778675
vn 0.2680349 -0.1947387 -0.9435222
vn -0.9660217 0 0.2584611
vn -0.9435222 0.2680349 0.1947387
vn -0.9107586 0.08941776 0.403142
vn -0.9107586 -0.08941776 0.403142
vn -0.9435222 -0.2680349 0.1947387
vn -0.7778675 0 0.6284283
vn -0.7487834 0.5831288 0.3150939
vn -0.5628797 0.6522974 0.5076165
vn -0.6522974 0.5076165 0.5628797
vn -0.5076165 0.5628797 0.6522974
vn -0.3150939 0.7487834 0.5831288
vn -0.5831288 0.3150939 0.7487834
vn 0.403142 -0.9107586 0.08941776
vn 0.403142 -0.9107586 -0.08941776
vn 0.2584611 -0.9660217 0
vn 0.1947387 -0.9435222 -0.2680349
vn 0.6284283 -0.7778675 0
vn 0.1947387 -0.9435222 0.2680349
vn 0.9107586 0.08941776 -0.403142
vn 0.9107586 -0.08941776 -0.403142
vn 0.9660217 0 -0.2584611
vn 0.9435222 0.2680349 -0.1947387
vn 0.9435222 -0.2680349 -0.1947387
vn 0.7778675 0 -0.6284283
vn -0.9107586 -0.08941776 -0.403142
vn -0.7778675 0 -0.6284283
vn -0.9107586 0.08941776 -0.403142
vn -0.9660217 0 -0.2584611
vn -0.9435222 0.2680349 -0.1947387
vn -0.9435222 -0.2680349 -0.1947387
vn 0.2680349 0.1947387 0.9435222
vn 0 0.2584611 0.9660217
vn 0.08941776 0.403142 0.9107586
vn -0.08941776 0.403142 0.9107586
vn -0.2680349 0.1947387 0.9435222
vn 0 0.6284283 0.7778675
vn -0.5628797 -0.6522974 0.5076165
vn -0.7487834 -0.5831288 0.3150939
vn -0.6522974 -0.5076165 0.5628797
vn -0.5076165 -0.5628797 0.6522974
vn -0.3150939 -0.7487834 0.5831288
vn -0.5831288 -0.3150939 0.7487834
vn -0.08941776 0.403142 -0.9107586
vn 0.08941776 0.403142 -0.9107586
vn 0 0.6284283 -0.7778675
vn 0 0.2584611 -0.9660217
vn -0.2680349 0.1947387 -0.9435222
vn 0.2680349 0.1947387 -0.9435222
vn -0.5076165 0.5628797 -0.6522974
vn -0.3150939 0.7487834 -0.5831288
vn -0.5628797 0.6522974 -0.5076165
vn -0.6522974 0.5076165 -0.5628797
vn -0.7487834 0.5831288 -0.3150939
vn -0.5831288 0.3150939 -0.7487834
vn 0 -1 0
vn -1 0 0
vn 0 0 -1
vn 0 0 1
vn 1 0 0
vn 0 1 0
vn 0.8660254 0 -0.5
vn 0.9659259 0 -0.2588191
vn 0.9659259 0 0.2588191
vn 0.8660254 0 0.5
vn 0.7071068 0 -0.7071068
vn 0.7071068 0 0.7071068
vn 0.5 0 0.8660254
vn 0.2588191 0 0.9659259
vn -0.2588191 0 0.9659259
vn 0.5 0 -0.8660254
vn 0.2588191 0 -0.9659259
vn -0.2588191 0 -0.9659259
vn -0.5 0 0.8660254
vn -0.7071068 0 0.7071068
vn -0.8660254 0 0.5
vn -0.9659259 0 0.2588191
vn -0.9659259 0 -0.2588191
vn -0.8660254 0 -0.5
vn -0.7071068 0 -0.7071068
vn -0.5 0 -0.8660254

vt -3.465175E-15 0.5654387
vt -3.465175E-15 0.25
vt -0.3 0.4354102
vt -0.3 0.06458979
vt -3.465175E-15 -0.0654387
vt -0.5103905 0.25
vt -0.1854102 -0.4854102
vt -0.4854102 -0.3
vt -0.3 -0.1854102
vt -1.299441E-15 -0.3154387
vt 0.1854102 0.7354101
vt 0.3 0.4354102
vt -0.3154387 0.25
vt -0.4854102 0.4354102
vt -0.1854102 0.55
vt 0.4854102 0.4354102
vt 0.3154387 0.25
vt 0.1854102 0.55
vt -0.4854102 0.3
vt -0.1854102 0.4854102
vt -0.3 0.1854102
vt -1.299441E-15 0.3154387
vt -0.1854102 0.7354101
vt 0.3 -0.1854102
vt 0.3 0.1854102
vt 0.5103905 -3.465175E-15
vt -1.299441E-15 -3.465175E-15
vt -1.299441E-15 3.465175E-15
vt -0.5103905 3.465175E-15
vt 0.3 -0.2354102
vt 0.1854102 -0.05000001
vt 0.4854102 0.06458979
vt -0.1854102 -0.2354102
vt -0.1854102 -0.05000001
vt -0.4854102 0.06458979
vt -0.3 -0.2354102
vt 0.3 0.06458979
vt 0.1854102 -0.2354102
vt 0.1854102 0.4854102
vt 3.465175E-15 -0.0654387
vt 1.299441E-15 0.25
vt 1.299441E-15 -0.2603905
vt 0.5103905 3.465175E-15
vt -1.299441E-15 0.25
vt -1.299441E-15 -0.2603905
vt 3.465175E-15 0.25
vt 3.465175E-15 0.5654387
vt 0.5103905 0.25
vt 0.4854102 0.3
vt -0.5103905 -3.465175E-15
vt 1.299441E-15 0.7603905
vt 0.1854102 -0.4854102
vt -1.299441E-15 0.7603905
vt 0.4854102 -0.3
vt 0.12 -0.12
vt 0.12 0.12
vt 0.4 -0.12
vt 0.4 0.12
vt -0.12 -0.85
vt 0.12 0.4
vt 0.12 -0.4
vt -0.12 0.4
vt -0.12 0.12
vt -0.12 -0.12
vt -0.12 -0.4
vt -0.4 0.12
vt -0.4 -0.12
vt -0.12 -0.09400004
vt 0.12 -0.85
vt 0.12 -0.09400004
vt 0.4 -0.85
vt 0.4 -0.09400004
vt -0.4 -0.85
vt -0.4 -0.09400004
vt 0.25 -0.652
vt 0.25 -0.85
vt 0.1294095 -0.652
vt 0.1294095 -0.85
vt 0 -0.652
vt 0 -0.85
vt -0.1294095 -0.652
vt -0.1294095 -0.85
vt -0.25 -0.652
vt -0.25 -0.85
vt 0.3535534 -0.85
vt 0.3535534 -0.652
vt -0.3535534 -0.652
vt -0.3535534 -0.85
vt -0.5 0
vt -0.4829629 0.1294095
vt -0.4829629 -0.1294095
vt -0.4330127 0.25
vt -0.4330127 -0.25
vt -0.3535534 0.3535534
vt -0.3535534 -0.3535534
vt -0.25 0.4330127
vt -0.25 -0.4330127
vt -0.1294095 0.4829629
vt -0.1294095 -0.4829629
vt 0 -0.5
vt 0 0.5
vt 0.1294095 -0.4829629
vt 0.1294095 0.4829629
vt 0.25 0.4330127
vt 0.25 -0.4330127
vt 0.3535534 0.3535534
vt 0.3535534 -0.3535534
vt 0.4330127 0.25
vt 0.4330127 -0.25
vt 0.4829629 0.1294095
vt 0.4829629 -0.1294095
vt 0.5 0

usemtl custom9(Clone)

f 3/3/3 2/2/2 1/1/1
f 4/4/4 2/2/2 3/3/3
f 4/4/4 5/5/5 2/2/2
f 6/6/6 4/4/4 3/3/3
f 9/9/9 8/8/8 7/7/7
f 10/10/10 9/9/9 7/7/7
f 1/1/11 8/12/8 9/11/9
f 7/15/7 8/14/8 11/13/12
f 12/18/15 6/17/14 3/16/13
f 13/21/16 12/20/15 3/19/13
f 14/22/17 12/20/15 13/21/16
f 3/3/13 1/1/18 13/23/16
f 17/26/21 16/25/20 15/24/19
f 16/25/20 18/27/22 15/24/19
f 16/25/20 19/22/23 18/27/22
f 15/24/19 18/27/22 20/10/24
f 21/28/27 13/21/26 9/9/25
f 14/22/28 13/21/26 21/28/27
f 21/28/27 9/9/25 10/10/29
f 13/21/26 1/29/30 9/9/25
f 20/10/33 23/9/32 22/7/31
f 4/32/34 22/31/31 23/30/32
f 4/4/34 23/33/32 5/5/35
f 6/17/36 22/31/31 4/32/34
f 11/13/39 25/35/38 24/34/37
f 25/35/38 26/36/40 24/34/37
f 19/22/41 24/20/37 26/21/40
f 5/5/42 26/38/40 25/37/38
f 16/25/45 27/39/44 19/22/43
f 28/32/46 27/31/44 16/30/45
f 17/40/47 28/4/46 16/33/45
f 29/17/48 27/31/44 28/32/46
f 32/13/51 31/34/50 30/41/49
f 30/41/49 31/34/50 22/31/52
f 31/34/50 20/42/53 22/31/52
f 30/41/49 22/31/52 6/17/54
f 35/43/57 34/25/56 33/24/55
f 34/25/56 21/28/58 33/24/55
f 33/24/55 21/28/58 10/10/59
f 34/25/56 14/22/60 21/28/58
f 36/44/63 27/31/62 29/17/61
f 36/44/63 24/34/64 27/31/62
f 24/34/64 19/45/65 27/31/62
f 11/13/66 24/34/64 36/44/63
f 38/12/69 35/47/68 37/46/67
f 38/12/69 37/46/67 39/37/70
f 39/37/70 37/46/67 17/40/71
f 32/48/72 38/12/69 39/37/70
f 38/12/75 34/11/74 35/47/73
f 34/25/74 38/49/75 40/39/76
f 34/25/74 40/39/76 14/22/77
f 40/15/76 38/14/75 32/13/78
f 18/27/81 26/21/80 23/9/79
f 19/22/82 26/21/80 18/27/81
f 26/21/80 5/50/83 23/9/79
f 18/27/81 23/9/79 20/10/84
f 2/2/87 25/37/86 8/12/85
f 2/2/87 8/12/85 1/1/88
f 5/5/89 25/37/86 2/2/87
f 25/37/86 11/48/90 8/12/85
f 41/3/93 29/6/92 28/4/91
f 37/46/94 41/3/93 28/4/91
f 35/47/95 41/3/93 37/46/94
f 37/46/94 28/4/91 17/40/96
f 12/18/99 30/41/98 6/17/97
f 40/15/100 30/41/98 12/18/99
f 40/15/100 32/13/101 30/41/98
f 14/51/102 40/15/100 12/18/99
f 39/37/105 17/40/104 15/38/103
f 39/35/105 15/36/103 31/34/106
f 15/24/103 20/10/107 31/52/106
f 32/13/108 39/35/105 31/34/106
f 10/53/111 7/15/110 42/18/109
f 7/15/110 36/44/112 42/18/109
f 42/18/109 36/44/112 29/17/113
f 7/15/110 11/13/114 36/44/112
f 33/24/117 10/10/116 42/52/115
f 33/24/117 42/52/115 41/54/118
f 35/47/119 33/23/117 41/3/118
f 42/18/115 29/17/120 41/16/118

usemtl custom2(Clone)

f 45/57/121 44/56/121 43/55/121
f 44/56/121 45/57/121 46/58/121
f 47/59/121 43/59/121 44/59/121
f 47/59/121 48/59/121 43/59/121
f 49/62/121 48/61/121 47/60/121
f 50/63/121 48/61/121 49/62/121
f 51/64/121 48/61/121 50/63/121
f 48/61/121 51/64/121 52/65/121
f 53/66/121 51/64/121 50/63/121
f 51/64/121 53/66/121 54/67/121
f 45/69/122 55/68/122 46/59/122
f 55/68/122 45/69/122 56/70/122
f 47/69/123 57/68/123 49/59/123
f 57/68/123 47/69/123 58/70/123
f 59/70/124 48/59/124 52/69/124
f 48/59/124 59/70/124 60/68/124
f 62/68/125 53/69/125 61/70/125
f 53/69/125 62/68/125 54/59/125
f 55/57/126 64/56/126 63/55/126
f 64/56/126 55/57/126 56/58/126
f 60/68/126 63/68/126 64/68/126
f 60/68/126 58/68/126 63/68/126
f 59/62/126 58/61/126 60/60/126
f 65/63/126 58/61/126 59/62/126
f 66/64/126 58/61/126 65/63/126
f 58/61/126 66/64/126 57/65/126
f 65/63/126 61/67/126 66/64/126
f 61/67/126 65/63/126 62/66/126
f 48/71/122 64/70/122 43/69/122
f 64/70/122 48/71/122 60/72/122
f 64/68/124 45/73/124 43/59/124
f 45/73/124 64/68/124 56/74/124
f 62/72/124 51/69/124 54/71/124
f 51/69/124 62/72/124 65/70/124
f 59/74/125 51/59/125 65/68/125
f 51/59/125 59/74/125 52/73/125
f 66/70/125 49/71/125 57/72/125
f 49/71/125 66/70/125 50/69/125
f 66/68/123 53/73/123 50/59/123
f 53/73/123 66/68/123 61/74/123
f 55/72/123 44/69/123 46/71/123
f 44/69/123 55/72/123 63/70/123
f 44/59/122 58/74/122 47/73/122
f 58/74/122 44/59/122 63/68/122

usemtl custom1(Clone)

f 69/77/128 68/76/127 67/75/127
f 68/76/127 69/77/128 70/78/128
f 71/79/125 70/78/128 69/77/128
f 70/78/128 71/79/125 72/80/125
f 73/81/129 72/80/125 71/79/125
f 72/80/125 73/81/129 74/82/129
f 75/83/130 74/82/129 73/81/129
f 74/82/129 75/83/130 76/84/130
f 77/85/131 67/75/127 68/76/127
f 67/75/127 77/85/131 78/86/131
f 79/87/132 76/84/130 75/83/130
f 76/84/130 79/87/132 80/88/132
f 79/86/132 81/76/133 80/85/132
f 81/76/133 79/86/132 82/75/133
f 82/75/133 83/78/134 81/76/133
f 83/78/134 82/75/133 84/77/134
f 84/77/134 85/80/124 83/78/134
f 85/80/124 84/77/134 86/79/124
f 86/79/124 87/82/135 85/80/124
f 87/82/135 86/79/124 88/81/135
f 77/88/131 89/83/136 78/87/131
f 89/83/136 77/88/131 90/84/136
f 90/84/136 91/81/137 89/83/136
f 91/81/137 90/84/136 92/82/137
f 92/82/137 93/79/123 91/81/137
f 93/79/123 92/82/137 94/80/123
f 94/80/123 95/77/138 93/79/123
f 95/77/138 94/80/123 96/78/138
f 88/81/135 97/84/139 87/82/135
f 97/84/139 88/81/135 98/83/139
f 98/83/139 99/88/140 97/84/139
f 99/88/140 98/83/139 100/87/140
f 101/75/141 99/85/140 100/86/140
f 99/85/140 101/75/141 102/76/141
f 103/77/142 102/76/141 101/75/141
f 102/76/141 103/77/142 104/78/142
f 105/79/122 104/78/142 103/77/142
f 104/78/142 105/79/122 106/80/122
f 107/81/143 106/80/122 105/79/122
f 106/80/122 107/81/143 108/82/143
f 109/83/144 108/82/143 107/81/143
f 108/82/143 109/83/144 110/84/144
f 111/87/145 110/84/144 109/83/144
f 110/84/144 111/87/145 112/88/145
f 111/86/145 113/76/146 112/85/145
f 113/76/146 111/86/145 114/75/146
f 114/75/146 96/78/138 113/76/146
f 96/78/138 114/75/146 95/77/138
f 74/91/121 70/90/121 72/89/121
f 70/90/121 74/91/121 68/92/121
f 68/92/121 74/91/121 76/93/121
f 68/92/121 76/93/121 77/94/121
f 77/94/121 76/93/121 80/95/121
f 77/94/121 80/95/121 90/96/121
f 90/96/121 80/95/121 81/97/121
f 90/96/121 81/97/121 92/98/121
f 92/98/121 81/97/121 83/99/121
f 92/98/121 83/99/121 85/100/121
f 92/98/121 85/100/121 94/101/121
f 94/101/121 85/100/121 87/102/121
f 94/101/121 87/102/121 96/103/121
f 96/103/121 87/102/121 113/104/121
f 113/104/121 87/102/121 97/105/121
f 113/104/121 97/105/121 112/106/121
f 112/106/121 97/105/121 99/107/121
f 112/106/121 99/107/121 110/108/121
f 110/108/121 99/107/121 102/109/121
f 110/108/121 102/109/121 108/110/121
f 108/110/121 102/109/121 104/111/121
f 108/110/121 104/111/121 106/112/121
f 69/91/126 73/90/126 71/89/126
f 73/90/126 69/91/126 67/93/126
f 73/90/126 67/93/126 75/92/126
f 75/92/126 67/93/126 78/95/126
f 75/92/126 78/95/126 79/94/126
f 79/94/126 78/95/126 89/97/126
f 79/94/126 89/97/126 82/96/126
f 82/96/126 89/97/126 91/99/126
f 82/96/126 91/99/126 84/98/126
f 84/98/126 91/99/126 93/100/126
f 84/98/126 93/100/126 86/101/126
f 86/101/126 93/100/126 95/102/126
f 86/101/126 95/102/126 88/103/126
f 88/103/126 95/102/126 114/105/126
f 88/103/126 114/105/126 98/104/126
f 98/104/126 114/105/126 111/107/126
f 98/104/126 111/107/126 100/106/126
f 100/106/126 111/107/126 109/109/126
f 100/106/126 109/109/126 101/108/126
f 101/108/126 109/109/126 107/111/126
f 101/108/126 107/111/126 103/110/126
f 103/110/126 107/111/126 105/112/126

