# Created by Kenney (www.kenney.nl)

mtllib floor_red_stripes.mtl

g mergedBlocks

v 0.5 0 2.5
v 0.5 0 1.5
v -0.5 0 2.5
v -0.5 0 1.5
v 0.5 0.02 1.5
v 0.5 0.02 2.5
v -0.5 0.02 2.5
v -0.5 0.02 1.5
v 1.5 0 2.5
v 1.5 0 1.5
v 1.5 0.02 1.5
v 1.5 0.02 2.5
v 2.5 0 2.5
v 2.5 0 1.5
v 2.5 0.02 1.5
v 2.5 0.02 2.5
v 3.5 0 2.5
v 3.5 0 1.5
v 3.5 0.02 1.5
v 3.5 0.02 2.5
v 4.5 0 2.5
v 4.5 0 1.5
v 4.5 0.02 1.5
v 4.5 0.02 2.5
v 0.5 0 0.5
v 0.5 0 -0.5
v -0.5 0 0.5
v -0.5 0 -0.5
v 0.5 0.02 -0.5
v 0.5 0.02 0.5
v -0.5 0.02 0.5
v -0.5 0.02 -0.5
v 1.5 0 0.5
v 1.5 0 -0.5
v 1.5 0.02 -0.5
v 1.5 0.02 0.5
v 2.5 0 0.5
v 2.5 0 -0.5
v 2.5 0.02 -0.5
v 2.5 0.02 0.5
v 3.5 0 0.5
v 3.5 0 -0.5
v 3.5 0.02 -0.5
v 3.5 0.02 0.5
v 4.5 0 0.5
v 4.5 0 -0.5
v 4.5 0.02 -0.5
v 4.5 0.02 0.5
v -0.5 0.1 1.5
v 0.5 0.1 1.5
v 0.5 0.1 2.5
v -0.5 0.1 2.5
v 1.5 0.1 1.5
v 1.5 0.1 2.5
v 2.5 0.1 1.5
v 2.5 0.1 2.5
v 3.5 0.1 1.5
v 3.5 0.1 2.5
v 4.5 0.1 1.5
v 4.5 0.1 2.5
v -0.5 0.1 -0.5
v 0.5 0.1 -0.5
v 0.5 0.1 0.5
v -0.5 0.1 0.5
v 1.5 0.1 -0.5
v 1.5 0.1 0.5
v 2.5 0.1 -0.5
v 2.5 0.1 0.5
v 3.5 0.1 -0.5
v 3.5 0.1 0.5
v 4.5 0.1 -0.5
v 4.5 0.1 0.5

vn 0 -1 0
vn 1 0 0
vn 0 0 1
vn -1 0 0
vn 0 0 -1
vn 0 1 0

vt -0.5 -2.5
vt -0.5 -1.5
vt 0.5 -2.5
vt 0.5 -1.5
vt -1.5 0.02
vt -1.5 0
vt -2.5 0.02
vt -2.5 0
vt 0.5 0
vt -0.5 0
vt 0.5 0.02
vt -0.5 0.02
vt 1.5 0
vt 1.5 0.02
vt 2.5 0
vt 2.5 0.02
vt -1.5 -2.5
vt -1.5 -1.5
vt -2.5 -2.5
vt -2.5 -1.5
vt -3.5 -2.5
vt -3.5 -1.5
vt 3.5 0
vt 3.5 0.02
vt -3.5 0
vt -3.5 0.02
vt -4.5 -2.5
vt -4.5 -1.5
vt 4.5 0
vt 4.5 0.02
vt -4.5 0
vt -4.5 0.02
vt -0.5 -0.5
vt -0.5 0.5
vt 0.5 -0.5
vt 0.5 0.5
vt -1.5 -0.5
vt -1.5 0.5
vt -2.5 -0.5
vt -2.5 0.5
vt -3.5 -0.5
vt -3.5 0.5
vt -4.5 -0.5
vt -4.5 0.5
vt 0.5 0.1
vt -0.5 0.1
vt -0.5 1.5
vt -0.5 2.5
vt 0.5 1.5
vt 0.5 2.5
vt -1.5 0.1
vt -2.5 0.1
vt 1.5 0.1
vt 2.5 0.1
vt -1.5 1.5
vt -1.5 2.5
vt -2.5 1.5
vt -2.5 2.5
vt -3.5 0.1
vt -3.5 1.5
vt -3.5 2.5
vt 3.5 0.1
vt -4.5 0.1
vt -4.5 1.5
vt -4.5 2.5
vt 4.5 0.1

usemtl bricksDark(Clone)

f 3/3/1 2/2/1 1/1/1
f 2/2/1 3/3/1 4/4/1
f 6/7/2 2/6/2 5/5/2
f 2/6/2 6/7/2 1/8/2
f 6/11/3 3/10/3 1/9/3
f 3/10/3 6/11/3 7/12/3
f 3/15/4 8/14/4 4/13/4
f 8/14/4 3/15/4 7/16/4
f 8/11/5 2/10/5 4/9/5
f 2/10/5 8/11/5 5/12/5
f 1/1/1 10/18/1 9/17/1
f 10/18/1 1/1/1 2/2/1
f 12/7/2 10/6/2 11/5/2
f 10/6/2 12/7/2 9/8/2
f 12/14/3 1/9/3 9/13/3
f 1/9/3 12/14/3 6/11/3
f 1/15/4 5/14/4 2/13/4
f 5/14/4 1/15/4 6/16/4
f 5/12/5 10/6/5 2/10/5
f 10/6/5 5/12/5 11/5/5
f 9/17/1 14/20/1 13/19/1
f 14/20/1 9/17/1 10/18/1
f 16/7/2 14/6/2 15/5/2
f 14/6/2 16/7/2 13/8/2
f 16/16/3 9/13/3 13/15/3
f 9/13/3 16/16/3 12/14/3
f 9/15/4 11/14/4 10/13/4
f 11/14/4 9/15/4 12/16/4
f 11/5/5 14/8/5 10/6/5
f 14/8/5 11/5/5 15/7/5
f 13/19/1 18/22/1 17/21/1
f 18/22/1 13/19/1 14/20/1
f 20/7/2 18/6/2 19/5/2
f 18/6/2 20/7/2 17/8/2
f 20/24/3 13/15/3 17/23/3
f 13/15/3 20/24/3 16/16/3
f 13/15/4 15/14/4 14/13/4
f 15/14/4 13/15/4 16/16/4
f 15/7/5 18/25/5 14/8/5
f 18/25/5 15/7/5 19/26/5
f 17/21/1 22/28/1 21/27/1
f 22/28/1 17/21/1 18/22/1
f 24/7/2 22/6/2 23/5/2
f 22/6/2 24/7/2 21/8/2
f 24/30/3 17/23/3 21/29/3
f 17/23/3 24/30/3 20/24/3
f 17/15/4 19/14/4 18/13/4
f 19/14/4 17/15/4 20/16/4
f 19/26/5 22/31/5 18/25/5
f 22/31/5 19/26/5 23/32/5
f 27/35/1 26/34/1 25/33/1
f 26/34/1 27/35/1 28/36/1
f 30/12/2 26/9/2 29/11/2
f 26/9/2 30/12/2 25/10/2
f 30/11/3 27/10/3 25/9/3
f 27/10/3 30/11/3 31/12/3
f 27/9/4 32/12/4 28/10/4
f 32/12/4 27/9/4 31/11/4
f 32/11/5 26/10/5 28/9/5
f 26/10/5 32/11/5 29/12/5
f 25/33/1 34/38/1 33/37/1
f 34/38/1 25/33/1 26/34/1
f 36/12/2 34/9/2 35/11/2
f 34/9/2 36/12/2 33/10/2
f 36/14/3 25/9/3 33/13/3
f 25/9/3 36/14/3 30/11/3
f 25/9/4 29/12/4 26/10/4
f 29/12/4 25/9/4 30/11/4
f 29/12/5 34/6/5 26/10/5
f 34/6/5 29/12/5 35/5/5
f 33/37/1 38/40/1 37/39/1
f 38/40/1 33/37/1 34/38/1
f 40/12/2 38/9/2 39/11/2
f 38/9/2 40/12/2 37/10/2
f 40/16/3 33/13/3 37/15/3
f 33/13/3 40/16/3 36/14/3
f 33/9/4 35/12/4 34/10/4
f 35/12/4 33/9/4 36/11/4
f 35/5/5 38/8/5 34/6/5
f 38/8/5 35/5/5 39/7/5
f 37/39/1 42/42/1 41/41/1
f 42/42/1 37/39/1 38/40/1
f 44/12/2 42/9/2 43/11/2
f 42/9/2 44/12/2 41/10/2
f 44/24/3 37/15/3 41/23/3
f 37/15/3 44/24/3 40/16/3
f 37/9/4 39/12/4 38/10/4
f 39/12/4 37/9/4 40/11/4
f 39/7/5 42/25/5 38/8/5
f 42/25/5 39/7/5 43/26/5
f 41/41/1 46/44/1 45/43/1
f 46/44/1 41/41/1 42/42/1
f 48/12/2 46/9/2 47/11/2
f 46/9/2 48/12/2 45/10/2
f 48/30/3 41/23/3 45/29/3
f 41/23/3 48/30/3 44/24/3
f 41/9/4 43/12/4 42/10/4
f 43/12/4 41/9/4 44/11/4
f 43/26/5 46/31/5 42/25/5
f 46/31/5 43/26/5 47/32/5

usemtl custom14(Clone)

f 49/45/5 5/12/5 8/11/5
f 5/12/5 49/45/5 50/46/5
f 49/49/6 51/48/6 50/47/6
f 51/48/6 49/49/6 52/50/6
f 51/52/2 5/5/2 50/51/2
f 5/5/2 51/52/2 6/7/2
f 51/45/3 7/12/3 6/11/3
f 7/12/3 51/45/3 52/46/3
f 7/16/4 49/53/4 8/14/4
f 49/53/4 7/16/4 52/54/4

usemtl custom15(Clone)

f 50/46/5 11/5/5 5/12/5
f 11/5/5 50/46/5 53/51/5
f 50/47/6 54/56/6 53/55/6
f 54/56/6 50/47/6 51/48/6
f 54/52/2 11/5/2 53/51/2
f 11/5/2 54/52/2 12/7/2
f 54/53/3 6/11/3 12/14/3
f 6/11/3 54/53/3 51/45/3
f 6/16/4 50/53/4 5/14/4
f 50/53/4 6/16/4 51/54/4

usemtl custom16(Clone)

f 53/51/5 15/7/5 11/5/5
f 15/7/5 53/51/5 55/52/5
f 53/55/6 56/58/6 55/57/6
f 56/58/6 53/55/6 54/56/6
f 56/52/2 15/5/2 55/51/2
f 15/5/2 56/52/2 16/7/2
f 56/54/3 12/14/3 16/16/3
f 12/14/3 56/54/3 54/53/3
f 12/16/4 53/53/4 11/14/4
f 53/53/4 12/16/4 54/54/4

usemtl custom17(Clone)

f 55/52/5 19/26/5 15/7/5
f 19/26/5 55/52/5 57/59/5
f 55/57/6 58/61/6 57/60/6
f 58/61/6 55/57/6 56/58/6
f 58/52/2 19/5/2 57/51/2
f 19/5/2 58/52/2 20/7/2
f 58/62/3 16/16/3 20/24/3
f 16/16/3 58/62/3 56/54/3
f 16/16/4 55/53/4 15/14/4
f 55/53/4 16/16/4 56/54/4

usemtl custom18(Clone)

f 57/59/5 23/32/5 19/26/5
f 23/32/5 57/59/5 59/63/5
f 57/60/6 60/65/6 59/64/6
f 60/65/6 57/60/6 58/61/6
f 60/52/2 23/5/2 59/51/2
f 23/5/2 60/52/2 24/7/2
f 60/66/3 20/24/3 24/30/3
f 20/24/3 60/66/3 58/62/3
f 20/16/4 57/53/4 19/14/4
f 57/53/4 20/16/4 58/54/4

usemtl custom8(Clone)

f 61/45/5 29/12/5 32/11/5
f 29/12/5 61/45/5 62/46/5
f 61/35/6 63/34/6 62/33/6
f 63/34/6 61/35/6 64/36/6
f 63/46/2 29/11/2 62/45/2
f 29/11/2 63/46/2 30/12/2
f 63/45/3 31/12/3 30/11/3
f 31/12/3 63/45/3 64/46/3
f 31/11/4 61/46/4 32/12/4
f 61/46/4 31/11/4 64/45/4

usemtl custom9(Clone)

f 62/46/5 35/5/5 29/12/5
f 35/5/5 62/46/5 65/51/5
f 62/33/6 66/38/6 65/37/6
f 66/38/6 62/33/6 63/34/6
f 66/46/2 35/11/2 65/45/2
f 35/11/2 66/46/2 36/12/2
f 66/53/3 30/11/3 36/14/3
f 30/11/3 66/53/3 63/45/3
f 30/11/4 62/46/4 29/12/4
f 62/46/4 30/11/4 63/45/4

usemtl custom10(Clone)

f 65/51/5 39/7/5 35/5/5
f 39/7/5 65/51/5 67/52/5
f 65/37/6 68/40/6 67/39/6
f 68/40/6 65/37/6 66/38/6
f 68/46/2 39/11/2 67/45/2
f 39/11/2 68/46/2 40/12/2
f 68/54/3 36/14/3 40/16/3
f 36/14/3 68/54/3 66/53/3
f 36/11/4 65/46/4 35/12/4
f 65/46/4 36/11/4 66/45/4

usemtl custom12(Clone)

f 67/52/5 43/26/5 39/7/5
f 43/26/5 67/52/5 69/59/5
f 67/39/6 70/42/6 69/41/6
f 70/42/6 67/39/6 68/40/6
f 70/46/2 43/11/2 69/45/2
f 43/11/2 70/46/2 44/12/2
f 70/62/3 40/16/3 44/24/3
f 40/16/3 70/62/3 68/54/3
f 40/11/4 67/46/4 39/12/4
f 67/46/4 40/11/4 68/45/4

usemtl custom13(Clone)

f 69/59/5 47/32/5 43/26/5
f 47/32/5 69/59/5 71/63/5
f 69/41/6 72/44/6 71/43/6
f 72/44/6 69/41/6 70/42/6
f 72/46/2 47/11/2 71/45/2
f 47/11/2 72/46/2 48/12/2
f 72/66/3 44/24/3 48/30/3
f 44/24/3 72/66/3 70/62/3
f 44/11/4 69/46/4 43/12/4
f 69/46/4 44/11/4 70/45/4

