# Created by Kenney (www.kenney.nl)

mtllib floor_blue_stripes.mtl

g mergedBlocks

v 3.5 0 0.5
v 3.5 0 -0.5
v 2.5 0 0.5
v 2.5 0 -0.5
v 3.5 0.02 -0.5
v 3.5 0.02 0.5
v 2.5 0.02 0.5
v 2.5 0.02 -0.5
v 4.5 0 0.5
v 4.5 0 -0.5
v 4.5 0.02 -0.5
v 4.5 0.02 0.5
v 0.5 0 2.5
v 0.5 0 1.5
v -0.5 0 2.5
v -0.5 0 1.5
v 0.5 0.02 1.5
v 0.5 0.02 2.5
v -0.5 0.02 2.5
v -0.5 0.02 1.5
v 1.5 0 2.5
v 1.5 0 1.5
v 1.5 0.02 1.5
v 1.5 0.02 2.5
v 2.5 0 2.5
v 2.5 0 1.5
v 2.5 0.02 1.5
v 2.5 0.02 2.5
v 3.5 0 2.5
v 3.5 0 1.5
v 3.5 0.02 1.5
v 3.5 0.02 2.5
v 4.5 0 2.5
v 4.5 0 1.5
v 4.5 0.02 1.5
v 4.5 0.02 2.5
v 0.5 0 0.5
v 0.5 0 -0.5
v -0.5 0 0.5
v -0.5 0 -0.5
v 0.5 0.02 -0.5
v 0.5 0.02 0.5
v -0.5 0.02 0.5
v -0.5 0.02 -0.5
v 1.5 0 0.5
v 1.5 0 -0.5
v 1.5 0.02 -0.5
v 1.5 0.02 0.5
v 2.5 0.1 -0.5
v 3.5 0.1 -0.5
v 3.5 0.1 0.5
v 2.5 0.1 0.5
v 4.5 0.1 -0.5
v 4.5 0.1 0.5
v -0.5 0.1 1.5
v 0.5 0.1 1.5
v 0.5 0.1 2.5
v -0.5 0.1 2.5
v 1.5 0.1 1.5
v 1.5 0.1 2.5
v 2.5 0.1 1.5
v 2.5 0.1 2.5
v 3.5 0.1 1.5
v 3.5 0.1 2.5
v 4.5 0.1 1.5
v 4.5 0.1 2.5
v -0.5 0.1 -0.5
v 0.5 0.1 -0.5
v 0.5 0.1 0.5
v -0.5 0.1 0.5
v 1.5 0.1 -0.5
v 1.5 0.1 0.5

vn 0 -1 0
vn 1 0 0
vn 0 0 1
vn -1 0 0
vn 0 0 -1
vn 0 1 0

vt -3.5 -0.5
vt -3.5 0.5
vt -2.5 -0.5
vt -2.5 0.5
vt 0.5 0.02
vt 0.5 0
vt -0.5 0.02
vt -0.5 0
vt 3.5 0
vt 2.5 0
vt 3.5 0.02
vt 2.5 0.02
vt -2.5 0
vt -3.5 0
vt -2.5 0.02
vt -3.5 0.02
vt -4.5 -0.5
vt -4.5 0.5
vt 4.5 0
vt 4.5 0.02
vt -4.5 0
vt -4.5 0.02
vt -0.5 -2.5
vt -0.5 -1.5
vt 0.5 -2.5
vt 0.5 -1.5
vt -1.5 0.02
vt -1.5 0
vt 1.5 0
vt 1.5 0.02
vt -1.5 -2.5
vt -1.5 -1.5
vt -2.5 -2.5
vt -2.5 -1.5
vt -3.5 -2.5
vt -3.5 -1.5
vt -4.5 -2.5
vt -4.5 -1.5
vt -0.5 -0.5
vt -0.5 0.5
vt 0.5 -0.5
vt 0.5 0.5
vt -1.5 -0.5
vt -1.5 0.5
vt -2.5 0.1
vt -3.5 0.1
vt 0.5 0.1
vt -0.5 0.1
vt 3.5 0.1
vt 2.5 0.1
vt -4.5 0.1
vt 4.5 0.1
vt -0.5 1.5
vt -0.5 2.5
vt 0.5 1.5
vt 0.5 2.5
vt -1.5 0.1
vt 1.5 0.1
vt -1.5 1.5
vt -1.5 2.5
vt -2.5 1.5
vt -2.5 2.5
vt -3.5 1.5
vt -3.5 2.5
vt -4.5 1.5
vt -4.5 2.5

usemtl bricksDark(Clone)

f 3/3/1 2/2/1 1/1/1
f 2/2/1 3/3/1 4/4/1
f 6/7/2 2/6/2 5/5/2
f 2/6/2 6/7/2 1/8/2
f 6/11/3 3/10/3 1/9/3
f 3/10/3 6/11/3 7/12/3
f 3/6/4 8/7/4 4/8/4
f 8/7/4 3/6/4 7/5/4
f 8/15/5 2/14/5 4/13/5
f 2/14/5 8/15/5 5/16/5
f 1/1/1 10/18/1 9/17/1
f 10/18/1 1/1/1 2/2/1
f 12/7/2 10/6/2 11/5/2
f 10/6/2 12/7/2 9/8/2
f 12/20/3 1/9/3 9/19/3
f 1/9/3 12/20/3 6/11/3
f 1/6/4 5/7/4 2/8/4
f 5/7/4 1/6/4 6/5/4
f 5/16/5 10/21/5 2/14/5
f 10/21/5 5/16/5 11/22/5
f 15/25/1 14/24/1 13/23/1
f 14/24/1 15/25/1 16/26/1
f 18/15/2 14/28/2 17/27/2
f 14/28/2 18/15/2 13/13/2
f 18/5/3 15/8/3 13/6/3
f 15/8/3 18/5/3 19/7/3
f 15/10/4 20/30/4 16/29/4
f 20/30/4 15/10/4 19/12/4
f 20/5/5 14/8/5 16/6/5
f 14/8/5 20/5/5 17/7/5
f 13/23/1 22/32/1 21/31/1
f 22/32/1 13/23/1 14/24/1
f 24/15/2 22/28/2 23/27/2
f 22/28/2 24/15/2 21/13/2
f 24/30/3 13/6/3 21/29/3
f 13/6/3 24/30/3 18/5/3
f 13/10/4 17/30/4 14/29/4
f 17/30/4 13/10/4 18/12/4
f 17/7/5 22/28/5 14/8/5
f 22/28/5 17/7/5 23/27/5
f 21/31/1 26/34/1 25/33/1
f 26/34/1 21/31/1 22/32/1
f 28/15/2 26/28/2 27/27/2
f 26/28/2 28/15/2 25/13/2
f 28/12/3 21/29/3 25/10/3
f 21/29/3 28/12/3 24/30/3
f 21/10/4 23/30/4 22/29/4
f 23/30/4 21/10/4 24/12/4
f 23/27/5 26/13/5 22/28/5
f 26/13/5 23/27/5 27/15/5
f 25/33/1 30/36/1 29/35/1
f 30/36/1 25/33/1 26/34/1
f 32/15/2 30/28/2 31/27/2
f 30/28/2 32/15/2 29/13/2
f 32/11/3 25/10/3 29/9/3
f 25/10/3 32/11/3 28/12/3
f 25/10/4 27/30/4 26/29/4
f 27/30/4 25/10/4 28/12/4
f 27/15/5 30/14/5 26/13/5
f 30/14/5 27/15/5 31/16/5
f 29/35/1 34/38/1 33/37/1
f 34/38/1 29/35/1 30/36/1
f 36/15/2 34/28/2 35/27/2
f 34/28/2 36/15/2 33/13/2
f 36/20/3 29/9/3 33/19/3
f 29/9/3 36/20/3 32/11/3
f 29/10/4 31/30/4 30/29/4
f 31/30/4 29/10/4 32/12/4
f 31/16/5 34/21/5 30/14/5
f 34/21/5 31/16/5 35/22/5
f 39/41/1 38/40/1 37/39/1
f 38/40/1 39/41/1 40/42/1
f 42/7/2 38/6/2 41/5/2
f 38/6/2 42/7/2 37/8/2
f 42/5/3 39/8/3 37/6/3
f 39/8/3 42/5/3 43/7/3
f 39/6/4 44/7/4 40/8/4
f 44/7/4 39/6/4 43/5/4
f 44/5/5 38/8/5 40/6/5
f 38/8/5 44/5/5 41/7/5
f 37/39/1 46/44/1 45/43/1
f 46/44/1 37/39/1 38/40/1
f 48/7/2 46/6/2 47/5/2
f 46/6/2 48/7/2 45/8/2
f 48/30/3 37/6/3 45/29/3
f 37/6/3 48/30/3 42/5/3
f 37/6/4 41/7/4 38/8/4
f 41/7/4 37/6/4 42/5/4
f 41/7/5 46/28/5 38/8/5
f 46/28/5 41/7/5 47/27/5
f 45/43/1 4/4/1 3/3/1
f 4/4/1 45/43/1 46/44/1
f 7/7/2 4/6/2 8/5/2
f 4/6/2 7/7/2 3/8/2
f 7/12/3 45/29/3 3/10/3
f 45/29/3 7/12/3 48/30/3
f 45/6/4 47/7/4 46/8/4
f 47/7/4 45/6/4 48/5/4
f 47/27/5 4/13/5 46/28/5
f 4/13/5 47/27/5 8/15/5

usemtl custom12(Clone)

f 49/45/5 5/16/5 8/15/5
f 5/16/5 49/45/5 50/46/5
f 49/3/6 51/2/6 50/1/6
f 51/2/6 49/3/6 52/4/6
f 51/48/2 5/5/2 50/47/2
f 5/5/2 51/48/2 6/7/2
f 51/49/3 7/12/3 6/11/3
f 7/12/3 51/49/3 52/50/3
f 7/5/4 49/48/4 8/7/4
f 49/48/4 7/5/4 52/47/4

usemtl custom13(Clone)

f 50/46/5 11/22/5 5/16/5
f 11/22/5 50/46/5 53/51/5
f 50/1/6 54/18/6 53/17/6
f 54/18/6 50/1/6 51/2/6
f 54/48/2 11/5/2 53/47/2
f 11/5/2 54/48/2 12/7/2
f 54/52/3 6/11/3 12/20/3
f 6/11/3 54/52/3 51/49/3
f 6/5/4 50/48/4 5/7/4
f 50/48/4 6/5/4 51/47/4

usemtl custom14(Clone)

f 55/47/5 17/7/5 20/5/5
f 17/7/5 55/47/5 56/48/5
f 55/55/6 57/54/6 56/53/6
f 57/54/6 55/55/6 58/56/6
f 57/45/2 17/27/2 56/57/2
f 17/27/2 57/45/2 18/15/2
f 57/47/3 19/7/3 18/5/3
f 19/7/3 57/47/3 58/48/3
f 19/12/4 55/58/4 20/30/4
f 55/58/4 19/12/4 58/50/4

usemtl custom15(Clone)

f 56/48/5 23/27/5 17/7/5
f 23/27/5 56/48/5 59/57/5
f 56/53/6 60/60/6 59/59/6
f 60/60/6 56/53/6 57/54/6
f 60/45/2 23/27/2 59/57/2
f 23/27/2 60/45/2 24/15/2
f 60/58/3 18/5/3 24/30/3
f 18/5/3 60/58/3 57/47/3
f 18/12/4 56/58/4 17/30/4
f 56/58/4 18/12/4 57/50/4

usemtl custom16(Clone)

f 59/57/5 27/15/5 23/27/5
f 27/15/5 59/57/5 61/45/5
f 59/59/6 62/62/6 61/61/6
f 62/62/6 59/59/6 60/60/6
f 62/45/2 27/27/2 61/57/2
f 27/27/2 62/45/2 28/15/2
f 62/50/3 24/30/3 28/12/3
f 24/30/3 62/50/3 60/58/3
f 24/12/4 59/58/4 23/30/4
f 59/58/4 24/12/4 60/50/4

usemtl custom17(Clone)

f 61/45/5 31/16/5 27/15/5
f 31/16/5 61/45/5 63/46/5
f 61/61/6 64/64/6 63/63/6
f 64/64/6 61/61/6 62/62/6
f 64/45/2 31/27/2 63/57/2
f 31/27/2 64/45/2 32/15/2
f 64/49/3 28/12/3 32/11/3
f 28/12/3 64/49/3 62/50/3
f 28/12/4 61/58/4 27/30/4
f 61/58/4 28/12/4 62/50/4

usemtl custom18(Clone)

f 63/46/5 35/22/5 31/16/5
f 35/22/5 63/46/5 65/51/5
f 63/63/6 66/66/6 65/65/6
f 66/66/6 63/63/6 64/64/6
f 66/45/2 35/27/2 65/57/2
f 35/27/2 66/45/2 36/15/2
f 66/52/3 32/11/3 36/20/3
f 32/11/3 66/52/3 64/49/3
f 32/12/4 63/58/4 31/30/4
f 63/58/4 32/12/4 64/50/4

usemtl custom8(Clone)

f 67/47/5 41/7/5 44/5/5
f 41/7/5 67/47/5 68/48/5
f 67/41/6 69/40/6 68/39/6
f 69/40/6 67/41/6 70/42/6
f 69/48/2 41/5/2 68/47/2
f 41/5/2 69/48/2 42/7/2
f 69/47/3 43/7/3 42/5/3
f 43/7/3 69/47/3 70/48/3
f 43/5/4 67/48/4 44/7/4
f 67/48/4 43/5/4 70/47/4

usemtl custom9(Clone)

f 68/48/5 47/27/5 41/7/5
f 47/27/5 68/48/5 71/57/5
f 68/39/6 72/44/6 71/43/6
f 72/44/6 68/39/6 69/40/6
f 72/48/2 47/5/2 71/47/2
f 47/5/2 72/48/2 48/7/2
f 72/58/3 42/5/3 48/30/3
f 42/5/3 72/58/3 69/47/3
f 42/5/4 68/48/4 41/7/4
f 68/48/4 42/5/4 69/47/4

usemtl custom10(Clone)

f 71/57/5 8/15/5 47/27/5
f 8/15/5 71/57/5 49/45/5
f 71/43/6 52/4/6 49/3/6
f 52/4/6 71/43/6 72/44/6
f 52/48/2 8/5/2 49/47/2
f 8/5/2 52/48/2 7/7/2
f 52/50/3 48/30/3 7/12/3
f 48/30/3 52/50/3 72/58/3
f 48/5/4 71/48/4 47/7/4
f 71/48/4 48/5/4 72/47/4

