# Created by Kenney (www.kenney.nl)

mtllib floor_white_stripes.mtl

g mergedBlocks

v 4.5 0 0.5
v 4.5 0 -0.5
v 3.5 0 0.5
v 3.5 0 -0.5
v 4.5 0.02 -0.5
v 4.5 0.02 0.5
v 3.5 0.02 0.5
v 3.5 0.02 -0.5
v 0.5 0 2.5
v 0.5 0 1.5
v -0.5 0 2.5
v -0.5 0 1.5
v 0.5 0.02 1.5
v 0.5 0.02 2.5
v -0.5 0.02 2.5
v -0.5 0.02 1.5
v 1.5 0 2.5
v 1.5 0 1.5
v 1.5 0.02 1.5
v 1.5 0.02 2.5
v 2.5 0 2.5
v 2.5 0 1.5
v 2.5 0.02 1.5
v 2.5 0.02 2.5
v 3.5 0 2.5
v 3.5 0 1.5
v 3.5 0.02 1.5
v 3.5 0.02 2.5
v 4.5 0 2.5
v 4.5 0 1.5
v 4.5 0.02 1.5
v 4.5 0.02 2.5
v 0.5 0 0.5
v 0.5 0 -0.5
v -0.5 0 0.5
v -0.5 0 -0.5
v 0.5 0.02 -0.5
v 0.5 0.02 0.5
v -0.5 0.02 0.5
v -0.5 0.02 -0.5
v 1.5 0 0.5
v 1.5 0 -0.5
v 1.5 0.02 -0.5
v 1.5 0.02 0.5
v 2.5 0 0.5
v 2.5 0 -0.5
v 2.5 0.02 -0.5
v 2.5 0.02 0.5
v 3.5 0.1 -0.5
v 4.5 0.1 -0.5
v 4.5 0.1 0.5
v 3.5 0.1 0.5
v -0.5 0.1 1.5
v 0.5 0.1 1.5
v 0.5 0.1 2.5
v -0.5 0.1 2.5
v 1.5 0.1 1.5
v 1.5 0.1 2.5
v 2.5 0.1 1.5
v 2.5 0.1 2.5
v 3.5 0.1 1.5
v 3.5 0.1 2.5
v 4.5 0.1 1.5
v 4.5 0.1 2.5
v -0.5 0.1 -0.5
v 0.5 0.1 -0.5
v 0.5 0.1 0.5
v -0.5 0.1 0.5
v 1.5 0.1 -0.5
v 1.5 0.1 0.5
v 2.5 0.1 -0.5
v 2.5 0.1 0.5

vn 0 -1 0
vn 1 0 0
vn 0 0 1
vn -1 0 0
vn 0 0 -1
vn 0 1 0

vt -4.5 -0.5
vt -4.5 0.5
vt -3.5 -0.5
vt -3.5 0.5
vt 0.5 0.02
vt 0.5 0
vt -0.5 0.02
vt -0.5 0
vt 4.5 0
vt 3.5 0
vt 4.5 0.02
vt 3.5 0.02
vt -3.5 0
vt -4.5 0
vt -3.5 0.02
vt -4.5 0.02
vt -0.5 -2.5
vt -0.5 -1.5
vt 0.5 -2.5
vt 0.5 -1.5
vt -1.5 0.02
vt -1.5 0
vt -2.5 0.02
vt -2.5 0
vt 1.5 0
vt 1.5 0.02
vt 2.5 0
vt 2.5 0.02
vt -1.5 -2.5
vt -1.5 -1.5
vt -2.5 -2.5
vt -2.5 -1.5
vt -3.5 -2.5
vt -3.5 -1.5
vt -4.5 -2.5
vt -4.5 -1.5
vt -0.5 -0.5
vt -0.5 0.5
vt 0.5 -0.5
vt 0.5 0.5
vt -1.5 -0.5
vt -1.5 0.5
vt -2.5 -0.5
vt -2.5 0.5
vt -3.5 0.1
vt -4.5 0.1
vt 0.5 0.1
vt -0.5 0.1
vt 4.5 0.1
vt 3.5 0.1
vt -0.5 1.5
vt -0.5 2.5
vt 0.5 1.5
vt 0.5 2.5
vt -1.5 0.1
vt -2.5 0.1
vt 1.5 0.1
vt 2.5 0.1
vt -1.5 1.5
vt -1.5 2.5
vt -2.5 1.5
vt -2.5 2.5
vt -3.5 1.5
vt -3.5 2.5
vt -4.5 1.5
vt -4.5 2.5

usemtl bricksDark(Clone)

f 3/3/1 2/2/1 1/1/1
f 2/2/1 3/3/1 4/4/1
f 6/7/2 2/6/2 5/5/2
f 2/6/2 6/7/2 1/8/2
f 6/11/3 3/10/3 1/9/3
f 3/10/3 6/11/3 7/12/3
f 3/6/4 8/7/4 4/8/4
f 8/7/4 3/6/4 7/5/4
f 8/15/5 2/14/5 4/13/5
f 2/14/5 8/15/5 5/16/5
f 11/19/1 10/18/1 9/17/1
f 10/18/1 11/19/1 12/20/1
f 14/23/2 10/22/2 13/21/2
f 10/22/2 14/23/2 9/24/2
f 14/5/3 11/8/3 9/6/3
f 11/8/3 14/5/3 15/7/3
f 11/27/4 16/26/4 12/25/4
f 16/26/4 11/27/4 15/28/4
f 16/5/5 10/8/5 12/6/5
f 10/8/5 16/5/5 13/7/5
f 9/17/1 18/30/1 17/29/1
f 18/30/1 9/17/1 10/18/1
f 20/23/2 18/22/2 19/21/2
f 18/22/2 20/23/2 17/24/2
f 20/26/3 9/6/3 17/25/3
f 9/6/3 20/26/3 14/5/3
f 9/27/4 13/26/4 10/25/4
f 13/26/4 9/27/4 14/28/4
f 13/7/5 18/22/5 10/8/5
f 18/22/5 13/7/5 19/21/5
f 17/29/1 22/32/1 21/31/1
f 22/32/1 17/29/1 18/30/1
f 24/23/2 22/22/2 23/21/2
f 22/22/2 24/23/2 21/24/2
f 24/28/3 17/25/3 21/27/3
f 17/25/3 24/28/3 20/26/3
f 17/27/4 19/26/4 18/25/4
f 19/26/4 17/27/4 20/28/4
f 19/21/5 22/24/5 18/22/5
f 22/24/5 19/21/5 23/23/5
f 21/31/1 26/34/1 25/33/1
f 26/34/1 21/31/1 22/32/1
f 28/23/2 26/22/2 27/21/2
f 26/22/2 28/23/2 25/24/2
f 28/12/3 21/27/3 25/10/3
f 21/27/3 28/12/3 24/28/3
f 21/27/4 23/26/4 22/25/4
f 23/26/4 21/27/4 24/28/4
f 23/23/5 26/13/5 22/24/5
f 26/13/5 23/23/5 27/15/5
f 25/33/1 30/36/1 29/35/1
f 30/36/1 25/33/1 26/34/1
f 32/23/2 30/22/2 31/21/2
f 30/22/2 32/23/2 29/24/2
f 32/11/3 25/10/3 29/9/3
f 25/10/3 32/11/3 28/12/3
f 25/27/4 27/26/4 26/25/4
f 27/26/4 25/27/4 28/28/4
f 27/15/5 30/14/5 26/13/5
f 30/14/5 27/15/5 31/16/5
f 35/39/1 34/38/1 33/37/1
f 34/38/1 35/39/1 36/40/1
f 38/7/2 34/6/2 37/5/2
f 34/6/2 38/7/2 33/8/2
f 38/5/3 35/8/3 33/6/3
f 35/8/3 38/5/3 39/7/3
f 35/6/4 40/7/4 36/8/4
f 40/7/4 35/6/4 39/5/4
f 40/5/5 34/8/5 36/6/5
f 34/8/5 40/5/5 37/7/5
f 33/37/1 42/42/1 41/41/1
f 42/42/1 33/37/1 34/38/1
f 44/7/2 42/6/2 43/5/2
f 42/6/2 44/7/2 41/8/2
f 44/26/3 33/6/3 41/25/3
f 33/6/3 44/26/3 38/5/3
f 33/6/4 37/7/4 34/8/4
f 37/7/4 33/6/4 38/5/4
f 37/7/5 42/22/5 34/8/5
f 42/22/5 37/7/5 43/21/5
f 41/41/1 46/44/1 45/43/1
f 46/44/1 41/41/1 42/42/1
f 48/7/2 46/6/2 47/5/2
f 46/6/2 48/7/2 45/8/2
f 48/28/3 41/25/3 45/27/3
f 41/25/3 48/28/3 44/26/3
f 41/6/4 43/7/4 42/8/4
f 43/7/4 41/6/4 44/5/4
f 43/21/5 46/24/5 42/22/5
f 46/24/5 43/21/5 47/23/5
f 45/43/1 4/4/1 3/3/1
f 4/4/1 45/43/1 46/44/1
f 7/7/2 4/6/2 8/5/2
f 4/6/2 7/7/2 3/8/2
f 7/12/3 45/27/3 3/10/3
f 45/27/3 7/12/3 48/28/3
f 45/6/4 47/7/4 46/8/4
f 47/7/4 45/6/4 48/5/4
f 47/23/5 4/13/5 46/24/5
f 4/13/5 47/23/5 8/15/5

usemtl custom13(Clone)

f 49/45/5 5/16/5 8/15/5
f 5/16/5 49/45/5 50/46/5
f 49/3/6 51/2/6 50/1/6
f 51/2/6 49/3/6 52/4/6
f 51/48/2 5/5/2 50/47/2
f 5/5/2 51/48/2 6/7/2
f 51/49/3 7/12/3 6/11/3
f 7/12/3 51/49/3 52/50/3
f 7/5/4 49/48/4 8/7/4
f 49/48/4 7/5/4 52/47/4

usemtl custom14(Clone)

f 53/47/5 13/7/5 16/5/5
f 13/7/5 53/47/5 54/48/5
f 53/53/6 55/52/6 54/51/6
f 55/52/6 53/53/6 56/54/6
f 55/56/2 13/21/2 54/55/2
f 13/21/2 55/56/2 14/23/2
f 55/47/3 15/7/3 14/5/3
f 15/7/3 55/47/3 56/48/3
f 15/28/4 53/57/4 16/26/4
f 53/57/4 15/28/4 56/58/4

usemtl custom15(Clone)

f 54/48/5 19/21/5 13/7/5
f 19/21/5 54/48/5 57/55/5
f 54/51/6 58/60/6 57/59/6
f 58/60/6 54/51/6 55/52/6
f 58/56/2 19/21/2 57/55/2
f 19/21/2 58/56/2 20/23/2
f 58/57/3 14/5/3 20/26/3
f 14/5/3 58/57/3 55/47/3
f 14/28/4 54/57/4 13/26/4
f 54/57/4 14/28/4 55/58/4

usemtl custom16(Clone)

f 57/55/5 23/23/5 19/21/5
f 23/23/5 57/55/5 59/56/5
f 57/59/6 60/62/6 59/61/6
f 60/62/6 57/59/6 58/60/6
f 60/56/2 23/21/2 59/55/2
f 23/21/2 60/56/2 24/23/2
f 60/58/3 20/26/3 24/28/3
f 20/26/3 60/58/3 58/57/3
f 20/28/4 57/57/4 19/26/4
f 57/57/4 20/28/4 58/58/4

usemtl custom17(Clone)

f 59/56/5 27/15/5 23/23/5
f 27/15/5 59/56/5 61/45/5
f 59/61/6 62/64/6 61/63/6
f 62/64/6 59/61/6 60/62/6
f 62/56/2 27/21/2 61/55/2
f 27/21/2 62/56/2 28/23/2
f 62/50/3 24/28/3 28/12/3
f 24/28/3 62/50/3 60/58/3
f 24/28/4 59/57/4 23/26/4
f 59/57/4 24/28/4 60/58/4

usemtl custom18(Clone)

f 61/45/5 31/16/5 27/15/5
f 31/16/5 61/45/5 63/46/5
f 61/63/6 64/66/6 63/65/6
f 64/66/6 61/63/6 62/64/6
f 64/56/2 31/21/2 63/55/2
f 31/21/2 64/56/2 32/23/2
f 64/49/3 28/12/3 32/11/3
f 28/12/3 64/49/3 62/50/3
f 28/28/4 61/57/4 27/26/4
f 61/57/4 28/28/4 62/58/4

usemtl custom8(Clone)

f 65/47/5 37/7/5 40/5/5
f 37/7/5 65/47/5 66/48/5
f 65/39/6 67/38/6 66/37/6
f 67/38/6 65/39/6 68/40/6
f 67/48/2 37/5/2 66/47/2
f 37/5/2 67/48/2 38/7/2
f 67/47/3 39/7/3 38/5/3
f 39/7/3 67/47/3 68/48/3
f 39/5/4 65/48/4 40/7/4
f 65/48/4 39/5/4 68/47/4

usemtl custom9(Clone)

f 66/48/5 43/21/5 37/7/5
f 43/21/5 66/48/5 69/55/5
f 66/37/6 70/42/6 69/41/6
f 70/42/6 66/37/6 67/38/6
f 70/48/2 43/5/2 69/47/2
f 43/5/2 70/48/2 44/7/2
f 70/57/3 38/5/3 44/26/3
f 38/5/3 70/57/3 67/47/3
f 38/5/4 66/48/4 37/7/4
f 66/48/4 38/5/4 67/47/4

usemtl custom10(Clone)

f 69/55/5 47/23/5 43/21/5
f 47/23/5 69/55/5 71/56/5
f 69/41/6 72/44/6 71/43/6
f 72/44/6 69/41/6 70/42/6
f 72/48/2 47/5/2 71/47/2
f 47/5/2 72/48/2 48/7/2
f 72/58/3 44/26/3 48/28/3
f 44/26/3 72/58/3 70/57/3
f 44/5/4 69/48/4 43/7/4
f 69/48/4 44/5/4 70/47/4

usemtl custom12(Clone)

f 71/56/5 8/15/5 47/23/5
f 8/15/5 71/56/5 49/45/5
f 71/43/6 52/4/6 49/3/6
f 52/4/6 71/43/6 72/44/6
f 52/48/2 8/5/2 49/47/2
f 8/5/2 52/48/2 7/7/2
f 52/50/3 48/28/3 7/12/3
f 48/28/3 52/50/3 72/58/3
f 48/5/4 71/48/4 47/7/4
f 71/48/4 48/5/4 72/47/4

