# Created by Kenney (www.kenney.nl)

mtllib arrow_down.mtl

g mergedBlocks

v -0.2 0.704 0.2
v -0.2 0.704 -0.2
v 0.2 0.704 0.2
v 0.2 0.704 -0.2
v 0.2 -0.09600002 -0.2
v 0.2 -0.09600002 0.2
v -0.2 -0.09600002 -0.2
v -0.2 -0.09600002 0.2
v -0.2 -0.096 0.5
v -0.2 -0.096 -0.5
v 0.2 -0.09600003 0.5
v 0.2 -0.09600003 -0.5
v -0.2 -0.704 -9.023893E-17
v 0.2 -0.704 -9.023893E-17

vn 8.742278E-08 1 0
vn 1 -8.742278E-08 0
vn 0 0 -1
vn 0 0 1
vn -1 8.742278E-08 0
vn -8.742278E-08 -1 0
vn -5.552856E-08 -0.6351728 0.77237
vn -5.552856E-08 -0.6351728 -0.77237

vt 0.2 0.2
vt 0.2 -0.2
vt -0.2 0.2
vt -0.2 -0.2
vt 0.2 0.704
vt 0.2 -0.09600003
vt -0.2 0.704
vt -0.2 -0.09600003
vt -0.2 0.704
vt 0.2 0.704
vt -0.2 -0.09600003
vt 0.2 -0.096
vt -0.2 0.704
vt 0.2 0.704
vt -0.2 -0.096
vt 0.2 -0.09600003
vt -0.2 -0.096
vt 0.2 -0.096
vt 0.2 0.2
vt 0.2 -0.2
vt -0.2 0.2
vt -0.2 -0.2
vt 0.2 0.5
vt 0.2 -0.5
vt -0.2 0.5
vt -0.2 -0.5
vt -9.023893E-17 -0.704
vt -0.5 -0.096
vt 0.5 -0.096
vt 0.5 -0.09600003
vt 9.023893E-17 -0.704
vt -0.5 -0.09600003
vt -0.2 -0.096
vt 0.2 -0.09600003
vt -0.2 -0.704
vt 0.2 -0.704
vt -0.2 -0.09600003
vt 0.2 -0.096
vt -0.2 -0.704
vt 0.2 -0.704

usemtl foliage(Clone)

f 3/3/1 2/2/1 1/1/1
f 2/2/1 3/3/1 4/4/1
f 3/7/2 5/6/2 4/5/2
f 5/6/2 3/7/2 6/8/2
f 5/11/3 2/10/3 4/9/3
f 2/10/3 5/11/3 7/12/3
f 8/15/4 3/14/4 1/13/4
f 3/14/4 8/15/4 6/16/4
f 8/18/5 2/7/5 7/17/5
f 2/7/5 8/18/5 1/5/5
f 5/21/6 8/20/6 7/19/6
f 8/20/6 5/21/6 6/22/6
f 11/25/1 10/24/1 9/23/1
f 10/24/1 11/25/1 12/26/1
f 9/29/5 10/28/5 13/27/5
f 11/32/2 14/31/2 12/30/2
f 13/35/7 11/34/7 9/33/7
f 11/34/7 13/35/7 14/36/7
f 14/39/8 10/38/8 12/37/8
f 10/38/8 14/39/8 13/40/8

