# Created by Kenney (www.kenney.nl)

mtllib hover_effect_cylinder.mtl

g mergedBlocks

v 0.4330127 0.7 -0.25
v 0.4330127 0 -0.25
v 0.4829629 0.7 -0.1294095
v 0.4829629 0 -0.1294095
v 0.5 0.7 0
v 0.5 0 0
v 0.4829629 0.7 0.1294095
v 0.4829629 0 0.1294095
v 0.4330127 0.7 0.25
v 0.4330127 0 0.25
v 0.3535534 0 -0.3535534
v 0.3535534 0.7 -0.3535534
v 0.3535534 0.7 0.3535534
v 0.3535534 0 0.3535534
v 0.25 0 0.4330127
v 0.25 0.7 0.4330127
v 0.1294095 0 0.4829629
v 0.1294095 0.7 0.4829629
v 0 0 0.5
v 0 0.7 0.5
v -0.1294095 0 0.4829629
v -0.1294095 0.7 0.4829629
v 0.25 0.7 -0.4330127
v 0.25 0 -0.4330127
v 0.1294095 0.7 -0.4829629
v 0.1294095 0 -0.4829629
v 0 0.7 -0.5
v 0 0 -0.5
v -0.1294095 0.7 -0.4829629
v -0.1294095 0 -0.4829629
v -0.25 0 0.4330127
v -0.25 0.7 0.4330127
v -0.3535534 0 0.3535534
v -0.3535534 0.7 0.3535534
v -0.4330127 0.7 0.25
v -0.4330127 0 0.25
v -0.4829629 0.7 0.1294095
v -0.4829629 0 0.1294095
v -0.5 0.7 0
v -0.5 0 0
v -0.4829629 0.7 -0.1294095
v -0.4829629 0 -0.1294095
v -0.4330127 0.7 -0.25
v -0.4330127 0 -0.25
v -0.3535534 0.7 -0.3535534
v -0.3535534 0 -0.3535534
v -0.25 0 -0.4330127
v -0.25 0.7 -0.4330127
v 0.2965902 -3.790035E-16 0
v 0.2864842 -3.790035E-16 0.07676321
v 0.2568547 -3.790035E-16 0.1482951
v 0.209721 -3.790035E-16 0.209721
v 0.1482951 -3.790035E-16 0.2568547
v 0.07676321 -3.790035E-16 0.2864842
v -3.609557E-16 -3.790035E-16 0.2965902
v -0.07676321 -3.790035E-16 0.2864842
v -0.1482951 -3.790035E-16 0.2568547
v -0.209721 -3.790035E-16 0.209721
v -0.2568547 -3.790035E-16 0.1482951
v -0.2864842 -3.790035E-16 0.07676321
v -0.2965902 -3.790035E-16 7.219114E-16
v -0.2864842 -3.790035E-16 -0.07676321
v -0.2568547 -3.790035E-16 -0.1482951
v -0.209721 -3.790035E-16 -0.209721
v -0.1482951 -3.790035E-16 -0.2568547
v -0.07676321 -3.790035E-16 -0.2864842
v 1.804779E-16 -3.790035E-16 -0.2965902
v 0.07676321 -3.790035E-16 -0.2864842
v 0.1482951 -3.790035E-16 -0.2568547
v 0.209721 -3.790035E-16 -0.209721
v 0.2568547 -3.790035E-16 -0.1482951
v 0.2864842 -3.790035E-16 -0.07676321
v 0.2965902 0.7 0
v 0.2864842 0.7 -0.07676321
v 0.2568547 0.7 -0.1482951
v 0.209721 0.7 -0.209721
v 0.1482951 0.7 -0.2568547
v 0.07676321 0.7 -0.2864842
v 1.804779E-16 0.7 -0.2965902
v -0.07676321 0.7 -0.2864842
v -0.1482951 0.7 -0.2568547
v -0.209721 0.7 -0.209721
v -0.2568547 0.7 -0.1482951
v -0.2864842 0.7 -0.07676321
v -0.2965902 0.7 7.219114E-16
v -0.2864842 0.7 0.07676321
v -0.2568547 0.7 0.1482951
v -0.209721 0.7 0.209721
v -0.1482951 0.7 0.2568547
v -0.07676321 0.7 0.2864842
v -3.609557E-16 0.7 0.2965902
v 0.07676321 0.7 0.2864842
v 0.1482951 0.7 0.2568547
v 0.209721 0.7 0.209721
v 0.2568547 0.7 0.1482951
v 0.2864842 0.7 0.07676321

vn 0.8660254 0 -0.5
vn 0.9659259 0 -0.2588191
vn 1 0 0
vn 0.9659259 0 0.2588191
vn 0.8660254 0 0.5
vn 0.7071068 0 -0.7071068
vn 0.7071068 0 0.7071068
vn 0.5 0 0.8660254
vn 0.2588191 0 0.9659259
vn 0 0 1
vn -0.2588191 0 0.9659259
vn 0.5 0 -0.8660254
vn 0.2588191 0 -0.9659259
vn 0 0 -1
vn -0.2588191 0 -0.9659259
vn -0.5 0 0.8660254
vn -0.7071068 0 0.7071068
vn -0.8660254 0 0.5
vn -0.9659259 0 0.2588191
vn -1 0 0
vn -0.9659259 0 -0.2588191
vn -0.8660254 0 -0.5
vn -0.7071068 0 -0.7071068
vn -0.5 0 -0.8660254
vn 0 -1 0
vn 0 1 0

vt 0.25 0.7
vt 0.25 0
vt 0.1294095 0.7
vt 0.1294095 0
vt 0 0.7
vt 0 0
vt -0.1294095 0.7
vt -0.1294095 0
vt -0.25 0.7
vt -0.25 0
vt 0.3535534 0
vt 0.3535534 0.7
vt -0.3535534 0.7
vt -0.3535534 0
vt -0.3535534 -0.3535534
vt -0.2965902 0
vt -0.25 -0.4330127
vt -0.2864842 -0.07676321
vt -0.2568547 -0.1482951
vt -0.209721 -0.209721
vt -0.1294095 -0.4829629
vt -0.1482951 -0.2568547
vt -0.07676321 -0.2864842
vt 0 -0.5
vt 3.609557E-16 -0.2965902
vt 0.1294095 -0.4829629
vt 0.07676321 -0.2864842
vt 0.1482951 -0.2568547
vt 0.25 -0.4330127
vt 0.209721 -0.209721
vt 0.2568547 -0.1482951
vt 0.3535534 -0.3535534
vt 0.2864842 -0.07676321
vt 0.2965902 -7.219114E-16
vt 0.3535534 0.3535534
vt 0.2864842 0.07676321
vt 0.2568547 0.1482951
vt 0.25 0.4330127
vt 0.209721 0.209721
vt 0.1482951 0.2568547
vt 0.1294095 0.4829629
vt 0.07676321 0.2864842
vt 0 0.5
vt -1.804779E-16 0.2965902
vt -0.07676321 0.2864842
vt -0.1294095 0.4829629
vt -0.1482951 0.2568547
vt -0.209721 0.209721
vt -0.25 0.4330127
vt -0.2568547 0.1482951
vt -0.2864842 0.07676321
vt -0.3535534 0.3535534
vt -0.4330127 -0.25
vt -0.4330127 0.25
vt -0.4829629 -0.1294095
vt -0.4829629 0.1294095
vt -0.5 0
vt 0.4330127 -0.25
vt 0.4330127 0.25
vt 0.4829629 -0.1294095
vt 0.4829629 0.1294095
vt 0.5 0
vt -1.804779E-16 -0.2965902
vt 0.2965902 7.219114E-16
vt 3.609557E-16 0.2965902
vt -0.1482951 -3.790035E-16
vt -0.209721 -3.790035E-16
vt -0.1482951 0.7
vt -0.209721 0.7
vt 0.209721 0.7
vt 0.209721 -3.790035E-16
vt 0.1482951 0.7
vt 0.1482951 -3.790035E-16
vt 0.07676321 0.7
vt 0.07676321 -3.790035E-16
vt 0 -3.790035E-16
vt -0.07676321 0.7
vt -0.07676321 -3.790035E-16
vt 1.804779E-16 -3.790035E-16
vt 1.804779E-16 0.7
vt -7.219114E-16 0.7
vt -7.219114E-16 -3.790035E-16
vt 3.609557E-16 -3.790035E-16
vt 3.609557E-16 0.7

usemtl foliage(Clone)

f 3/3/2 2/2/1 1/1/1
f 2/2/1 3/3/2 4/4/2
f 5/5/3 4/4/2 3/3/2
f 4/4/2 5/5/3 6/6/3
f 7/7/4 6/6/3 5/5/3
f 6/6/3 7/7/4 8/8/4
f 9/9/5 8/8/4 7/7/4
f 8/8/4 9/9/5 10/10/5
f 11/11/6 1/1/1 2/2/1
f 1/1/1 11/11/6 12/12/6
f 13/13/7 10/10/5 9/9/5
f 10/10/5 13/13/7 14/14/7
f 13/12/7 15/2/8 14/11/7
f 15/2/8 13/12/7 16/1/8
f 16/1/8 17/4/9 15/2/8
f 17/4/9 16/1/8 18/3/9
f 18/3/9 19/6/10 17/4/9
f 19/6/10 18/3/9 20/5/10
f 20/5/10 21/8/11 19/6/10
f 21/8/11 20/5/10 22/7/11
f 11/14/6 23/9/12 12/13/6
f 23/9/12 11/14/6 24/10/12
f 24/10/12 25/7/13 23/9/12
f 25/7/13 24/10/12 26/8/13
f 26/8/13 27/5/14 25/7/13
f 27/5/14 26/8/13 28/6/14
f 28/6/14 29/3/15 27/5/14
f 29/3/15 28/6/14 30/4/15
f 22/7/11 31/10/16 21/8/11
f 31/10/16 22/7/11 32/9/16
f 32/9/16 33/14/17 31/10/16
f 33/14/17 32/9/16 34/13/17
f 35/1/18 33/11/17 34/12/17
f 33/11/17 35/1/18 36/2/18
f 37/3/19 36/2/18 35/1/18
f 36/2/18 37/3/19 38/4/19
f 39/5/20 38/4/19 37/3/19
f 38/4/19 39/5/20 40/6/20
f 41/7/21 40/6/20 39/5/20
f 40/6/20 41/7/21 42/8/21
f 43/9/22 42/8/21 41/7/21
f 42/8/21 43/9/22 44/10/22
f 45/13/23 44/10/22 43/9/22
f 44/10/22 45/13/23 46/14/23
f 45/12/23 47/2/24 46/11/23
f 47/2/24 45/12/23 48/1/24
f 48/1/24 30/4/15 47/2/24
f 30/4/15 48/1/24 29/3/15
f 15/17/25 49/16/25 14/15/25
f 49/16/25 15/17/25 50/18/25
f 50/18/25 15/17/25 51/19/25
f 51/19/25 15/17/25 52/20/25
f 52/20/25 15/17/25 17/21/25
f 52/20/25 17/21/25 53/22/25
f 53/22/25 17/21/25 54/23/25
f 54/23/25 17/21/25 19/24/25
f 54/23/25 19/24/25 55/25/25
f 55/25/25 19/24/25 21/26/25
f 55/25/25 21/26/25 56/27/25
f 56/27/25 21/26/25 57/28/25
f 57/28/25 21/26/25 31/29/25
f 57/28/25 31/29/25 58/30/25
f 58/30/25 31/29/25 59/31/25
f 59/31/25 31/29/25 33/32/25
f 59/31/25 33/32/25 60/33/25
f 60/33/25 33/32/25 61/34/25
f 46/35/25 61/34/25 33/32/25
f 46/35/25 62/36/25 61/34/25
f 46/35/25 63/37/25 62/36/25
f 47/38/25 63/37/25 46/35/25
f 47/38/25 64/39/25 63/37/25
f 47/38/25 65/40/25 64/39/25
f 30/41/25 65/40/25 47/38/25
f 30/41/25 66/42/25 65/40/25
f 28/43/25 66/42/25 30/41/25
f 28/43/25 67/44/25 66/42/25
f 28/43/25 68/45/25 67/44/25
f 26/46/25 68/45/25 28/43/25
f 26/46/25 69/47/25 68/45/25
f 26/46/25 70/48/25 69/47/25
f 24/49/25 70/48/25 26/46/25
f 24/49/25 71/50/25 70/48/25
f 24/49/25 72/51/25 71/50/25
f 24/49/25 49/16/25 72/51/25
f 24/49/25 14/15/25 49/16/25
f 11/52/25 14/15/25 24/49/25
f 11/52/25 10/53/25 14/15/25
f 2/54/25 10/53/25 11/52/25
f 2/54/25 8/55/25 10/53/25
f 4/56/25 8/55/25 2/54/25
f 8/55/25 4/56/25 6/57/25
f 46/35/25 33/32/25 36/58/25
f 46/35/25 36/58/25 44/59/25
f 44/59/25 36/58/25 38/60/25
f 44/59/25 38/60/25 42/61/25
f 42/61/25 38/60/25 40/62/25
f 3/55/26 7/56/26 5/57/26
f 7/56/26 3/55/26 1/53/26
f 7/56/26 1/53/26 9/54/26
f 9/54/26 1/53/26 12/15/26
f 9/54/26 12/15/26 13/52/26
f 13/52/26 12/15/26 23/17/26
f 13/52/26 23/17/26 73/16/26
f 73/16/26 23/17/26 74/18/26
f 74/18/26 23/17/26 75/19/26
f 75/19/26 23/17/26 76/20/26
f 76/20/26 23/17/26 25/21/26
f 76/20/26 25/21/26 77/22/26
f 77/22/26 25/21/26 78/23/26
f 78/23/26 25/21/26 27/24/26
f 78/23/26 27/24/26 79/63/26
f 79/63/26 27/24/26 80/27/26
f 80/27/26 27/24/26 29/26/26
f 80/27/26 29/26/26 81/28/26
f 81/28/26 29/26/26 48/29/26
f 81/28/26 48/29/26 82/30/26
f 82/30/26 48/29/26 83/31/26
f 83/31/26 48/29/26 45/32/26
f 83/31/26 45/32/26 84/33/26
f 84/33/26 45/32/26 85/64/26
f 34/35/26 85/64/26 45/32/26
f 34/35/26 86/36/26 85/64/26
f 34/35/26 87/37/26 86/36/26
f 32/38/26 87/37/26 34/35/26
f 32/38/26 88/39/26 87/37/26
f 32/38/26 89/40/26 88/39/26
f 22/41/26 89/40/26 32/38/26
f 22/41/26 90/42/26 89/40/26
f 22/41/26 91/65/26 90/42/26
f 20/43/26 91/65/26 22/41/26
f 20/43/26 92/45/26 91/65/26
f 18/46/26 92/45/26 20/43/26
f 18/46/26 93/47/26 92/45/26
f 18/46/26 94/48/26 93/47/26
f 16/49/26 94/48/26 18/46/26
f 16/49/26 95/50/26 94/48/26
f 16/49/26 96/51/26 95/50/26
f 16/49/26 73/16/26 96/51/26
f 73/16/26 16/49/26 13/52/26
f 34/35/26 45/32/26 43/58/26
f 34/35/26 43/58/26 35/59/26
f 35/59/26 43/58/26 41/60/26
f 35/59/26 41/60/26 37/61/26
f 37/61/26 41/60/26 39/62/26
f 93/68/24 52/67/23 53/66/24
f 52/67/23 93/68/24 94/69/23
f 95/72/22 52/71/23 94/70/23
f 52/71/23 95/72/22 51/73/22
f 96/74/21 51/73/22 95/72/22
f 51/73/22 96/74/21 50/75/21
f 73/5/20 50/75/21 96/74/21
f 50/75/21 73/5/20 49/76/20
f 74/77/19 49/76/20 73/5/20
f 49/76/20 74/77/19 72/78/19
f 75/68/18 72/78/19 74/77/19
f 72/78/19 75/68/18 71/66/18
f 76/69/17 71/66/18 75/68/18
f 71/66/18 76/69/17 70/67/17
f 76/70/17 69/73/16 70/71/17
f 69/73/16 76/70/17 77/72/16
f 77/72/16 68/75/11 69/73/16
f 68/75/11 77/72/16 78/74/11
f 78/74/11 67/79/10 68/75/11
f 67/79/10 78/74/11 79/80/10
f 79/80/10 66/78/9 67/79/10
f 66/78/9 79/80/10 80/77/9
f 80/77/9 65/66/8 66/78/9
f 65/66/8 80/77/9 81/68/8
f 81/68/8 64/67/7 65/66/8
f 64/67/7 81/68/8 82/69/7
f 83/72/5 64/71/7 82/70/7
f 64/71/7 83/72/5 63/73/5
f 84/74/4 63/73/5 83/72/5
f 63/73/5 84/74/4 62/75/4
f 85/81/3 62/75/4 84/74/4
f 62/75/4 85/81/3 61/82/3
f 86/77/2 61/82/3 85/81/3
f 61/82/3 86/77/2 60/78/2
f 87/68/1 60/78/2 86/77/2
f 60/78/2 87/68/1 59/66/1
f 88/69/6 59/66/1 87/68/1
f 59/66/1 88/69/6 58/67/6
f 88/70/6 57/73/12 58/71/6
f 57/73/12 88/70/6 89/72/12
f 89/72/12 56/75/13 57/73/12
f 56/75/13 89/72/12 90/74/13
f 90/74/13 55/83/14 56/75/13
f 55/83/14 90/74/13 91/84/14
f 91/84/14 54/78/15 55/83/14
f 54/78/15 91/84/14 92/77/15
f 92/77/15 53/66/24 54/78/15
f 53/66/24 92/77/15 93/68/24

